<svg width="13" height="14" viewBox="0 0 13 14" fill="none" xmlns="http://www.w3.org/2000/svg">
<path d="M7.03173 3.01692C6.96209 3.01692 6.90625 2.96013 6.90625 2.89087V0.126051C6.90625 0.0567923 6.96209 0 7.03173 0C7.10136 0 7.1572 0.0567923 7.1572 0.126051V2.89087C7.1572 2.96013 7.10136 3.01692 7.03173 3.01692Z" fill="#41B6E6"/>
<path d="M8.18833 3.05982L8.90051 0.389199C8.91844 0.322017 8.87776 0.252759 8.81157 0.235444C8.74401 0.217436 8.67645 0.257607 8.65783 0.324788L7.94565 2.99541C7.92772 3.06259 7.9684 3.13185 8.03458 3.14917C8.04561 3.15194 8.05595 3.15332 8.06699 3.15332C8.12283 3.15332 8.17247 3.11662 8.18833 3.05982Z" fill="#41B6E6"/>
<path d="M9.13688 3.49132L10.5137 1.09704C10.5482 1.03679 10.5275 0.959909 10.4675 0.924587C10.4075 0.890651 10.331 0.910043 10.2958 0.970991L8.91902 3.36527C8.88455 3.42553 8.90523 3.5024 8.96521 3.53773C8.98452 3.54881 9.00658 3.55435 9.02795 3.55435C9.07139 3.55435 9.11344 3.53149 9.13688 3.49132Z" fill="#41B6E6"/>
<path d="M9.94471 4.15559L11.8903 2.20041C11.9392 2.15124 11.9386 2.07159 11.8896 2.02242C11.8427 1.97324 11.7614 1.97324 11.7124 2.02242L9.76684 3.97759C9.71789 4.02677 9.71858 4.10642 9.76753 4.15559C9.79097 4.18052 9.82337 4.1923 9.85578 4.1923C9.88818 4.1923 9.92058 4.17983 9.94471 4.15559Z" fill="#41B6E6"/>
<path d="M10.5555 5.00672L12.9389 3.62432C12.9989 3.58969 13.0196 3.51212 12.9851 3.45186C12.9486 3.39161 12.8727 3.37083 12.8134 3.40546L10.4301 4.78787C10.3701 4.82249 10.3494 4.90007 10.3839 4.96032C10.4073 5.00049 10.4494 5.02335 10.4928 5.02335C10.5142 5.02335 10.5362 5.01781 10.5555 5.00672Z" fill="#41B6E6"/>
<path d="M0.544747 8.77996L3.20252 8.06452C3.26939 8.04651 3.30938 7.97725 3.29145 7.91076C3.27284 7.84289 3.20045 7.80203 3.13771 7.82142L0.47994 8.53686C0.413065 8.55487 0.373077 8.62413 0.391003 8.69062C0.40686 8.74741 0.456499 8.78412 0.512343 8.78412C0.523374 8.78412 0.533716 8.78273 0.544747 8.77996Z" fill="#41B6E6"/>
<path d="M3.16012 6.90443C3.16012 6.83514 3.10427 6.77832 3.03464 6.77832H0.281727C0.212094 6.77832 0.15625 6.83514 0.15625 6.90443C0.15625 6.97371 0.212094 7.03053 0.281727 7.03053H3.03464C3.10427 7.03053 3.16012 6.97371 3.16012 6.90443Z" fill="#41B6E6"/>
<path d="M3.29141 5.89813C3.30933 5.83095 3.26866 5.76169 3.20247 5.74438L0.544702 5.02893C0.479895 5.01231 0.410262 5.0504 0.390958 5.11828C0.373033 5.18546 0.413709 5.25472 0.479895 5.27203L3.13766 5.98748C3.1487 5.99025 3.15904 5.99163 3.17007 5.99163C3.22591 5.99163 3.27555 5.95493 3.29141 5.89813Z" fill="#41B6E6"/>
<path d="M3.68041 4.96029C3.71489 4.90003 3.6942 4.82316 3.63422 4.78783L1.25085 3.40542C1.19087 3.3708 1.11434 3.39088 1.07918 3.45183C1.04471 3.51208 1.06539 3.58896 1.12537 3.62428L3.50875 5.00669C3.52805 5.01777 3.55011 5.02331 3.57148 5.02331C3.61492 5.02331 3.65697 5.00046 3.68041 4.96029Z" fill="#41B6E6"/>
<path d="M4.29586 4.15559C4.34481 4.10642 4.3455 4.02677 4.29655 3.97759L2.35096 2.02242C2.30201 1.97324 2.22066 1.97324 2.17378 2.02242C2.12483 2.07159 2.12414 2.15124 2.17309 2.20041L4.11867 4.15559C4.14349 4.18052 4.17521 4.1923 4.20761 4.1923C4.24001 4.1923 4.27242 4.17983 4.29586 4.15559Z" fill="#41B6E6"/>
<path d="M5.09502 3.53773C5.155 3.5031 5.17568 3.42622 5.14121 3.36527L3.76579 0.970991C3.72925 0.910043 3.65341 0.890651 3.59412 0.924587C3.53414 0.959217 3.51346 1.03609 3.54793 1.09704L4.92335 3.49132C4.94679 3.53149 4.98885 3.55435 5.03228 3.55435C5.05365 3.55435 5.07572 3.54881 5.09502 3.53773Z" fill="#41B6E6"/>
<path d="M6.03037 3.1492C6.09724 3.1312 6.13723 3.06194 6.11931 2.99545L5.40712 0.324825C5.38851 0.256951 5.31681 0.215396 5.25338 0.235481C5.1865 0.253488 5.14651 0.322747 5.16444 0.389236L5.87663 3.05986C5.89248 3.11665 5.94212 3.15336 5.99797 3.15336C6.009 3.15336 6.01934 3.15197 6.03037 3.1492Z" fill="#41B6E6"/>
<path d="M8.06546 3.21429C8.0496 3.21429 8.03306 3.21221 8.0172 3.20805C7.91792 3.18173 7.85932 3.07923 7.88621 2.9795L8.25436 1.5964C8.28056 1.49736 8.38191 1.43641 8.48188 1.46481C8.58116 1.49112 8.63976 1.59363 8.61287 1.69336L8.24471 3.07646C8.22196 3.15957 8.1475 3.21498 8.06546 3.21498V3.21429ZM9.18924 3.5218L9.74492 2.55494C9.79594 2.4656 9.7656 2.35201 9.67736 2.30076C9.58842 2.24882 9.47466 2.27998 9.42365 2.36933L8.86796 3.33618C8.81694 3.42553 8.84728 3.53911 8.93553 3.59036C8.96517 3.60768 8.99757 3.6153 9.0286 3.6153C9.09203 3.6153 9.15477 3.58205 9.18924 3.5218ZM9.97312 4.18391L10.5798 3.57512C10.6446 3.51002 10.6446 3.40475 10.5805 3.33964C10.5157 3.27454 10.4109 3.27454 10.3461 3.33964L9.73941 3.94843C9.6746 4.01353 9.6746 4.11881 9.73872 4.18391C9.77112 4.21646 9.81387 4.23239 9.85661 4.23239C9.89936 4.23239 9.94072 4.21646 9.97312 4.18391ZM10.5688 5.03303L11.1279 4.70889C11.2024 4.66526 11.2279 4.57038 11.1845 4.49558C11.1424 4.42147 11.0473 4.39446 10.9728 4.43878L10.4137 4.76292C10.3392 4.80655 10.3137 4.90143 10.3571 4.97623C10.3854 5.0261 10.4378 5.0538 10.4916 5.0538C10.5178 5.0538 10.5447 5.04757 10.5688 5.03303ZM12.0469 11.9437C12.1821 11.8079 12.1821 11.5877 12.0469 11.4513L10.1014 9.49607C9.96623 9.36032 9.74699 9.36032 9.61117 9.49607C9.47604 9.63182 9.47604 9.85206 9.61117 9.9885L11.5568 11.9437C11.6243 12.0116 11.7133 12.0455 11.8015 12.0455C11.8898 12.0455 11.9787 12.0116 12.0463 11.9437H12.0469ZM10.5736 13.0671C10.7343 12.9743 10.7894 12.7672 10.6963 12.6058L9.31954 10.2115C9.22647 10.0488 9.01757 9.99404 8.86038 10.0882C8.69974 10.181 8.64458 10.3881 8.73766 10.5495L10.1145 12.9438C10.1765 13.0518 10.2896 13.1128 10.4054 13.1128C10.4633 13.1128 10.5212 13.0982 10.5736 13.0678V13.0671ZM8.86176 13.7687C9.03618 13.7216 9.13891 13.5422 9.09203 13.3676L8.37984 10.697C8.33503 10.5225 8.1606 10.4207 7.98135 10.465C7.80692 10.5121 7.7042 10.6915 7.75108 10.866L8.46326 13.5366C8.50118 13.6835 8.63355 13.7797 8.77765 13.7797C8.80522 13.7797 8.83349 13.7756 8.86176 13.7687ZM7.34707 13.6828V10.918C7.34707 10.7427 7.20505 10.6008 7.03062 10.6008C6.85619 10.6008 6.71417 10.7427 6.71417 10.918V13.6828C6.71417 13.858 6.85619 14 7.03062 14C7.20505 14 7.34707 13.858 7.34707 13.6828ZM5.58074 13.5318L6.29292 10.8612C6.33636 10.697 6.23915 10.5287 6.07644 10.4844C5.91511 10.4408 5.7462 10.5377 5.70139 10.7012L4.9892 13.3718C4.94577 13.5359 5.04298 13.7042 5.20569 13.7486C5.23188 13.7562 5.25877 13.7597 5.28497 13.7597C5.4201 13.7597 5.54351 13.6689 5.58074 13.5318ZM3.91438 12.9237L5.2898 10.5294C5.37115 10.3874 5.3222 10.2053 5.18087 10.1236C5.03884 10.0418 4.85821 10.0889 4.77617 10.2323L3.40075 12.6266C3.31939 12.7686 3.36834 12.9507 3.50968 13.0324C3.55656 13.0594 3.60689 13.0726 3.65791 13.0726C3.75994 13.0726 3.85991 13.0193 3.91438 12.9237ZM2.46243 11.9007L4.40801 9.94556C4.5197 9.83336 4.5197 9.65121 4.40801 9.53901C4.29632 9.42681 4.11638 9.42681 4.00469 9.53901L2.05911 11.4942C1.94742 11.6064 1.94742 11.7885 2.05911 11.9007C2.11495 11.9568 2.18734 11.9852 2.26111 11.9852C2.33488 11.9852 2.40727 11.9568 2.46312 11.9007H2.46243ZM1.32624 10.5336L3.70961 9.15116C3.84061 9.07428 3.8868 8.90529 3.81027 8.77232C3.73374 8.63934 3.56552 8.59432 3.43315 8.6712L1.04978 10.0536C0.918782 10.1305 0.87259 10.2995 0.949118 10.4325C1.00014 10.5211 1.09321 10.571 1.18835 10.571C1.23523 10.571 1.28211 10.5592 1.32624 10.5343V10.5336ZM0.582338 8.91637L3.24011 8.20093C3.38213 8.16284 3.46624 8.0167 3.42832 7.87403C3.3904 7.73135 3.24149 7.64478 3.10291 7.68495L0.445141 8.40039C0.303118 8.43849 0.219007 8.58462 0.256925 8.7273C0.28795 8.84711 0.396191 8.92538 0.513395 8.92538C0.536146 8.92538 0.559587 8.92261 0.581649 8.91568L0.582338 8.91637ZM3.29251 6.9044C3.29251 6.76242 3.17806 6.64745 3.03673 6.64745H0.283124C0.14179 6.64745 0.0273438 6.76242 0.0273438 6.9044C0.0273438 7.04638 0.14179 7.16135 0.283124 7.16135H3.03604C3.17737 7.16135 3.29182 7.04638 3.29182 6.9044H3.29251ZM3.40902 5.92924C3.44418 5.79764 3.36696 5.6619 3.23528 5.62657L0.577512 4.91113C0.439626 4.8765 0.310701 4.95476 0.276919 5.08566C0.241758 5.21725 0.318974 5.353 0.450656 5.38832L3.10843 6.10377C3.1298 6.10931 3.15186 6.11208 3.17185 6.11208C3.28078 6.11208 3.37937 6.03936 3.40902 5.92924ZM3.77511 5.01571C3.84061 4.90213 3.80131 4.75738 3.68893 4.69158L1.30487 3.30986C1.19111 3.24407 1.04702 3.28285 0.983589 3.39644C0.918093 3.51002 0.957391 3.65477 1.06977 3.72057L3.45383 5.10228C3.49106 5.12375 3.53105 5.13345 3.57173 5.13345C3.65308 5.13345 3.73236 5.0912 3.7758 5.01502L3.77511 5.01571ZM4.36595 4.22616C4.4542 4.13751 4.4542 3.99414 4.36595 3.90549L2.5424 2.07359C2.45415 1.98494 2.31144 1.98494 2.22319 2.07359C2.13494 2.16224 2.13494 2.30561 2.22319 2.39426L4.04675 4.22616C4.09087 4.27048 4.14878 4.29265 4.2067 4.29265C4.26461 4.29265 4.32252 4.27048 4.36664 4.22616H4.36595ZM5.14088 3.6153C5.2436 3.55573 5.27877 3.42276 5.22016 3.31956L4.04123 1.26811C3.98056 1.16422 3.84819 1.1289 3.74615 1.18916C3.64343 1.24872 3.60827 1.3817 3.66687 1.48489L4.8458 3.53634C4.88579 3.6056 4.95818 3.64438 5.03264 3.64438C5.06987 3.64438 5.10641 3.63469 5.14019 3.6153H5.14088ZM6.05024 3.22675C6.15986 3.19697 6.22536 3.08339 6.1964 2.97327L5.66278 0.969604C5.63313 0.859483 5.52076 0.795072 5.41114 0.823468C5.30152 0.853249 5.23602 0.966834 5.26498 1.07696L5.7986 3.08062C5.82342 3.17273 5.90615 3.23368 5.99716 3.23368C6.01508 3.23368 6.03232 3.23091 6.05024 3.22675ZM7.22711 2.89015V1.13167C7.22711 1.02293 7.13886 0.934975 7.03131 0.934975C6.92376 0.934975 6.83551 1.02224 6.83551 1.13167V2.89015C6.83551 2.99889 6.92376 3.08685 7.03131 3.08685C7.13886 3.08685 7.22711 2.99958 7.22711 2.89015Z" fill="#41B6E6"/>
</svg>
