<svg width="177" height="175" viewBox="0 0 177 175" fill="none" xmlns="http://www.w3.org/2000/svg">
<g clip-path="url(#clip0_11_2642)">
<path d="M49.3698 19.82C48.8498 19.82 48.3498 19.55 48.0698 19.07L44.8798 13.55C44.4698 12.83 44.7098 11.92 45.4298 11.5C46.1498 11.08 47.0598 11.33 47.4798 12.05L50.6698 17.57C51.0798 18.29 50.8398 19.2 50.1198 19.62C49.8798 19.76 49.6298 19.82 49.3698 19.82Z" fill="#C5C6C8"/>
<path d="M50.0698 21.04C49.5498 21.04 49.0498 20.77 48.7698 20.29L48.0698 19.08C47.6598 18.36 47.8998 17.45 48.6198 17.03C49.3398 16.61 50.2598 16.86 50.6698 17.58L51.3698 18.79C51.7798 19.51 51.5398 20.42 50.8198 20.84C50.5798 20.98 50.3298 21.04 50.0698 21.04Z" fill="#C5C6C8"/>
<path d="M69.7498 17.88C69.0898 17.88 68.4798 17.44 68.2998 16.77L65.0798 4.76001C64.8698 3.96001 65.3398 3.14001 66.1398 2.92001C66.9398 2.71001 67.7598 3.18001 67.9798 3.98001L71.1998 15.99C71.4098 16.79 70.9398 17.61 70.1398 17.83C70.0098 17.86 69.8798 17.88 69.7498 17.88Z" fill="#C5C6C8"/>
<path d="M81.5699 19.16C81.2399 19.16 80.8999 19.05 80.6299 18.83C79.9899 18.31 79.8899 17.36 80.4099 16.72L86.8799 8.75V1.5C86.8799 0.67 87.5499 0 88.3799 0C89.2099 0 89.8799 0.67 89.8799 1.5V9.81L82.7399 18.61C82.4399 18.98 82.0099 19.16 81.5699 19.16Z" fill="#C5C6C8"/>
<path d="M68.5398 13.38C67.8798 13.38 67.2698 12.94 67.0898 12.27L65.0798 4.76001C64.8698 3.96001 65.3398 3.14001 66.1398 2.92001C66.9398 2.71001 67.7598 3.18001 67.9798 3.98001L69.9898 11.49C70.1998 12.29 69.7298 13.11 68.9298 13.33C68.7998 13.36 68.6698 13.38 68.5398 13.38Z" fill="#C5C6C8"/>
<path d="M50.0698 21.04C49.5498 21.04 49.0498 20.77 48.7698 20.29L48.0698 19.08C47.6598 18.36 47.8998 17.45 48.6198 17.03C49.3398 16.61 50.2598 16.86 50.6698 17.58L51.3698 18.79C51.7798 19.51 51.5398 20.42 50.8198 20.84C50.5798 20.98 50.3298 21.04 50.0698 21.04Z" fill="#C5C6C8"/>
<path d="M49.3698 19.82C48.8498 19.82 48.3498 19.55 48.0698 19.07L44.8798 13.55C44.4698 12.83 44.7098 11.92 45.4298 11.5C46.1498 11.08 47.0598 11.33 47.4798 12.05L50.6698 17.57C51.0798 18.29 50.8398 19.2 50.1198 19.62C49.8798 19.76 49.6298 19.82 49.3698 19.82Z" fill="#C5C6C8"/>
<path d="M164.96 87.37C164.63 87.37 164.29 87.26 164.02 87.04L145 71.61C144.36 71.09 144.26 70.14 144.78 69.5C145.3 68.86 146.25 68.76 146.89 69.28L165.91 84.71C166.55 85.23 166.65 86.18 166.13 86.82C165.83 87.19 165.4 87.37 164.96 87.37Z" fill="#C5C6C8"/>
<path d="M142.61 72.83C141.95 72.83 141.34 72.39 141.16 71.72C140.95 70.92 141.42 70.1 142.22 69.88L145.55 68.99C146.35 68.78 147.17 69.25 147.39 70.05C147.6 70.85 147.13 71.67 146.33 71.89L143 72.78C142.87 72.81 142.74 72.83 142.61 72.83Z" fill="#C5C6C8"/>
<path d="M162.35 67.54C161.69 67.54 161.08 67.1 160.9 66.43C160.69 65.63 161.16 64.81 161.96 64.59L169.47 62.58C170.27 62.37 171.09 62.84 171.31 63.64C171.52 64.44 171.05 65.26 170.25 65.48L162.74 67.49C162.61 67.52 162.48 67.54 162.35 67.54Z" fill="#C5C6C8"/>
<path d="M162.35 67.54C162.15 67.54 161.94 67.5 161.74 67.41L140.08 57.74L137.62 59.16C136.9 59.58 135.99 59.33 135.57 58.61C135.16 57.89 135.4 56.98 136.12 56.56L139.91 54.37L162.97 64.66C163.73 65 164.07 65.88 163.73 66.64C163.48 67.2 162.93 67.53 162.36 67.53L162.35 67.54Z" fill="#C5C6C8"/>
<path d="M154.7 49.07C154.18 49.07 153.68 48.8 153.4 48.32C152.99 47.6 153.23 46.69 153.95 46.27L160.68 42.38C161.4 41.96 162.32 42.21 162.73 42.93C163.14 43.65 162.9 44.56 162.18 44.98L155.45 48.87C155.21 49.01 154.96 49.07 154.7 49.07Z" fill="#C5C6C8"/>
<path d="M117.89 36.23C117.64 36.23 117.38 36.17 117.14 36.03C116.42 35.61 116.18 34.7 116.59 33.98L117.25 32.84L142.37 30.22C143.19 30.15 143.93 30.73 144.02 31.56C144.11 32.38 143.51 33.12 142.68 33.21L119.07 35.67C118.78 36.04 118.34 36.24 117.89 36.24V36.23Z" fill="#C5C6C8"/>
<path d="M126.66 21.04C126.41 21.04 126.15 20.98 125.91 20.84C125.19 20.43 124.95 19.51 125.36 18.79L129.25 12.06C129.66 11.34 130.58 11.1 131.3 11.51C132.02 11.92 132.26 12.84 131.85 13.56L127.96 20.29C127.68 20.77 127.18 21.04 126.66 21.04Z" fill="#C5C6C8"/>
<path d="M108.19 13.38C108.06 13.38 107.93 13.36 107.8 13.33C107 13.12 106.53 12.29 106.74 11.49L108.75 3.98001C108.96 3.18001 109.79 2.71001 110.59 2.92001C111.39 3.13001 111.86 3.96001 111.65 4.76001L109.64 12.27C109.46 12.94 108.85 13.38 108.19 13.38Z" fill="#C5C6C8"/>
<path d="M95.0598 22.9C94.5998 22.9 94.1398 22.69 93.8398 22.28C93.3498 21.61 93.4998 20.67 94.1698 20.19L107.3 10.67C107.97 10.18 108.91 10.33 109.39 11C109.88 11.67 109.73 12.61 109.06 13.09L95.9298 22.61C95.6598 22.8 95.3598 22.9 95.0498 22.9H95.0598Z" fill="#C5C6C8"/>
<path d="M108.19 13.38C108.06 13.38 107.93 13.36 107.8 13.33C107 13.12 106.53 12.29 106.74 11.49L108.75 3.98001C108.96 3.18001 109.79 2.71001 110.59 2.92001C111.39 3.13001 111.86 3.96001 111.65 4.76001L109.64 12.27C109.46 12.94 108.85 13.38 108.19 13.38Z" fill="#C5C6C8"/>
<path d="M104.5 27.18C104.37 27.18 104.24 27.16 104.11 27.13C103.31 26.92 102.84 26.09 103.05 25.29L106.75 11.49C106.96 10.69 107.79 10.22 108.59 10.43C109.39 10.64 109.86 11.47 109.65 12.27L105.95 26.07C105.77 26.74 105.16 27.18 104.5 27.18Z" fill="#C5C6C8"/>
<path d="M117.89 36.23C117.64 36.23 117.38 36.17 117.14 36.03C116.42 35.62 116.18 34.7 116.59 33.98L129.25 12.06C129.66 11.34 130.58 11.1 131.3 11.51C132.02 11.92 132.26 12.84 131.85 13.56L119.19 35.48C118.91 35.96 118.41 36.23 117.89 36.23Z" fill="#C5C6C8"/>
<path d="M130.52 45.22C130.14 45.22 129.75 45.07 129.46 44.78C128.87 44.19 128.87 43.24 129.46 42.66L141.47 30.65C142.06 30.06 143.01 30.06 143.59 30.65C144.17 31.24 144.18 32.19 143.59 32.77L131.58 44.78C131.29 45.07 130.9 45.22 130.52 45.22Z" fill="#C5C6C8"/>
<path d="M128.63 47.1C128.25 47.1 127.86 46.95 127.57 46.66C126.98 46.07 126.98 45.12 127.57 44.54L129.45 42.66C130.04 42.07 130.99 42.07 131.57 42.66C132.16 43.25 132.16 44.2 131.57 44.78L129.69 46.66C129.4 46.95 129.01 47.1 128.63 47.1Z" fill="#C5C6C8"/>
<path d="M142.53 33.21C142.15 33.21 141.76 33.06 141.47 32.77C140.88 32.18 140.88 31.23 141.47 30.65L146.97 25.15C147.55 24.56 148.51 24.56 149.09 25.15C149.67 25.74 149.68 26.69 149.09 27.27L143.59 32.77C143.3 33.06 142.91 33.21 142.53 33.21Z" fill="#C5C6C8"/>
<path d="M136.87 59.37C136.35 59.37 135.85 59.1 135.57 58.62C135.16 57.9 135.4 56.99 136.12 56.57L160.69 42.39C161.41 41.97 162.33 42.22 162.74 42.94C163.15 43.66 162.91 44.57 162.19 44.99L137.62 59.17C137.38 59.31 137.13 59.37 136.87 59.37Z" fill="#C5C6C8"/>
<path d="M145.95 71.94C145.29 71.94 144.68 71.5 144.5 70.83C144.29 70.03 144.76 69.21 145.56 68.99L161.97 64.59C162.77 64.38 163.59 64.85 163.81 65.65C164.02 66.45 163.55 67.27 162.75 67.49L146.34 71.89C146.21 71.92 146.08 71.94 145.95 71.94Z" fill="#C5C6C8"/>
<path d="M142.61 72.83C141.95 72.83 141.34 72.39 141.16 71.72C140.95 70.92 141.42 70.1 142.22 69.88L145.55 68.99C146.35 68.78 147.17 69.25 147.39 70.05C147.6 70.85 147.13 71.67 146.33 71.89L143 72.78C142.87 72.81 142.74 72.83 142.61 72.83Z" fill="#C5C6C8"/>
<path d="M162.35 67.54C161.69 67.54 161.08 67.1 160.9 66.43C160.69 65.63 161.16 64.81 161.96 64.59L169.47 62.58C170.27 62.37 171.09 62.84 171.31 63.64C171.52 64.44 171.05 65.26 170.25 65.48L162.74 67.49C162.61 67.52 162.48 67.54 162.35 67.54Z" fill="#C5C6C8"/>
<path d="M117.89 36.23C117.8 36.23 117.7 36.21 117.6 36.2C117.51 36.18 117.41 36.15 117.32 36.11C117.23 36.07 117.14 36.03 117.06 35.97C116.98 35.92 116.9 35.85 116.83 35.78C116.76 35.72 116.7 35.64 116.65 35.56C116.59 35.48 116.55 35.39 116.51 35.3C116.47 35.21 116.44 35.11 116.42 35.02C116.4 34.92 116.39 34.82 116.39 34.73C116.39 34.33 116.55 33.94 116.83 33.66C116.9 33.59 116.98 33.53 117.06 33.48C117.14 33.42 117.23 33.38 117.32 33.34C117.41 33.3 117.51 33.27 117.6 33.25C117.8 33.21 117.99 33.21 118.19 33.25C118.28 33.27 118.38 33.3 118.47 33.34C118.56 33.38 118.65 33.42 118.73 33.48C118.81 33.53 118.89 33.59 118.95 33.66C119.23 33.94 119.39 34.33 119.39 34.73C119.39 34.82 119.39 34.92 119.36 35.02C119.35 35.11 119.32 35.21 119.28 35.3C119.24 35.39 119.2 35.48 119.14 35.56C119.09 35.64 119.02 35.72 118.95 35.78C118.68 36.06 118.29 36.23 117.89 36.23Z" fill="#C5C6C8"/>
<path d="M49.3696 19.82C48.9796 19.82 48.5896 19.66 48.3096 19.38C48.0296 19.1 47.8696 18.71 47.8696 18.32C47.8696 18.22 47.8796 18.12 47.8996 18.03C47.9196 17.93 47.9496 17.83 47.9896 17.74C48.0196 17.65 48.0696 17.57 48.1196 17.49C48.1796 17.4 48.2396 17.33 48.3096 17.26C48.3796 17.19 48.4496 17.12 48.5396 17.07C48.6196 17.02 48.7096 16.97 48.7996 16.93C48.8896 16.9 48.9796 16.87 49.0796 16.85C49.5696 16.75 50.0796 16.91 50.4296 17.26C50.7096 17.54 50.8696 17.92 50.8696 18.32C50.8696 18.41 50.8696 18.51 50.8396 18.61C50.8196 18.71 50.7896 18.8 50.7596 18.89C50.7196 18.98 50.6696 19.07 50.6196 19.15C50.5596 19.23 50.4996 19.31 50.4296 19.38C50.3596 19.45 50.2896 19.51 50.1996 19.57C50.1196 19.62 50.0296 19.67 49.9396 19.7C49.8496 19.74 49.7596 19.77 49.6596 19.79C49.5696 19.81 49.4696 19.82 49.3696 19.82Z" fill="#C5C6C8"/>
<path d="M142.62 72.83C142.22 72.83 141.83 72.67 141.55 72.39C141.27 72.11 141.11 71.72 141.11 71.33C141.11 70.94 141.27 70.55 141.55 70.27C142.11 69.71 143.12 69.71 143.67 70.27C143.95 70.55 144.11 70.94 144.11 71.33C144.11 71.72 143.95 72.11 143.67 72.39C143.4 72.67 143.01 72.83 142.62 72.83Z" fill="#C5C6C8"/>
<path d="M136.87 59.36C136.47 59.36 136.09 59.21 135.81 58.92C135.52 58.64 135.37 58.27 135.37 57.87C135.37 57.47 135.52 57.08 135.81 56.8C136.37 56.24 137.36 56.24 137.93 56.8C138.21 57.08 138.37 57.46 138.37 57.87C138.37 58.28 138.21 58.64 137.93 58.92C137.64 59.21 137.27 59.36 136.87 59.36Z" fill="#C5C6C8"/>
<mask id="mask0_11_2642" style="mask-type:luminance" maskUnits="userSpaceOnUse" x="-1" y="12" width="178" height="163">
<path d="M88.3702 174.24C86.1602 174.24 84.3702 172.45 84.3702 170.24V153.32L72.0402 162.26L70.3902 168.4C69.9002 170.23 68.1902 171.45 66.3902 171.36C66.1502 171.36 65.9202 171.32 65.6802 171.27C65.6802 171.27 65.6802 171.27 65.6702 171.27C65.6102 171.26 65.5602 171.24 65.5002 171.23C65.0902 171.12 64.7102 170.95 64.3702 170.73C64.3702 170.73 64.3702 170.73 64.3702 170.72H64.3502V170.71C62.9702 169.78 62.2602 168.05 62.7202 166.35L69.1202 142.48C69.1202 142.48 69.1202 142.45 69.1302 142.44L71.6602 133.01C71.7502 132.69 71.8702 132.39 72.0202 132.11C72.6902 130.9 73.9402 130.13 75.3102 130.06C75.7202 130.04 76.1402 130.08 76.5602 130.19C77.9202 130.55 78.9302 131.58 79.3302 132.83C79.3302 132.83 79.3302 132.84 79.3302 132.85C79.3302 132.85 79.3402 132.88 79.3502 132.9V132.91C79.3502 132.91 79.3502 132.91 79.3502 132.92C79.3502 132.92 79.3502 132.92 79.3502 132.93C79.3502 132.93 79.3502 132.93 79.3502 132.94C79.3502 132.94 79.3602 132.99 79.3702 133.01C79.3702 133.01 79.3702 133.03 79.3702 133.04C79.3702 133.06 79.3702 133.07 79.3802 133.09C79.3802 133.09 79.3802 133.1 79.3802 133.11C79.3802 133.11 79.3802 133.11 79.3802 133.12C79.3802 133.12 79.3802 133.12 79.3802 133.13C79.3802 133.13 79.3802 133.14 79.3802 133.15C79.3802 133.15 79.3802 133.15 79.3802 133.16C79.3802 133.16 79.3802 133.18 79.3802 133.19C79.3802 133.19 79.3802 133.21 79.3802 133.22C79.4502 133.74 79.4302 134.28 79.2802 134.82L75.2802 149.76L84.3202 143.2V115.2L74.3602 105.24L55.9302 123.67C55.9302 123.67 55.9102 123.69 55.9002 123.7L44.9602 134.64L56.0702 133.48L59.9302 126.8C59.9902 126.69 60.0602 126.59 60.1302 126.49C60.7602 125.6 61.7102 125.04 62.7202 124.87C63.6102 124.73 64.5402 124.87 65.3802 125.35C65.7002 125.53 65.9802 125.76 66.2302 126.01C66.2302 126.01 66.2402 126.02 66.2502 126.03C67.2902 127.14 67.6302 128.78 67.0502 130.23C67.0502 130.23 67.0502 130.25 67.0402 130.26C67.0402 130.26 67.0402 130.26 67.0402 130.27C66.9702 130.43 66.9002 130.58 66.8102 130.73L53.4602 153.85C53.4602 153.85 53.4502 153.87 53.4402 153.89L49.5502 160.62C49.4502 160.79 49.3502 160.95 49.2302 161.09C48.5502 161.96 47.5502 162.48 46.5102 162.59C45.8602 162.66 45.1802 162.57 44.5502 162.3C44.4002 162.24 44.2502 162.16 44.1102 162.08C42.2002 160.98 41.5402 158.53 42.6502 156.62L51.1102 141.97L35.9602 143.55L31.4702 148.04C31.3202 148.19 31.1502 148.33 30.9802 148.45C30.2902 148.95 29.4802 149.2 28.6702 149.21H28.6202C27.6202 149.21 26.6302 148.83 25.8602 148.08C25.8602 148.08 25.8602 148.08 25.8602 148.07C25.8602 148.07 25.8502 148.06 25.8402 148.05C25.0702 147.27 24.6802 146.25 24.6802 145.23C24.6802 144.2 25.0702 143.18 25.8502 142.4L43.3302 124.92C43.3302 124.92 43.3502 124.9 43.3602 124.89L68.7302 99.52L58.7702 89.56H23.0502L31.7202 96.6L39.1802 94.6C39.8302 94.43 40.4802 94.42 41.0902 94.56C42.4902 94.88 43.6802 95.94 44.0802 97.43C44.2102 97.9 44.2402 98.38 44.2002 98.84C44.0502 100.45 42.9102 101.88 41.2502 102.32L26.3102 106.32L36.5102 110.87L43.2002 107.01C44.9202 106.01 47.0802 106.45 48.3002 107.94C48.4302 108.1 48.5502 108.28 48.6602 108.47C48.8802 108.85 49.0302 109.24 49.1102 109.64C49.1102 109.64 49.1102 109.65 49.1102 109.66C49.1102 109.66 49.1102 109.66 49.1102 109.67C49.1102 109.67 49.1102 109.68 49.1102 109.69C49.3602 110.95 48.9802 112.27 48.1002 113.21C48.1002 113.21 48.1002 113.21 48.0902 113.22C47.8302 113.49 47.5302 113.73 47.2002 113.92L24.0802 127.27C24.0802 127.27 24.0602 127.28 24.0402 127.29L17.3102 131.18C16.2002 131.82 14.9202 131.87 13.8202 131.43C13.3802 131.26 12.9802 131 12.6202 130.68C12.6202 130.68 12.6202 130.68 12.6102 130.67C12.3202 130.4 12.0602 130.09 11.8502 129.72C11.3202 128.8 11.2002 127.76 11.4202 126.81C11.4202 126.81 11.4202 126.81 11.4202 126.8C11.4202 126.8 11.4202 126.8 11.4202 126.79C11.4202 126.77 11.4302 126.75 11.4402 126.73C11.4402 126.73 11.4502 126.69 11.4602 126.67C11.6102 126.18 11.8502 125.71 12.1802 125.3C12.1802 125.3 12.2202 125.26 12.2302 125.23C12.2302 125.23 12.2302 125.23 12.2402 125.22C12.5302 124.89 12.8702 124.6 13.2702 124.36L27.9202 115.9L14.0202 109.69L7.8802 111.33C7.4502 111.45 7.0202 111.49 6.6002 111.46C5.0702 111.37 3.6902 110.39 3.1102 108.92C3.0602 108.79 3.0102 108.65 2.9802 108.51C2.8702 108.1 2.8302 107.7 2.8502 107.3V107.29C2.9002 106.27 3.3502 105.3 4.0702 104.6C4.5402 104.16 5.1202 103.82 5.7902 103.64L6.0102 103.58L22.1302 99.26L10.3102 89.67H3.9502C1.7402 89.67 -0.0498047 87.88 -0.0498047 85.67C-0.0498047 83.46 1.7402 81.67 3.9502 81.67H58.7502L68.7102 71.71L31.4002 34.56C31.4002 34.56 31.3902 34.55 31.3802 34.54L25.8802 29.04C25.1002 28.26 24.7102 27.24 24.7102 26.22C24.7102 25.19 25.1002 24.17 25.8702 23.39C25.8702 23.39 25.8702 23.39 25.8702 23.38L25.8902 23.36C26.6602 22.63 27.6502 22.27 28.6402 22.27C29.6602 22.27 30.6902 22.66 31.4702 23.44L43.4302 35.4L46.0402 19C46.0402 18.94 46.0602 18.88 46.0702 18.81C46.1802 18.27 46.3902 17.77 46.6902 17.33C47.0002 16.88 47.4002 16.49 47.8902 16.19C48.2102 15.99 48.5502 15.84 48.9102 15.74C49.0302 15.71 49.1502 15.68 49.2802 15.66H49.3002C49.3002 15.66 49.3002 15.66 49.3102 15.66C49.3102 15.66 49.3102 15.66 49.3302 15.66C49.3302 15.66 49.3402 15.66 49.3502 15.66C49.3502 15.66 49.3502 15.66 49.3702 15.66C49.8202 15.6 50.2602 15.62 50.7002 15.7C51.2402 15.81 51.7402 16.02 52.1702 16.32C52.6102 16.62 53.0002 17.01 53.3002 17.49C53.3302 17.54 53.3702 17.6 53.4002 17.65L66.7502 40.78C67.2202 41.59 67.3702 42.49 67.2502 43.35C67.2502 43.35 67.2502 43.35 67.2502 43.36C67.0702 44.52 66.3902 45.6 65.2902 46.23C63.7302 47.13 61.8102 46.86 60.5602 45.69C60.2802 45.43 60.0302 45.12 59.8302 44.77L54.9502 36.32C54.9502 36.32 54.9502 36.3 54.9402 36.29L52.1002 31.37L50.3402 42.4L55.8002 47.86C55.8002 47.86 55.8302 47.89 55.8402 47.9L74.2602 66.32L84.2202 56.36V24.22L92.5702 18.17C94.3602 16.87 96.8602 17.27 98.1602 19.06C99.4602 20.85 99.0602 23.35 97.2702 24.65L92.2302 28.31V56.31L102.19 66.27L125.67 42.79C127.23 41.23 129.77 41.23 131.33 42.79C132.89 44.35 132.89 46.88 131.33 48.45L107.85 71.93L117.81 81.89H172.61C174.82 81.89 176.61 83.68 176.61 85.89C176.61 88.1 174.82 89.89 172.61 89.89H117.81L107.85 99.85L145.19 137.18C145.19 137.18 145.22 137.21 145.23 137.22L150.73 142.72C152.26 144.28 152.25 146.79 150.7 148.34C150.46 148.58 150.2 148.78 149.93 148.95C149.44 149.24 148.9 149.42 148.35 149.49C147.18 149.63 145.95 149.25 145.05 148.35L133.09 136.39L130.69 151.43L133.87 156.93C134.97 158.84 134.32 161.29 132.41 162.39C132.26 162.47 132.11 162.55 131.96 162.61C131.33 162.87 130.67 162.97 130.02 162.9C128.97 162.8 127.97 162.28 127.28 161.41C127.16 161.26 127.06 161.1 126.96 160.94L114.61 139.55C114.61 139.55 114.59 139.51 114.58 139.5L109.7 131.05C109.61 130.9 109.54 130.74 109.47 130.59C109.47 130.59 109.47 130.59 109.47 130.58C109.47 130.58 109.47 130.56 109.46 130.55C108.89 129.1 109.22 127.46 110.26 126.35C110.26 126.35 110.27 126.34 110.28 126.33C110.53 126.08 110.81 125.86 111.13 125.67C111.97 125.18 112.91 125.04 113.8 125.19C114.81 125.36 115.75 125.92 116.38 126.8C116.45 126.9 116.52 127 116.58 127.11L116.61 127.17L124.31 140.51L126.07 129.48L120.61 124.02C120.61 124.02 120.59 124 120.58 123.99L102.14 105.55L92.1802 115.51V151.26L99.2202 142.59L97.2202 135.13C97.0802 134.59 97.0502 134.05 97.1202 133.53C97.1202 133.53 97.1202 133.51 97.1202 133.5C97.1202 133.5 97.1202 133.48 97.1202 133.47C97.1202 133.47 97.1202 133.47 97.1202 133.46C97.1202 133.46 97.1202 133.45 97.1202 133.44C97.1202 133.44 97.1202 133.44 97.1202 133.43C97.1202 133.43 97.1202 133.43 97.1202 133.42C97.1202 133.42 97.1202 133.42 97.1202 133.41C97.1202 133.41 97.1202 133.4 97.1202 133.39C97.1202 133.37 97.1202 133.36 97.1302 133.34C97.1302 133.34 97.1302 133.32 97.1302 133.31C97.1302 133.31 97.1402 133.26 97.1502 133.24C97.1502 133.24 97.1502 133.24 97.1502 133.23C97.1502 133.23 97.1502 133.23 97.1502 133.22C97.1502 133.22 97.1602 133.18 97.1702 133.16C97.1702 133.16 97.1702 133.15 97.1702 133.14C97.5702 131.89 98.5802 130.87 99.9402 130.5C100.36 130.39 100.78 130.35 101.19 130.37C102.55 130.44 103.8 131.22 104.47 132.42C104.63 132.7 104.75 133 104.84 133.33L111.75 159.12C111.75 159.12 111.75 159.15 111.76 159.16L113.77 166.67C114.22 168.37 113.52 170.1 112.14 171.03H112.12V171.05C111.78 171.28 111.4 171.45 110.99 171.56C110.94 171.57 110.88 171.59 110.83 171.6C110.58 171.65 110.34 171.69 110.09 171.69C108.26 171.73 106.59 170.56 106.1 168.73L101.72 152.39L92.1302 164.22V170.57C92.1302 172.78 90.3402 174.57 88.1302 174.57L88.3702 174.24ZM66.1102 85.87L88.3702 108.13L110.63 85.87L99.5402 74.78C99.5402 74.78 99.5102 74.75 99.5002 74.74C99.4902 74.73 99.4802 74.71 99.4602 74.7L88.3702 63.61L77.2802 74.7C77.2802 74.7 77.2602 74.73 77.2402 74.74C77.2202 74.75 77.2102 74.77 77.2002 74.78L66.1102 85.87ZM161.43 132.05C160.75 132.05 160.06 131.88 159.43 131.51L138.03 119.15C138.03 119.15 138 119.14 137.99 119.13L129.54 114.25C129.2 114.05 128.9 113.82 128.65 113.55C128.65 113.55 128.65 113.55 128.64 113.54C127.75 112.6 127.38 111.28 127.63 110.02C127.63 110.02 127.63 110.01 127.63 110C127.63 110 127.63 110 127.63 109.99C127.63 109.99 127.63 109.98 127.63 109.97C127.71 109.57 127.86 109.17 128.08 108.8C128.19 108.62 128.3 108.45 128.43 108.29C129.65 106.79 131.81 106.35 133.54 107.35L146.93 115.08L142.94 104.65L135.48 102.65C133.82 102.21 132.69 100.78 132.53 99.17C132.49 98.71 132.53 98.23 132.65 97.76C133.05 96.27 134.23 95.21 135.64 94.89C136.25 94.75 136.9 94.76 137.55 94.93L170.89 103.86C171.56 104.04 172.14 104.38 172.61 104.82C173.34 105.52 173.78 106.48 173.83 107.51V107.52C173.85 107.92 173.81 108.33 173.7 108.73C173.66 108.87 173.62 109.01 173.56 109.15C172.98 110.63 171.59 111.6 170.04 111.68H170.03C169.62 111.7 169.21 111.66 168.8 111.55L161.29 109.54C161.29 109.54 161.26 109.54 161.25 109.53L152.46 107.17L157.9 121.39L163.4 124.57C163.8 124.8 164.15 125.09 164.43 125.43C164.43 125.43 164.43 125.43 164.44 125.44C164.46 125.46 164.48 125.48 164.49 125.51C164.82 125.92 165.07 126.38 165.21 126.88C165.21 126.88 165.22 126.92 165.23 126.94C165.23 126.94 165.24 126.98 165.25 127C165.25 127 165.25 127 165.25 127.01C165.47 127.97 165.35 129.01 164.82 129.92C164.61 130.29 164.34 130.61 164.04 130.89C164.04 130.89 164.03 130.9 164.02 130.91C163.67 131.22 163.28 131.46 162.85 131.63C162.38 131.82 161.87 131.92 161.36 131.92L161.43 132.05ZM40.2202 76.96C39.8802 76.96 39.5302 76.92 39.1802 76.82L5.8402 67.89C5.1702 67.71 4.5902 67.37 4.1202 66.93C3.3902 66.23 2.9502 65.27 2.9002 64.24V64.23C2.8802 63.83 2.9202 63.42 3.0302 63.02C3.0702 62.88 3.1102 62.74 3.1702 62.6C3.7502 61.12 5.1402 60.15 6.6902 60.07C6.6902 60.07 6.6902 60.07 6.7002 60.07C7.1102 60.05 7.5202 60.09 7.9302 60.2L15.4402 62.21C15.4402 62.21 15.4702 62.21 15.4802 62.22L24.2702 64.58L18.8302 50.36L13.3302 47.18C12.9302 46.95 12.5802 46.66 12.3002 46.32C12.3002 46.32 12.3002 46.32 12.2902 46.31C12.2702 46.29 12.2502 46.27 12.2402 46.24C11.9102 45.83 11.6602 45.37 11.5202 44.87C11.5202 44.87 11.5102 44.83 11.5002 44.81C11.5002 44.81 11.4902 44.77 11.4802 44.75C11.4802 44.75 11.4802 44.75 11.4802 44.74C11.2602 43.78 11.3802 42.74 11.9102 41.83C12.1202 41.46 12.3902 41.14 12.6902 40.86C12.6902 40.86 12.7002 40.85 12.7102 40.84C13.0602 40.53 13.4502 40.29 13.8802 40.12C14.9802 39.68 16.2602 39.73 17.3702 40.37L38.7702 52.73C38.7702 52.73 38.8002 52.74 38.8102 52.75L47.2602 57.63C47.6002 57.83 47.9002 58.06 48.1502 58.33C48.1502 58.33 48.1502 58.33 48.1602 58.34C49.0502 59.28 49.4202 60.6 49.1702 61.86C49.1702 61.86 49.1702 61.87 49.1702 61.88C49.1702 61.88 49.1702 61.88 49.1702 61.89C49.1702 61.89 49.1702 61.9 49.1702 61.91C49.0902 62.31 48.9402 62.71 48.7202 63.08C48.6102 63.26 48.5002 63.43 48.3702 63.59C47.1502 65.09 44.9902 65.53 43.2602 64.53L29.8702 56.8L33.8602 67.23L41.3202 69.23C42.9802 69.67 44.1102 71.1 44.2702 72.71C44.3102 73.17 44.2702 73.65 44.1502 74.12C43.7502 75.61 42.5702 76.67 41.1602 76.99C40.8802 77.05 40.5802 77.09 40.2902 77.09L40.2202 76.96ZM136.52 76.96C134.75 76.96 133.14 75.78 132.66 73.99C132.09 71.86 133.35 69.66 135.49 69.09L141.58 67.46C143.71 66.88 145.91 68.15 146.48 70.29C147.05 72.43 145.79 74.62 143.65 75.19L137.56 76.82C137.21 76.91 136.87 76.96 136.52 76.96ZM131.55 64.94C130.17 64.94 128.82 64.22 128.08 62.94C126.98 61.03 127.63 58.58 129.54 57.48L134.87 54.4C136.78 53.29 139.23 53.95 140.33 55.86C141.43 57.77 140.78 60.22 138.87 61.32L133.54 64.4C132.91 64.76 132.22 64.94 131.54 64.94H131.55ZM113.3 46.69C112.62 46.69 111.93 46.52 111.3 46.15C109.39 45.05 108.73 42.6 109.84 40.69L114.72 32.24C115.82 30.33 118.27 29.67 120.18 30.78C122.09 31.88 122.75 34.33 121.64 36.24L116.76 44.69C116.02 45.97 114.67 46.69 113.29 46.69H113.3ZM75.4702 41.71C73.7002 41.71 72.0902 40.53 71.6102 38.74L65.8902 17.4C65.3202 15.27 66.5802 13.07 68.7202 12.5C70.8502 11.92 73.0502 13.19 73.6202 15.33L74.7802 19.66L78.4702 15.12C79.8602 13.41 82.3802 13.14 84.1002 14.53C85.8202 15.92 86.0802 18.44 84.6902 20.16L77.3502 29.21L79.3502 36.67C79.4502 37.04 79.4902 37.41 79.4902 37.78C79.4602 39.25 78.6302 40.6 77.3102 41.27C77.0702 41.39 76.8002 41.5 76.5302 41.57C76.1802 41.66 75.8402 41.71 75.4902 41.71H75.4702ZM101.28 41.71C100.94 41.71 100.59 41.67 100.24 41.57C98.1102 41 96.8402 38.81 97.4102 36.67L100.63 24.63C101.2 22.5 103.4 21.23 105.53 21.8C107.66 22.37 108.93 24.56 108.36 26.7L105.14 38.74C104.66 40.53 103.04 41.71 101.28 41.71Z" fill="white"/>
</mask>
<g mask="url(#mask0_11_2642)">
<path d="M96.9701 21.24H96.8301V41.71H96.9701V21.24Z" fill="#2038B8"/>
<path d="M98.2102 21.24H96.9702V41.71H98.2102V21.24Z" fill="#2237B8"/>
<path d="M99.45 21.24H98.21V41.71H99.45V21.24Z" fill="#2337B7"/>
<path d="M100.69 21.24H99.4502V41.71H100.69V21.24Z" fill="#2436B7"/>
<path d="M101.93 21.24H100.69V41.71H101.93V21.24Z" fill="#2536B7"/>
<path d="M103.17 21.24H101.93V41.71H103.17V21.24Z" fill="#2535B7"/>
<path d="M104.4 21.24H103.16V41.71H104.4V21.24Z" fill="#2635B7"/>
<path d="M105.64 21.24H104.4V41.71H105.64V21.24Z" fill="#2734B7"/>
<path d="M106.88 21.24H105.64V41.71H106.88V21.24Z" fill="#2834B7"/>
<path d="M108.12 21.24H106.88V41.71H108.12V21.24Z" fill="#2934B7"/>
<path d="M108.93 21.24H108.11V41.71H108.93V21.24Z" fill="#2A33B7"/>
<path d="M66.0201 11.94H65.3101V41.72H66.0201V11.94Z" fill="#0644BA"/>
<path d="M67.2698 11.94H66.0298V41.72H67.2698V11.94Z" fill="#0744BA"/>
<path d="M68.51 11.94H67.27V41.72H68.51V11.94Z" fill="#0843BA"/>
<path d="M69.74 11.94H68.5V41.72H69.74V11.94Z" fill="#0943BA"/>
<path d="M70.9802 11.94H69.7402V41.72H70.9802V11.94Z" fill="#0A42BA"/>
<path d="M72.22 11.94H70.98V41.72H72.22V11.94Z" fill="#0B42BA"/>
<path d="M73.4602 11.94H72.2202V41.72H73.4602V11.94Z" fill="#0C41BA"/>
<path d="M74.6902 11.94H73.4502V41.72H74.6902V11.94Z" fill="#0D41BA"/>
<path d="M75.9299 11.94H74.6899V41.72H75.9299V11.94Z" fill="#0E40BA"/>
<path d="M77.1702 11.94H75.9302V41.72H77.1702V11.94Z" fill="#1040B9"/>
<path d="M78.4099 11.94H77.1699V41.72H78.4099V11.94Z" fill="#113FB9"/>
<path d="M79.6502 11.94H78.4102V41.72H79.6502V11.94Z" fill="#123FB9"/>
<path d="M80.8801 11.94H79.6401V41.72H80.8801V11.94Z" fill="#133EB9"/>
<path d="M82.1199 11.94H80.8799V41.72H82.1199V11.94Z" fill="#143EB9"/>
<path d="M83.3601 11.94H82.1201V41.72H83.3601V11.94Z" fill="#153DB9"/>
<path d="M84.5999 11.94H83.3599V41.72H84.5999V11.94Z" fill="#163DB9"/>
<path d="M85.8401 11.94H84.6001V41.72H85.8401V11.94Z" fill="#173CB9"/>
<path d="M86.0601 11.94H85.8301V41.72H86.0601V11.94Z" fill="#183CB9"/>
<path d="M109.35 29.67H108.72V46.69H109.35V29.67Z" fill="#2A33B7"/>
<path d="M110.59 29.67H109.35V46.69H110.59V29.67Z" fill="#2B33B7"/>
<path d="M111.83 29.67H110.59V46.69H111.83V29.67Z" fill="#2C32B6"/>
<path d="M113.07 29.67H111.83V46.69H113.07V29.67Z" fill="#2D32B6"/>
<path d="M114.31 29.67H113.07V46.69H114.31V29.67Z" fill="#2E31B6"/>
<path d="M115.54 29.67H114.3V46.69H115.54V29.67Z" fill="#2F31B6"/>
<path d="M116.78 29.67H115.54V46.69H116.78V29.67Z" fill="#3031B6"/>
<path d="M118.02 29.67H116.78V46.69H118.02V29.67Z" fill="#3030B6"/>
<path d="M119.26 29.67H118.02V46.69H119.26V29.67Z" fill="#3130B6"/>
<path d="M119.5 29.67H119.26V46.69H119.5V29.67Z" fill="#3130B6"/>
<path d="M119.74 29.67H119.5V46.69H119.74V29.67Z" fill="#3231B6"/>
<path d="M119.98 29.67H119.74V46.69H119.98V29.67Z" fill="#3332B6"/>
<path d="M120.22 29.67H119.98V46.69H120.22V29.67Z" fill="#3433B6"/>
<path d="M120.46 29.67H120.22V46.69H120.46V29.67Z" fill="#3534B7"/>
<path d="M120.7 29.67H120.46V46.69H120.7V29.67Z" fill="#3636B7"/>
<path d="M120.94 29.67H120.7V46.69H120.94V29.67Z" fill="#3837B7"/>
<path d="M121.18 29.67H120.94V46.69H121.18V29.67Z" fill="#3938B7"/>
<path d="M121.42 29.67H121.18V46.69H121.42V29.67Z" fill="#3A39B7"/>
<path d="M121.66 29.67H121.42V46.69H121.66V29.67Z" fill="#3B3AB7"/>
<path d="M121.9 29.67H121.66V46.69H121.9V29.67Z" fill="#3C3BB7"/>
<path d="M122.14 29.67H121.9V46.69H122.14V29.67Z" fill="#3D3CB7"/>
<path d="M122.38 29.67H122.14V46.69H122.38V29.67Z" fill="#3E3DB8"/>
<path d="M122.62 29.67H122.38V46.69H122.62V29.67Z" fill="#3F3EB8"/>
<path d="M122.74 29.67H122.62V46.69H122.74V29.67Z" fill="#403FB8"/>
<path d="M127.18 53.3H126.97V64.95H127.18V53.3Z" fill="#5453BA"/>
<path d="M127.42 53.3H127.18V64.95H127.42V53.3Z" fill="#5554BA"/>
<path d="M127.66 53.3H127.42V64.95H127.66V53.3Z" fill="#5655BA"/>
<path d="M127.9 53.3H127.66V64.95H127.9V53.3Z" fill="#5756BB"/>
<path d="M128.14 53.3H127.9V64.95H128.14V53.3Z" fill="#5857BB"/>
<path d="M128.38 53.3H128.14V64.95H128.38V53.3Z" fill="#5958BB"/>
<path d="M128.62 53.3H128.38V64.95H128.62V53.3Z" fill="#5A5ABB"/>
<path d="M128.86 53.3H128.62V64.95H128.86V53.3Z" fill="#5B5BBB"/>
<path d="M129.1 53.3H128.86V64.95H129.1V53.3Z" fill="#5C5CBB"/>
<path d="M129.34 53.3H129.1V64.95H129.34V53.3Z" fill="#5D5DBB"/>
<path d="M129.58 53.3H129.34V64.95H129.58V53.3Z" fill="#5E5EBB"/>
<path d="M129.82 53.3H129.58V64.95H129.82V53.3Z" fill="#5F5FBC"/>
<path d="M130.06 53.3H129.82V64.95H130.06V53.3Z" fill="#6060BC"/>
<path d="M130.3 53.3H130.06V64.95H130.3V53.3Z" fill="#6161BC"/>
<path d="M130.55 53.3H130.31V64.95H130.55V53.3Z" fill="#6262BC"/>
<path d="M130.79 53.3H130.55V64.95H130.79V53.3Z" fill="#6363BC"/>
<path d="M131.03 53.3H130.79V64.95H131.03V53.3Z" fill="#6564BC"/>
<path d="M131.27 53.3H131.03V64.95H131.27V53.3Z" fill="#6665BC"/>
<path d="M131.51 53.3H131.27V64.95H131.51V53.3Z" fill="#6766BD"/>
<path d="M131.75 53.3H131.51V64.95H131.75V53.3Z" fill="#6867BD"/>
<path d="M131.99 53.3H131.75V64.95H131.99V53.3Z" fill="#6968BD"/>
<path d="M132.23 53.3H131.99V64.95H132.23V53.3Z" fill="#6A6ABD"/>
<path d="M132.47 53.3H132.23V64.95H132.47V53.3Z" fill="#6B6BBD"/>
<path d="M132.71 53.3H132.47V64.95H132.71V53.3Z" fill="#6C6CBD"/>
<path d="M132.95 53.3H132.71V64.95H132.95V53.3Z" fill="#6D6DBD"/>
<path d="M133.19 53.3H132.95V64.95H133.19V53.3Z" fill="#6E6EBD"/>
<path d="M133.43 53.3H133.19V64.95H133.43V53.3Z" fill="#6F6FBE"/>
<path d="M133.67 53.3H133.43V64.95H133.67V53.3Z" fill="#7070BE"/>
<path d="M133.91 53.3H133.67V64.95H133.91V53.3Z" fill="#7171BE"/>
<path d="M134.15 53.3H133.91V64.95H134.15V53.3Z" fill="#7272BE"/>
<path d="M134.39 53.3H134.15V64.95H134.39V53.3Z" fill="#7373BE"/>
<path d="M134.63 53.3H134.39V64.95H134.63V53.3Z" fill="#7474BE"/>
<path d="M134.87 53.3H134.63V64.95H134.87V53.3Z" fill="#7575BE"/>
<path d="M135.11 53.3H134.87V64.95H135.11V53.3Z" fill="#7676BE"/>
<path d="M135.35 53.3H135.11V64.95H135.35V53.3Z" fill="#7777BF"/>
<path d="M135.59 53.3H135.35V64.95H135.59V53.3Z" fill="#7878BF"/>
<path d="M135.83 53.3H135.59V64.95H135.83V53.3Z" fill="#7979BF"/>
<path d="M136.07 53.3H135.83V64.95H136.07V53.3Z" fill="#7A7ABF"/>
<path d="M136.31 53.3H136.07V64.95H136.31V53.3Z" fill="#7B7BBF"/>
<path d="M136.55 53.3H136.31V64.95H136.55V53.3Z" fill="#7C7CBF"/>
<path d="M136.79 53.3H136.55V64.95H136.79V53.3Z" fill="#7D7DBF"/>
<path d="M137.03 53.3H136.79V64.95H137.03V53.3Z" fill="#7E7EBF"/>
<path d="M137.27 53.3H137.03V64.95H137.27V53.3Z" fill="#7F80C0"/>
<path d="M137.51 53.3H137.27V64.95H137.51V53.3Z" fill="#8081C0"/>
<path d="M137.75 53.3H137.51V64.95H137.75V53.3Z" fill="#8282C0"/>
<path d="M137.99 53.3H137.75V64.95H137.99V53.3Z" fill="#8383C0"/>
<path d="M138.23 53.3H137.99V64.95H138.23V53.3Z" fill="#8484C0"/>
<path d="M138.47 53.3H138.23V64.95H138.47V53.3Z" fill="#8585C0"/>
<path d="M138.71 53.3H138.47V64.95H138.71V53.3Z" fill="#8686C0"/>
<path d="M138.95 53.3H138.71V64.95H138.95V53.3Z" fill="#8787C0"/>
<path d="M139.19 53.3H138.95V64.95H139.19V53.3Z" fill="#8888C1"/>
<path d="M139.43 53.3H139.19V64.95H139.43V53.3Z" fill="#8989C1"/>
<path d="M139.67 53.3H139.43V64.95H139.67V53.3Z" fill="#8A8AC1"/>
<path d="M139.91 53.3H139.67V64.95H139.91V53.3Z" fill="#8B8BC1"/>
<path d="M140.15 53.3H139.91V64.95H140.15V53.3Z" fill="#8C8CC1"/>
<path d="M140.39 53.3H140.15V64.95H140.39V53.3Z" fill="#8D8DC1"/>
<path d="M140.63 53.3H140.39V64.95H140.63V53.3Z" fill="#8E8EC1"/>
<path d="M140.87 53.3H140.63V64.95H140.87V53.3Z" fill="#8F8FC1"/>
<path d="M141.11 53.3H140.87V64.95H141.11V53.3Z" fill="#9090C2"/>
<path d="M141.35 53.3H141.11V64.95H141.35V53.3Z" fill="#9191C2"/>
<path d="M141.44 53.3H141.36V64.95H141.44V53.3Z" fill="#9292C2"/>
<path d="M132.22 66.89H132.08V76.96H132.22V66.89Z" fill="#6A6ABD"/>
<path d="M132.47 66.89H132.23V76.96H132.47V66.89Z" fill="#6B6BBD"/>
<path d="M132.71 66.89H132.47V76.96H132.71V66.89Z" fill="#6C6CBD"/>
<path d="M132.95 66.89H132.71V76.96H132.95V66.89Z" fill="#6D6DBD"/>
<path d="M133.19 66.89H132.95V76.96H133.19V66.89Z" fill="#6E6EBD"/>
<path d="M133.43 66.89H133.19V76.96H133.43V66.89Z" fill="#6F6FBE"/>
<path d="M133.67 66.89H133.43V76.96H133.67V66.89Z" fill="#7070BE"/>
<path d="M133.91 66.89H133.67V76.96H133.91V66.89Z" fill="#7171BE"/>
<path d="M134.15 66.89H133.91V76.96H134.15V66.89Z" fill="#7272BE"/>
<path d="M134.39 66.89H134.15V76.96H134.39V66.89Z" fill="#7373BE"/>
<path d="M134.63 66.89H134.39V76.96H134.63V66.89Z" fill="#7474BE"/>
<path d="M134.87 66.89H134.63V76.96H134.87V66.89Z" fill="#7575BE"/>
<path d="M135.11 66.89H134.87V76.96H135.11V66.89Z" fill="#7676BE"/>
<path d="M135.35 66.89H135.11V76.96H135.35V66.89Z" fill="#7777BF"/>
<path d="M135.59 66.89H135.35V76.96H135.59V66.89Z" fill="#7878BF"/>
<path d="M135.83 66.89H135.59V76.96H135.83V66.89Z" fill="#7979BF"/>
<path d="M136.07 66.89H135.83V76.96H136.07V66.89Z" fill="#7A7ABF"/>
<path d="M136.31 66.89H136.07V76.96H136.31V66.89Z" fill="#7B7BBF"/>
<path d="M136.55 66.89H136.31V76.96H136.55V66.89Z" fill="#7C7CBF"/>
<path d="M136.79 66.89H136.55V76.96H136.79V66.89Z" fill="#7D7DBF"/>
<path d="M137.03 66.89H136.79V76.96H137.03V66.89Z" fill="#7E7EBF"/>
<path d="M137.27 66.89H137.03V76.96H137.27V66.89Z" fill="#7F80C0"/>
<path d="M137.51 66.89H137.27V76.96H137.51V66.89Z" fill="#8081C0"/>
<path d="M137.75 66.89H137.51V76.96H137.75V66.89Z" fill="#8282C0"/>
<path d="M137.99 66.89H137.75V76.96H137.99V66.89Z" fill="#8383C0"/>
<path d="M138.23 66.89H137.99V76.96H138.23V66.89Z" fill="#8484C0"/>
<path d="M138.47 66.89H138.23V76.96H138.47V66.89Z" fill="#8585C0"/>
<path d="M138.71 66.89H138.47V76.96H138.71V66.89Z" fill="#8686C0"/>
<path d="M138.95 66.89H138.71V76.96H138.95V66.89Z" fill="#8787C0"/>
<path d="M139.19 66.89H138.95V76.96H139.19V66.89Z" fill="#8888C1"/>
<path d="M139.43 66.89H139.19V76.96H139.43V66.89Z" fill="#8989C1"/>
<path d="M139.67 66.89H139.43V76.96H139.67V66.89Z" fill="#8A8AC1"/>
<path d="M139.91 66.89H139.67V76.96H139.91V66.89Z" fill="#8B8BC1"/>
<path d="M140.15 66.89H139.91V76.96H140.15V66.89Z" fill="#8C8CC1"/>
<path d="M140.39 66.89H140.15V76.96H140.39V66.89Z" fill="#8D8DC1"/>
<path d="M140.63 66.89H140.39V76.96H140.63V66.89Z" fill="#8E8EC1"/>
<path d="M140.87 66.89H140.63V76.96H140.87V66.89Z" fill="#8F8FC1"/>
<path d="M141.11 66.89H140.87V76.96H141.11V66.89Z" fill="#9090C2"/>
<path d="M141.35 66.89H141.11V76.96H141.35V66.89Z" fill="#9191C2"/>
<path d="M141.6 66.89H141.36V76.96H141.6V66.89Z" fill="#9292C2"/>
<path d="M141.84 66.89H141.6V76.96H141.84V66.89Z" fill="#9393C2"/>
<path d="M142.08 66.89H141.84V76.96H142.08V66.89Z" fill="#9494C2"/>
<path d="M142.32 66.89H142.08V76.96H142.32V66.89Z" fill="#9595C2"/>
<path d="M142.56 66.89H142.32V76.96H142.56V66.89Z" fill="#9696C2"/>
<path d="M142.8 66.89H142.56V76.96H142.8V66.89Z" fill="#9797C2"/>
<path d="M143.04 66.89H142.8V76.96H143.04V66.89Z" fill="#9898C2"/>
<path d="M143.28 66.89H143.04V76.96H143.28V66.89Z" fill="#9899C3"/>
<path d="M143.52 66.89H143.28V76.96H143.52V66.89Z" fill="#999AC3"/>
<path d="M143.76 66.89H143.52V76.96H143.76V66.89Z" fill="#9A9BC3"/>
<path d="M144 66.89H143.76V76.96H144V66.89Z" fill="#9B9CC3"/>
<path d="M144.24 66.89H144V76.96H144.24V66.89Z" fill="#9C9DC3"/>
<path d="M144.48 66.89H144.24V76.96H144.48V66.89Z" fill="#9D9EC3"/>
<path d="M144.72 66.89H144.48V76.96H144.72V66.89Z" fill="#9E9FC3"/>
<path d="M144.96 66.89H144.72V76.96H144.96V66.89Z" fill="#9FA0C3"/>
<path d="M145.2 66.89H144.96V76.96H145.2V66.89Z" fill="#A0A1C4"/>
<path d="M145.44 66.89H145.2V76.96H145.44V66.89Z" fill="#A1A2C4"/>
<path d="M145.68 66.89H145.44V76.96H145.68V66.89Z" fill="#A2A3C4"/>
<path d="M145.92 66.89H145.68V76.96H145.92V66.89Z" fill="#A3A4C4"/>
<path d="M146.16 66.89H145.92V76.96H146.16V66.89Z" fill="#A4A5C4"/>
<path d="M146.4 66.89H146.16V76.96H146.4V66.89Z" fill="#A5A6C4"/>
<path d="M146.64 66.89H146.4V76.96H146.64V66.89Z" fill="#A6A7C4"/>
<path d="M146.88 66.89H146.64V76.96H146.88V66.89Z" fill="#A7A8C4"/>
<path d="M147.05 66.89H146.88V76.96H147.05V66.89Z" fill="#A8A8C4"/>
<path d="M49.3699 39.53H2.85986V76.97H49.3699V39.53Z" fill="#0047BB"/>
<path d="M127.43 94.73H127.37V132.05H127.43V94.73Z" fill="#5554BA"/>
<path d="M127.66 94.73H127.42V132.05H127.66V94.73Z" fill="#5655BA"/>
<path d="M127.9 94.73H127.66V132.05H127.9V94.73Z" fill="#5756BB"/>
<path d="M128.14 94.73H127.9V132.05H128.14V94.73Z" fill="#5857BB"/>
<path d="M128.38 94.73H128.14V132.05H128.38V94.73Z" fill="#5958BB"/>
<path d="M128.62 94.73H128.38V132.05H128.62V94.73Z" fill="#5A5ABB"/>
<path d="M128.86 94.73H128.62V132.05H128.86V94.73Z" fill="#5B5BBB"/>
<path d="M129.1 94.73H128.86V132.05H129.1V94.73Z" fill="#5C5CBB"/>
<path d="M129.34 94.73H129.1V132.05H129.34V94.73Z" fill="#5D5DBB"/>
<path d="M129.58 94.73H129.34V132.05H129.58V94.73Z" fill="#5E5EBB"/>
<path d="M129.82 94.73H129.58V132.05H129.82V94.73Z" fill="#5F5FBC"/>
<path d="M130.06 94.73H129.82V132.05H130.06V94.73Z" fill="#6060BC"/>
<path d="M130.3 94.73H130.06V132.05H130.3V94.73Z" fill="#6161BC"/>
<path d="M130.55 94.73H130.31V132.05H130.55V94.73Z" fill="#6262BC"/>
<path d="M130.79 94.73H130.55V132.05H130.79V94.73Z" fill="#6363BC"/>
<path d="M131.03 94.73H130.79V132.05H131.03V94.73Z" fill="#6564BC"/>
<path d="M131.27 94.73H131.03V132.05H131.27V94.73Z" fill="#6665BC"/>
<path d="M131.51 94.73H131.27V132.05H131.51V94.73Z" fill="#6766BD"/>
<path d="M131.75 94.73H131.51V132.05H131.75V94.73Z" fill="#6867BD"/>
<path d="M131.99 94.73H131.75V132.05H131.99V94.73Z" fill="#6968BD"/>
<path d="M132.23 94.73H131.99V132.05H132.23V94.73Z" fill="#6A6ABD"/>
<path d="M132.47 94.73H132.23V132.05H132.47V94.73Z" fill="#6B6BBD"/>
<path d="M132.71 94.73H132.47V132.05H132.71V94.73Z" fill="#6C6CBD"/>
<path d="M132.95 94.73H132.71V132.05H132.95V94.73Z" fill="#6D6DBD"/>
<path d="M133.19 94.73H132.95V132.05H133.19V94.73Z" fill="#6E6EBD"/>
<path d="M133.43 94.73H133.19V132.05H133.43V94.73Z" fill="#6F6FBE"/>
<path d="M133.67 94.73H133.43V132.05H133.67V94.73Z" fill="#7070BE"/>
<path d="M133.91 94.73H133.67V132.05H133.91V94.73Z" fill="#7171BE"/>
<path d="M134.15 94.73H133.91V132.05H134.15V94.73Z" fill="#7272BE"/>
<path d="M134.39 94.73H134.15V132.05H134.39V94.73Z" fill="#7373BE"/>
<path d="M134.63 94.73H134.39V132.05H134.63V94.73Z" fill="#7474BE"/>
<path d="M134.87 94.73H134.63V132.05H134.87V94.73Z" fill="#7575BE"/>
<path d="M135.11 94.73H134.87V132.05H135.11V94.73Z" fill="#7676BE"/>
<path d="M135.35 94.73H135.11V132.05H135.35V94.73Z" fill="#7777BF"/>
<path d="M135.59 94.73H135.35V132.05H135.59V94.73Z" fill="#7878BF"/>
<path d="M135.83 94.73H135.59V132.05H135.83V94.73Z" fill="#7979BF"/>
<path d="M136.07 94.73H135.83V132.05H136.07V94.73Z" fill="#7A7ABF"/>
<path d="M136.31 94.73H136.07V132.05H136.31V94.73Z" fill="#7B7BBF"/>
<path d="M136.55 94.73H136.31V132.05H136.55V94.73Z" fill="#7C7CBF"/>
<path d="M136.79 94.73H136.55V132.05H136.79V94.73Z" fill="#7D7DBF"/>
<path d="M137.03 94.73H136.79V132.05H137.03V94.73Z" fill="#7E7EBF"/>
<path d="M137.27 94.73H137.03V132.05H137.27V94.73Z" fill="#7F80C0"/>
<path d="M137.51 94.73H137.27V132.05H137.51V94.73Z" fill="#8081C0"/>
<path d="M137.75 94.73H137.51V132.05H137.75V94.73Z" fill="#8282C0"/>
<path d="M137.99 94.73H137.75V132.05H137.99V94.73Z" fill="#8383C0"/>
<path d="M138.23 94.73H137.99V132.05H138.23V94.73Z" fill="#8484C0"/>
<path d="M138.47 94.73H138.23V132.05H138.47V94.73Z" fill="#8585C0"/>
<path d="M138.71 94.73H138.47V132.05H138.71V94.73Z" fill="#8686C0"/>
<path d="M138.95 94.73H138.71V132.05H138.95V94.73Z" fill="#8787C0"/>
<path d="M139.19 94.73H138.95V132.05H139.19V94.73Z" fill="#8888C1"/>
<path d="M139.43 94.73H139.19V132.05H139.43V94.73Z" fill="#8989C1"/>
<path d="M139.67 94.73H139.43V132.05H139.67V94.73Z" fill="#8A8AC1"/>
<path d="M139.91 94.73H139.67V132.05H139.91V94.73Z" fill="#8B8BC1"/>
<path d="M140.15 94.73H139.91V132.05H140.15V94.73Z" fill="#8C8CC1"/>
<path d="M140.39 94.73H140.15V132.05H140.39V94.73Z" fill="#8D8DC1"/>
<path d="M140.63 94.73H140.39V132.05H140.63V94.73Z" fill="#8E8EC1"/>
<path d="M140.87 94.73H140.63V132.05H140.87V94.73Z" fill="#8F8FC1"/>
<path d="M141.11 94.73H140.87V132.05H141.11V94.73Z" fill="#9090C2"/>
<path d="M141.35 94.73H141.11V132.05H141.35V94.73Z" fill="#9191C2"/>
<path d="M141.6 94.73H141.36V132.05H141.6V94.73Z" fill="#9292C2"/>
<path d="M141.84 94.73H141.6V132.05H141.84V94.73Z" fill="#9393C2"/>
<path d="M142.08 94.73H141.84V132.05H142.08V94.73Z" fill="#9494C2"/>
<path d="M142.32 94.73H142.08V132.05H142.32V94.73Z" fill="#9595C2"/>
<path d="M142.56 94.73H142.32V132.05H142.56V94.73Z" fill="#9696C2"/>
<path d="M142.8 94.73H142.56V132.05H142.8V94.73Z" fill="#9797C2"/>
<path d="M143.04 94.73H142.8V132.05H143.04V94.73Z" fill="#9898C2"/>
<path d="M143.28 94.73H143.04V132.05H143.28V94.73Z" fill="#9899C3"/>
<path d="M143.52 94.73H143.28V132.05H143.52V94.73Z" fill="#999AC3"/>
<path d="M143.76 94.73H143.52V132.05H143.76V94.73Z" fill="#9A9BC3"/>
<path d="M144 94.73H143.76V132.05H144V94.73Z" fill="#9B9CC3"/>
<path d="M144.24 94.73H144V132.05H144.24V94.73Z" fill="#9C9DC3"/>
<path d="M144.48 94.73H144.24V132.05H144.48V94.73Z" fill="#9D9EC3"/>
<path d="M144.72 94.73H144.48V132.05H144.72V94.73Z" fill="#9E9FC3"/>
<path d="M144.96 94.73H144.72V132.05H144.96V94.73Z" fill="#9FA0C3"/>
<path d="M145.2 94.73H144.96V132.05H145.2V94.73Z" fill="#A0A1C4"/>
<path d="M145.44 94.73H145.2V132.05H145.44V94.73Z" fill="#A1A2C4"/>
<path d="M145.68 94.73H145.44V132.05H145.68V94.73Z" fill="#A2A3C4"/>
<path d="M145.92 94.73H145.68V132.05H145.92V94.73Z" fill="#A3A4C4"/>
<path d="M146.16 94.73H145.92V132.05H146.16V94.73Z" fill="#A4A5C4"/>
<path d="M146.4 94.73H146.16V132.05H146.4V94.73Z" fill="#A5A6C4"/>
<path d="M146.64 94.73H146.4V132.05H146.64V94.73Z" fill="#A6A7C4"/>
<path d="M146.88 94.73H146.64V132.05H146.88V94.73Z" fill="#A7A8C4"/>
<path d="M147.12 94.73H146.88V132.05H147.12V94.73Z" fill="#A8A8C4"/>
<path d="M147.36 94.73H147.12V132.05H147.36V94.73Z" fill="#A9A9C5"/>
<path d="M147.6 94.73H147.36V132.05H147.6V94.73Z" fill="#AAAAC5"/>
<path d="M147.84 94.73H147.6V132.05H147.84V94.73Z" fill="#ABABC5"/>
<path d="M148.08 94.73H147.84V132.05H148.08V94.73Z" fill="#ACACC5"/>
<path d="M148.32 94.73H148.08V132.05H148.32V94.73Z" fill="#ADADC5"/>
<path d="M148.56 94.73H148.32V132.05H148.56V94.73Z" fill="#ADAEC5"/>
<path d="M148.8 94.73H148.56V132.05H148.8V94.73Z" fill="#AEAFC5"/>
<path d="M149.04 94.73H148.8V132.05H149.04V94.73Z" fill="#AFB0C5"/>
<path d="M149.28 94.73H149.04V132.05H149.28V94.73Z" fill="#B0B1C5"/>
<path d="M149.52 94.73H149.28V132.05H149.52V94.73Z" fill="#B1B2C6"/>
<path d="M149.76 94.73H149.52V132.05H149.76V94.73Z" fill="#B2B3C6"/>
<path d="M150 94.73H149.76V132.05H150V94.73Z" fill="#B3B4C6"/>
<path d="M150.24 94.73H150V132.05H150.24V94.73Z" fill="#B4B5C6"/>
<path d="M150.48 94.73H150.24V132.05H150.48V94.73Z" fill="#B5B6C6"/>
<path d="M150.72 94.73H150.48V132.05H150.72V94.73Z" fill="#B6B6C6"/>
<path d="M150.96 94.73H150.72V132.05H150.96V94.73Z" fill="#B7B7C6"/>
<path d="M151.2 94.73H150.96V132.05H151.2V94.73Z" fill="#B7B8C6"/>
<path d="M151.44 94.73H151.2V132.05H151.44V94.73Z" fill="#B8B9C6"/>
<path d="M151.68 94.73H151.44V132.05H151.68V94.73Z" fill="#B9BAC7"/>
<path d="M151.92 94.73H151.68V132.05H151.92V94.73Z" fill="#BABBC7"/>
<path d="M152.16 94.73H151.92V132.05H152.16V94.73Z" fill="#BBBCC7"/>
<path d="M152.4 94.73H152.16V132.05H152.4V94.73Z" fill="#BCBDC7"/>
<path d="M152.64 94.73H152.4V132.05H152.64V94.73Z" fill="#BDBDC7"/>
<path d="M152.89 94.73H152.65V132.05H152.89V94.73Z" fill="#BDBEC7"/>
<path d="M153.13 94.73H152.89V132.05H153.13V94.73Z" fill="#BEBFC7"/>
<path d="M153.37 94.73H153.13V132.05H153.37V94.73Z" fill="#BFC0C7"/>
<path d="M153.61 94.73H153.37V132.05H153.61V94.73Z" fill="#C0C1C7"/>
<path d="M153.85 94.73H153.61V132.05H153.85V94.73Z" fill="#C1C2C7"/>
<path d="M154.09 94.73H153.85V132.05H154.09V94.73Z" fill="#C1C2C8"/>
<path d="M154.33 94.73H154.09V132.05H154.33V94.73Z" fill="#C2C3C8"/>
<path d="M154.57 94.73H154.33V132.05H154.57V94.73Z" fill="#C3C4C8"/>
<path d="M154.81 94.73H154.57V132.05H154.81V94.73Z" fill="#C4C5C8"/>
<path d="M155.05 94.73H154.81V132.05H155.05V94.73Z" fill="#C4C5C8"/>
<path d="M155.29 94.73H155.05V132.05H155.29V94.73Z" fill="#C5C6C8"/>
<path d="M155.4 94.73H155.29V132.05H155.4V94.73Z" fill="#C5C6C8"/>
<path d="M155.5 94.73H155.39V132.05H155.5V94.73Z" fill="#C5C6C7"/>
<path d="M155.61 94.73H155.5V132.05H155.61V94.73Z" fill="#C6C6C6"/>
<path d="M155.72 94.73H155.61V132.05H155.72V94.73Z" fill="#C6C7C5"/>
<path d="M155.83 94.73H155.72V132.05H155.83V94.73Z" fill="#C6C7C4"/>
<path d="M155.93 94.73H155.82V132.05H155.93V94.73Z" fill="#C7C7C3"/>
<path d="M156.04 94.73H155.93V132.05H156.04V94.73Z" fill="#C7C7C2"/>
<path d="M156.15 94.73H156.04V132.05H156.15V94.73Z" fill="#C7C7C1"/>
<path d="M156.26 94.73H156.15V132.05H156.26V94.73Z" fill="#C7C8C0"/>
<path d="M156.36 94.73H156.25V132.05H156.36V94.73Z" fill="#C8C8BF"/>
<path d="M156.47 94.73H156.36V132.05H156.47V94.73Z" fill="#C8C8BE"/>
<path d="M156.58 94.73H156.47V132.05H156.58V94.73Z" fill="#C8C8BD"/>
<path d="M156.68 94.73H156.57V132.05H156.68V94.73Z" fill="#C9C8BC"/>
<path d="M156.79 94.73H156.68V132.05H156.79V94.73Z" fill="#C9C9BA"/>
<path d="M156.9 94.73H156.79V132.05H156.9V94.73Z" fill="#C9C9B9"/>
<path d="M157.01 94.73H156.9V132.05H157.01V94.73Z" fill="#CAC9B8"/>
<path d="M157.11 94.73H157V132.05H157.11V94.73Z" fill="#CAC9B7"/>
<path d="M157.22 94.73H157.11V132.05H157.22V94.73Z" fill="#CAC9B6"/>
<path d="M157.33 94.73H157.22V132.05H157.33V94.73Z" fill="#CACAB5"/>
<path d="M157.44 94.73H157.33V132.05H157.44V94.73Z" fill="#CBCAB4"/>
<path d="M157.54 94.73H157.43V132.05H157.54V94.73Z" fill="#CBCAB3"/>
<path d="M157.65 94.73H157.54V132.05H157.65V94.73Z" fill="#CBCAB2"/>
<path d="M157.76 94.73H157.65V132.05H157.76V94.73Z" fill="#CCCAB1"/>
<path d="M157.86 94.73H157.75V132.05H157.86V94.73Z" fill="#CCCBB0"/>
<path d="M157.97 94.73H157.86V132.05H157.97V94.73Z" fill="#CCCBAF"/>
<path d="M158.08 94.73H157.97V132.05H158.08V94.73Z" fill="#CDCBAE"/>
<path d="M158.19 94.73H158.08V132.05H158.19V94.73Z" fill="#CDCBAD"/>
<path d="M158.29 94.73H158.18V132.05H158.29V94.73Z" fill="#CDCBAC"/>
<path d="M158.4 94.73H158.29V132.05H158.4V94.73Z" fill="#CDCCAB"/>
<path d="M158.51 94.73H158.4V132.05H158.51V94.73Z" fill="#CECCAA"/>
<path d="M158.61 94.73H158.5V132.05H158.61V94.73Z" fill="#CECCA9"/>
<path d="M158.72 94.73H158.61V132.05H158.72V94.73Z" fill="#CECCA8"/>
<path d="M158.83 94.73H158.72V132.05H158.83V94.73Z" fill="#CFCCA7"/>
<path d="M158.94 94.73H158.83V132.05H158.94V94.73Z" fill="#CFCDA6"/>
<path d="M159.04 94.73H158.93V132.05H159.04V94.73Z" fill="#CFCDA5"/>
<path d="M159.15 94.73H159.04V132.05H159.15V94.73Z" fill="#D0CDA4"/>
<path d="M159.26 94.73H159.15V132.05H159.26V94.73Z" fill="#D0CDA3"/>
<path d="M159.37 94.73H159.26V132.05H159.37V94.73Z" fill="#D0CDA2"/>
<path d="M159.47 94.73H159.36V132.05H159.47V94.73Z" fill="#D0CEA1"/>
<path d="M159.58 94.73H159.47V132.05H159.58V94.73Z" fill="#D1CEA0"/>
<path d="M159.69 94.73H159.58V132.05H159.69V94.73Z" fill="#D1CE9F"/>
<path d="M159.79 94.73H159.68V132.05H159.79V94.73Z" fill="#D1CE9D"/>
<path d="M159.9 94.73H159.79V132.05H159.9V94.73Z" fill="#D2CE9C"/>
<path d="M160.01 94.73H159.9V132.05H160.01V94.73Z" fill="#D2CF9B"/>
<path d="M160.12 94.73H160.01V132.05H160.12V94.73Z" fill="#D2CF9A"/>
<path d="M160.22 94.73H160.11V132.05H160.22V94.73Z" fill="#D3CF99"/>
<path d="M160.33 94.73H160.22V132.05H160.33V94.73Z" fill="#D3CF98"/>
<path d="M160.44 94.73H160.33V132.05H160.44V94.73Z" fill="#D3CF97"/>
<path d="M160.55 94.73H160.44V132.05H160.55V94.73Z" fill="#D3D096"/>
<path d="M160.65 94.73H160.54V132.05H160.65V94.73Z" fill="#D4D095"/>
<path d="M160.76 94.73H160.65V132.05H160.76V94.73Z" fill="#D4D094"/>
<path d="M160.87 94.73H160.76V132.05H160.87V94.73Z" fill="#D4D093"/>
<path d="M160.97 94.73H160.86V132.05H160.97V94.73Z" fill="#D5D192"/>
<path d="M161.08 94.73H160.97V132.05H161.08V94.73Z" fill="#D5D191"/>
<path d="M161.19 94.73H161.08V132.05H161.19V94.73Z" fill="#D5D190"/>
<path d="M161.3 94.73H161.19V132.05H161.3V94.73Z" fill="#D6D18F"/>
<path d="M161.4 94.73H161.29V132.05H161.4V94.73Z" fill="#D6D18E"/>
<path d="M161.51 94.73H161.4V132.05H161.51V94.73Z" fill="#D6D28D"/>
<path d="M161.62 94.73H161.51V132.05H161.62V94.73Z" fill="#D6D28C"/>
<path d="M161.72 94.73H161.61V132.05H161.72V94.73Z" fill="#D7D28B"/>
<path d="M161.83 94.73H161.72V132.05H161.83V94.73Z" fill="#D7D28A"/>
<path d="M161.94 94.73H161.83V132.05H161.94V94.73Z" fill="#D7D289"/>
<path d="M162.05 94.73H161.94V132.05H162.05V94.73Z" fill="#D8D388"/>
<path d="M162.15 94.73H162.04V132.05H162.15V94.73Z" fill="#D8D387"/>
<path d="M162.26 94.73H162.15V132.05H162.26V94.73Z" fill="#D8D386"/>
<path d="M162.37 94.73H162.26V132.05H162.37V94.73Z" fill="#D8D385"/>
<path d="M162.48 94.73H162.37V132.05H162.48V94.73Z" fill="#D9D384"/>
<path d="M162.58 94.73H162.47V132.05H162.58V94.73Z" fill="#D9D483"/>
<path d="M162.69 94.73H162.58V132.05H162.69V94.73Z" fill="#D9D482"/>
<path d="M162.8 94.73H162.69V132.05H162.8V94.73Z" fill="#DAD481"/>
<path d="M162.9 94.73H162.79V132.05H162.9V94.73Z" fill="#DAD480"/>
<path d="M163.01 94.73H162.9V132.05H163.01V94.73Z" fill="#DAD47F"/>
<path d="M163.12 94.73H163.01V132.05H163.12V94.73Z" fill="#DBD57E"/>
<path d="M163.23 94.73H163.12V132.05H163.23V94.73Z" fill="#DBD57D"/>
<path d="M163.33 94.73H163.22V132.05H163.33V94.73Z" fill="#DBD57C"/>
<path d="M163.44 94.73H163.33V132.05H163.44V94.73Z" fill="#DBD57B"/>
<path d="M163.55 94.73H163.44V132.05H163.55V94.73Z" fill="#DCD579"/>
<path d="M163.66 94.73H163.55V132.05H163.66V94.73Z" fill="#DCD678"/>
<path d="M163.76 94.73H163.65V132.05H163.76V94.73Z" fill="#DCD677"/>
<path d="M163.87 94.73H163.76V132.05H163.87V94.73Z" fill="#DDD676"/>
<path d="M163.98 94.73H163.87V132.05H163.98V94.73Z" fill="#DDD675"/>
<path d="M164.08 94.73H163.97V132.05H164.08V94.73Z" fill="#DDD674"/>
<path d="M164.19 94.73H164.08V132.05H164.19V94.73Z" fill="#DED773"/>
<path d="M164.3 94.73H164.19V132.05H164.3V94.73Z" fill="#DED772"/>
<path d="M164.41 94.73H164.3V132.05H164.41V94.73Z" fill="#DED771"/>
<path d="M164.51 94.73H164.4V132.05H164.51V94.73Z" fill="#DED770"/>
<path d="M164.62 94.73H164.51V132.05H164.62V94.73Z" fill="#DFD76F"/>
<path d="M164.73 94.73H164.62V132.05H164.73V94.73Z" fill="#DFD76E"/>
<path d="M164.83 94.73H164.72V132.05H164.83V94.73Z" fill="#DFD86D"/>
<path d="M164.94 94.73H164.83V132.05H164.94V94.73Z" fill="#E0D86C"/>
<path d="M165.05 94.73H164.94V132.05H165.05V94.73Z" fill="#E0D86B"/>
<path d="M165.16 94.73H165.05V132.05H165.16V94.73Z" fill="#E0D86A"/>
<path d="M165.26 94.73H165.15V132.05H165.26V94.73Z" fill="#E1D869"/>
<path d="M165.37 94.73H165.26V132.05H165.37V94.73Z" fill="#E1D968"/>
<path d="M165.48 94.73H165.37V132.05H165.48V94.73Z" fill="#E1D967"/>
<path d="M165.59 94.73H165.48V132.05H165.59V94.73Z" fill="#E1D966"/>
<path d="M165.69 94.73H165.58V132.05H165.69V94.73Z" fill="#E2D965"/>
<path d="M165.8 94.73H165.69V132.05H165.8V94.73Z" fill="#E2D964"/>
<path d="M165.91 94.73H165.8V132.05H165.91V94.73Z" fill="#E2DA63"/>
<path d="M166.01 94.73H165.9V132.05H166.01V94.73Z" fill="#E3DA62"/>
<path d="M166.12 94.73H166.01V132.05H166.12V94.73Z" fill="#E3DA61"/>
<path d="M166.23 94.73H166.12V132.05H166.23V94.73Z" fill="#E3DA60"/>
<path d="M166.34 94.73H166.23V132.05H166.34V94.73Z" fill="#E3DA5F"/>
<path d="M166.44 94.73H166.33V132.05H166.44V94.73Z" fill="#E4DB5E"/>
<path d="M166.55 94.73H166.44V132.05H166.55V94.73Z" fill="#E4DB5D"/>
<path d="M166.66 94.73H166.55V132.05H166.66V94.73Z" fill="#E4DB5C"/>
<path d="M166.77 94.73H166.66V132.05H166.77V94.73Z" fill="#E5DB5B"/>
<path d="M166.87 94.73H166.76V132.05H166.87V94.73Z" fill="#E5DB5A"/>
<path d="M166.98 94.73H166.87V132.05H166.98V94.73Z" fill="#E5DC59"/>
<path d="M167.09 94.73H166.98V132.05H167.09V94.73Z" fill="#E6DC58"/>
<path d="M167.19 94.73H167.08V132.05H167.19V94.73Z" fill="#E6DC57"/>
<path d="M167.3 94.73H167.19V132.05H167.3V94.73Z" fill="#E6DC56"/>
<path d="M167.41 94.73H167.3V132.05H167.41V94.73Z" fill="#E6DC55"/>
<path d="M167.52 94.73H167.41V132.05H167.52V94.73Z" fill="#E7DD54"/>
<path d="M167.62 94.73H167.51V132.05H167.62V94.73Z" fill="#E7DD53"/>
<path d="M167.73 94.73H167.62V132.05H167.73V94.73Z" fill="#E7DD52"/>
<path d="M167.84 94.73H167.73V132.05H167.84V94.73Z" fill="#E8DD51"/>
<path d="M167.95 94.73H167.84V132.05H167.95V94.73Z" fill="#E8DD50"/>
<path d="M168.05 94.73H167.94V132.05H168.05V94.73Z" fill="#E8DE4F"/>
<path d="M168.16 94.73H168.05V132.05H168.16V94.73Z" fill="#E8DE4E"/>
<path d="M168.27 94.73H168.16V132.05H168.27V94.73Z" fill="#E9DE4D"/>
<path d="M168.37 94.73H168.26V132.05H168.37V94.73Z" fill="#E9DE4C"/>
<path d="M168.48 94.73H168.37V132.05H168.48V94.73Z" fill="#E9DE4B"/>
<path d="M168.59 94.73H168.48V132.05H168.59V94.73Z" fill="#EADF4A"/>
<path d="M168.7 94.73H168.59V132.05H168.7V94.73Z" fill="#EADF49"/>
<path d="M168.8 94.73H168.69V132.05H168.8V94.73Z" fill="#EADF48"/>
<path d="M168.91 94.73H168.8V132.05H168.91V94.73Z" fill="#EADF47"/>
<path d="M169.02 94.73H168.91V132.05H169.02V94.73Z" fill="#EBDF46"/>
<path d="M169.12 94.73H169.01V132.05H169.12V94.73Z" fill="#EBE045"/>
<path d="M169.23 94.73H169.12V132.05H169.23V94.73Z" fill="#EBE044"/>
<path d="M169.34 94.73H169.23V132.05H169.34V94.73Z" fill="#ECE043"/>
<path d="M169.45 94.73H169.34V132.05H169.45V94.73Z" fill="#ECE042"/>
<path d="M169.55 94.73H169.44V132.05H169.55V94.73Z" fill="#ECE041"/>
<path d="M169.66 94.73H169.55V132.05H169.66V94.73Z" fill="#EDE140"/>
<path d="M169.77 94.73H169.66V132.05H169.77V94.73Z" fill="#EDE13F"/>
<path d="M169.88 94.73H169.77V132.05H169.88V94.73Z" fill="#EDE13E"/>
<path d="M169.98 94.73H169.87V132.05H169.98V94.73Z" fill="#EDE13D"/>
<path d="M170.09 94.73H169.98V132.05H170.09V94.73Z" fill="#EEE13C"/>
<path d="M170.2 94.73H170.09V132.05H170.2V94.73Z" fill="#EEE23B"/>
<path d="M170.3 94.73H170.19V132.05H170.3V94.73Z" fill="#EEE23A"/>
<path d="M170.41 94.73H170.3V132.05H170.41V94.73Z" fill="#EFE239"/>
<path d="M170.52 94.73H170.41V132.05H170.52V94.73Z" fill="#EFE238"/>
<path d="M170.63 94.73H170.52V132.05H170.63V94.73Z" fill="#EFE237"/>
<path d="M170.73 94.73H170.62V132.05H170.73V94.73Z" fill="#EFE336"/>
<path d="M170.84 94.73H170.73V132.05H170.84V94.73Z" fill="#F0E335"/>
<path d="M170.95 94.73H170.84V132.05H170.95V94.73Z" fill="#F0E334"/>
<path d="M171.06 94.73H170.95V132.05H171.06V94.73Z" fill="#F0E333"/>
<path d="M171.16 94.73H171.05V132.05H171.16V94.73Z" fill="#F1E332"/>
<path d="M171.27 94.73H171.16V132.05H171.27V94.73Z" fill="#F1E331"/>
<path d="M171.38 94.73H171.27V132.05H171.38V94.73Z" fill="#F1E430"/>
<path d="M171.48 94.73H171.37V132.05H171.48V94.73Z" fill="#F1E42F"/>
<path d="M171.59 94.73H171.48V132.05H171.59V94.73Z" fill="#F2E42E"/>
<path d="M171.7 94.73H171.59V132.05H171.7V94.73Z" fill="#F2E42D"/>
<path d="M171.81 94.73H171.7V132.05H171.81V94.73Z" fill="#F2E42C"/>
<path d="M171.91 94.73H171.8V132.05H171.91V94.73Z" fill="#F3E52B"/>
<path d="M172.02 94.73H171.91V132.05H172.02V94.73Z" fill="#F3E52A"/>
<path d="M172.13 94.73H172.02V132.05H172.13V94.73Z" fill="#F3E529"/>
<path d="M172.23 94.73H172.12V132.05H172.23V94.73Z" fill="#F3E528"/>
<path d="M172.34 94.73H172.23V132.05H172.34V94.73Z" fill="#F4E527"/>
<path d="M172.45 94.73H172.34V132.05H172.45V94.73Z" fill="#F4E626"/>
<path d="M172.56 94.73H172.45V132.05H172.56V94.73Z" fill="#F4E625"/>
<path d="M172.66 94.73H172.55V132.05H172.66V94.73Z" fill="#F5E624"/>
<path d="M172.77 94.73H172.66V132.05H172.77V94.73Z" fill="#F5E623"/>
<path d="M172.88 94.73H172.77V132.05H172.88V94.73Z" fill="#F5E622"/>
<path d="M172.99 94.73H172.88V132.05H172.99V94.73Z" fill="#F5E721"/>
<path d="M173.09 94.73H172.98V132.05H173.09V94.73Z" fill="#F6E720"/>
<path d="M173.2 94.73H173.09V132.05H173.2V94.73Z" fill="#F6E71F"/>
<path d="M173.31 94.73H173.2V132.05H173.31V94.73Z" fill="#F6E71E"/>
<path d="M173.41 94.73H173.3V132.05H173.41V94.73Z" fill="#F7E71D"/>
<path d="M173.52 94.73H173.41V132.05H173.52V94.73Z" fill="#F7E81C"/>
<path d="M173.63 94.73H173.52V132.05H173.63V94.73Z" fill="#F7E81B"/>
<path d="M173.74 94.73H173.63V132.05H173.74V94.73Z" fill="#F7E81A"/>
<path d="M173.84 94.73H173.73V132.05H173.84V94.73Z" fill="#F8E819"/>
<path d="M173.88 94.73H173.84V132.05H173.88V94.73Z" fill="#F8E818"/>
<path d="M67.2599 63.61H66.1099V108.12H67.2599V63.61Z" fill="#0744BA"/>
<path d="M68.51 63.61H67.27V108.12H68.51V63.61Z" fill="#0843BA"/>
<path d="M69.74 63.61H68.5V108.12H69.74V63.61Z" fill="#0943BA"/>
<path d="M70.9802 63.61H69.7402V108.12H70.9802V63.61Z" fill="#0A42BA"/>
<path d="M72.22 63.61H70.98V108.12H72.22V63.61Z" fill="#0B42BA"/>
<path d="M73.4602 63.61H72.2202V108.12H73.4602V63.61Z" fill="#0C41BA"/>
<path d="M74.6902 63.61H73.4502V108.12H74.6902V63.61Z" fill="#0D41BA"/>
<path d="M75.9299 63.61H74.6899V108.12H75.9299V63.61Z" fill="#0E40BA"/>
<path d="M77.1702 63.61H75.9302V108.12H77.1702V63.61Z" fill="#1040B9"/>
<path d="M78.4099 63.61H77.1699V108.12H78.4099V63.61Z" fill="#113FB9"/>
<path d="M79.6502 63.61H78.4102V108.12H79.6502V63.61Z" fill="#123FB9"/>
<path d="M80.8801 63.61H79.6401V108.12H80.8801V63.61Z" fill="#133EB9"/>
<path d="M82.1199 63.61H80.8799V108.12H82.1199V63.61Z" fill="#143EB9"/>
<path d="M83.3601 63.61H82.1201V108.12H83.3601V63.61Z" fill="#153DB9"/>
<path d="M84.5999 63.61H83.3599V108.12H84.5999V63.61Z" fill="#163DB9"/>
<path d="M85.8401 63.61H84.6001V108.12H85.8401V63.61Z" fill="#173CB9"/>
<path d="M87.0701 63.61H85.8301V108.12H87.0701V63.61Z" fill="#183CB9"/>
<path d="M88.3098 63.61H87.0698V108.12H88.3098V63.61Z" fill="#193BB8"/>
<path d="M89.5501 63.61H88.3101V108.12H89.5501V63.61Z" fill="#1A3BB8"/>
<path d="M90.7898 63.61H89.5498V108.12H90.7898V63.61Z" fill="#1B3AB8"/>
<path d="M92.0198 63.61H90.7798V108.12H92.0198V63.61Z" fill="#1C3AB8"/>
<path d="M93.26 63.61H92.02V108.12H93.26V63.61Z" fill="#1D39B8"/>
<path d="M94.4998 63.61H93.2598V108.12H94.4998V63.61Z" fill="#1E39B8"/>
<path d="M95.74 63.61H94.5V108.12H95.74V63.61Z" fill="#1F38B8"/>
<path d="M96.9802 63.61H95.7402V108.12H96.9802V63.61Z" fill="#2038B8"/>
<path d="M98.2102 63.61H96.9702V108.12H98.2102V63.61Z" fill="#2237B8"/>
<path d="M99.45 63.61H98.21V108.12H99.45V63.61Z" fill="#2337B7"/>
<path d="M100.69 63.61H99.4502V108.12H100.69V63.61Z" fill="#2436B7"/>
<path d="M101.93 63.61H100.69V108.12H101.93V63.61Z" fill="#2536B7"/>
<path d="M103.17 63.61H101.93V108.12H103.17V63.61Z" fill="#2535B7"/>
<path d="M104.4 63.61H103.16V108.12H104.4V63.61Z" fill="#2635B7"/>
<path d="M105.64 63.61H104.4V108.12H105.64V63.61Z" fill="#2734B7"/>
<path d="M106.88 63.61H105.64V108.12H106.88V63.61Z" fill="#2834B7"/>
<path d="M108.12 63.61H106.88V108.12H108.12V63.61Z" fill="#2934B7"/>
<path d="M109.35 63.61H108.11V108.12H109.35V63.61Z" fill="#2A33B7"/>
<path d="M110.59 63.61H109.35V108.12H110.59V63.61Z" fill="#2B33B7"/>
<path d="M110.62 63.61H110.59V108.12H110.62V63.61Z" fill="#2C32B6"/>
<path d="M58.6 15.51H0V174.23H58.6V15.51Z" fill="#0047BB"/>
<path d="M59.8401 15.51H58.6001V174.23H59.8401V15.51Z" fill="#0047BB"/>
<path d="M61.0798 15.51H59.8398V174.23H61.0798V15.51Z" fill="#0146BB"/>
<path d="M62.3201 15.51H61.0801V174.23H62.3201V15.51Z" fill="#0246BB"/>
<path d="M63.5501 15.51H62.3101V174.23H63.5501V15.51Z" fill="#0345BB"/>
<path d="M64.7898 15.51H63.5498V174.23H64.7898V15.51Z" fill="#0545BB"/>
<path d="M66.03 15.51H64.79V174.23H66.03V15.51Z" fill="#0644BA"/>
<path d="M67.2698 15.51H66.0298V174.23H67.2698V15.51Z" fill="#0744BA"/>
<path d="M68.51 15.51H67.27V174.23H68.51V15.51Z" fill="#0843BA"/>
<path d="M69.74 15.51H68.5V174.23H69.74V15.51Z" fill="#0943BA"/>
<path d="M70.9802 15.51H69.7402V174.23H70.9802V15.51Z" fill="#0A42BA"/>
<path d="M72.22 15.51H70.98V174.23H72.22V15.51Z" fill="#0B42BA"/>
<path d="M73.4602 15.51H72.2202V174.23H73.4602V15.51Z" fill="#0C41BA"/>
<path d="M74.6902 15.51H73.4502V174.23H74.6902V15.51Z" fill="#0D41BA"/>
<path d="M75.9299 15.51H74.6899V174.23H75.9299V15.51Z" fill="#0E40BA"/>
<path d="M77.1702 15.51H75.9302V174.23H77.1702V15.51Z" fill="#1040B9"/>
<path d="M78.4099 15.51H77.1699V174.23H78.4099V15.51Z" fill="#113FB9"/>
<path d="M79.6502 15.51H78.4102V174.23H79.6502V15.51Z" fill="#123FB9"/>
<path d="M80.8801 15.51H79.6401V174.23H80.8801V15.51Z" fill="#133EB9"/>
<path d="M82.1199 15.51H80.8799V174.23H82.1199V15.51Z" fill="#143EB9"/>
<path d="M83.3601 15.51H82.1201V174.23H83.3601V15.51Z" fill="#153DB9"/>
<path d="M84.5999 15.51H83.3599V174.23H84.5999V15.51Z" fill="#163DB9"/>
<path d="M85.8401 15.51H84.6001V174.23H85.8401V15.51Z" fill="#173CB9"/>
<path d="M87.0701 15.51H85.8301V174.23H87.0701V15.51Z" fill="#183CB9"/>
<path d="M88.3098 15.51H87.0698V174.23H88.3098V15.51Z" fill="#193BB8"/>
<path d="M89.5501 15.51H88.3101V174.23H89.5501V15.51Z" fill="#1A3BB8"/>
<path d="M90.7898 15.51H89.5498V174.23H90.7898V15.51Z" fill="#1B3AB8"/>
<path d="M92.0198 15.51H90.7798V174.23H92.0198V15.51Z" fill="#1C3AB8"/>
<path d="M93.26 15.51H92.02V174.23H93.26V15.51Z" fill="#1D39B8"/>
<path d="M94.4998 15.51H93.2598V174.23H94.4998V15.51Z" fill="#1E39B8"/>
<path d="M95.74 15.51H94.5V174.23H95.74V15.51Z" fill="#1F38B8"/>
<path d="M96.9802 15.51H95.7402V174.23H96.9802V15.51Z" fill="#2038B8"/>
<path d="M98.2102 15.51H96.9702V174.23H98.2102V15.51Z" fill="#2237B8"/>
<path d="M99.45 15.51H98.21V174.23H99.45V15.51Z" fill="#2337B7"/>
<path d="M100.69 15.51H99.4502V174.23H100.69V15.51Z" fill="#2436B7"/>
<path d="M101.93 15.51H100.69V174.23H101.93V15.51Z" fill="#2536B7"/>
<path d="M103.17 15.51H101.93V174.23H103.17V15.51Z" fill="#2535B7"/>
<path d="M104.4 15.51H103.16V174.23H104.4V15.51Z" fill="#2635B7"/>
<path d="M105.64 15.51H104.4V174.23H105.64V15.51Z" fill="#2734B7"/>
<path d="M106.88 15.51H105.64V174.23H106.88V15.51Z" fill="#2834B7"/>
<path d="M108.12 15.51H106.88V174.23H108.12V15.51Z" fill="#2934B7"/>
<path d="M109.35 15.51H108.11V174.23H109.35V15.51Z" fill="#2A33B7"/>
<path d="M110.59 15.51H109.35V174.23H110.59V15.51Z" fill="#2B33B7"/>
<path d="M111.83 15.51H110.59V174.23H111.83V15.51Z" fill="#2C32B6"/>
<path d="M113.07 15.51H111.83V174.23H113.07V15.51Z" fill="#2D32B6"/>
<path d="M114.31 15.51H113.07V174.23H114.31V15.51Z" fill="#2E31B6"/>
<path d="M115.54 15.51H114.3V174.23H115.54V15.51Z" fill="#2F31B6"/>
<path d="M116.78 15.51H115.54V174.23H116.78V15.51Z" fill="#3031B6"/>
<path d="M118.02 15.51H116.78V174.23H118.02V15.51Z" fill="#3030B6"/>
<path d="M119.26 15.51H118.02V174.23H119.26V15.51Z" fill="#3130B6"/>
<path d="M119.5 15.51H119.26V174.23H119.5V15.51Z" fill="#3130B6"/>
<path d="M119.74 15.51H119.5V174.23H119.74V15.51Z" fill="#3231B6"/>
<path d="M119.98 15.51H119.74V174.23H119.98V15.51Z" fill="#3332B6"/>
<path d="M120.22 15.51H119.98V174.23H120.22V15.51Z" fill="#3433B6"/>
<path d="M120.46 15.51H120.22V174.23H120.46V15.51Z" fill="#3534B7"/>
<path d="M120.7 15.51H120.46V174.23H120.7V15.51Z" fill="#3636B7"/>
<path d="M120.94 15.51H120.7V174.23H120.94V15.51Z" fill="#3837B7"/>
<path d="M121.18 15.51H120.94V174.23H121.18V15.51Z" fill="#3938B7"/>
<path d="M121.42 15.51H121.18V174.23H121.42V15.51Z" fill="#3A39B7"/>
<path d="M121.66 15.51H121.42V174.23H121.66V15.51Z" fill="#3B3AB7"/>
<path d="M121.9 15.51H121.66V174.23H121.9V15.51Z" fill="#3C3BB7"/>
<path d="M122.14 15.51H121.9V174.23H122.14V15.51Z" fill="#3D3CB7"/>
<path d="M122.38 15.51H122.14V174.23H122.38V15.51Z" fill="#3E3DB8"/>
<path d="M122.62 15.51H122.38V174.23H122.62V15.51Z" fill="#3F3EB8"/>
<path d="M122.86 15.51H122.62V174.23H122.86V15.51Z" fill="#403FB8"/>
<path d="M123.1 15.51H122.86V174.23H123.1V15.51Z" fill="#4141B8"/>
<path d="M123.34 15.51H123.1V174.23H123.34V15.51Z" fill="#4242B8"/>
<path d="M123.58 15.51H123.34V174.23H123.58V15.51Z" fill="#4343B8"/>
<path d="M123.82 15.51H123.58V174.23H123.82V15.51Z" fill="#4544B8"/>
<path d="M124.06 15.51H123.82V174.23H124.06V15.51Z" fill="#4645B9"/>
<path d="M124.3 15.51H124.06V174.23H124.3V15.51Z" fill="#4746B9"/>
<path d="M124.54 15.51H124.3V174.23H124.54V15.51Z" fill="#4847B9"/>
<path d="M124.78 15.51H124.54V174.23H124.78V15.51Z" fill="#4948B9"/>
<path d="M125.02 15.51H124.78V174.23H125.02V15.51Z" fill="#4A49B9"/>
<path d="M125.26 15.51H125.02V174.23H125.26V15.51Z" fill="#4B4AB9"/>
<path d="M125.5 15.51H125.26V174.23H125.5V15.51Z" fill="#4C4BB9"/>
<path d="M125.74 15.51H125.5V174.23H125.74V15.51Z" fill="#4D4DB9"/>
<path d="M125.98 15.51H125.74V174.23H125.98V15.51Z" fill="#4E4EBA"/>
<path d="M126.22 15.51H125.98V174.23H126.22V15.51Z" fill="#4F4FBA"/>
<path d="M126.46 15.51H126.22V174.23H126.46V15.51Z" fill="#5050BA"/>
<path d="M126.7 15.51H126.46V174.23H126.7V15.51Z" fill="#5151BA"/>
<path d="M126.94 15.51H126.7V174.23H126.94V15.51Z" fill="#5352BA"/>
<path d="M127.18 15.51H126.94V174.23H127.18V15.51Z" fill="#5453BA"/>
<path d="M127.42 15.51H127.18V174.23H127.42V15.51Z" fill="#5554BA"/>
<path d="M127.66 15.51H127.42V174.23H127.66V15.51Z" fill="#5655BA"/>
<path d="M127.9 15.51H127.66V174.23H127.9V15.51Z" fill="#5756BB"/>
<path d="M128.14 15.51H127.9V174.23H128.14V15.51Z" fill="#5857BB"/>
<path d="M128.38 15.51H128.14V174.23H128.38V15.51Z" fill="#5958BB"/>
<path d="M128.62 15.51H128.38V174.23H128.62V15.51Z" fill="#5A5ABB"/>
<path d="M128.86 15.51H128.62V174.23H128.86V15.51Z" fill="#5B5BBB"/>
<path d="M129.1 15.51H128.86V174.23H129.1V15.51Z" fill="#5C5CBB"/>
<path d="M129.34 15.51H129.1V174.23H129.34V15.51Z" fill="#5D5DBB"/>
<path d="M129.58 15.51H129.34V174.23H129.58V15.51Z" fill="#5E5EBB"/>
<path d="M129.82 15.51H129.58V174.23H129.82V15.51Z" fill="#5F5FBC"/>
<path d="M130.06 15.51H129.82V174.23H130.06V15.51Z" fill="#6060BC"/>
<path d="M130.3 15.51H130.06V174.23H130.3V15.51Z" fill="#6161BC"/>
<path d="M130.55 15.51H130.31V174.23H130.55V15.51Z" fill="#6262BC"/>
<path d="M130.79 15.51H130.55V174.23H130.79V15.51Z" fill="#6363BC"/>
<path d="M131.03 15.51H130.79V174.23H131.03V15.51Z" fill="#6564BC"/>
<path d="M131.27 15.51H131.03V174.23H131.27V15.51Z" fill="#6665BC"/>
<path d="M131.51 15.51H131.27V174.23H131.51V15.51Z" fill="#6766BD"/>
<path d="M131.75 15.51H131.51V174.23H131.75V15.51Z" fill="#6867BD"/>
<path d="M131.99 15.51H131.75V174.23H131.99V15.51Z" fill="#6968BD"/>
<path d="M132.23 15.51H131.99V174.23H132.23V15.51Z" fill="#6A6ABD"/>
<path d="M132.47 15.51H132.23V174.23H132.47V15.51Z" fill="#6B6BBD"/>
<path d="M132.71 15.51H132.47V174.23H132.71V15.51Z" fill="#6C6CBD"/>
<path d="M132.95 15.51H132.71V174.23H132.95V15.51Z" fill="#6D6DBD"/>
<path d="M133.19 15.51H132.95V174.23H133.19V15.51Z" fill="#6E6EBD"/>
<path d="M133.43 15.51H133.19V174.23H133.43V15.51Z" fill="#6F6FBE"/>
<path d="M133.67 15.51H133.43V174.23H133.67V15.51Z" fill="#7070BE"/>
<path d="M133.91 15.51H133.67V174.23H133.91V15.51Z" fill="#7171BE"/>
<path d="M134.15 15.51H133.91V174.23H134.15V15.51Z" fill="#7272BE"/>
<path d="M134.39 15.51H134.15V174.23H134.39V15.51Z" fill="#7373BE"/>
<path d="M134.63 15.51H134.39V174.23H134.63V15.51Z" fill="#7474BE"/>
<path d="M134.87 15.51H134.63V174.23H134.87V15.51Z" fill="#7575BE"/>
<path d="M135.11 15.51H134.87V174.23H135.11V15.51Z" fill="#7676BE"/>
<path d="M135.35 15.51H135.11V174.23H135.35V15.51Z" fill="#7777BF"/>
<path d="M135.59 15.51H135.35V174.23H135.59V15.51Z" fill="#7878BF"/>
<path d="M135.83 15.51H135.59V174.23H135.83V15.51Z" fill="#7979BF"/>
<path d="M136.07 15.51H135.83V174.23H136.07V15.51Z" fill="#7A7ABF"/>
<path d="M136.31 15.51H136.07V174.23H136.31V15.51Z" fill="#7B7BBF"/>
<path d="M136.55 15.51H136.31V174.23H136.55V15.51Z" fill="#7C7CBF"/>
<path d="M136.79 15.51H136.55V174.23H136.79V15.51Z" fill="#7D7DBF"/>
<path d="M137.03 15.51H136.79V174.23H137.03V15.51Z" fill="#7E7EBF"/>
<path d="M137.27 15.51H137.03V174.23H137.27V15.51Z" fill="#7F80C0"/>
<path d="M137.51 15.51H137.27V174.23H137.51V15.51Z" fill="#8081C0"/>
<path d="M137.75 15.51H137.51V174.23H137.75V15.51Z" fill="#8282C0"/>
<path d="M137.99 15.51H137.75V174.23H137.99V15.51Z" fill="#8383C0"/>
<path d="M138.23 15.51H137.99V174.23H138.23V15.51Z" fill="#8484C0"/>
<path d="M138.47 15.51H138.23V174.23H138.47V15.51Z" fill="#8585C0"/>
<path d="M138.71 15.51H138.47V174.23H138.71V15.51Z" fill="#8686C0"/>
<path d="M138.95 15.51H138.71V174.23H138.95V15.51Z" fill="#8787C0"/>
<path d="M139.19 15.51H138.95V174.23H139.19V15.51Z" fill="#8888C1"/>
<path d="M139.43 15.51H139.19V174.23H139.43V15.51Z" fill="#8989C1"/>
<path d="M139.67 15.51H139.43V174.23H139.67V15.51Z" fill="#8A8AC1"/>
<path d="M139.91 15.51H139.67V174.23H139.91V15.51Z" fill="#8B8BC1"/>
<path d="M140.15 15.51H139.91V174.23H140.15V15.51Z" fill="#8C8CC1"/>
<path d="M140.39 15.51H140.15V174.23H140.39V15.51Z" fill="#8D8DC1"/>
<path d="M140.63 15.51H140.39V174.23H140.63V15.51Z" fill="#8E8EC1"/>
<path d="M140.87 15.51H140.63V174.23H140.87V15.51Z" fill="#8F8FC1"/>
<path d="M141.11 15.51H140.87V174.23H141.11V15.51Z" fill="#9090C2"/>
<path d="M141.35 15.51H141.11V174.23H141.35V15.51Z" fill="#9191C2"/>
<path d="M141.6 15.51H141.36V174.23H141.6V15.51Z" fill="#9292C2"/>
<path d="M141.84 15.51H141.6V174.23H141.84V15.51Z" fill="#9393C2"/>
<path d="M142.08 15.51H141.84V174.23H142.08V15.51Z" fill="#9494C2"/>
<path d="M142.32 15.51H142.08V174.23H142.32V15.51Z" fill="#9595C2"/>
<path d="M142.56 15.51H142.32V174.23H142.56V15.51Z" fill="#9696C2"/>
<path d="M142.8 15.51H142.56V174.23H142.8V15.51Z" fill="#9797C2"/>
<path d="M143.04 15.51H142.8V174.23H143.04V15.51Z" fill="#9898C2"/>
<path d="M143.28 15.51H143.04V174.23H143.28V15.51Z" fill="#9899C3"/>
<path d="M143.52 15.51H143.28V174.23H143.52V15.51Z" fill="#999AC3"/>
<path d="M143.76 15.51H143.52V174.23H143.76V15.51Z" fill="#9A9BC3"/>
<path d="M144 15.51H143.76V174.23H144V15.51Z" fill="#9B9CC3"/>
<path d="M144.24 15.51H144V174.23H144.24V15.51Z" fill="#9C9DC3"/>
<path d="M144.48 15.51H144.24V174.23H144.48V15.51Z" fill="#9D9EC3"/>
<path d="M144.72 15.51H144.48V174.23H144.72V15.51Z" fill="#9E9FC3"/>
<path d="M144.96 15.51H144.72V174.23H144.96V15.51Z" fill="#9FA0C3"/>
<path d="M145.2 15.51H144.96V174.23H145.2V15.51Z" fill="#A0A1C4"/>
<path d="M145.44 15.51H145.2V174.23H145.44V15.51Z" fill="#A1A2C4"/>
<path d="M145.68 15.51H145.44V174.23H145.68V15.51Z" fill="#A2A3C4"/>
<path d="M145.92 15.51H145.68V174.23H145.92V15.51Z" fill="#A3A4C4"/>
<path d="M146.16 15.51H145.92V174.23H146.16V15.51Z" fill="#A4A5C4"/>
<path d="M146.4 15.51H146.16V174.23H146.4V15.51Z" fill="#A5A6C4"/>
<path d="M146.64 15.51H146.4V174.23H146.64V15.51Z" fill="#A6A7C4"/>
<path d="M146.88 15.51H146.64V174.23H146.88V15.51Z" fill="#A7A8C4"/>
<path d="M147.12 15.51H146.88V174.23H147.12V15.51Z" fill="#A8A8C4"/>
<path d="M147.36 15.51H147.12V174.23H147.36V15.51Z" fill="#A9A9C5"/>
<path d="M147.6 15.51H147.36V174.23H147.6V15.51Z" fill="#AAAAC5"/>
<path d="M147.84 15.51H147.6V174.23H147.84V15.51Z" fill="#ABABC5"/>
<path d="M148.08 15.51H147.84V174.23H148.08V15.51Z" fill="#ACACC5"/>
<path d="M148.32 15.51H148.08V174.23H148.32V15.51Z" fill="#ADADC5"/>
<path d="M148.56 15.51H148.32V174.23H148.56V15.51Z" fill="#ADAEC5"/>
<path d="M148.8 15.51H148.56V174.23H148.8V15.51Z" fill="#AEAFC5"/>
<path d="M149.04 15.51H148.8V174.23H149.04V15.51Z" fill="#AFB0C5"/>
<path d="M149.28 15.51H149.04V174.23H149.28V15.51Z" fill="#B0B1C5"/>
<path d="M149.52 15.51H149.28V174.23H149.52V15.51Z" fill="#B1B2C6"/>
<path d="M149.76 15.51H149.52V174.23H149.76V15.51Z" fill="#B2B3C6"/>
<path d="M150 15.51H149.76V174.23H150V15.51Z" fill="#B3B4C6"/>
<path d="M150.24 15.51H150V174.23H150.24V15.51Z" fill="#B4B5C6"/>
<path d="M150.48 15.51H150.24V174.23H150.48V15.51Z" fill="#B5B6C6"/>
<path d="M150.72 15.51H150.48V174.23H150.72V15.51Z" fill="#B6B6C6"/>
<path d="M150.96 15.51H150.72V174.23H150.96V15.51Z" fill="#B7B7C6"/>
<path d="M151.2 15.51H150.96V174.23H151.2V15.51Z" fill="#B7B8C6"/>
<path d="M151.44 15.51H151.2V174.23H151.44V15.51Z" fill="#B8B9C6"/>
<path d="M151.68 15.51H151.44V174.23H151.68V15.51Z" fill="#B9BAC7"/>
<path d="M151.92 15.51H151.68V174.23H151.92V15.51Z" fill="#BABBC7"/>
<path d="M152.16 15.51H151.92V174.23H152.16V15.51Z" fill="#BBBCC7"/>
<path d="M152.4 15.51H152.16V174.23H152.4V15.51Z" fill="#BCBDC7"/>
<path d="M152.64 15.51H152.4V174.23H152.64V15.51Z" fill="#BDBDC7"/>
<path d="M152.89 15.51H152.65V174.23H152.89V15.51Z" fill="#BDBEC7"/>
<path d="M153.13 15.51H152.89V174.23H153.13V15.51Z" fill="#BEBFC7"/>
<path d="M153.37 15.51H153.13V174.23H153.37V15.51Z" fill="#BFC0C7"/>
<path d="M153.61 15.51H153.37V174.23H153.61V15.51Z" fill="#C0C1C7"/>
<path d="M153.85 15.51H153.61V174.23H153.85V15.51Z" fill="#C1C2C7"/>
<path d="M154.09 15.51H153.85V174.23H154.09V15.51Z" fill="#C1C2C8"/>
<path d="M154.33 15.51H154.09V174.23H154.33V15.51Z" fill="#C2C3C8"/>
<path d="M154.57 15.51H154.33V174.23H154.57V15.51Z" fill="#C3C4C8"/>
<path d="M154.81 15.51H154.57V174.23H154.81V15.51Z" fill="#C4C5C8"/>
<path d="M155.05 15.51H154.81V174.23H155.05V15.51Z" fill="#C4C5C8"/>
<path d="M155.29 15.51H155.05V174.23H155.29V15.51Z" fill="#C5C6C8"/>
<path d="M155.4 15.51H155.29V174.23H155.4V15.51Z" fill="#C5C6C8"/>
<path d="M155.5 15.51H155.39V174.23H155.5V15.51Z" fill="#C5C6C7"/>
<path d="M155.61 15.51H155.5V174.23H155.61V15.51Z" fill="#C6C6C6"/>
<path d="M155.72 15.51H155.61V174.23H155.72V15.51Z" fill="#C6C7C5"/>
<path d="M155.83 15.51H155.72V174.23H155.83V15.51Z" fill="#C6C7C4"/>
<path d="M155.93 15.51H155.82V174.23H155.93V15.51Z" fill="#C7C7C3"/>
<path d="M156.04 15.51H155.93V174.23H156.04V15.51Z" fill="#C7C7C2"/>
<path d="M156.15 15.51H156.04V174.23H156.15V15.51Z" fill="#C7C7C1"/>
<path d="M156.26 15.51H156.15V174.23H156.26V15.51Z" fill="#C7C8C0"/>
<path d="M156.36 15.51H156.25V174.23H156.36V15.51Z" fill="#C8C8BF"/>
<path d="M156.47 15.51H156.36V174.23H156.47V15.51Z" fill="#C8C8BE"/>
<path d="M156.58 15.51H156.47V174.23H156.58V15.51Z" fill="#C8C8BD"/>
<path d="M156.68 15.51H156.57V174.23H156.68V15.51Z" fill="#C9C8BC"/>
<path d="M156.79 15.51H156.68V174.23H156.79V15.51Z" fill="#C9C9BA"/>
<path d="M156.9 15.51H156.79V174.23H156.9V15.51Z" fill="#C9C9B9"/>
<path d="M157.01 15.51H156.9V174.23H157.01V15.51Z" fill="#CAC9B8"/>
<path d="M157.11 15.51H157V174.23H157.11V15.51Z" fill="#CAC9B7"/>
<path d="M157.22 15.51H157.11V174.23H157.22V15.51Z" fill="#CAC9B6"/>
<path d="M157.33 15.51H157.22V174.23H157.33V15.51Z" fill="#CACAB5"/>
<path d="M157.44 15.51H157.33V174.23H157.44V15.51Z" fill="#CBCAB4"/>
<path d="M157.54 15.51H157.43V174.23H157.54V15.51Z" fill="#CBCAB3"/>
<path d="M157.65 15.51H157.54V174.23H157.65V15.51Z" fill="#CBCAB2"/>
<path d="M157.76 15.51H157.65V174.23H157.76V15.51Z" fill="#CCCAB1"/>
<path d="M157.86 15.51H157.75V174.23H157.86V15.51Z" fill="#CCCBB0"/>
<path d="M157.97 15.51H157.86V174.23H157.97V15.51Z" fill="#CCCBAF"/>
<path d="M158.08 15.51H157.97V174.23H158.08V15.51Z" fill="#CDCBAE"/>
<path d="M158.19 15.51H158.08V174.23H158.19V15.51Z" fill="#CDCBAD"/>
<path d="M158.29 15.51H158.18V174.23H158.29V15.51Z" fill="#CDCBAC"/>
<path d="M158.4 15.51H158.29V174.23H158.4V15.51Z" fill="#CDCCAB"/>
<path d="M158.51 15.51H158.4V174.23H158.51V15.51Z" fill="#CECCAA"/>
<path d="M158.61 15.51H158.5V174.23H158.61V15.51Z" fill="#CECCA9"/>
<path d="M158.72 15.51H158.61V174.23H158.72V15.51Z" fill="#CECCA8"/>
<path d="M158.83 15.51H158.72V174.23H158.83V15.51Z" fill="#CFCCA7"/>
<path d="M158.94 15.51H158.83V174.23H158.94V15.51Z" fill="#CFCDA6"/>
<path d="M159.04 15.51H158.93V174.23H159.04V15.51Z" fill="#CFCDA5"/>
<path d="M159.15 15.51H159.04V174.23H159.15V15.51Z" fill="#D0CDA4"/>
<path d="M159.26 15.51H159.15V174.23H159.26V15.51Z" fill="#D0CDA3"/>
<path d="M159.37 15.51H159.26V174.23H159.37V15.51Z" fill="#D0CDA2"/>
<path d="M159.47 15.51H159.36V174.23H159.47V15.51Z" fill="#D0CEA1"/>
<path d="M159.58 15.51H159.47V174.23H159.58V15.51Z" fill="#D1CEA0"/>
<path d="M159.69 15.51H159.58V174.23H159.69V15.51Z" fill="#D1CE9F"/>
<path d="M159.79 15.51H159.68V174.23H159.79V15.51Z" fill="#D1CE9D"/>
<path d="M159.9 15.51H159.79V174.23H159.9V15.51Z" fill="#D2CE9C"/>
<path d="M160.01 15.51H159.9V174.23H160.01V15.51Z" fill="#D2CF9B"/>
<path d="M160.12 15.51H160.01V174.23H160.12V15.51Z" fill="#D2CF9A"/>
<path d="M160.22 15.51H160.11V174.23H160.22V15.51Z" fill="#D3CF99"/>
<path d="M160.33 15.51H160.22V174.23H160.33V15.51Z" fill="#D3CF98"/>
<path d="M160.44 15.51H160.33V174.23H160.44V15.51Z" fill="#D3CF97"/>
<path d="M160.55 15.51H160.44V174.23H160.55V15.51Z" fill="#D3D096"/>
<path d="M160.65 15.51H160.54V174.23H160.65V15.51Z" fill="#D4D095"/>
<path d="M160.76 15.51H160.65V174.23H160.76V15.51Z" fill="#D4D094"/>
<path d="M160.87 15.51H160.76V174.23H160.87V15.51Z" fill="#D4D093"/>
<path d="M160.97 15.51H160.86V174.23H160.97V15.51Z" fill="#D5D192"/>
<path d="M161.08 15.51H160.97V174.23H161.08V15.51Z" fill="#D5D191"/>
<path d="M161.19 15.51H161.08V174.23H161.19V15.51Z" fill="#D5D190"/>
<path d="M161.3 15.51H161.19V174.23H161.3V15.51Z" fill="#D6D18F"/>
<path d="M161.4 15.51H161.29V174.23H161.4V15.51Z" fill="#D6D18E"/>
<path d="M161.51 15.51H161.4V174.23H161.51V15.51Z" fill="#D6D28D"/>
<path d="M161.62 15.51H161.51V174.23H161.62V15.51Z" fill="#D6D28C"/>
<path d="M161.72 15.51H161.61V174.23H161.72V15.51Z" fill="#D7D28B"/>
<path d="M161.83 15.51H161.72V174.23H161.83V15.51Z" fill="#D7D28A"/>
<path d="M161.94 15.51H161.83V174.23H161.94V15.51Z" fill="#D7D289"/>
<path d="M162.05 15.51H161.94V174.23H162.05V15.51Z" fill="#D8D388"/>
<path d="M162.15 15.51H162.04V174.23H162.15V15.51Z" fill="#D8D387"/>
<path d="M162.26 15.51H162.15V174.23H162.26V15.51Z" fill="#D8D386"/>
<path d="M162.37 15.51H162.26V174.23H162.37V15.51Z" fill="#D8D385"/>
<path d="M162.48 15.51H162.37V174.23H162.48V15.51Z" fill="#D9D384"/>
<path d="M162.58 15.51H162.47V174.23H162.58V15.51Z" fill="#D9D483"/>
<path d="M162.69 15.51H162.58V174.23H162.69V15.51Z" fill="#D9D482"/>
<path d="M162.8 15.51H162.69V174.23H162.8V15.51Z" fill="#DAD481"/>
<path d="M162.9 15.51H162.79V174.23H162.9V15.51Z" fill="#DAD480"/>
<path d="M163.01 15.51H162.9V174.23H163.01V15.51Z" fill="#DAD47F"/>
<path d="M163.12 15.51H163.01V174.23H163.12V15.51Z" fill="#DBD57E"/>
<path d="M163.23 15.51H163.12V174.23H163.23V15.51Z" fill="#DBD57D"/>
<path d="M163.33 15.51H163.22V174.23H163.33V15.51Z" fill="#DBD57C"/>
<path d="M163.44 15.51H163.33V174.23H163.44V15.51Z" fill="#DBD57B"/>
<path d="M163.55 15.51H163.44V174.23H163.55V15.51Z" fill="#DCD579"/>
<path d="M163.66 15.51H163.55V174.23H163.66V15.51Z" fill="#DCD678"/>
<path d="M163.76 15.51H163.65V174.23H163.76V15.51Z" fill="#DCD677"/>
<path d="M163.87 15.51H163.76V174.23H163.87V15.51Z" fill="#DDD676"/>
<path d="M163.98 15.51H163.87V174.23H163.98V15.51Z" fill="#DDD675"/>
<path d="M164.08 15.51H163.97V174.23H164.08V15.51Z" fill="#DDD674"/>
<path d="M164.19 15.51H164.08V174.23H164.19V15.51Z" fill="#DED773"/>
<path d="M164.3 15.51H164.19V174.23H164.3V15.51Z" fill="#DED772"/>
<path d="M164.41 15.51H164.3V174.23H164.41V15.51Z" fill="#DED771"/>
<path d="M164.51 15.51H164.4V174.23H164.51V15.51Z" fill="#DED770"/>
<path d="M164.62 15.51H164.51V174.23H164.62V15.51Z" fill="#DFD76F"/>
<path d="M164.73 15.51H164.62V174.23H164.73V15.51Z" fill="#DFD76E"/>
<path d="M164.83 15.51H164.72V174.23H164.83V15.51Z" fill="#DFD86D"/>
<path d="M164.94 15.51H164.83V174.23H164.94V15.51Z" fill="#E0D86C"/>
<path d="M165.05 15.51H164.94V174.23H165.05V15.51Z" fill="#E0D86B"/>
<path d="M165.16 15.51H165.05V174.23H165.16V15.51Z" fill="#E0D86A"/>
<path d="M165.26 15.51H165.15V174.23H165.26V15.51Z" fill="#E1D869"/>
<path d="M165.37 15.51H165.26V174.23H165.37V15.51Z" fill="#E1D968"/>
<path d="M165.48 15.51H165.37V174.23H165.48V15.51Z" fill="#E1D967"/>
<path d="M165.59 15.51H165.48V174.23H165.59V15.51Z" fill="#E1D966"/>
<path d="M165.69 15.51H165.58V174.23H165.69V15.51Z" fill="#E2D965"/>
<path d="M165.8 15.51H165.69V174.23H165.8V15.51Z" fill="#E2D964"/>
<path d="M165.91 15.51H165.8V174.23H165.91V15.51Z" fill="#E2DA63"/>
<path d="M166.01 15.51H165.9V174.23H166.01V15.51Z" fill="#E3DA62"/>
<path d="M166.12 15.51H166.01V174.23H166.12V15.51Z" fill="#E3DA61"/>
<path d="M166.23 15.51H166.12V174.23H166.23V15.51Z" fill="#E3DA60"/>
<path d="M166.34 15.51H166.23V174.23H166.34V15.51Z" fill="#E3DA5F"/>
<path d="M166.44 15.51H166.33V174.23H166.44V15.51Z" fill="#E4DB5E"/>
<path d="M166.55 15.51H166.44V174.23H166.55V15.51Z" fill="#E4DB5D"/>
<path d="M166.66 15.51H166.55V174.23H166.66V15.51Z" fill="#E4DB5C"/>
<path d="M166.77 15.51H166.66V174.23H166.77V15.51Z" fill="#E5DB5B"/>
<path d="M166.87 15.51H166.76V174.23H166.87V15.51Z" fill="#E5DB5A"/>
<path d="M166.98 15.51H166.87V174.23H166.98V15.51Z" fill="#E5DC59"/>
<path d="M167.09 15.51H166.98V174.23H167.09V15.51Z" fill="#E6DC58"/>
<path d="M167.19 15.51H167.08V174.23H167.19V15.51Z" fill="#E6DC57"/>
<path d="M167.3 15.51H167.19V174.23H167.3V15.51Z" fill="#E6DC56"/>
<path d="M167.41 15.51H167.3V174.23H167.41V15.51Z" fill="#E6DC55"/>
<path d="M167.52 15.51H167.41V174.23H167.52V15.51Z" fill="#E7DD54"/>
<path d="M167.62 15.51H167.51V174.23H167.62V15.51Z" fill="#E7DD53"/>
<path d="M167.73 15.51H167.62V174.23H167.73V15.51Z" fill="#E7DD52"/>
<path d="M167.84 15.51H167.73V174.23H167.84V15.51Z" fill="#E8DD51"/>
<path d="M167.95 15.51H167.84V174.23H167.95V15.51Z" fill="#E8DD50"/>
<path d="M168.05 15.51H167.94V174.23H168.05V15.51Z" fill="#E8DE4F"/>
<path d="M168.16 15.51H168.05V174.23H168.16V15.51Z" fill="#E8DE4E"/>
<path d="M168.27 15.51H168.16V174.23H168.27V15.51Z" fill="#E9DE4D"/>
<path d="M168.37 15.51H168.26V174.23H168.37V15.51Z" fill="#E9DE4C"/>
<path d="M168.48 15.51H168.37V174.23H168.48V15.51Z" fill="#E9DE4B"/>
<path d="M168.59 15.51H168.48V174.23H168.59V15.51Z" fill="#EADF4A"/>
<path d="M168.7 15.51H168.59V174.23H168.7V15.51Z" fill="#EADF49"/>
<path d="M168.8 15.51H168.69V174.23H168.8V15.51Z" fill="#EADF48"/>
<path d="M168.91 15.51H168.8V174.23H168.91V15.51Z" fill="#EADF47"/>
<path d="M169.02 15.51H168.91V174.23H169.02V15.51Z" fill="#EBDF46"/>
<path d="M169.12 15.51H169.01V174.23H169.12V15.51Z" fill="#EBE045"/>
<path d="M169.23 15.51H169.12V174.23H169.23V15.51Z" fill="#EBE044"/>
<path d="M169.34 15.51H169.23V174.23H169.34V15.51Z" fill="#ECE043"/>
<path d="M169.45 15.51H169.34V174.23H169.45V15.51Z" fill="#ECE042"/>
<path d="M169.55 15.51H169.44V174.23H169.55V15.51Z" fill="#ECE041"/>
<path d="M169.66 15.51H169.55V174.23H169.66V15.51Z" fill="#EDE140"/>
<path d="M169.77 15.51H169.66V174.23H169.77V15.51Z" fill="#EDE13F"/>
<path d="M169.88 15.51H169.77V174.23H169.88V15.51Z" fill="#EDE13E"/>
<path d="M169.98 15.51H169.87V174.23H169.98V15.51Z" fill="#EDE13D"/>
<path d="M170.09 15.51H169.98V174.23H170.09V15.51Z" fill="#EEE13C"/>
<path d="M170.2 15.51H170.09V174.23H170.2V15.51Z" fill="#EEE23B"/>
<path d="M170.3 15.51H170.19V174.23H170.3V15.51Z" fill="#EEE23A"/>
<path d="M170.41 15.51H170.3V174.23H170.41V15.51Z" fill="#EFE239"/>
<path d="M170.52 15.51H170.41V174.23H170.52V15.51Z" fill="#EFE238"/>
<path d="M170.63 15.51H170.52V174.23H170.63V15.51Z" fill="#EFE237"/>
<path d="M170.73 15.51H170.62V174.23H170.73V15.51Z" fill="#EFE336"/>
<path d="M170.84 15.51H170.73V174.23H170.84V15.51Z" fill="#F0E335"/>
<path d="M170.95 15.51H170.84V174.23H170.95V15.51Z" fill="#F0E334"/>
<path d="M171.06 15.51H170.95V174.23H171.06V15.51Z" fill="#F0E333"/>
<path d="M171.16 15.51H171.05V174.23H171.16V15.51Z" fill="#F1E332"/>
<path d="M171.27 15.51H171.16V174.23H171.27V15.51Z" fill="#F1E331"/>
<path d="M171.38 15.51H171.27V174.23H171.38V15.51Z" fill="#F1E430"/>
<path d="M171.48 15.51H171.37V174.23H171.48V15.51Z" fill="#F1E42F"/>
<path d="M171.59 15.51H171.48V174.23H171.59V15.51Z" fill="#F2E42E"/>
<path d="M171.7 15.51H171.59V174.23H171.7V15.51Z" fill="#F2E42D"/>
<path d="M171.81 15.51H171.7V174.23H171.81V15.51Z" fill="#F2E42C"/>
<path d="M171.91 15.51H171.8V174.23H171.91V15.51Z" fill="#F3E52B"/>
<path d="M172.02 15.51H171.91V174.23H172.02V15.51Z" fill="#F3E52A"/>
<path d="M172.13 15.51H172.02V174.23H172.13V15.51Z" fill="#F3E529"/>
<path d="M172.23 15.51H172.12V174.23H172.23V15.51Z" fill="#F3E528"/>
<path d="M172.34 15.51H172.23V174.23H172.34V15.51Z" fill="#F4E527"/>
<path d="M172.45 15.51H172.34V174.23H172.45V15.51Z" fill="#F4E626"/>
<path d="M172.56 15.51H172.45V174.23H172.56V15.51Z" fill="#F4E625"/>
<path d="M172.66 15.51H172.55V174.23H172.66V15.51Z" fill="#F5E624"/>
<path d="M172.77 15.51H172.66V174.23H172.77V15.51Z" fill="#F5E623"/>
<path d="M172.88 15.51H172.77V174.23H172.88V15.51Z" fill="#F5E622"/>
<path d="M172.99 15.51H172.88V174.23H172.99V15.51Z" fill="#F5E721"/>
<path d="M173.09 15.51H172.98V174.23H173.09V15.51Z" fill="#F6E720"/>
<path d="M173.2 15.51H173.09V174.23H173.2V15.51Z" fill="#F6E71F"/>
<path d="M173.31 15.51H173.2V174.23H173.31V15.51Z" fill="#F6E71E"/>
<path d="M173.41 15.51H173.3V174.23H173.41V15.51Z" fill="#F7E71D"/>
<path d="M173.52 15.51H173.41V174.23H173.52V15.51Z" fill="#F7E81C"/>
<path d="M173.63 15.51H173.52V174.23H173.63V15.51Z" fill="#F7E81B"/>
<path d="M173.74 15.51H173.63V174.23H173.74V15.51Z" fill="#F7E81A"/>
<path d="M173.84 15.51H173.73V174.23H173.84V15.51Z" fill="#F8E819"/>
<path d="M173.95 15.51H173.84V174.23H173.95V15.51Z" fill="#F8E818"/>
<path d="M174.06 15.51H173.95V174.23H174.06V15.51Z" fill="#F8E817"/>
<path d="M174.17 15.51H174.06V174.23H174.17V15.51Z" fill="#F9E916"/>
<path d="M174.27 15.51H174.16V174.23H174.27V15.51Z" fill="#F9E915"/>
<path d="M174.38 15.51H174.27V174.23H174.38V15.51Z" fill="#F9E914"/>
<path d="M174.49 15.51H174.38V174.23H174.49V15.51Z" fill="#F9E913"/>
<path d="M174.59 15.51H174.48V174.23H174.59V15.51Z" fill="#FAE913"/>
<path d="M174.7 15.51H174.59V174.23H174.7V15.51Z" fill="#FAEA12"/>
<path d="M174.81 15.51H174.7V174.23H174.81V15.51Z" fill="#FAEA11"/>
<path d="M174.92 15.51H174.81V174.23H174.92V15.51Z" fill="#FAEA10"/>
<path d="M175.02 15.51H174.91V174.23H175.02V15.51Z" fill="#FBEA0F"/>
<path d="M175.13 15.51H175.02V174.23H175.13V15.51Z" fill="#FBEA0E"/>
<path d="M175.24 15.51H175.13V174.23H175.24V15.51Z" fill="#FBEB0D"/>
<path d="M175.34 15.51H175.23V174.23H175.34V15.51Z" fill="#FCEB0C"/>
<path d="M175.45 15.51H175.34V174.23H175.45V15.51Z" fill="#FCEB0B"/>
<path d="M175.56 15.51H175.45V174.23H175.56V15.51Z" fill="#FCEB0A"/>
<path d="M175.67 15.51H175.56V174.23H175.67V15.51Z" fill="#FCEB09"/>
<path d="M175.77 15.51H175.66V174.23H175.77V15.51Z" fill="#FDEB08"/>
<path d="M175.88 15.51H175.77V174.23H175.88V15.51Z" fill="#FDEC07"/>
<path d="M175.99 15.51H175.88V174.23H175.99V15.51Z" fill="#FDEC06"/>
<path d="M176.1 15.51H175.99V174.23H176.1V15.51Z" fill="#FDEC05"/>
<path d="M176.2 15.51H176.09V174.23H176.2V15.51Z" fill="#FEEC04"/>
<path d="M176.31 15.51H176.2V174.23H176.31V15.51Z" fill="#FEEC03"/>
<path d="M176.42 15.51H176.31V174.23H176.42V15.51Z" fill="#FEEC03"/>
<path d="M176.52 15.51H176.41V174.23H176.52V15.51Z" fill="#FFED02"/>
<path d="M176.63 15.51H176.52V174.23H176.63V15.51Z" fill="#FFED01"/>
</g>
</g>
<defs>
<clipPath id="clip0_11_2642">
<rect width="176.74" height="174.24" fill="white"/>
</clipPath>
</defs>
</svg>
