<svg width="172" height="172" viewBox="0 0 172 172" fill="none" xmlns="http://www.w3.org/2000/svg">
<g clip-path="url(#clip0_11_3606)">
<path d="M85.8701 135.72V170.24" stroke="#C5C6C8" stroke-width="3" stroke-miterlimit="10" stroke-linecap="round"/>
<path d="M72.9698 134.02L64.0298 167.36" stroke="#C5C6C8" stroke-width="3" stroke-miterlimit="10" stroke-linecap="round"/>
<path d="M60.9402 129.04L43.6802 158.93" stroke="#C5C6C8" stroke-width="3" stroke-miterlimit="10" stroke-linecap="round"/>
<path d="M50.62 121.12L26.21 145.53" stroke="#C5C6C8" stroke-width="3" stroke-miterlimit="10" stroke-linecap="round"/>
<path d="M42.6998 110.79L12.7998 128.05" stroke="#C5C6C8" stroke-width="3" stroke-miterlimit="10" stroke-linecap="round"/>
<path d="M36.02 85.87H1.5" stroke="#C5C6C8" stroke-width="3" stroke-miterlimit="10" stroke-linecap="round"/>
<path d="M37.7201 72.97L4.37012 64.03" stroke="#C5C6C8" stroke-width="3" stroke-miterlimit="10" stroke-linecap="round"/>
<path d="M37.7201 72.97L4.37012 64.03" stroke="#C5C6C8" stroke-width="3" stroke-miterlimit="10" stroke-linecap="round"/>
<path d="M42.6998 60.94L12.7998 43.68" stroke="#C5C6C8" stroke-width="3" stroke-miterlimit="10" stroke-linecap="round"/>
<path d="M50.62 50.62L26.21 26.21" stroke="#C5C6C8" stroke-width="3" stroke-miterlimit="10" stroke-linecap="round"/>
<path d="M60.9402 42.7L43.6802 12.8" stroke="#C5C6C8" stroke-width="3" stroke-miterlimit="10" stroke-linecap="round"/>
<path d="M72.9698 37.72L64.0298 4.37" stroke="#C5C6C8" stroke-width="3" stroke-miterlimit="10" stroke-linecap="round"/>
<path d="M85.8701 36.02V1.5" stroke="#C5C6C8" stroke-width="3" stroke-miterlimit="10" stroke-linecap="round"/>
<path d="M98.77 37.72L107.7 4.37" stroke="#C5C6C8" stroke-width="3" stroke-miterlimit="10" stroke-linecap="round"/>
<path d="M110.79 42.7L128.05 12.8" stroke="#C5C6C8" stroke-width="3" stroke-miterlimit="10" stroke-linecap="round"/>
<path d="M121.12 50.62L145.53 26.21" stroke="#C5C6C8" stroke-width="3" stroke-miterlimit="10" stroke-linecap="round"/>
<path d="M129.04 60.94L158.93 43.68" stroke="#C5C6C8" stroke-width="3" stroke-miterlimit="10" stroke-linecap="round"/>
<path d="M134.02 72.97L167.36 64.03" stroke="#C5C6C8" stroke-width="3" stroke-miterlimit="10" stroke-linecap="round"/>
<path d="M134.02 72.97L167.36 64.03" stroke="#C5C6C8" stroke-width="3" stroke-miterlimit="10" stroke-linecap="round"/>
<path d="M135.72 85.87H170.24" stroke="#C5C6C8" stroke-width="3" stroke-miterlimit="10" stroke-linecap="round"/>
<path d="M129.04 110.79L158.93 128.05" stroke="#C5C6C8" stroke-width="3" stroke-miterlimit="10" stroke-linecap="round"/>
<path d="M121.12 121.12L145.53 145.53" stroke="#C5C6C8" stroke-width="3" stroke-miterlimit="10" stroke-linecap="round"/>
<path d="M110.79 129.04L128.05 158.93" stroke="#C5C6C8" stroke-width="3" stroke-miterlimit="10" stroke-linecap="round"/>
<path d="M98.77 134.02L107.7 167.36" stroke="#C5C6C8" stroke-width="3" stroke-miterlimit="10" stroke-linecap="round"/>
<path d="M37.7201 98.77L4.37012 107.7" stroke="#C5C6C8" stroke-width="3" stroke-miterlimit="10" stroke-linecap="round"/>
<path d="M134.02 98.77L167.36 107.7" stroke="#C5C6C8" stroke-width="3" stroke-miterlimit="10" stroke-linecap="round"/>
<path d="M121.11 121.11C115.01 127.21 107.34 131.73 98.76 134.02C94.65 135.12 90.32 135.72 85.86 135.72C81.4 135.72 77.08 135.12 72.96 134.02C64.38 131.72 56.71 127.21 50.61 121.11C44.51 115.01 39.99 107.34 37.7 98.76C36.6 94.65 36 90.32 36 85.86C36 81.4 36.6 77.08 37.7 72.96C40 64.38 44.51 56.71 50.61 50.61C56.71 44.51 64.38 39.99 72.96 37.7C77.07 36.6 81.4 36 85.86 36C90.32 36 94.64 36.6 98.76 37.7C107.34 40 115.01 44.51 121.11 50.61C127.21 56.71 131.73 64.38 134.02 72.96C135.12 77.07 135.72 81.4 135.72 85.86C135.72 90.32 135.12 94.64 134.02 98.76C131.72 107.34 127.21 115.01 121.11 121.11ZM121.11 121.11L137.75 137.75M63.63 97.19L52.31 85.87L63.63 74.55M76.89 100.81L94.15 70.92M106.72 97.09L119.42 87.34L109.67 74.64M85.87 135.71V159.25M72.97 134.01L66.88 156.75M60.95 129.03L49.18 149.42M50.63 121.11L33.99 137.75M22.33 122.55L42.72 110.78M36.04 85.85H12.48M37.72 72.95L14.98 66.86M42.7 60.93L22.31 49.16M50.62 50.61L33.98 33.97M60.95 42.69L49.18 22.3M72.97 37.71L66.88 14.97M85.87 36.01V12.48M98.77 37.72L104.86 14.98M110.79 42.7L122.56 22.31M121.11 50.62L137.75 33.98M129.03 60.95L149.42 49.18M134.01 72.97L156.75 66.88M135.71 85.87H159.25M149.42 122.56L129.03 110.79M110.78 129.03L122.55 149.42M98.76 134.01L104.85 156.75M14.98 104.86L37.72 98.77M156.76 104.86L134.02 98.77" stroke="url(#paint0_radial_11_3606)" stroke-width="8" stroke-linecap="round" stroke-linejoin="round"/>
</g>
<defs>
<radialGradient id="paint0_radial_11_3606" cx="0" cy="0" r="1" gradientUnits="userSpaceOnUse" gradientTransform="translate(85.87 85.87) scale(77.39)">
<stop stop-color="#0047BB"/>
<stop offset="0.59" stop-color="#0047BB"/>
<stop offset="0.7" stop-color="#0248BB"/>
<stop offset="0.76" stop-color="#094DBB"/>
<stop offset="0.8" stop-color="#1655BC"/>
<stop offset="0.84" stop-color="#2961BD"/>
<stop offset="0.88" stop-color="#4171BF"/>
<stop offset="0.91" stop-color="#5F84C1"/>
<stop offset="0.94" stop-color="#839BC3"/>
<stop offset="0.96" stop-color="#ABB5C6"/>
<stop offset="0.98" stop-color="#C5C6C8"/>
<stop offset="1" stop-color="#FFED00"/>
</radialGradient>
<clipPath id="clip0_11_3606">
<rect width="171.74" height="171.74" fill="white"/>
</clipPath>
</defs>
</svg>
