<svg width="30" height="22" viewBox="0 0 30 22" fill="none" xmlns="http://www.w3.org/2000/svg">
<path d="M11 21H8C6.14348 21 4.36301 20.2625 3.05025 18.9497C1.7375 17.637 1 15.8565 1 14C1 12.1435 1.7375 10.363 3.05025 9.05025C4.36301 7.7375 6.14348 7 8 7C8.58566 6.99978 9.16915 7.07114 9.7375 7.2125" stroke="#1B1926" stroke-linecap="round" stroke-linejoin="round"/>
<path d="M9 11C9 9.41548 9.37653 7.85364 10.0986 6.44319C10.8206 5.03275 11.8675 3.81406 13.1529 2.88758C14.4383 1.96109 15.9255 1.35333 17.4919 1.11437C19.0583 0.875413 20.6591 1.0121 22.1623 1.51317C23.6655 2.01424 25.0281 2.86534 26.1378 3.99635C27.2476 5.12735 28.0727 6.50588 28.5451 8.01833C29.0176 9.53077 29.1239 11.1338 28.8552 12.6954C28.5866 14.257 27.9507 15.7324 27 17" stroke="#1B1926" stroke-linecap="round" stroke-linejoin="round"/>
<path d="M13.7627 15.2375L18.0002 11L22.2377 15.2375" stroke="#1B1926" stroke-linecap="round" stroke-linejoin="round"/>
<path d="M18 21V11" stroke="#1B1926" stroke-linecap="round" stroke-linejoin="round"/>
</svg>
