<svg width="181" height="36" viewBox="0 0 181 36" fill="none" xmlns="http://www.w3.org/2000/svg">
<g clip-path="url(#clip0_674_7241)">
<path d="M63.1222 13.3873V4.58392H69.3087V6.07993H64.9487V8.1705H68.7195V9.6665H64.9487V13.4065H63.1222V13.3873Z" fill="white"/>
<path d="M75.0828 13.3873V12.4284C74.8471 12.7736 74.5329 13.0421 74.1401 13.2339C73.7473 13.4257 73.3349 13.5216 72.9028 13.5216C72.4707 13.5216 72.0779 13.4257 71.7244 13.2339C71.3709 13.0421 71.1156 12.7736 70.9585 12.4475C70.8013 12.1023 70.7228 11.642 70.7228 11.0283V7.00055H72.4511V9.93502C72.4511 10.8365 72.4904 11.3735 72.5493 11.5845C72.6082 11.7954 72.726 11.9489 72.9028 12.0639C73.0796 12.179 73.2759 12.2366 73.5509 12.2366C73.8259 12.2366 74.1008 12.1598 74.3365 12.0064C74.5722 11.853 74.7293 11.6612 74.8078 11.4118C74.8864 11.1817 74.9453 10.6063 74.9453 9.68569V7.00055H76.6736V13.3873H75.0632H75.0828Z" fill="white"/>
<path d="M84.4116 13.3874H82.6834V10.1268C82.6834 9.43638 82.6441 8.99525 82.5655 8.78427C82.487 8.5733 82.3691 8.41986 82.212 8.30478C82.0352 8.18971 81.8388 8.13217 81.6032 8.13217C81.3675 8.13217 81.0336 8.20889 80.7979 8.3815C80.5623 8.55412 80.4051 8.74591 80.3069 9.01443C80.2087 9.28294 80.1695 9.76243 80.1695 10.4721V13.3682H78.4412V7.01975H80.0516V7.95955C80.6212 7.23073 81.3478 6.8855 82.212 6.8855C83.0761 6.8855 82.9387 6.96222 83.2529 7.09647C83.5671 7.23073 83.8028 7.40335 83.9599 7.61432C84.1171 7.8253 84.2349 8.05545 84.2938 8.32396C84.3527 8.59248 84.392 8.97607 84.392 9.45556V13.4257L84.4116 13.3874Z" fill="white"/>
<path d="M92.1694 13.3873H90.559V12.4475C90.284 12.8119 89.9698 13.0805 89.6163 13.2531C89.2627 13.4257 88.8896 13.5216 88.5164 13.5216C87.7701 13.5216 87.122 13.2339 86.5917 12.6393C86.0615 12.0448 85.7865 11.22 85.7865 10.1652C85.7865 9.1103 86.0418 8.26639 86.5721 7.69101C87.0827 7.1348 87.7505 6.84711 88.5557 6.84711C89.3609 6.84711 89.9109 7.1348 90.4411 7.72937V4.58392H92.1694V13.3873ZM87.5541 10.0693C87.5541 10.7597 87.6523 11.2392 87.8487 11.5461C88.1236 11.9872 88.5164 12.1982 89.0271 12.1982C89.5377 12.1982 89.7537 12.0256 90.0483 11.6995C90.3233 11.3735 90.4608 10.8748 90.4608 10.2227C90.4608 9.5706 90.3233 8.95686 90.0483 8.64999C89.7734 8.32393 89.4395 8.1705 89.0074 8.1705C88.5753 8.1705 88.2611 8.32393 87.9862 8.64999C87.7112 8.97604 87.5737 9.43635 87.5737 10.0693H87.5541Z" fill="white"/>
<path d="M97.6489 11.3735L99.3772 11.6612C99.1612 12.2749 98.8077 12.7544 98.3363 13.0613C97.865 13.3873 97.2561 13.5408 96.5491 13.5408C95.41 13.5408 94.5655 13.1763 94.0352 12.4475C93.6031 11.8721 93.3871 11.1433 93.3871 10.2419C93.3871 9.34043 93.662 8.36228 94.2316 7.76771C94.8011 7.17314 95.5082 6.86627 96.3723 6.86627C97.2365 6.86627 98.1203 7.17314 98.6702 7.80607C99.2397 8.43899 99.495 9.39797 99.4754 10.683H95.1547C95.1547 11.1817 95.3118 11.5653 95.5671 11.853C95.8421 12.1406 96.1759 12.2749 96.5687 12.2749C96.9615 12.2749 97.0597 12.1982 97.2561 12.0639C97.4525 11.9297 97.5704 11.6803 97.6686 11.3735H97.6489ZM97.7471 9.66649C97.7471 9.187 97.6096 8.80341 97.3543 8.55407C97.099 8.30474 96.8044 8.17048 96.4509 8.17048C96.0974 8.17048 95.7635 8.30474 95.5082 8.57325C95.2529 8.84177 95.135 9.20618 95.1547 9.66649H97.7471Z" fill="white"/>
<path d="M106.86 13.3873H105.25V12.4475C104.975 12.8119 104.66 13.0805 104.307 13.2531C103.953 13.4257 103.58 13.5216 103.207 13.5216C102.461 13.5216 101.813 13.2339 101.282 12.6393C100.752 12.0448 100.477 11.22 100.477 10.1652C100.477 9.1103 100.732 8.26639 101.263 7.69101C101.773 7.1348 102.441 6.84711 103.246 6.84711C104.051 6.84711 104.601 7.1348 105.132 7.72937V4.58392H106.86V13.3873ZM102.245 10.0693C102.245 10.7597 102.343 11.2392 102.539 11.5461C102.814 11.9872 103.207 12.1982 103.718 12.1982C104.228 12.1982 104.444 12.0256 104.739 11.6995C105.014 11.3735 105.151 10.8748 105.151 10.2227C105.151 9.5706 105.014 8.95686 104.739 8.64999C104.464 8.32393 104.13 8.1705 103.698 8.1705C103.266 8.1705 102.952 8.32393 102.677 8.64999C102.402 8.97604 102.264 9.43635 102.264 10.0693H102.245Z" fill="white"/>
<path d="M111.986 13.3873V4.58392H113.714V7.74855C114.245 7.15398 114.873 6.86629 115.6 6.86629C116.326 6.86629 117.053 7.15398 117.583 7.71019C118.094 8.2664 118.369 9.07194 118.369 10.1268C118.369 11.1817 118.094 12.0639 117.564 12.6393C117.033 13.2339 116.385 13.5216 115.639 13.5216C114.893 13.5216 114.893 13.4257 114.539 13.2531C114.186 13.0805 113.871 12.8119 113.596 12.4475V13.3873H111.986ZM113.695 10.0693C113.695 10.7214 113.793 11.22 114.009 11.5269C114.303 11.968 114.716 12.1982 115.207 12.1982C115.698 12.1982 115.914 12.0448 116.189 11.7187C116.464 11.3927 116.601 10.894 116.601 10.2227C116.601 9.55142 116.464 8.97604 116.189 8.64999C115.914 8.32393 115.58 8.1705 115.148 8.1705C114.716 8.1705 114.382 8.32393 114.107 8.64999C113.832 8.95686 113.695 9.43635 113.695 10.0885V10.0693Z" fill="white"/>
<path d="M118.938 7.01973H120.784L122.356 11.5461L123.888 7.01973H125.675L123.377 13.1572L122.965 14.2696C122.807 14.634 122.67 14.9217 122.532 15.1135C122.395 15.3053 122.238 15.4779 122.061 15.593C121.884 15.7081 121.668 15.804 121.413 15.8807C121.158 15.9574 120.863 15.9766 120.529 15.9766C120.195 15.9766 119.861 15.9382 119.547 15.8807L119.39 14.5573C119.665 14.6148 119.901 14.634 120.117 14.634C120.51 14.634 120.824 14.5189 121.001 14.2888C121.197 14.0586 121.334 13.7709 121.452 13.4065L118.958 7.00055L118.938 7.01973Z" fill="white"/>
<path d="M66.0878 21.7688V23.1114H64.9094V25.6814C64.9094 26.1993 64.9094 26.5061 64.9487 26.5829C64.9683 26.6596 65.0272 26.7363 65.1058 26.7938C65.1844 26.8514 65.2825 26.8706 65.4004 26.8706C65.5182 26.8706 65.7932 26.813 66.0878 26.7171L66.2449 28.0213C65.8521 28.1939 65.3807 28.2707 64.8701 28.2707C64.3595 28.2707 64.2809 28.2131 64.0256 28.1172C63.7703 28.0213 63.5935 27.8871 63.4757 27.7145C63.3579 27.561 63.2793 27.3309 63.24 27.0624C63.2007 26.8706 63.1811 26.4678 63.1811 25.8732V23.0922H62.3955V21.7496H63.1811V20.4838L64.9094 19.5056V21.7496H66.0878V21.7688Z" fill="white"/>
<path d="M69.0141 19.3522V22.5935C69.564 21.9606 70.2317 21.6345 71.0173 21.6345C71.8029 21.6345 71.7833 21.7113 72.0975 21.8455C72.4118 21.9798 72.6671 22.1716 72.8242 22.4017C72.9813 22.6319 73.0991 22.8812 73.1581 23.1497C73.217 23.4182 73.2563 23.8402 73.2563 24.4156V28.1556H71.528V24.78C71.528 24.1087 71.4887 23.6867 71.4298 23.5141C71.3708 23.3415 71.253 23.1881 71.0762 23.0922C70.8995 22.9771 70.7031 22.9387 70.4478 22.9387C70.1925 22.9387 69.8979 23.0155 69.6818 23.1497C69.4658 23.284 69.289 23.495 69.1908 23.7635C69.0926 24.032 69.0337 24.4348 69.0337 24.9718V28.1748H67.3054V19.3714H69.0337L69.0141 19.3522Z" fill="white"/>
<path d="M78.7554 26.1225L80.4837 26.4102C80.2676 27.024 79.9141 27.5035 79.4428 27.8103C78.9714 28.1364 78.3626 28.2898 77.6555 28.2898C76.5164 28.2898 75.6719 27.9254 75.1416 27.1966C74.7096 26.6212 74.4935 25.8924 74.4935 24.991C74.4935 24.0895 74.7685 23.1114 75.338 22.5168C75.9076 21.9222 76.6146 21.6154 77.4788 21.6154C78.3429 21.6154 79.2267 21.9222 79.7766 22.5552C80.3462 23.1881 80.6015 24.1471 80.5819 25.4321H76.2611C76.2611 25.9308 76.4182 26.3143 76.6735 26.602C76.9485 26.8897 77.2824 27.024 77.6752 27.024C78.068 27.024 78.1662 26.9473 78.3626 26.813C78.559 26.6788 78.6768 26.4294 78.775 26.1225H78.7554ZM78.8536 24.4156C78.8536 23.9361 78.7161 23.5525 78.4608 23.3032C78.2054 23.0538 77.9108 22.9196 77.5573 22.9196C77.2038 22.9196 76.8699 23.0538 76.6146 23.3223C76.3593 23.5908 76.2415 23.9553 76.2611 24.4156H78.8536Z" fill="white"/>
<path d="M85.4918 28.1556V19.3522H92.1693V20.8482H87.2987V22.8045H91.8158V24.2813H87.2987V26.6788H92.3264V28.1556H85.4722H85.4918Z" fill="white"/>
<path d="M98.1791 28.1556V27.1966C97.9434 27.5418 97.6292 27.8104 97.2364 28.0021C96.8436 28.1939 96.4312 28.2898 95.9991 28.2898C95.567 28.2898 95.1742 28.1939 94.8207 28.0021C94.4672 27.8104 94.2119 27.5418 94.0548 27.2158C93.8976 26.8706 93.8191 26.4102 93.8191 25.7965V21.7688H95.5474V24.7033C95.5474 25.6047 95.5867 26.1417 95.6456 26.3527C95.7045 26.5637 95.8223 26.7171 95.9991 26.8322C96.1759 26.9473 96.3723 27.0048 96.6472 27.0048C96.9222 27.0048 97.1971 26.9281 97.4328 26.7747C97.6685 26.6212 97.8256 26.4294 97.9042 26.1801C97.9827 25.9499 98.0416 25.3746 98.0416 24.4539V21.7688H99.7699V28.1556H98.1595H98.1791Z" fill="white"/>
<path d="M103.227 28.1556H101.498V21.7688H103.109V22.6702C103.384 22.2483 103.639 21.9606 103.855 21.8263C104.071 21.6921 104.326 21.6154 104.601 21.6154C104.876 21.6154 105.367 21.7304 105.74 21.9414L105.21 23.4182C104.916 23.2264 104.641 23.1497 104.405 23.1497C104.169 23.1497 103.953 23.2073 103.796 23.3415C103.619 23.4758 103.502 23.7059 103.403 24.0512C103.305 24.3964 103.266 25.106 103.266 26.1801V28.1556H103.227Z" fill="white"/>
<path d="M106.074 24.8759C106.074 24.3197 106.212 23.7826 106.506 23.2456C106.781 22.7278 107.194 22.325 107.704 22.0373C108.215 21.7688 108.804 21.6154 109.452 21.6154C110.434 21.6154 111.259 21.9222 111.888 22.5552C112.516 23.1881 112.83 23.9744 112.83 24.9334C112.83 25.8924 112.516 26.6979 111.868 27.3309C111.24 27.9638 110.434 28.2898 109.452 28.2898C108.47 28.2898 108.274 28.1556 107.744 27.8871C107.194 27.6186 106.781 27.235 106.506 26.7171C106.231 26.1993 106.074 25.5855 106.074 24.8567V24.8759ZM107.842 24.9718C107.842 25.6047 107.999 26.0842 108.294 26.4294C108.588 26.7747 108.981 26.9281 109.433 26.9281C109.884 26.9281 110.258 26.7555 110.572 26.4294C110.886 26.0842 111.024 25.6047 111.024 24.9718C111.024 24.3389 110.866 23.8594 110.572 23.5333C110.258 23.1881 109.884 23.0346 109.433 23.0346C108.981 23.0346 108.608 23.2073 108.294 23.5333C107.979 23.8594 107.842 24.358 107.842 24.991V24.9718Z" fill="white"/>
<path d="M114.127 21.7688H115.737V22.7086C115.953 22.3825 116.228 22.1332 116.582 21.9222C116.935 21.7304 117.328 21.6154 117.76 21.6154C118.526 21.6154 119.154 21.903 119.685 22.4784C120.215 23.0538 120.47 23.8594 120.47 24.9142C120.47 25.9691 120.195 26.813 119.665 27.3884C119.135 27.983 118.487 28.2707 117.721 28.2707C116.955 28.2707 117.033 28.1939 116.739 28.0597C116.444 27.9254 116.13 27.6761 115.816 27.3309V30.553H114.087V21.7496L114.127 21.7688ZM115.835 24.8567C115.835 25.5663 115.973 26.1034 116.267 26.4486C116.562 26.7938 116.916 26.9665 117.328 26.9665C117.74 26.9665 118.055 26.813 118.33 26.487C118.605 26.1801 118.722 25.6622 118.722 24.9334C118.722 24.2046 118.585 23.7635 118.31 23.4374C118.035 23.1114 117.701 22.9579 117.289 22.9579C116.876 22.9579 116.523 23.1114 116.228 23.4374C115.953 23.7635 115.816 24.2238 115.816 24.8567H115.835Z" fill="white"/>
<path d="M125.655 26.1225L127.383 26.4102C127.167 27.024 126.814 27.5035 126.343 27.8103C125.871 28.1364 125.262 28.2898 124.555 28.2898C123.416 28.2898 122.572 27.9254 122.041 27.1966C121.609 26.6212 121.393 25.8924 121.393 24.991C121.393 24.0895 121.668 23.1114 122.238 22.5168C122.807 21.9222 123.514 21.6154 124.379 21.6154C125.243 21.6154 126.126 21.9222 126.676 22.5552C127.246 23.1881 127.501 24.1471 127.482 25.4321H123.161C123.161 25.9308 123.318 26.3143 123.573 26.602C123.848 26.8897 124.182 27.024 124.575 27.024C124.968 27.024 125.066 26.9473 125.262 26.813C125.459 26.6788 125.577 26.4294 125.675 26.1225H125.655ZM125.753 24.4156C125.753 23.9361 125.616 23.5525 125.361 23.3032C125.105 23.0538 124.811 22.9196 124.457 22.9196C124.104 22.9196 123.77 23.0538 123.514 23.3223C123.259 23.5908 123.141 23.9553 123.161 24.4156H125.753Z" fill="white"/>
<path d="M130.172 23.7251L128.601 23.4566C128.778 22.8428 129.072 22.3825 129.505 22.0948C129.937 21.8071 130.565 21.6537 131.429 21.6537C132.293 21.6537 132.765 21.7496 133.158 21.9222C133.531 22.0948 133.806 22.325 133.963 22.5935C134.12 22.862 134.198 23.3798 134.198 24.1087V26.0842C134.198 26.6404 134.198 27.0623 134.257 27.3308C134.316 27.5993 134.414 27.887 134.572 28.1939H132.863C132.824 28.0788 132.765 27.9062 132.706 27.6952C132.686 27.5993 132.647 27.5226 132.647 27.5034C132.352 27.7911 132.038 28.0021 131.704 28.1364C131.37 28.2706 131.017 28.3473 130.624 28.3473C129.956 28.3473 129.426 28.1747 129.033 27.8103C128.64 27.4459 128.444 27.0048 128.444 26.4678C128.444 25.9307 128.542 25.7773 128.699 25.5088C128.876 25.2211 129.131 25.0101 129.446 24.8567C129.76 24.7032 130.231 24.569 130.82 24.4539C131.626 24.3005 132.195 24.1662 132.49 24.0319V23.8593C132.49 23.5333 132.411 23.3031 132.234 23.1689C132.077 23.0346 131.763 22.9579 131.311 22.9579C130.86 22.9579 130.761 23.0154 130.585 23.1305C130.408 23.2456 130.27 23.4566 130.172 23.7443V23.7251ZM132.49 25.0868C132.274 25.1635 131.92 25.2403 131.429 25.3362C130.938 25.4321 130.644 25.528 130.487 25.6239C130.27 25.7773 130.153 25.9691 130.153 26.2184C130.153 26.4678 130.251 26.6595 130.428 26.8322C130.604 27.0048 130.84 27.0815 131.115 27.0815C131.39 27.0815 131.724 26.9856 131.999 26.7746C132.215 26.6212 132.352 26.4294 132.411 26.2184C132.45 26.065 132.47 25.7965 132.47 25.3937V25.0485L132.49 25.0868Z" fill="white"/>
<path d="M141.819 28.1556H140.09V24.8951C140.09 24.2046 140.051 23.7635 139.972 23.5525C139.894 23.3415 139.776 23.1881 139.619 23.073C139.442 22.9579 139.246 22.9004 139.01 22.9004C138.774 22.9004 138.441 22.9771 138.205 23.1497C137.969 23.3223 137.812 23.5141 137.714 23.7826C137.616 24.0512 137.576 24.5306 137.576 25.2403V28.1364H135.848V21.7496H137.459V22.6894C138.028 21.9606 138.755 21.6154 139.619 21.6154C140.483 21.6154 140.346 21.6921 140.66 21.8263C140.974 21.9606 141.21 22.1332 141.367 22.3442C141.524 22.5552 141.642 22.7853 141.701 23.0538C141.76 23.3223 141.799 23.7059 141.799 24.1854V28.1556H141.819Z" fill="white"/>
<path d="M147.082 19.3522H148.909V24.1279C148.909 24.8759 148.928 25.3745 148.968 25.6047C149.046 25.9691 149.223 26.2568 149.517 26.4678C149.812 26.6788 150.205 26.7938 150.716 26.7938C151.226 26.7938 151.619 26.6979 151.894 26.487C152.149 26.276 152.306 26.0267 152.365 25.7198C152.424 25.4129 152.444 24.9142 152.444 24.2238V19.3522H154.27V23.9744C154.27 25.0293 154.211 25.7773 154.113 26.2184C154.015 26.6596 153.838 27.024 153.563 27.3309C153.288 27.6377 152.935 27.8679 152.503 28.0405C152.051 28.2131 151.481 28.309 150.774 28.309C150.067 28.309 149.262 28.2131 148.81 28.0213C148.359 27.8295 148.005 27.5802 147.75 27.2733C147.495 26.9665 147.318 26.6404 147.239 26.2952C147.121 25.7965 147.062 25.0485 147.062 24.0703V19.3714L147.082 19.3522Z" fill="white"/>
<path d="M162.107 28.1556H160.378V24.8951C160.378 24.2046 160.339 23.7635 160.26 23.5525C160.182 23.3415 160.064 23.1881 159.907 23.073C159.73 22.9579 159.534 22.9004 159.298 22.9004C159.062 22.9004 158.729 22.9771 158.493 23.1497C158.257 23.3223 158.1 23.5141 158.002 23.7826C157.904 24.0512 157.864 24.5306 157.864 25.2403V28.1364H156.136V21.7496H157.747V22.6894C158.316 21.9606 159.043 21.6154 159.907 21.6154C160.771 21.6154 160.634 21.6921 160.948 21.8263C161.262 21.9606 161.498 22.1332 161.655 22.3442C161.812 22.5552 161.93 22.7853 161.989 23.0538C162.048 23.3223 162.087 23.7059 162.087 24.1854V28.1556H162.107Z" fill="white"/>
<path d="M163.874 20.9057V19.3522H165.602V20.9057H163.874ZM163.874 28.1556V21.7688H165.602V28.1556H163.874Z" fill="white"/>
<path d="M166.958 24.8759C166.958 24.3197 167.095 23.7826 167.39 23.2456C167.665 22.7278 168.077 22.325 168.588 22.0373C169.098 21.7688 169.687 21.6154 170.336 21.6154C171.318 21.6154 172.142 21.9222 172.771 22.5552C173.399 23.1881 173.714 23.9744 173.714 24.9334C173.714 25.8924 173.399 26.6979 172.751 27.3309C172.123 27.9638 171.318 28.2898 170.336 28.2898C169.354 28.2898 169.157 28.1556 168.627 27.8871C168.077 27.6186 167.665 27.235 167.39 26.7171C167.115 26.1993 166.958 25.5855 166.958 24.8567V24.8759ZM168.725 24.9718C168.725 25.6047 168.882 26.0842 169.177 26.4294C169.471 26.7747 169.864 26.9281 170.316 26.9281C170.768 26.9281 171.141 26.7555 171.455 26.4294C171.769 26.0842 171.907 25.6047 171.907 24.9718C171.907 24.3389 171.75 23.8594 171.455 23.5333C171.141 23.1881 170.768 23.0346 170.316 23.0346C169.864 23.0346 169.491 23.2073 169.177 23.5333C168.863 23.8594 168.725 24.358 168.725 24.991V24.9718Z" fill="white"/>
<path d="M181 28.1556H179.272V24.8951C179.272 24.2046 179.232 23.7635 179.154 23.5525C179.075 23.3415 178.957 23.1881 178.8 23.073C178.624 22.9579 178.427 22.9004 178.192 22.9004C177.956 22.9004 177.622 22.9771 177.386 23.1497C177.151 23.3223 176.994 23.5141 176.895 23.7826C176.797 24.0512 176.758 24.5306 176.758 25.2403V28.1364H175.03V21.7496H176.64V22.6894C177.21 21.9606 177.936 21.6154 178.8 21.6154C179.665 21.6154 179.527 21.6921 179.841 21.8263C180.156 21.9606 180.391 22.1332 180.548 22.3442C180.705 22.5552 180.823 22.7853 180.882 23.0538C180.941 23.3223 180.98 23.7059 180.98 24.1854V28.1556H181Z" fill="white"/>
<path d="M55.3056 0H0V36H55.3056V0Z" fill="#164194"/>
<path d="M26.4743 7.8444L27.6331 7.01968L28.8115 7.8444L28.3598 6.50184L29.5381 5.67712H28.0848L27.6331 4.31537L27.201 5.67712H25.728L26.9064 6.50184L26.4743 7.8444Z" fill="white"/>
<path d="M20.4254 9.43634L21.6038 8.59244L22.7625 9.43634L22.3305 8.07459L23.5088 7.24987H22.0555L21.6038 5.88812L21.1521 7.24987H19.6987L20.8771 8.07459L20.4254 9.43634Z" fill="white"/>
<path d="M17.1848 10.2227L16.7331 11.5845H15.2798L16.4582 12.4092L16.0065 13.7518L17.1848 12.927L18.3436 13.7518L17.9115 12.4092L19.0899 11.5845H17.6366L17.1848 10.2227Z" fill="white"/>
<path d="M15.5547 18.8152L16.7331 19.6399L16.2814 18.2973L17.4598 17.4726H16.0064L15.5547 16.1108L15.1226 17.4726H13.6497L14.8477 18.2973L14.396 19.6399L15.5547 18.8152Z" fill="white"/>
<path d="M17.6366 23.3799L17.1848 22.0181L16.7331 23.3799H15.2798L16.4582 24.2046L16.0065 25.5472L17.1848 24.7224L18.3436 25.5472L17.9115 24.2046L19.0899 23.3799H17.6366Z" fill="white"/>
<path d="M22.0555 27.6952L21.6038 26.3335L21.1521 27.6952H19.6987L20.8771 28.52L20.445 29.8817L21.6038 29.0378L22.7822 29.8817L22.3305 28.52L23.5088 27.6952H22.0555Z" fill="white"/>
<path d="M28.0848 29.268L27.6331 27.9062L27.201 29.268H25.728L26.9261 30.0927L26.4743 31.4353L27.6331 30.6106L28.8115 31.4353L28.3598 30.0927L29.5381 29.268H28.0848Z" fill="white"/>
<path d="M34.1142 27.6952L33.6625 26.3335L33.2304 27.6952H31.7574L32.9555 28.52L32.5038 29.8817L33.6625 29.0378L34.8409 29.8817L34.3892 28.52L35.5872 27.6952H34.1142Z" fill="white"/>
<path d="M38.5528 23.3799L38.1011 22.0181L37.6494 23.3799H36.196L37.3744 24.2046L36.9227 25.5472L38.1011 24.7224L39.2598 25.5472L38.8278 24.2046L40.0062 23.3799H38.5528Z" fill="white"/>
<path d="M41.6166 17.4534H40.1436L39.6919 16.0916L39.2598 17.4534H37.7869L38.9849 18.2781L38.5332 19.6207L39.6919 18.7959L40.8703 19.6207L40.4186 18.2781L41.6166 17.4534Z" fill="white"/>
<path d="M36.9227 13.7325L38.1011 12.9078L39.2598 13.7325L38.8278 12.39L40.0062 11.5652H38.5528L38.1011 10.2035L37.6494 11.5652H36.196L37.3744 12.39L36.9227 13.7325Z" fill="white"/>
<path d="M33.6822 5.88812L33.2501 7.24987H31.7771L32.9555 8.09377L32.5234 9.43634L33.6822 8.59244L34.8605 9.43634L34.4088 8.09377L35.5872 7.24987H34.1339L33.6822 5.88812Z" fill="white"/>
</g>
<defs>
<clipPath id="clip0_674_7241">
<rect width="181" height="36" fill="white"/>
</clipPath>
</defs>
</svg>
