<svg width="182" height="37" viewBox="0 0 182 37" fill="none" xmlns="http://www.w3.org/2000/svg">
<g clip-path="url(#clip0_648_9901)">
<path d="M63.5662 13.8873V5.08392H69.7527V6.57993H65.3927V8.6705H69.1635V10.1665H65.3927V13.9065H63.5662V13.8873Z" fill="black"/>
<path d="M75.5268 13.8873V12.9284C75.2911 13.2736 74.9769 13.5421 74.5841 13.7339C74.1913 13.9257 73.7788 14.0216 73.3468 14.0216C72.9147 14.0216 72.5219 13.9257 72.1684 13.7339C71.8149 13.5421 71.5595 13.2736 71.4024 12.9475C71.2453 12.6023 71.1667 12.142 71.1667 11.5283V7.50055H72.895V10.435C72.895 11.3365 72.9343 11.8735 72.9932 12.0845C73.0522 12.2954 73.17 12.4489 73.3468 12.5639C73.5235 12.679 73.7199 12.7366 73.9949 12.7366C74.2698 12.7366 74.5448 12.6598 74.7805 12.5064C75.0161 12.353 75.1733 12.1612 75.2518 11.9118C75.3304 11.6817 75.3893 11.1063 75.3893 10.1857V7.50055H77.1176V13.8873H75.5071H75.5268Z" fill="black"/>
<path d="M84.8557 13.8874H83.1274V10.6268C83.1274 9.93638 83.0882 9.49525 83.0096 9.28427C82.931 9.0733 82.8132 8.91986 82.6561 8.80478C82.4793 8.68971 82.2829 8.63217 82.0473 8.63217C81.8116 8.63217 81.4777 8.70889 81.242 8.8815C81.0063 9.05412 80.8492 9.24591 80.751 9.51443C80.6528 9.78294 80.6136 10.2624 80.6136 10.9721V13.8682H78.8853V7.51975H80.4957V8.45955C81.0653 7.73073 81.7919 7.3855 82.6561 7.3855C83.5202 7.3855 83.3828 7.46222 83.697 7.59647C84.0112 7.73073 84.2469 7.90335 84.404 8.11432C84.5611 8.3253 84.679 8.55545 84.7379 8.82396C84.7968 9.09248 84.8361 9.47607 84.8361 9.95556V13.9257L84.8557 13.8874Z" fill="black"/>
<path d="M92.6134 13.8873H91.0029V12.9475C90.728 13.3119 90.4137 13.5805 90.0602 13.7531C89.7067 13.9257 89.3336 14.0216 88.9604 14.0216C88.2141 14.0216 87.566 13.7339 87.0357 13.1393C86.5054 12.5448 86.2305 11.72 86.2305 10.6652C86.2305 9.6103 86.4858 8.76639 87.0161 8.19101C87.5267 7.6348 88.1944 7.34711 88.9997 7.34711C89.8049 7.34711 90.3548 7.6348 90.8851 8.22937V5.08392H92.6134V13.8873ZM87.998 10.5693C87.998 11.2597 88.0962 11.7392 88.2926 12.0461C88.5676 12.4872 88.9604 12.6982 89.471 12.6982C89.9817 12.6982 90.1977 12.5256 90.4923 12.1995C90.7673 11.8735 90.9047 11.3748 90.9047 10.7227C90.9047 10.0706 90.7673 9.45686 90.4923 9.14999C90.2173 8.82393 89.8835 8.6705 89.4514 8.6705C89.0193 8.6705 88.7051 8.82393 88.4301 9.14999C88.1552 9.47604 88.0177 9.93635 88.0177 10.5693H87.998Z" fill="black"/>
<path d="M98.0929 11.8735L99.8212 12.1612C99.6051 12.7749 99.2516 13.2544 98.7803 13.5613C98.3089 13.8873 97.7001 14.0408 96.9931 14.0408C95.854 14.0408 95.0094 13.6763 94.4792 12.9475C94.0471 12.3721 93.8311 11.6433 93.8311 10.7419C93.8311 9.84043 94.106 8.86228 94.6756 8.26771C95.2451 7.67314 95.9522 7.36627 96.8163 7.36627C97.6804 7.36627 98.5642 7.67314 99.1141 8.30607C99.6837 8.93899 99.939 9.89797 99.9194 11.183H95.5986C95.5986 11.6817 95.7558 12.0653 96.0111 12.353C96.286 12.6406 96.6199 12.7749 97.0127 12.7749C97.4055 12.7749 97.5037 12.6982 97.7001 12.5639C97.8965 12.4297 98.0143 12.1803 98.1125 11.8735H98.0929ZM98.1911 10.1665C98.1911 9.687 98.0536 9.30341 97.7983 9.05407C97.543 8.80474 97.2484 8.67048 96.8949 8.67048C96.5413 8.67048 96.2075 8.80474 95.9521 9.07325C95.6968 9.34177 95.579 9.70618 95.5986 10.1665H98.1911Z" fill="black"/>
<path d="M107.304 13.8873H105.693V12.9475C105.418 13.3119 105.104 13.5805 104.751 13.7531C104.397 13.9257 104.024 14.0216 103.651 14.0216C102.905 14.0216 102.256 13.7339 101.726 13.1393C101.196 12.5448 100.921 11.72 100.921 10.6652C100.921 9.6103 101.176 8.76639 101.706 8.19101C102.217 7.6348 102.885 7.34711 103.69 7.34711C104.495 7.34711 105.045 7.6348 105.576 8.22937V5.08392H107.304V13.8873ZM102.688 10.5693C102.688 11.2597 102.787 11.7392 102.983 12.0461C103.258 12.4872 103.651 12.6982 104.161 12.6982C104.672 12.6982 104.888 12.5256 105.183 12.1995C105.458 11.8735 105.595 11.3748 105.595 10.7227C105.595 10.0706 105.458 9.45686 105.183 9.14999C104.908 8.82393 104.574 8.6705 104.142 8.6705C103.71 8.6705 103.396 8.82393 103.121 9.14999C102.846 9.47604 102.708 9.93635 102.708 10.5693H102.688Z" fill="black"/>
<path d="M112.43 13.8873V5.08392H114.158V8.24855C114.689 7.65398 115.317 7.36629 116.044 7.36629C116.77 7.36629 117.497 7.65398 118.027 8.21019C118.538 8.7664 118.813 9.57194 118.813 10.6268C118.813 11.6817 118.538 12.5639 118.008 13.1393C117.477 13.7339 116.829 14.0216 116.083 14.0216C115.337 14.0216 115.337 13.9257 114.983 13.7531C114.63 13.5805 114.315 13.3119 114.04 12.9475V13.8873H112.43ZM114.139 10.5693C114.139 11.2214 114.237 11.72 114.453 12.0269C114.747 12.468 115.16 12.6982 115.651 12.6982C116.142 12.6982 116.358 12.5448 116.633 12.2187C116.908 11.8927 117.045 11.394 117.045 10.7227C117.045 10.0514 116.908 9.47604 116.633 9.14999C116.358 8.82393 116.024 8.6705 115.592 8.6705C115.16 8.6705 114.826 8.82393 114.551 9.14999C114.276 9.45686 114.139 9.93635 114.139 10.5885V10.5693Z" fill="black"/>
<path d="M119.382 7.51973H121.228L122.8 12.0461L124.332 7.51973H126.119L123.821 13.6572L123.408 14.7696C123.251 15.134 123.114 15.4217 122.976 15.6135C122.839 15.8053 122.682 15.9779 122.505 16.093C122.328 16.2081 122.112 16.304 121.857 16.3807C121.602 16.4574 121.307 16.4766 120.973 16.4766C120.639 16.4766 120.305 16.4382 119.991 16.3807L119.834 15.0573C120.109 15.1148 120.345 15.134 120.561 15.134C120.954 15.134 121.268 15.0189 121.444 14.7888C121.641 14.5586 121.778 14.2709 121.896 13.9065L119.402 7.50055L119.382 7.51973Z" fill="black"/>
<path d="M66.5319 22.2688V23.6114H65.3535V26.1814C65.3535 26.6993 65.3535 27.0061 65.3928 27.0829C65.4124 27.1596 65.4713 27.2363 65.5499 27.2938C65.6284 27.3514 65.7266 27.3706 65.8445 27.3706C65.9623 27.3706 66.2373 27.313 66.5319 27.2171L66.689 28.5213C66.2962 28.6939 65.8248 28.7707 65.3142 28.7707C64.8036 28.7707 64.725 28.7131 64.4697 28.6172C64.2144 28.5213 64.0376 28.3871 63.9198 28.2145C63.8019 28.061 63.7234 27.8309 63.6841 27.5624C63.6448 27.3706 63.6252 26.9678 63.6252 26.3732V23.5922H62.8396V22.2496H63.6252V20.9838L65.3535 20.0056V22.2496H66.5319V22.2688Z" fill="black"/>
<path d="M69.4582 19.8522V23.0935C70.0081 22.4606 70.6758 22.1345 71.4614 22.1345C72.247 22.1345 72.2274 22.2113 72.5416 22.3455C72.8558 22.4798 73.1112 22.6716 73.2683 22.9017C73.4254 23.1319 73.5432 23.3812 73.6022 23.6497C73.6611 23.9182 73.7004 24.3402 73.7004 24.9156V28.6556H71.9721V25.28C71.9721 24.6087 71.9328 24.1867 71.8739 24.0141C71.8149 23.8415 71.6971 23.6881 71.5203 23.5922C71.3436 23.4771 71.1472 23.4387 70.8919 23.4387C70.6366 23.4387 70.342 23.5155 70.1259 23.6497C69.9099 23.784 69.7331 23.995 69.6349 24.2635C69.5367 24.532 69.4778 24.9348 69.4778 25.4718V28.6748H67.7495V19.8714H69.4778L69.4582 19.8522Z" fill="black"/>
<path d="M79.1996 26.6225L80.9279 26.9102C80.7118 27.524 80.3583 28.0035 79.887 28.3103C79.4156 28.6364 78.8068 28.7898 78.0997 28.7898C76.9606 28.7898 76.1161 28.4254 75.5859 27.6966C75.1538 27.1212 74.9377 26.3924 74.9377 25.491C74.9377 24.5895 75.2127 23.6114 75.7823 23.0168C76.3518 22.4222 77.0588 22.1154 77.923 22.1154C78.7871 22.1154 79.6709 22.4222 80.2208 23.0552C80.7904 23.6881 81.0457 24.6471 81.0261 25.9321H76.7053C76.7053 26.4308 76.8624 26.8143 77.1178 27.102C77.3927 27.3897 77.7266 27.524 78.1194 27.524C78.5122 27.524 78.6104 27.4473 78.8068 27.313C79.0032 27.1788 79.121 26.9294 79.2192 26.6225H79.1996ZM79.2978 24.9156C79.2978 24.4361 79.1603 24.0525 78.905 23.8032C78.6497 23.5538 78.3551 23.4196 78.0015 23.4196C77.648 23.4196 77.3142 23.5538 77.0588 23.8223C76.8035 24.0908 76.6857 24.4553 76.7053 24.9156H79.2978Z" fill="black"/>
<path d="M85.9359 28.6556V19.8522H92.6134V21.3482H87.7428V23.3045H92.2599V24.7813H87.7428V27.1788H92.7705V28.6556H85.9163H85.9359Z" fill="black"/>
<path d="M98.6232 28.6556V27.6966C98.3875 28.0418 98.0733 28.3104 97.6805 28.5021C97.2877 28.6939 96.8753 28.7898 96.4432 28.7898C96.0111 28.7898 95.6183 28.6939 95.2648 28.5021C94.9113 28.3104 94.656 28.0418 94.4989 27.7158C94.3417 27.3706 94.2632 26.9102 94.2632 26.2965V22.2688H95.9915V25.2033C95.9915 26.1047 96.0308 26.6417 96.0897 26.8527C96.1486 27.0637 96.2664 27.2171 96.4432 27.3322C96.6199 27.4473 96.8164 27.5048 97.0913 27.5048C97.3663 27.5048 97.6412 27.4281 97.8769 27.2747C98.1126 27.1212 98.2697 26.9294 98.3483 26.6801C98.4268 26.4499 98.4857 25.8746 98.4857 24.9539V22.2688H100.214V28.6556H98.6036H98.6232Z" fill="black"/>
<path d="M103.671 28.6556H101.942V22.2688H103.553V23.1702C103.828 22.7483 104.083 22.4606 104.299 22.3263C104.515 22.1921 104.771 22.1154 105.045 22.1154C105.32 22.1154 105.811 22.2304 106.185 22.4414L105.654 23.9182C105.36 23.7264 105.085 23.6497 104.849 23.6497C104.613 23.6497 104.397 23.7073 104.24 23.8415C104.063 23.9758 103.946 24.2059 103.847 24.5512C103.749 24.8964 103.71 25.606 103.71 26.6801V28.6556H103.671Z" fill="black"/>
<path d="M106.518 25.3759C106.518 24.8197 106.656 24.2826 106.95 23.7456C107.225 23.2278 107.638 22.825 108.148 22.5373C108.659 22.2688 109.248 22.1154 109.896 22.1154C110.878 22.1154 111.703 22.4222 112.332 23.0552C112.96 23.6881 113.274 24.4744 113.274 25.4334C113.274 26.3924 112.96 27.1979 112.312 27.8309C111.684 28.4638 110.878 28.7898 109.896 28.7898C108.914 28.7898 108.718 28.6556 108.188 28.3871C107.638 28.1186 107.225 27.735 106.95 27.2171C106.675 26.6993 106.518 26.0855 106.518 25.3567V25.3759ZM108.286 25.4718C108.286 26.1047 108.443 26.5842 108.738 26.9294C109.032 27.2747 109.425 27.4281 109.877 27.4281C110.328 27.4281 110.702 27.2555 111.016 26.9294C111.33 26.5842 111.468 26.1047 111.468 25.4718C111.468 24.8389 111.31 24.3594 111.016 24.0333C110.702 23.6881 110.328 23.5346 109.877 23.5346C109.425 23.5346 109.052 23.7073 108.738 24.0333C108.423 24.3594 108.286 24.858 108.286 25.491V25.4718Z" fill="black"/>
<path d="M114.571 22.2688H116.181V23.2086C116.397 22.8825 116.672 22.6332 117.026 22.4222C117.379 22.2304 117.772 22.1154 118.204 22.1154C118.97 22.1154 119.599 22.403 120.129 22.9784C120.659 23.5538 120.914 24.3594 120.914 25.4142C120.914 26.4691 120.639 27.313 120.109 27.8884C119.579 28.483 118.931 28.7707 118.165 28.7707C117.399 28.7707 117.477 28.6939 117.183 28.5597C116.888 28.4254 116.574 28.1761 116.26 27.8309V31.053H114.531V22.2496L114.571 22.2688ZM116.279 25.3567C116.279 26.0663 116.417 26.6034 116.712 26.9486C117.006 27.2938 117.36 27.4665 117.772 27.4665C118.184 27.4665 118.499 27.313 118.774 26.987C119.049 26.6801 119.166 26.1622 119.166 25.4334C119.166 24.7046 119.029 24.2635 118.754 23.9374C118.479 23.6114 118.145 23.4579 117.733 23.4579C117.32 23.4579 116.967 23.6114 116.672 23.9374C116.397 24.2635 116.26 24.7238 116.26 25.3567H116.279Z" fill="black"/>
<path d="M126.099 26.6225L127.828 26.9102C127.611 27.524 127.258 28.0035 126.787 28.3103C126.315 28.6364 125.706 28.7898 124.999 28.7898C123.86 28.7898 123.016 28.4254 122.486 27.6966C122.053 27.1212 121.837 26.3924 121.837 25.491C121.837 24.5895 122.112 23.6114 122.682 23.0168C123.251 22.4222 123.958 22.1154 124.823 22.1154C125.687 22.1154 126.571 22.4222 127.121 23.0552C127.69 23.6881 127.945 24.6471 127.926 25.9321H123.605C123.605 26.4308 123.762 26.8143 124.017 27.102C124.292 27.3897 124.626 27.524 125.019 27.524C125.412 27.524 125.51 27.4473 125.706 27.313C125.903 27.1788 126.021 26.9294 126.119 26.6225H126.099ZM126.197 24.9156C126.197 24.4361 126.06 24.0525 125.805 23.8032C125.549 23.5538 125.255 23.4196 124.901 23.4196C124.548 23.4196 124.214 23.5538 123.959 23.8223C123.703 24.0908 123.585 24.4553 123.605 24.9156H126.197Z" fill="black"/>
<path d="M130.616 24.2251L129.045 23.9566C129.222 23.3428 129.517 22.8825 129.949 22.5948C130.381 22.3071 131.009 22.1537 131.873 22.1537C132.738 22.1537 133.209 22.2496 133.602 22.4222C133.975 22.5948 134.25 22.825 134.407 23.0935C134.564 23.362 134.643 23.8798 134.643 24.6087V26.5842C134.643 27.1404 134.643 27.5623 134.702 27.8308C134.76 28.0993 134.859 28.387 135.016 28.6939H133.307C133.268 28.5788 133.209 28.4062 133.15 28.1952C133.13 28.0993 133.091 28.0226 133.091 28.0034C132.796 28.2911 132.482 28.5021 132.148 28.6364C131.815 28.7706 131.461 28.8473 131.068 28.8473C130.4 28.8473 129.87 28.6747 129.477 28.3103C129.085 27.9459 128.888 27.5048 128.888 26.9678C128.888 26.4307 128.986 26.2773 129.143 26.0088C129.32 25.7211 129.576 25.5101 129.89 25.3567C130.204 25.2032 130.675 25.069 131.265 24.9539C132.07 24.8005 132.639 24.6662 132.934 24.5319V24.3593C132.934 24.0333 132.855 23.8031 132.679 23.6689C132.522 23.5346 132.207 23.4579 131.756 23.4579C131.304 23.4579 131.206 23.5154 131.029 23.6305C130.852 23.7456 130.715 23.9566 130.616 24.2443V24.2251ZM132.934 25.5868C132.718 25.6635 132.364 25.7403 131.873 25.8362C131.382 25.9321 131.088 26.028 130.931 26.1239C130.715 26.2773 130.597 26.4691 130.597 26.7184C130.597 26.9678 130.695 27.1595 130.872 27.3322C131.049 27.5048 131.284 27.5815 131.559 27.5815C131.834 27.5815 132.168 27.4856 132.443 27.2746C132.659 27.1212 132.796 26.9294 132.855 26.7184C132.895 26.565 132.914 26.2965 132.914 25.8937V25.5485L132.934 25.5868Z" fill="black"/>
<path d="M142.263 28.6556H140.534V25.3951C140.534 24.7046 140.495 24.2635 140.417 24.0525C140.338 23.8415 140.22 23.6881 140.063 23.573C139.886 23.4579 139.69 23.4004 139.454 23.4004C139.219 23.4004 138.885 23.4771 138.649 23.6497C138.413 23.8223 138.256 24.0141 138.158 24.2826C138.06 24.5512 138.021 25.0306 138.021 25.7403V28.6364H136.292V22.2496H137.903V23.1894C138.472 22.4606 139.199 22.1154 140.063 22.1154C140.927 22.1154 140.79 22.1921 141.104 22.3263C141.418 22.4606 141.654 22.6332 141.811 22.8442C141.968 23.0552 142.086 23.2853 142.145 23.5538C142.204 23.8223 142.243 24.2059 142.243 24.6854V28.6556H142.263Z" fill="black"/>
<path d="M147.526 19.8522H149.353V24.6279C149.353 25.3759 149.372 25.8745 149.412 26.1047C149.49 26.4691 149.667 26.7568 149.962 26.9678C150.256 27.1788 150.649 27.2938 151.16 27.2938C151.67 27.2938 152.063 27.1979 152.338 26.987C152.593 26.776 152.75 26.5267 152.809 26.2198C152.868 25.9129 152.888 25.4142 152.888 24.7238V19.8522H154.714V24.4744C154.714 25.5293 154.655 26.2773 154.557 26.7184C154.459 27.1596 154.282 27.524 154.007 27.8309C153.732 28.1377 153.379 28.3679 152.947 28.5405C152.495 28.7131 151.926 28.809 151.219 28.809C150.511 28.809 149.706 28.7131 149.255 28.5213C148.803 28.3295 148.449 28.0802 148.194 27.7733C147.939 27.4665 147.762 27.1404 147.683 26.7952C147.566 26.2965 147.507 25.5485 147.507 24.5703V19.8714L147.526 19.8522Z" fill="black"/>
<path d="M162.551 28.6556H160.822V25.3951C160.822 24.7046 160.783 24.2635 160.704 24.0525C160.626 23.8415 160.508 23.6881 160.351 23.573C160.174 23.4579 159.978 23.4004 159.742 23.4004C159.506 23.4004 159.173 23.4771 158.937 23.6497C158.701 23.8223 158.544 24.0141 158.446 24.2826C158.348 24.5512 158.308 25.0306 158.308 25.7403V28.6364H156.58V22.2496H158.191V23.1894C158.76 22.4606 159.487 22.1154 160.351 22.1154C161.215 22.1154 161.078 22.1921 161.392 22.3263C161.706 22.4606 161.942 22.6332 162.099 22.8442C162.256 23.0552 162.374 23.2853 162.433 23.5538C162.492 23.8223 162.531 24.2059 162.531 24.6854V28.6556H162.551Z" fill="black"/>
<path d="M164.318 21.4057V19.8522H166.046V21.4057H164.318ZM164.318 28.6556V22.2688H166.046V28.6556H164.318Z" fill="black"/>
<path d="M167.402 25.3759C167.402 24.8197 167.539 24.2826 167.834 23.7456C168.109 23.2278 168.521 22.825 169.032 22.5373C169.542 22.2688 170.132 22.1154 170.78 22.1154C171.762 22.1154 172.587 22.4222 173.215 23.0552C173.843 23.6881 174.158 24.4744 174.158 25.4334C174.158 26.3924 173.843 27.1979 173.195 27.8309C172.567 28.4638 171.762 28.7898 170.78 28.7898C169.798 28.7898 169.601 28.6556 169.071 28.3871C168.521 28.1186 168.109 27.735 167.834 27.2171C167.559 26.6993 167.402 26.0855 167.402 25.3567V25.3759ZM169.169 25.4718C169.169 26.1047 169.326 26.5842 169.621 26.9294C169.916 27.2747 170.308 27.4281 170.76 27.4281C171.212 27.4281 171.585 27.2555 171.899 26.9294C172.213 26.5842 172.351 26.1047 172.351 25.4718C172.351 24.8389 172.194 24.3594 171.899 24.0333C171.585 23.6881 171.212 23.5346 170.76 23.5346C170.308 23.5346 169.935 23.7073 169.621 24.0333C169.307 24.3594 169.169 24.858 169.169 25.491V25.4718Z" fill="black"/>
<path d="M181.444 28.6556H179.716V25.3951C179.716 24.7046 179.677 24.2635 179.598 24.0525C179.519 23.8415 179.402 23.6881 179.244 23.573C179.068 23.4579 178.871 23.4004 178.636 23.4004C178.4 23.4004 178.066 23.4771 177.83 23.6497C177.595 23.8223 177.438 24.0141 177.339 24.2826C177.241 24.5512 177.202 25.0306 177.202 25.7403V28.6364H175.474V22.2496H177.084V23.1894C177.654 22.4606 178.38 22.1154 179.244 22.1154C180.109 22.1154 179.971 22.1921 180.285 22.3263C180.6 22.4606 180.835 22.6332 180.992 22.8442C181.15 23.0552 181.267 23.2853 181.326 23.5538C181.385 23.8223 181.424 24.2059 181.424 24.6854V28.6556H181.444Z" fill="black"/>
<path d="M55.7496 0.5H0.444092V36.5H55.7496V0.5Z" fill="#164194"/>
<path d="M26.9184 8.3444L28.0772 7.51968L29.2556 8.3444L28.8038 7.00184L29.9822 6.17712H28.5289L28.0772 4.81537L27.6451 6.17712H26.1721L27.3505 7.00184L26.9184 8.3444Z" fill="white"/>
<path d="M20.8695 9.93634L22.0479 9.09244L23.2066 9.93634L22.7745 8.57459L23.9529 7.74987H22.4996L22.0479 6.38812L21.5962 7.74987H20.1428L21.3212 8.57459L20.8695 9.93634Z" fill="white"/>
<path d="M17.6289 10.7227L17.1772 12.0845H15.7239L16.9023 12.9092L16.4505 14.2518L17.6289 13.427L18.7877 14.2518L18.3556 12.9092L19.534 12.0845H18.0806L17.6289 10.7227Z" fill="white"/>
<path d="M15.9988 19.3152L17.1772 20.1399L16.7255 18.7973L17.9039 17.9726H16.4505L15.9988 16.6108L15.5667 17.9726H14.0938L15.2918 18.7973L14.8401 20.1399L15.9988 19.3152Z" fill="white"/>
<path d="M18.0806 23.8799L17.6289 22.5181L17.1772 23.8799H15.7239L16.9023 24.7046L16.4505 26.0472L17.6289 25.2224L18.7877 26.0472L18.3556 24.7046L19.534 23.8799H18.0806Z" fill="white"/>
<path d="M22.4996 28.1952L22.0479 26.8335L21.5962 28.1952H20.1428L21.3212 29.02L20.8891 30.3817L22.0479 29.5378L23.2263 30.3817L22.7745 29.02L23.9529 28.1952H22.4996Z" fill="white"/>
<path d="M28.5289 29.768L28.0772 28.4062L27.6451 29.768H26.1721L27.3701 30.5927L26.9184 31.9353L28.0772 31.1106L29.2556 31.9353L28.8038 30.5927L29.9822 29.768H28.5289Z" fill="white"/>
<path d="M34.5584 28.1952L34.1067 26.8335L33.6746 28.1952H32.2017L33.3997 29.02L32.948 30.3817L34.1067 29.5378L35.2851 30.3817L34.8334 29.02L36.0314 28.1952H34.5584Z" fill="white"/>
<path d="M38.9969 23.8799L38.5452 22.5181L38.0935 23.8799H36.6401L37.8185 24.7046L37.3668 26.0472L38.5452 25.2224L39.7039 26.0472L39.2719 24.7046L40.4502 23.8799H38.9969Z" fill="white"/>
<path d="M42.0607 17.9534H40.5877L40.136 16.5916L39.7039 17.9534H38.231L39.429 18.7781L38.9773 20.1207L40.136 19.2959L41.3144 20.1207L40.8627 18.7781L42.0607 17.9534Z" fill="white"/>
<path d="M37.3668 14.2325L38.5452 13.4078L39.7039 14.2325L39.2719 12.89L40.4502 12.0652H38.9969L38.5452 10.7035L38.0935 12.0652H36.6401L37.8185 12.89L37.3668 14.2325Z" fill="white"/>
<path d="M34.1262 6.38812L33.6942 7.74987H32.2212L33.3996 8.59377L32.9675 9.93634L34.1262 9.09244L35.3046 9.93634L34.8529 8.59377L36.0313 7.74987H34.578L34.1262 6.38812Z" fill="white"/>
</g>
<defs>
<clipPath id="clip0_648_9901">
<rect width="181" height="36" fill="white" transform="translate(0.444092 0.5)"/>
</clipPath>
</defs>
</svg>
