<svg width="390" height="603" viewBox="0 0 390 603" fill="none" xmlns="http://www.w3.org/2000/svg">
<g opacity="0.5">
<path d="M24.9131 302.118L20.7368 302.118" stroke="white" stroke-miterlimit="10" stroke-linecap="round"/>
<path d="M25.847 284.314L21.6938 283.879" stroke="white" stroke-miterlimit="10" stroke-linecap="round"/>
<path d="M28.6399 266.704L24.5527 265.837" stroke="white" stroke-miterlimit="10" stroke-linecap="round"/>
<path d="M33.2591 249.484L29.2842 248.194" stroke="white" stroke-miterlimit="10" stroke-linecap="round"/>
<path d="M39.6538 232.838L35.8374 231.143" stroke="white" stroke-miterlimit="10" stroke-linecap="round"/>
<path d="M47.7555 216.953L44.1372 214.865" stroke="white" stroke-miterlimit="10" stroke-linecap="round"/>
<path d="M57.4749 202.002L54.0942 199.548" stroke="white" stroke-miterlimit="10" stroke-linecap="round"/>
<path d="M68.7064 188.146L65.603 185.352" stroke="white" stroke-miterlimit="10" stroke-linecap="round"/>
<path d="M81.3246 175.536L78.5283 172.436" stroke="white" stroke-miterlimit="10" stroke-linecap="round"/>
<path d="M95.1936 164.319L92.7373 160.942" stroke="white" stroke-miterlimit="10" stroke-linecap="round"/>
<path d="M110.159 154.609L108.072 150.994" stroke="white" stroke-miterlimit="10" stroke-linecap="round"/>
<path d="M126.062 146.515L124.361 142.702" stroke="white" stroke-miterlimit="10" stroke-linecap="round"/>
<path d="M142.72 140.123L141.429 136.155" stroke="white" stroke-miterlimit="10" stroke-linecap="round"/>
<path d="M159.957 135.509L159.088 131.429" stroke="white" stroke-miterlimit="10" stroke-linecap="round"/>
<path d="M177.583 132.721L177.147 128.572" stroke="white" stroke-miterlimit="10" stroke-linecap="round"/>
<path d="M195.407 131.788L195.407 127.616" stroke="white" stroke-miterlimit="10" stroke-linecap="round"/>
<path d="M213.229 132.721L213.664 128.572" stroke="white" stroke-miterlimit="10" stroke-linecap="round"/>
<path d="M230.854 135.509L231.722 131.429" stroke="white" stroke-miterlimit="10" stroke-linecap="round"/>
<path d="M248.091 140.123L249.382 136.155" stroke="white" stroke-miterlimit="10" stroke-linecap="round"/>
<path d="M264.75 146.515L266.451 142.702" stroke="white" stroke-miterlimit="10" stroke-linecap="round"/>
<path d="M280.653 154.609L282.74 150.994" stroke="white" stroke-miterlimit="10" stroke-linecap="round"/>
<path d="M295.619 164.319L298.075 160.942" stroke="white" stroke-miterlimit="10" stroke-linecap="round"/>
<path d="M309.488 175.536L312.284 172.436" stroke="white" stroke-miterlimit="10" stroke-linecap="round"/>
<path d="M322.105 188.146L325.209 185.352" stroke="white" stroke-miterlimit="10" stroke-linecap="round"/>
<path d="M333.337 202.002L336.718 199.548" stroke="white" stroke-miterlimit="10" stroke-linecap="round"/>
<path d="M343.056 216.953L346.674 214.865" stroke="white" stroke-miterlimit="10" stroke-linecap="round"/>
<path d="M351.158 232.838L354.974 231.143" stroke="white" stroke-miterlimit="10" stroke-linecap="round"/>
<path d="M357.553 249.484L361.528 248.194" stroke="white" stroke-miterlimit="10" stroke-linecap="round"/>
<path d="M362.171 266.704L366.259 265.837" stroke="white" stroke-miterlimit="10" stroke-linecap="round"/>
<path d="M364.964 284.314L369.117 283.879" stroke="white" stroke-miterlimit="10" stroke-linecap="round"/>
<path d="M365.899 302.118L370.075 302.118" stroke="white" stroke-miterlimit="10" stroke-linecap="round"/>
<path d="M364.964 319.922L369.117 320.361" stroke="white" stroke-miterlimit="10" stroke-linecap="round"/>
<path d="M362.171 337.532L366.259 338.399" stroke="white" stroke-miterlimit="10" stroke-linecap="round"/>
<path d="M357.553 354.756L361.528 356.045" stroke="white" stroke-miterlimit="10" stroke-linecap="round"/>
<path d="M351.158 371.399L354.974 373.097" stroke="white" stroke-miterlimit="10" stroke-linecap="round"/>
<path d="M343.056 387.283L346.674 389.371" stroke="white" stroke-miterlimit="10" stroke-linecap="round"/>
<path d="M333.337 402.238L336.718 404.688" stroke="white" stroke-miterlimit="10" stroke-linecap="round"/>
<path d="M322.105 416.094L325.209 418.884" stroke="white" stroke-miterlimit="10" stroke-linecap="round"/>
<path d="M309.488 428.7L312.284 431.8" stroke="white" stroke-miterlimit="10" stroke-linecap="round"/>
<path d="M295.619 439.92L298.075 443.294" stroke="white" stroke-miterlimit="10" stroke-linecap="round"/>
<path d="M280.653 449.631L282.739 453.243" stroke="white" stroke-miterlimit="10" stroke-linecap="round"/>
<path d="M264.75 457.725L266.451 461.538" stroke="white" stroke-miterlimit="10" stroke-linecap="round"/>
<path d="M248.091 464.114L249.382 468.082" stroke="white" stroke-miterlimit="10" stroke-linecap="round"/>
<path d="M230.854 468.728L231.723 472.811" stroke="white" stroke-miterlimit="10" stroke-linecap="round"/>
<path d="M213.229 471.518L213.664 475.667" stroke="white" stroke-miterlimit="10" stroke-linecap="round"/>
<path d="M177.583 471.518L177.147 475.667" stroke="white" stroke-miterlimit="10" stroke-linecap="round"/>
<path d="M159.957 468.728L159.088 472.811" stroke="white" stroke-miterlimit="10" stroke-linecap="round"/>
<path d="M142.72 464.114L141.429 468.082" stroke="white" stroke-miterlimit="10" stroke-linecap="round"/>
<path d="M126.061 457.725L124.361 461.538" stroke="white" stroke-miterlimit="10" stroke-linecap="round"/>
<path d="M110.159 449.631L108.072 453.243" stroke="white" stroke-miterlimit="10" stroke-linecap="round"/>
<path d="M95.1936 439.92L92.7373 443.294" stroke="white" stroke-miterlimit="10" stroke-linecap="round"/>
<path d="M81.3246 428.7L78.5283 431.8" stroke="white" stroke-miterlimit="10" stroke-linecap="round"/>
<path d="M68.7064 416.094L65.603 418.884" stroke="white" stroke-miterlimit="10" stroke-linecap="round"/>
<path d="M57.4749 402.238L54.0942 404.688" stroke="white" stroke-miterlimit="10" stroke-linecap="round"/>
<path d="M47.7555 387.283L44.1372 389.371" stroke="white" stroke-miterlimit="10" stroke-linecap="round"/>
<path d="M39.6538 371.399L35.8374 373.097" stroke="white" stroke-miterlimit="10" stroke-linecap="round"/>
<path d="M33.2591 354.756L29.2842 356.045" stroke="white" stroke-miterlimit="10" stroke-linecap="round"/>
<path d="M28.6399 337.532L24.5527 338.399" stroke="white" stroke-miterlimit="10" stroke-linecap="round"/>
<path d="M25.847 319.922L21.6938 320.361" stroke="white" stroke-miterlimit="10" stroke-linecap="round"/>
<path d="M24.9131 302.118L20.7368 302.118" stroke="white" stroke-miterlimit="10" stroke-linecap="round"/>
<g opacity="0.5">
<path d="M8.29024 166.302L3.7041 162.974" stroke="white" stroke-miterlimit="10" stroke-linecap="round"/>
<path d="M23.5263 147.505L19.3164 143.716" stroke="white" stroke-miterlimit="10" stroke-linecap="round"/>
<path d="M40.644 130.4L36.8506 126.194" stroke="white" stroke-miterlimit="10" stroke-linecap="round"/>
<path d="M59.4586 115.182L56.1265 110.6" stroke="white" stroke-miterlimit="10" stroke-linecap="round"/>
<path d="M79.7602 102.01L76.9297 97.1056" stroke="white" stroke-miterlimit="10" stroke-linecap="round"/>
<path d="M101.334 91.0293L99.0278 85.8569" stroke="white" stroke-miterlimit="10" stroke-linecap="round"/>
<path d="M123.933 82.3579L122.182 76.9752" stroke="white" stroke-miterlimit="10" stroke-linecap="round"/>
<path d="M147.317 76.0984L146.139 70.5635" stroke="white" stroke-miterlimit="10" stroke-linecap="round"/>
<path d="M171.228 72.3171L170.637 66.6883" stroke="white" stroke-miterlimit="10" stroke-linecap="round"/>
<path d="M195.408 71.051L195.408 65.3909" stroke="white" stroke-miterlimit="10" stroke-linecap="round"/>
<path d="M219.584 72.3174L220.175 66.6885" stroke="white" stroke-miterlimit="10" stroke-linecap="round"/>
<path d="M243.495 76.0984L244.673 70.5635" stroke="white" stroke-miterlimit="10" stroke-linecap="round"/>
<path d="M266.878 82.3579L268.63 76.9752" stroke="white" stroke-miterlimit="10" stroke-linecap="round"/>
<path d="M289.478 91.0293L291.785 85.8569" stroke="white" stroke-miterlimit="10" stroke-linecap="round"/>
<path d="M311.051 102.01L313.882 97.1056" stroke="white" stroke-miterlimit="10" stroke-linecap="round"/>
<path d="M331.353 115.182L334.685 110.6" stroke="white" stroke-miterlimit="10" stroke-linecap="round"/>
<path d="M350.168 130.4L353.961 126.194" stroke="white" stroke-miterlimit="10" stroke-linecap="round"/>
<path d="M367.286 147.505L371.496 143.716" stroke="white" stroke-miterlimit="10" stroke-linecap="round"/>
<path d="M382.521 166.302L387.108 162.974" stroke="white" stroke-miterlimit="10" stroke-linecap="round"/>
<path d="M382.521 437.94L387.108 441.265" stroke="white" stroke-miterlimit="10" stroke-linecap="round"/>
<path d="M367.286 456.737L371.496 460.522" stroke="white" stroke-miterlimit="10" stroke-linecap="round"/>
<path d="M350.168 473.838L353.961 478.044" stroke="white" stroke-miterlimit="10" stroke-linecap="round"/>
<path d="M331.353 489.06L334.685 493.638" stroke="white" stroke-miterlimit="10" stroke-linecap="round"/>
<path d="M311.051 502.233L313.882 507.132" stroke="white" stroke-miterlimit="10" stroke-linecap="round"/>
<path d="M289.478 513.213L291.785 518.386" stroke="white" stroke-miterlimit="10" stroke-linecap="round"/>
<path d="M266.878 521.88L268.63 527.263" stroke="white" stroke-miterlimit="10" stroke-linecap="round"/>
<path d="M243.495 528.14L244.673 533.679" stroke="white" stroke-miterlimit="10" stroke-linecap="round"/>
<path d="M219.584 531.925L220.175 537.554" stroke="white" stroke-miterlimit="10" stroke-linecap="round"/>
<path d="M196.587 533.535L196.593 539.194" stroke="white" stroke-miterlimit="10" stroke-linecap="round"/>
<path d="M171.228 531.925L170.637 537.554" stroke="white" stroke-miterlimit="10" stroke-linecap="round"/>
<path d="M147.317 528.14L146.139 533.679" stroke="white" stroke-miterlimit="10" stroke-linecap="round"/>
<path d="M123.933 521.88L122.182 527.263" stroke="white" stroke-miterlimit="10" stroke-linecap="round"/>
<path d="M101.334 513.213L99.0278 518.386" stroke="white" stroke-miterlimit="10" stroke-linecap="round"/>
<path d="M79.7602 502.233L76.9297 507.132" stroke="white" stroke-miterlimit="10" stroke-linecap="round"/>
<path d="M59.4586 489.06L56.1265 493.638" stroke="white" stroke-miterlimit="10" stroke-linecap="round"/>
<path d="M40.644 473.838L36.8506 478.044" stroke="white" stroke-miterlimit="10" stroke-linecap="round"/>
<path d="M23.5273 456.737L19.3174 460.522" stroke="white" stroke-miterlimit="10" stroke-linecap="round"/>
<path d="M8.29024 437.94L3.7041 441.265" stroke="white" stroke-miterlimit="10" stroke-linecap="round"/>
</g>
<g opacity="0.3">
<path d="M22.4811 64.3347L18.2427 58.5067" stroke="white" stroke-miterlimit="10" stroke-linecap="round"/>
<path d="M48.3045 47.5791L44.7041 41.3413" stroke="white" stroke-miterlimit="10" stroke-linecap="round"/>
<path d="M75.7464 33.6121L72.8125 27.0328" stroke="white" stroke-miterlimit="10" stroke-linecap="round"/>
<path d="M104.493 22.582L102.265 15.7353" stroke="white" stroke-miterlimit="10" stroke-linecap="round"/>
<path d="M134.236 14.6199L132.737 7.57954" stroke="white" stroke-miterlimit="10" stroke-linecap="round"/>
<path d="M164.651 9.81055L163.899 2.65064" stroke="white" stroke-miterlimit="10" stroke-linecap="round"/>
<path d="M195.409 8.19971L195.409 1.00006" stroke="white" stroke-miterlimit="10" stroke-linecap="round"/>
<path d="M226.16 9.81055L226.912 2.65064" stroke="white" stroke-miterlimit="10" stroke-linecap="round"/>
<path d="M256.576 14.6199L258.074 7.57954" stroke="white" stroke-miterlimit="10" stroke-linecap="round"/>
<path d="M286.319 22.582L288.546 15.7353" stroke="white" stroke-miterlimit="10" stroke-linecap="round"/>
<path d="M315.065 33.6121L317.999 27.0328" stroke="white" stroke-miterlimit="10" stroke-linecap="round"/>
<path d="M342.506 47.5791L346.107 41.3413" stroke="white" stroke-miterlimit="10" stroke-linecap="round"/>
<path d="M368.33 64.3347L372.569 58.5067" stroke="white" stroke-miterlimit="10" stroke-linecap="round"/>
<path d="M368.33 539.908L372.569 545.73" stroke="white" stroke-miterlimit="10" stroke-linecap="round"/>
<path d="M342.506 556.663L346.107 562.896" stroke="white" stroke-miterlimit="10" stroke-linecap="round"/>
<path d="M315.065 570.63L317.999 577.209" stroke="white" stroke-miterlimit="10" stroke-linecap="round"/>
<path d="M286.319 581.654L288.546 588.501" stroke="white" stroke-miterlimit="10" stroke-linecap="round"/>
<path d="M256.576 589.617L258.074 596.663" stroke="white" stroke-miterlimit="10" stroke-linecap="round"/>
<path d="M226.16 594.432L226.912 601.592" stroke="white" stroke-miterlimit="10" stroke-linecap="round"/>
<path d="M164.651 594.432L163.899 601.592" stroke="white" stroke-miterlimit="10" stroke-linecap="round"/>
<path d="M134.236 589.617L132.737 596.663" stroke="white" stroke-miterlimit="10" stroke-linecap="round"/>
<path d="M104.493 581.654L102.265 588.501" stroke="white" stroke-miterlimit="10" stroke-linecap="round"/>
<path d="M75.7464 570.63L72.8125 577.209" stroke="white" stroke-miterlimit="10" stroke-linecap="round"/>
<path d="M48.305 556.663L44.7046 562.896" stroke="white" stroke-miterlimit="10" stroke-linecap="round"/>
<path d="M22.4811 539.908L18.2427 545.73" stroke="white" stroke-miterlimit="10" stroke-linecap="round"/>
</g>
</g>
</svg>
