<svg xmlns="http://www.w3.org/2000/svg" width="147.5" height="38.8"><path fill="none" d="M-1-1h582v402H-1z"/><path fill="#fff" d="M144.2 9.2h-1c-.2 0-.3-.1-.4-.2l-.9-1.3c-.1-.1-.1-.2-.1-.4v-.8c0-.1 0-.2.2-.2h.2c.4 0 .8-.3.8-.7 0-.4-.3-.7-.7-.7h-1.1v4c0 .2-.1.2-.2.2h-.8c-.1 0-.2 0-.2-.2V4.1c0-.1 0-.2.2-.2h2.1c.9 0 1.3.2 1.6.5.3.3.5.8.5 1.3 0 .9-.6 1.4-1.1 1.6l1.1 1.7c-.1 0-.1.2-.2.2zM26.8 31.7v4.6c0 1-.3 1.6-1.6 1.6H1.6C.3 38 0 37.4 0 36.4V2.5C0 1.2.6.9 1.6.9h5.6c1 0 1.6.3 1.6 1.6v27.6h16.3c1.3 0 1.7.6 1.7 1.6zm34.5-5.6c0 8.9-8.5 12.8-15.2 12.8C39.4 38.8 31 35 31 26.1V12.8C31 3.8 39.4 0 46.1 0c6.7 0 15.2 3.8 15.2 12.8v13.3zm-8.9-12.6c0-3.6-2.6-5.7-6.3-5.7-3.7 0-6.3 2.1-6.3 5.7v11.7c0 3.6 2.6 5.7 6.3 5.7 3.7 0 6.3-2.1 6.3-5.7V13.5zm46.1 13.7c0 7.2-5.6 10.8-13.4 10.8H68.5c-1.3 0-1.6-.6-1.6-1.6V2.5c0-1 .3-1.6 1.6-1.6h15.8c9.2 0 13.1 4.9 13.1 10.2 0 5.7-3.6 7.5-4.1 7.7.5.1 5.2 2.3 5.2 8.4zM82 21.1v-4.3l7-4.9s-1.7-3.2-4.7-3.2h-8.6V30h9.5c2.8 0 4.3-3.7 4.3-3.7L82 21.1zM135.2 38h-5.9c-1.2 0-1.7-.3-2.1-1.7l-1.6-4.5h-13.8l-1.6 4.5c-.5 1.4-.9 1.7-2.1 1.7H102c-1.2 0-1.2-.9-1-1.6l12.5-33.8c.5-1.2 1.1-1.8 2.3-1.8h5.4c1.2 0 1.8.6 2.3 1.8L136 36.4c.4.7.4 1.6-.8 1.6zm-12.3-14l-4.2-12.5-4.3 12.5h8.5z"/><path fill="#fff" d="M141.9.9c-3.1 0-5.6 2.5-5.6 5.6s2.5 5.6 5.6 5.6c3.1 0 5.6-2.5 5.6-5.6S145 .9 141.9.9zm0 9.8c-2.3 0-4.2-1.9-4.2-4.2 0-2.3 1.9-4.2 4.2-4.2 2.3 0 4.2 1.9 4.2 4.2 0 2.3-1.9 4.2-4.2 4.2z"/></svg>