<svg width="130" height="65" viewBox="0 0 130 65" fill="none" xmlns="http://www.w3.org/2000/svg">
<g clip-path="url(#clip0_27_7857)">
<path d="M24.3489 37.8567C23.8448 37.6618 23.6924 37.3145 23.8941 36.8148L28.3981 25.7226C28.5886 25.3058 28.8844 25.0974 29.2878 25.0974H29.3258C29.7359 25.1153 30.0138 25.3237 30.1594 25.7226L34.7397 36.8148C34.9414 37.3122 34.7957 37.6596 34.305 37.8567C33.8075 38.0517 33.4602 37.9083 33.263 37.422L32.2412 34.9437H26.3455L25.3708 37.422C25.1758 37.915 24.8352 38.0584 24.3489 37.8567ZM26.9707 33.3527H31.5891L29.234 27.6184L26.973 33.3527H26.9707Z" fill="white"/>
<path d="M37.8455 37.933C37.5744 37.933 37.3727 37.868 37.245 37.738C37.115 37.6081 37.05 37.4086 37.05 37.1375V25.9131C37.05 25.6353 37.115 25.4336 37.245 25.3081C37.3749 25.1826 37.5744 25.1199 37.8455 25.1199C38.1167 25.1199 38.3251 25.1826 38.4505 25.3081C38.576 25.4336 38.6388 25.6353 38.6388 25.9131V37.1375C38.6388 37.4086 38.576 37.6081 38.4505 37.738C38.3251 37.868 38.1234 37.933 37.8455 37.933Z" fill="white"/>
<path d="M49.0833 37.9329C48.0615 37.9329 47.3018 37.6865 46.8044 37.1935C46.3069 36.7005 46.0604 35.9453 46.0604 34.928V33.1398C46.0604 32.1068 46.3092 31.3449 46.8044 30.8541C47.2996 30.3634 48.0593 30.1191 49.0833 30.1191H50.3471C51.3757 30.1191 52.1353 30.3656 52.6283 30.8586C53.1213 31.3516 53.3678 32.1135 53.3678 33.1398V34.9123C53.3678 35.9341 53.1213 36.6938 52.6283 37.189C52.1353 37.6842 51.3735 37.9329 50.3471 37.9329H49.0833ZM47.3556 34.928C47.3556 35.5913 47.4766 36.0417 47.7186 36.2814C47.9607 36.5212 48.4155 36.64 49.0833 36.64H50.3471C51.0194 36.64 51.4765 36.519 51.7163 36.277C51.9561 36.035 52.0748 35.5801 52.0748 34.9123V33.1398C52.0748 32.4675 51.9561 32.0104 51.7163 31.7706C51.4765 31.5309 51.0216 31.4121 50.3471 31.4121H49.0833C48.6351 31.4121 48.2878 31.4614 48.0391 31.5622C47.7904 31.6631 47.6133 31.8379 47.5102 32.0866C47.4072 32.3353 47.3556 32.6871 47.3556 33.1376V34.9257V34.928Z" fill="white"/>
<path d="M56.4355 37.933C56.0053 37.933 55.7879 37.7179 55.7879 37.2854V30.7645C55.7879 30.3321 56.003 30.1169 56.4355 30.1169C56.868 30.1169 57.0831 30.3321 57.0831 30.7645V31.02C57.6276 30.4195 58.4299 30.1192 59.4875 30.1192H59.92C60.9486 30.1192 61.7082 30.3657 62.2012 30.8587C62.6942 31.3516 62.9407 32.1135 62.9407 33.1398V37.2876C62.9407 37.7201 62.7256 37.9352 62.2931 37.9352C61.8606 37.9352 61.6455 37.7201 61.6455 37.2876V33.1398C61.6455 32.4676 61.5222 32.0105 61.2802 31.7707C61.036 31.5309 60.5833 31.4121 59.92 31.4121H59.4875C58.8713 31.4121 58.3335 31.4839 57.8764 31.625C57.4192 31.7662 57.1548 31.988 57.0831 32.2928V37.2876C57.0831 37.7201 56.868 37.9352 56.4355 37.9352V37.933Z" fill="white"/>
<path d="M70.6492 37.933C70.2167 37.933 70.0016 37.7179 70.0016 37.2854V28.1271C70.0016 27.6946 70.2167 27.4795 70.6492 27.4795H74.3645C75.7067 27.4795 76.6927 27.7977 77.3269 28.4318C77.961 29.066 78.2792 30.0542 78.2792 31.3965V34.0183C78.2792 35.3605 77.9655 36.3465 77.3358 36.9829C76.7061 37.617 75.7157 37.9352 74.3645 37.9352H70.6492V37.933ZM71.2968 36.6378H74.3645C75.021 36.6378 75.5431 36.5571 75.9241 36.3958C76.3073 36.2344 76.5784 35.9611 76.742 35.5779C76.9033 35.1947 76.9862 34.6748 76.9862 34.016V31.3942C76.9862 30.7422 76.9056 30.2245 76.742 29.8413C76.5807 29.4582 76.3073 29.1848 75.9241 29.0212C75.5409 28.8576 75.021 28.7747 74.3645 28.7747H71.2968V36.6378Z" fill="white"/>
<path d="M81.6248 34.5582V34.9279C81.6248 35.5912 81.7458 36.0416 81.9878 36.2814C82.2298 36.5212 82.6847 36.6399 83.3525 36.6399H84.6163C85.1406 36.6399 85.5283 36.5906 85.7793 36.4943C86.0303 36.3957 86.1983 36.2254 86.2812 35.9789C86.3373 35.7839 86.4157 35.6338 86.5165 35.533C86.6174 35.4299 86.7697 35.3783 86.9759 35.3783C87.1821 35.3783 87.3568 35.4344 87.4689 35.5486C87.5809 35.6607 87.6168 35.8265 87.5764 36.0416C87.4644 36.678 87.1596 37.1553 86.6667 37.4668C86.1737 37.7783 85.4902 37.9374 84.6163 37.9374H83.3525C82.3306 37.9374 81.571 37.6909 81.0735 37.1979C80.5761 36.7049 80.3296 35.9498 80.3296 34.9324V33.1442C80.3296 32.1 80.5783 31.3336 81.0735 30.8429C81.5688 30.3521 82.3284 30.1124 83.3525 30.1213H84.6163C85.6448 30.1213 86.4045 30.3678 86.8975 30.8563C87.3905 31.3471 87.6369 32.109 87.6369 33.142V33.9128C87.6369 34.3453 87.4218 34.5604 86.9893 34.5604H81.6248V34.5582ZM83.3525 31.4143C82.6847 31.4031 82.2298 31.5196 81.9878 31.7616C81.7458 32.0036 81.6248 32.463 81.6248 33.142V33.2652H86.3417V33.142C86.3417 32.4697 86.223 32.0126 85.9832 31.7728C85.7434 31.5331 85.2885 31.4143 84.6141 31.4143H83.3502H83.3525Z" fill="white"/>
<path d="M98.6126 30.1169C99.5829 30.1169 100.282 30.3455 100.706 30.8026C101.129 31.2598 101.342 32.0172 101.342 33.0771V37.2854C101.342 37.7179 101.127 37.933 100.694 37.933C100.262 37.933 100.047 37.7179 100.047 37.2854V33.0771C100.047 32.4922 99.9347 32.0665 99.7106 31.8043C99.4865 31.5421 99.1212 31.4121 98.6126 31.4121H97.9807C97.3958 31.4121 96.9768 31.5421 96.7235 31.8043C96.4726 32.0665 96.3471 32.49 96.3471 33.0771V37.2854C96.3471 37.7179 96.132 37.933 95.6995 37.933C95.267 37.933 95.0519 37.7179 95.0519 37.2854V33.0771C95.0519 32.4922 94.9398 32.0665 94.7158 31.8043C94.4917 31.5421 94.1264 31.4121 93.6177 31.4121H92.9858C92.401 31.4121 91.9819 31.5421 91.7287 31.8043C91.4777 32.0665 91.35 32.49 91.35 33.0771V37.2854C91.35 37.7179 91.1349 37.933 90.7024 37.933C90.2699 37.933 90.0548 37.7179 90.0548 37.2854V30.7645C90.0548 30.3321 90.2699 30.1169 90.7024 30.1169C91.1349 30.1169 91.35 30.3321 91.35 30.7645V31.1186C91.6234 30.7645 91.9214 30.5091 92.2486 30.3522C92.5758 30.1954 92.9634 30.1169 93.4161 30.1169H93.6155C94.2519 30.1169 94.7538 30.2066 95.1191 30.3836C95.4844 30.5606 95.7622 30.8475 95.9505 31.2441C96.2238 30.8385 96.5129 30.5494 96.8177 30.3769C97.1224 30.2043 97.5101 30.1192 97.9784 30.1192H98.6103L98.6126 30.1169Z" fill="white"/>
<path d="M106.075 37.933C105.212 37.933 104.569 37.7224 104.147 37.3011C103.726 36.8798 103.516 36.2367 103.516 35.374C103.516 34.5112 103.724 33.8681 104.143 33.4468C104.562 33.0256 105.205 32.8149 106.075 32.8149H109.335C109.304 32.2749 109.162 31.9074 108.911 31.7079C108.66 31.5107 108.228 31.4121 107.616 31.4121H106.722C106.209 31.4121 105.826 31.4458 105.573 31.5152C105.322 31.5847 105.145 31.7102 105.042 31.8894C104.95 32.1046 104.853 32.2547 104.757 32.3376C104.661 32.4205 104.513 32.4609 104.318 32.4609C104.103 32.4609 103.932 32.4004 103.809 32.2794C103.686 32.1583 103.65 31.997 103.702 31.7976C103.856 31.2172 104.179 30.7914 104.67 30.5225C105.16 30.2536 105.846 30.1169 106.724 30.1169H107.619C108.647 30.1169 109.407 30.3634 109.9 30.8564C110.393 31.3494 110.639 32.1113 110.639 33.1376V37.2854C110.639 37.7179 110.424 37.933 109.992 37.933C109.559 37.933 109.344 37.7179 109.344 37.2854V36.9381C108.793 37.6013 107.993 37.933 106.94 37.933H106.077H106.075ZM106.075 36.6378H106.937C107.318 36.6378 107.675 36.6042 108.008 36.5347C108.342 36.4652 108.629 36.3375 108.869 36.1538C109.106 35.9678 109.266 35.7034 109.344 35.3605V34.1124H106.077C105.568 34.1124 105.23 34.1975 105.062 34.3656C104.896 34.5359 104.811 34.872 104.811 35.3762C104.811 35.8804 104.894 36.2232 105.062 36.3891C105.23 36.5571 105.566 36.64 106.077 36.64L106.075 36.6378Z" fill="white"/>
<path d="M113.92 37.933C113.489 37.933 113.272 37.7179 113.272 37.2854V30.7645C113.272 30.3321 113.487 30.1169 113.92 30.1169C114.352 30.1169 114.567 30.3321 114.567 30.7645V31.02C115.112 30.4195 115.914 30.1192 116.972 30.1192H117.404C118.433 30.1192 119.192 30.3657 119.685 30.8587C120.178 31.3516 120.425 32.1135 120.425 33.1398V37.2876C120.425 37.7201 120.21 37.9352 119.777 37.9352C119.345 37.9352 119.13 37.7201 119.13 37.2876V33.1398C119.13 32.4676 119.006 32.0105 118.764 31.7707C118.52 31.5309 118.068 31.4121 117.404 31.4121H116.972C116.356 31.4121 115.818 31.4839 115.361 31.625C114.903 31.7662 114.639 31.988 114.567 32.2928V37.2876C114.567 37.7201 114.352 37.9352 113.92 37.9352V37.933Z" fill="white"/>
<path d="M125.713 37.9329C124.691 37.9329 123.932 37.6842 123.434 37.1889C122.939 36.6937 122.69 35.9341 122.69 34.9123V33.1397C122.69 32.1112 122.939 31.3516 123.434 30.8586C123.93 30.3656 124.689 30.1191 125.713 30.1191H128.703V27.7304C128.703 27.2979 128.918 27.0828 129.35 27.0828C129.783 27.0828 129.998 27.2979 129.998 27.7304V37.2875C129.998 37.72 129.783 37.9351 129.35 37.9351C128.918 37.9351 128.703 37.72 128.703 37.2875V37.18C128.461 37.4265 128.145 37.6147 127.755 37.7424C127.365 37.8702 126.879 37.9351 126.298 37.9351H125.713V37.9329ZM125.713 36.6377H126.298C126.977 36.6377 127.546 36.5503 128.01 36.3755C128.474 36.2007 128.705 35.9341 128.705 35.5733V31.4121H125.716C125.048 31.4121 124.593 31.5331 124.351 31.7773C124.109 32.0216 123.988 32.4742 123.988 33.1375V34.91C123.988 35.5778 124.111 36.0327 124.353 36.2747C124.597 36.5167 125.05 36.6377 125.713 36.6377Z" fill="white"/>
<path d="M55.0776 54.4747C55.3039 54.2484 55.3106 53.8786 55.082 53.6523L46.0492 44.6173C45.8229 44.3909 45.4442 44.3909 45.2268 44.6173C45.0005 44.8436 44.9938 45.2133 45.2224 45.4396L54.2552 54.4747C54.3695 54.589 54.5196 54.645 54.6697 54.645C54.8199 54.645 54.97 54.589 55.0798 54.4747H55.0776Z" fill="white"/>
<path d="M48.4716 59.5458C48.7494 59.3844 48.8435 59.0281 48.6844 58.7503L42.2936 47.6828C42.1255 47.4027 41.767 47.3085 41.4981 47.4699C41.2202 47.6312 41.1261 47.9875 41.2852 48.2654L47.6761 59.3329C47.7859 59.5189 47.9808 59.6242 48.1803 59.6242C48.2811 59.6242 48.3797 59.5995 48.4716 59.5458Z" fill="white"/>
<path d="M40.7743 62.7323C41.0835 62.6494 41.2695 62.3289 41.1888 62.0197L37.8814 49.6772C37.794 49.3657 37.4579 49.1774 37.1665 49.2648C36.8573 49.3478 36.6713 49.6682 36.752 49.9774L40.0595 62.32C40.1312 62.5821 40.3642 62.7524 40.6242 62.7524C40.6735 62.7524 40.725 62.7457 40.7743 62.7323Z" fill="white"/>
<path d="M33.0972 63.2363V50.4591C33.0972 50.1386 32.8372 49.8765 32.5146 49.8765C32.1919 49.8765 31.9319 50.1386 31.9319 50.4591V63.2363C31.9319 63.5568 32.1919 63.819 32.5146 63.819C32.8372 63.819 33.0972 63.5568 33.0972 63.2363Z" fill="white"/>
<path d="M24.9719 62.3201L28.2794 49.9775C28.3623 49.6683 28.1741 49.3479 27.8648 49.265C27.5556 49.1865 27.2374 49.3658 27.15 49.6773L23.8425 62.0198C23.7596 62.329 23.9478 62.6495 24.2571 62.7324C24.3064 62.7458 24.3579 62.7526 24.4072 62.7526C24.6672 62.7526 24.898 62.5823 24.9719 62.3201Z" fill="white"/>
<path d="M17.3575 59.3329L23.7439 48.2654C23.903 47.9853 23.8067 47.6312 23.5311 47.4699C23.2532 47.3085 22.8947 47.4049 22.7356 47.6828L16.3492 58.7503C16.1901 59.0304 16.2864 59.3844 16.562 59.5458C16.6539 59.5973 16.7525 59.6242 16.8534 59.6242C17.0528 59.6242 17.25 59.5189 17.3575 59.3329Z" fill="white"/>
<path d="M10.7807 54.4747L19.8135 45.4396C20.0398 45.2133 20.0353 44.8436 19.809 44.6173C19.5917 44.3909 19.2129 44.3909 18.9866 44.6173L9.9538 53.6523C9.72748 53.8786 9.73196 54.2484 9.95829 54.4747C10.0681 54.589 10.2182 54.645 10.3684 54.645C10.5185 54.645 10.6686 54.589 10.7829 54.4747H10.7807Z" fill="white"/>
<path d="M5.67605 48.0795L16.7435 41.6909C17.0214 41.5296 17.1155 41.1733 16.9564 40.8954C16.7928 40.6153 16.4298 40.5212 16.1609 40.6825L5.09343 47.0712C4.81556 47.2325 4.72145 47.5888 4.88055 47.8667C4.99035 48.0526 5.1853 48.158 5.38474 48.158C5.48558 48.158 5.58417 48.1333 5.67605 48.0795Z" fill="white"/>
<path d="M32.5146 13.9425C32.1919 13.9425 31.9319 13.6803 31.9319 13.3599V0.582618C31.9319 0.262178 32.1919 0 32.5146 0C32.8372 0 33.0972 0.262178 33.0972 0.582618V13.3599C33.0972 13.6803 32.8372 13.9425 32.5146 13.9425Z" fill="white"/>
<path d="M37.8814 14.142L41.1888 1.79947C41.2718 1.49023 41.0835 1.16979 40.7743 1.08688C40.4606 1.00397 40.1469 1.18996 40.0595 1.4992L36.752 13.8417C36.6691 14.151 36.8573 14.4714 37.1665 14.5543C37.2158 14.5678 37.2674 14.5745 37.3167 14.5745C37.5766 14.5745 37.8074 14.4042 37.8814 14.142Z" fill="white"/>
<path d="M42.2936 16.1363L48.6845 5.06881C48.8436 4.79094 48.7472 4.43465 48.4716 4.27331C48.1937 4.11645 47.8397 4.20608 47.6761 4.48619L41.2852 15.5537C41.1261 15.8316 41.2225 16.1878 41.4981 16.3492C41.59 16.4007 41.6886 16.4276 41.7894 16.4276C41.9888 16.4276 42.186 16.3223 42.2936 16.1363Z" fill="white"/>
<path d="M46.047 19.2039L55.0798 10.1689C55.3061 9.94256 55.3016 9.57283 55.0753 9.3465C54.858 9.12018 54.4793 9.12018 54.2529 9.3465L45.2201 18.3816C44.9938 18.6079 44.9983 18.9776 45.2246 19.2039C45.3344 19.3182 45.4845 19.3743 45.6347 19.3743C45.7848 19.3743 45.9349 19.3182 46.0492 19.2039H46.047Z" fill="white"/>
<path d="M48.8727 23.1389L59.9402 16.7502C60.218 16.5889 60.3122 16.2326 60.1531 15.9547C59.985 15.6746 59.631 15.5805 59.3576 15.7419L48.2901 22.1305C48.0122 22.2918 47.9181 22.6481 48.0772 22.926C48.187 23.112 48.3819 23.2173 48.5814 23.2173C48.6822 23.2173 48.7808 23.1926 48.8727 23.1389Z" fill="white"/>
<path d="M2.40666 40.5793L14.747 37.2718C15.0562 37.1889 15.2422 36.8684 15.1615 36.5592C15.0741 36.2455 14.738 36.0572 14.4467 36.1469L2.10639 39.4544C1.79716 39.5373 1.61117 39.8577 1.69184 40.1669C1.76354 40.4291 1.99659 40.5994 2.25653 40.5994C2.30583 40.5994 2.35737 40.5927 2.40666 40.5793Z" fill="white"/>
<path d="M14.552 31.9095C14.552 31.5891 14.2921 31.3269 13.9694 31.3269H1.18764C0.864964 31.3269 0.605026 31.5891 0.605026 31.9095C0.605026 32.23 0.864964 32.4921 1.18764 32.4921H13.9694C14.2921 32.4921 14.552 32.23 14.552 31.9095Z" fill="white"/>
<path d="M15.1615 27.2577C15.2444 26.9484 15.0562 26.628 14.747 26.5451L2.40666 23.2376C2.10638 23.1592 1.7837 23.3384 1.69183 23.6499C1.60892 23.9592 1.79715 24.2796 2.10638 24.3625L14.4467 27.67C14.496 27.6834 14.5475 27.6902 14.5968 27.6902C14.8568 27.6902 15.0876 27.5199 15.1615 27.2577Z" fill="white"/>
<path d="M16.9587 22.926C17.1178 22.6481 17.0214 22.2918 16.7458 22.1305L5.67829 15.7419C5.40043 15.5805 5.04637 15.6769 4.88279 15.9547C4.72369 16.2326 4.82005 16.5889 5.09567 16.7502L16.1632 23.1389C16.255 23.1904 16.3536 23.2173 16.4545 23.2173C16.6539 23.2173 16.8511 23.112 16.9587 22.926Z" fill="white"/>
<path d="M19.809 19.2039C20.0353 18.9776 20.0421 18.6079 19.8135 18.3816L10.7807 9.3465C10.5543 9.12018 10.1756 9.12018 9.95828 9.3465C9.73196 9.57283 9.72523 9.94256 9.9538 10.1689L18.9866 19.2039C19.1009 19.3182 19.251 19.3743 19.4012 19.3743C19.5513 19.3743 19.7014 19.3182 19.8112 19.2039H19.809Z" fill="white"/>
<path d="M23.531 16.3514C23.8089 16.19 23.903 15.836 23.7439 15.5559L17.3575 4.48839C17.1895 4.20604 16.8354 4.11865 16.562 4.27551C16.2842 4.43685 16.1901 4.7909 16.3492 5.07101L22.7356 16.1385C22.8454 16.3245 23.0403 16.4298 23.2397 16.4298C23.3406 16.4298 23.4392 16.4052 23.531 16.3514Z" fill="white"/>
<path d="M27.8648 14.5543C28.1741 14.4714 28.36 14.151 28.2794 13.8417L24.9719 1.49919C24.8845 1.18548 24.5529 0.995005 24.2571 1.08688C23.9478 1.16979 23.7618 1.49023 23.8425 1.79947L27.15 14.142C27.2217 14.4042 27.4547 14.5745 27.7147 14.5745C27.764 14.5745 27.8155 14.5678 27.8648 14.5543Z" fill="white"/>
<path d="M37.3189 14.8546C37.2472 14.8546 37.1688 14.8456 37.0971 14.8255C36.6377 14.7022 36.3643 14.2294 36.4876 13.77L38.1973 7.37916C38.3206 6.92202 38.7889 6.63968 39.2528 6.76965C39.7121 6.89289 39.9855 7.36571 39.8623 7.82508L38.1525 14.216C38.0472 14.6014 37.7021 14.8546 37.3212 14.8546H37.3189ZM42.5356 16.2753L45.1148 11.8093C45.3523 11.397 45.2112 10.8726 44.8011 10.6329C44.3865 10.3908 43.8599 10.5365 43.6224 10.9488L41.0432 15.4148C40.8057 15.8271 40.9468 16.3515 41.3569 16.5912C41.4936 16.6719 41.6437 16.7078 41.7894 16.7078C42.0852 16.7078 42.3765 16.5531 42.5356 16.2753ZM46.1747 19.3363L48.9914 16.5218C49.2917 16.2215 49.2917 15.7352 48.9959 15.435C48.6957 15.1347 48.2094 15.1347 47.9091 15.435L45.0924 18.2495C44.7921 18.5497 44.7921 19.036 45.0879 19.3363C45.238 19.4864 45.4375 19.5604 45.6347 19.5604C45.8319 19.5604 46.0268 19.4864 46.177 19.3363H46.1747ZM48.9399 23.26L51.537 21.7609C51.8821 21.5614 52.0009 21.12 51.8015 20.7749C51.6065 20.432 51.1651 20.3088 50.82 20.5105L48.2228 22.0096C47.8778 22.209 47.759 22.6505 47.9584 22.9956C48.0906 23.2286 48.3304 23.3541 48.5814 23.3541C48.7046 23.3541 48.8279 23.325 48.9399 23.2577V23.26ZM55.8036 55.1986C56.431 54.5712 56.431 53.5516 55.8036 52.9242L46.7708 43.8891C46.1433 43.2617 45.1238 43.2617 44.4963 43.8891C43.8689 44.5166 43.8689 45.5362 44.4963 46.1636L53.5291 55.1986C53.8429 55.5124 54.2574 55.6692 54.6652 55.6692C55.0731 55.6692 55.4876 55.5124 55.8014 55.1986H55.8036ZM48.9623 60.3907C49.7085 59.9604 49.964 59.0058 49.5315 58.2596L43.1406 47.1921C42.7081 46.4392 41.7401 46.186 41.0073 46.6207C40.2611 47.051 40.0057 48.0056 40.4382 48.7518L46.829 59.8193C47.1159 60.319 47.6425 60.5991 48.1803 60.5991C48.4492 60.5991 48.7181 60.5341 48.9623 60.3907ZM41.0163 63.6309C41.8252 63.4158 42.3025 62.5844 42.0852 61.7777L38.7777 49.4352C38.5693 48.6307 37.7581 48.1579 36.9268 48.3641C36.1178 48.5792 35.6405 49.4106 35.8579 50.2173L39.1654 62.5598C39.3424 63.2365 39.9564 63.6825 40.6264 63.6825C40.7541 63.6825 40.8863 63.6645 41.0185 63.6309H41.0163ZM33.9846 63.2343V50.457C33.9846 49.6481 33.3257 48.9893 32.5146 48.9893C31.7034 48.9893 31.0446 49.6459 31.0446 50.457V63.2343C31.0446 64.0432 31.7034 64.702 32.5146 64.702C33.3257 64.702 33.9846 64.0455 33.9846 63.2343ZM25.7831 62.5352L29.0906 50.1926C29.29 49.433 28.8396 48.6554 28.0844 48.4537C27.3337 48.252 26.5517 48.7002 26.3433 49.4576L23.0358 61.8002C22.8364 62.5598 23.2868 63.3374 24.042 63.539C24.1652 63.5727 24.2884 63.5883 24.4095 63.5883C25.0369 63.5883 25.6105 63.1693 25.7831 62.5352ZM18.0455 59.7229L24.4319 48.6554C24.8083 47.9988 24.582 47.1563 23.9277 46.7798C23.2689 46.4034 22.4308 46.6207 22.0498 47.2818L15.6635 58.3493C15.287 59.0058 15.5133 59.8484 16.1676 60.2248C16.385 60.3503 16.6181 60.4086 16.8556 60.4086C17.3284 60.4086 17.7923 60.1621 18.0477 59.7207L18.0455 59.7229ZM11.305 54.997L20.3378 45.9619C20.8555 45.4443 20.8555 44.6017 20.3378 44.0841C19.8202 43.5665 18.9821 43.5665 18.4645 44.0841L9.43169 53.1191C8.91405 53.6368 8.91405 54.4793 9.43169 54.997C9.69163 55.2569 10.0278 55.3869 10.3684 55.3869C10.709 55.3869 11.0451 55.2569 11.305 54.997ZM6.02785 48.6778L17.0954 42.2892C17.7049 41.9351 17.9177 41.1531 17.5637 40.5368C17.2096 39.9229 16.4276 39.7167 15.8114 40.0685L4.74385 46.4571C4.13435 46.8112 3.92147 47.5932 4.27552 48.2095C4.51305 48.6195 4.94329 48.8481 5.38473 48.8481C5.6021 48.8481 5.8217 48.7943 6.02561 48.6778H6.02785ZM2.57472 41.2046L14.915 37.8971C15.5738 37.7223 15.966 37.0434 15.7889 36.3868C15.6119 35.728 14.9195 35.3269 14.2786 35.5129L1.93833 38.8204C1.27952 38.9951 0.887372 39.6741 1.0644 40.3307C1.21005 40.8842 1.70976 41.2472 2.25652 41.2472C2.36184 41.2472 2.4694 41.2337 2.57472 41.2046ZM15.157 31.9051C15.157 31.2508 14.6237 30.7175 13.9694 30.7175H1.18764C0.53332 30.7175 0 31.2508 0 31.9051C0 32.5595 0.53332 33.0928 1.18764 33.0928H13.9694C14.6237 33.0928 15.157 32.5595 15.157 31.9051ZM15.6993 27.3988C15.8629 26.7893 15.5044 26.1641 14.8949 26.0005L2.55456 22.693C1.91368 22.5339 1.31761 22.8947 1.15851 23.4997C0.994932 24.1093 1.35347 24.7344 1.96297 24.898L14.3033 28.2055C14.4041 28.2302 14.5027 28.2436 14.5991 28.2436C15.1033 28.2436 15.5626 27.9075 15.6993 27.3966V27.3988ZM17.4001 23.1771C17.7049 22.6527 17.5234 21.9827 16.999 21.6802L5.92926 15.2938C5.40266 14.989 4.73265 15.1683 4.43686 15.6949C4.13211 16.2193 4.31361 16.8893 4.83797 17.1918L15.9077 23.5782C16.0803 23.679 16.2662 23.7238 16.4545 23.7238C16.8309 23.7238 17.2007 23.5289 17.4001 23.1771ZM20.1429 19.529C20.553 19.1189 20.553 18.4556 20.1429 18.0455L11.677 9.57742C11.2669 9.16734 10.6036 9.16734 10.1936 9.57742C9.7835 9.98749 9.7835 10.6508 10.1936 11.0609L18.6595 19.529C18.8634 19.7329 19.1323 19.836 19.4012 19.836C19.6701 19.836 19.939 19.7329 20.1429 19.529ZM23.7417 16.7055C24.219 16.4299 24.3826 15.8159 24.1092 15.3386L18.6371 5.85987C18.3547 5.38033 17.7407 5.21675 17.2679 5.49461C16.7906 5.77023 16.627 6.38422 16.9004 6.86152L22.3725 16.3403C22.5585 16.6607 22.8946 16.84 23.242 16.84C23.4145 16.84 23.5826 16.7974 23.7417 16.7055ZM27.9634 14.9084C28.4721 14.7717 28.7768 14.2473 28.6402 13.7364L26.1618 4.47727C26.0251 3.9686 25.503 3.67281 24.9921 3.80278C24.4834 3.93947 24.1786 4.46382 24.3153 4.97474L26.7937 14.2339C26.908 14.6596 27.2934 14.942 27.7169 14.942C27.7998 14.942 27.8805 14.9308 27.9634 14.9106V14.9084ZM33.4266 13.3532V5.23019C33.4266 4.72824 33.0165 4.32265 32.5168 4.32265C32.0171 4.32265 31.607 4.72824 31.607 5.23019V13.36C31.607 13.8619 32.0171 14.2675 32.5168 14.2675C33.0165 14.2675 33.4266 13.8619 33.4266 13.36V13.3532Z" fill="white"/>
<path d="M70.0128 46.437C69.9142 46.437 69.8671 46.3877 69.8671 46.2913V43.0309C69.8671 42.9346 69.9164 42.8853 70.0128 42.8853C70.1091 42.8853 70.1562 42.9346 70.1562 43.0309V44.6152L71.7942 42.9368C71.8615 42.8696 71.9264 42.8673 71.9959 42.9346C72.0676 43.0018 72.0698 43.069 72.0004 43.1407L70.7657 44.4068L72.2177 46.2084C72.2782 46.2846 72.2715 46.3518 72.1976 46.4123C72.1214 46.4728 72.0542 46.4661 71.9959 46.3922L70.5618 44.6152L70.1539 45.032V46.2913C70.1539 46.3877 70.1069 46.437 70.0105 46.437H70.0128Z" fill="white"/>
<path d="M72.9393 46.4369C72.8429 46.4369 72.7936 46.3876 72.7936 46.2912V43.9764C72.7936 43.8801 72.8429 43.833 72.9393 43.833C73.0356 43.833 73.0827 43.8801 73.0827 43.9764V44.2408C73.2575 43.9697 73.5734 43.833 74.0306 43.833H74.1852C74.528 43.833 74.779 43.9114 74.9381 44.0705C75.0972 44.2296 75.1756 44.4806 75.1756 44.8235V46.289C75.1756 46.3853 75.1286 46.4346 75.0322 46.4346C74.9359 46.4346 74.8866 46.3853 74.8866 46.289V44.8235C74.8866 44.5613 74.835 44.3775 74.732 44.2745C74.6289 44.1714 74.4451 44.1198 74.1852 44.1198H74.0306C73.746 44.1198 73.5219 44.1647 73.3583 44.2543C73.1947 44.3439 73.1029 44.4851 73.0827 44.6756V46.289C73.0827 46.3853 73.0356 46.4346 72.9393 46.4346V46.4369Z" fill="white"/>
<path d="M76.9683 46.4368C76.6255 46.4368 76.3723 46.3584 76.2132 46.1993C76.0541 46.0402 75.9734 45.7892 75.9734 45.4486V44.8256C75.9734 44.4783 76.0541 44.2251 76.2132 44.066C76.3723 43.9069 76.6255 43.8285 76.9683 43.8329H77.421C77.7638 43.8329 78.017 43.9114 78.1739 44.0705C78.333 44.2296 78.4114 44.4805 78.4114 44.8234V45.4396C78.4114 45.7825 78.333 46.0357 78.1739 46.1948C78.0148 46.3539 77.7638 46.4346 77.421 46.4346H76.9683V46.4368ZM76.2625 45.4463C76.2625 45.7063 76.314 45.8878 76.4193 45.9909C76.5246 46.094 76.7061 46.1477 76.9683 46.1477H77.421C77.6831 46.1477 77.8669 46.0962 77.97 45.9909C78.0731 45.8878 78.1246 45.704 78.1246 45.4419V44.8256C78.1246 44.5635 78.0731 44.3797 77.97 44.2766C77.8669 44.1736 77.6831 44.122 77.421 44.122H76.9683C76.7913 44.122 76.6524 44.1422 76.5493 44.1848C76.4462 44.2296 76.3723 44.3035 76.3297 44.4044C76.2849 44.5074 76.2625 44.6464 76.2625 44.8234V45.4463Z" fill="white"/>
<path d="M79.7201 46.4368C79.6327 46.4368 79.5767 46.3965 79.552 46.318L78.7744 44.0279C78.7431 43.9338 78.7744 43.8733 78.8663 43.8442C78.9559 43.8173 79.0164 43.8464 79.0456 43.936L79.8007 46.15H79.6842L80.4058 43.9786C80.4304 43.9024 80.4864 43.8621 80.5716 43.8621C80.6567 43.8621 80.7038 43.9024 80.7284 43.9808L81.4029 46.1433H81.2819L82.0752 43.936C82.111 43.8419 82.1738 43.8128 82.2634 43.8442C82.3553 43.88 82.3844 43.9405 82.3508 44.0324L81.4993 46.3203C81.4702 46.3987 81.4119 46.439 81.329 46.439C81.2349 46.439 81.1766 46.3987 81.152 46.3203L80.5268 44.317H80.5828L79.8949 46.3203C79.8792 46.3673 79.8568 46.3965 79.8254 46.4144C79.794 46.4301 79.7582 46.439 79.7201 46.439V46.4368Z" fill="white"/>
<path d="M83.6572 46.4369C83.3973 46.4369 83.2046 46.3764 83.0836 46.2554C82.9603 46.1344 82.8998 45.9439 82.8998 45.684V42.7574C82.8998 42.6611 82.9491 42.614 83.0455 42.614C83.1418 42.614 83.1889 42.6611 83.1889 42.7574V45.684C83.1889 45.861 83.2225 45.9842 83.2875 46.0492C83.3525 46.1142 83.4757 46.1478 83.655 46.1478C83.7536 46.1478 83.8051 46.1949 83.8051 46.2912C83.8051 46.3876 83.7581 46.4369 83.6595 46.4369H83.6572Z" fill="white"/>
<path d="M84.502 45.2471V45.4487C84.502 45.7087 84.5535 45.8902 84.6589 45.9933C84.7619 46.0963 84.9457 46.1501 85.2079 46.1501H85.6605C85.8913 46.1501 86.0616 46.121 86.167 46.0605C86.2723 46 86.335 45.8969 86.3552 45.7513C86.3619 45.7042 86.3776 45.6706 86.4 45.6459C86.4224 45.6213 86.4583 45.6101 86.5053 45.6101C86.5524 45.6101 86.5905 45.6235 86.6151 45.6504C86.6398 45.6773 86.6487 45.7154 86.6443 45.7625C86.6196 45.9933 86.5277 46.1658 86.3664 46.2756C86.2051 46.3854 85.9698 46.4414 85.6605 46.4414H85.2079C84.865 46.4414 84.6118 46.363 84.4527 46.2039C84.2936 46.0448 84.2129 45.7938 84.2129 45.4532V44.8303C84.2129 44.4829 84.2936 44.2297 84.4527 44.0706C84.6118 43.9115 84.865 43.8331 85.2079 43.8376H85.6605C86.0034 43.8376 86.2543 43.916 86.4134 44.0751C86.5725 44.2342 86.651 44.4852 86.651 44.828V45.1037C86.651 45.2 86.6039 45.2493 86.5076 45.2493H84.502V45.2471ZM85.2079 44.1222C84.9457 44.1177 84.7619 44.1692 84.6589 44.2723C84.5558 44.3754 84.502 44.5614 84.502 44.8258V44.958H86.3619V44.8258C86.3619 44.5636 86.3104 44.3799 86.2073 44.2768C86.1042 44.1737 85.9205 44.1222 85.6583 44.1222H85.2056H85.2079Z" fill="white"/>
<path d="M88.4168 46.4368C88.0739 46.4368 87.8207 46.3562 87.6616 46.1971C87.5025 46.038 87.4218 45.7848 87.4218 45.4419V44.8257C87.4218 44.4828 87.5025 44.2319 87.6616 44.0728C87.8207 43.9137 88.0739 43.8352 88.4168 43.8352H89.5708V42.7596C89.5708 42.6633 89.6201 42.6162 89.7164 42.6162C89.8128 42.6162 89.8599 42.6633 89.8599 42.7596V46.2934C89.8599 46.3898 89.8128 46.4391 89.7164 46.4391C89.6201 46.4391 89.5708 46.3898 89.5708 46.2934V46.0559C89.4924 46.1836 89.3758 46.2777 89.2235 46.3427C89.0711 46.4077 88.8717 46.4391 88.6252 46.4391H88.4168V46.4368ZM88.4168 46.1478H88.6252C88.912 46.1478 89.1406 46.103 89.3131 46.0111C89.4856 45.9192 89.5708 45.7825 89.5708 45.601V44.1198H88.4168C88.1546 44.1198 87.9708 44.1714 87.8678 44.2767C87.7647 44.382 87.7109 44.5635 87.7109 44.8234V45.4397C87.7109 45.7018 87.7624 45.8856 87.8678 45.9887C87.9731 46.0918 88.1546 46.1455 88.4168 46.1455V46.1478Z" fill="white"/>
<path d="M91.3657 47.5394C91.1483 47.5394 90.9825 47.4945 90.8705 47.4049C90.7562 47.3153 90.689 47.1763 90.6688 46.9836C90.6643 46.9366 90.6733 46.8985 90.7002 46.8716C90.7271 46.8447 90.7607 46.8313 90.8077 46.8313C90.8548 46.8313 90.8884 46.8425 90.9131 46.8671C90.9377 46.8918 90.9534 46.9276 90.9601 46.9747C90.9736 47.08 91.0117 47.1539 91.0722 47.192C91.1349 47.2301 91.2335 47.2503 91.3679 47.2503H92.392C92.5533 47.2503 92.6631 47.2212 92.7214 47.1629C92.7797 47.1046 92.8088 46.9948 92.8088 46.8313V46.0425C92.7237 46.1702 92.6049 46.2688 92.4503 46.336C92.2957 46.4032 92.1007 46.4369 91.8632 46.4369H91.6525C91.3097 46.4369 91.0565 46.3584 90.8974 46.1993C90.7383 46.0402 90.6576 45.7893 90.6576 45.4487V44.8257C90.6576 44.4784 90.736 44.2274 90.8951 44.0683C91.0542 43.9092 91.3052 43.833 91.6525 43.833H92.1052C92.2844 43.833 92.4323 43.8577 92.5444 43.9047C92.6564 43.9518 92.7438 44.028 92.8088 44.1288V43.9764C92.8088 43.8801 92.8581 43.833 92.9545 43.833C93.0508 43.833 93.0979 43.8801 93.0979 43.9764V46.8313C93.0979 47.0733 93.0419 47.2525 92.9276 47.3668C92.8133 47.4811 92.6363 47.5394 92.392 47.5394H91.3679H91.3657ZM91.6525 46.1478H91.8632C92.15 46.1478 92.3786 46.103 92.5511 46.0133C92.7236 45.9237 92.8088 45.787 92.8088 45.6033V44.6823C92.8088 44.4739 92.7505 44.3305 92.6363 44.2476C92.5197 44.1647 92.345 44.1243 92.1074 44.1243H91.6548C91.3926 44.1243 91.2088 44.1759 91.1058 44.2767C91.0027 44.3775 90.9489 44.5613 90.9489 44.8257V45.4487C90.9489 45.7086 91.0004 45.8901 91.1058 45.9932C91.2111 46.0963 91.3926 46.15 91.6548 46.15L91.6525 46.1478Z" fill="white"/>
<path d="M94.1847 45.2471V45.4487C94.1847 45.7087 94.2362 45.8902 94.3393 45.9933C94.4424 46.0963 94.6261 46.1501 94.8883 46.1501H95.341C95.5718 46.1501 95.7421 46.121 95.8474 46.0605C95.9527 46 96.0154 45.8969 96.0356 45.7513C96.0423 45.7042 96.058 45.6706 96.0804 45.6459C96.1028 45.6213 96.1387 45.6101 96.1857 45.6101C96.2328 45.6101 96.2709 45.6235 96.2956 45.6504C96.3202 45.6773 96.3292 45.7154 96.3247 45.7625C96.3 45.9933 96.2082 46.1658 96.0468 46.2756C95.8855 46.3854 95.6502 46.4414 95.341 46.4414H94.8883C94.5455 46.4414 94.2922 46.363 94.1331 46.2039C93.974 46.0448 93.8934 45.7938 93.8934 45.4532V44.8303C93.8934 44.4829 93.974 44.2297 94.1331 44.0706C94.2922 43.9115 94.5455 43.8331 94.8883 43.8376H95.341C95.6838 43.8376 95.937 43.916 96.0939 44.0751C96.253 44.2342 96.3314 44.4852 96.3314 44.828V45.1037C96.3314 45.2 96.2843 45.2493 96.188 45.2493H94.1824L94.1847 45.2471ZM94.8905 44.1222C94.6284 44.1177 94.4446 44.1692 94.3415 44.2723C94.2385 44.3754 94.1869 44.5614 94.1869 44.8258V44.958H96.0468V44.8258C96.0468 44.5636 95.9953 44.3799 95.8922 44.2768C95.7891 44.1737 95.6054 44.1222 95.3432 44.1222H94.8905Z" fill="white"/>
<path d="M99.2266 46.4369C98.9397 46.4369 98.7291 46.3697 98.5969 46.2375C98.4647 46.1053 98.3974 45.8947 98.3974 45.6078C98.3974 45.321 98.4647 45.1104 98.5991 44.9759C98.7336 44.8415 98.942 44.7742 99.2266 44.7742H100.481C100.477 44.5322 100.423 44.3619 100.318 44.2656C100.213 44.1692 100.033 44.1199 99.78 44.1199H99.4596C99.2266 44.1199 99.0563 44.1446 98.9465 44.1939C98.8389 44.2432 98.7717 44.3283 98.7448 44.4471C98.7313 44.4919 98.7156 44.5255 98.6932 44.5479C98.6731 44.5681 98.6395 44.5793 98.5924 44.5793C98.5453 44.5793 98.5073 44.5658 98.4804 44.539C98.4535 44.5121 98.4445 44.4762 98.4512 44.4292C98.4759 44.2185 98.57 44.0661 98.7358 43.972C98.9016 43.8757 99.1414 43.8286 99.4574 43.8286H99.7778C100.121 43.8286 100.372 43.907 100.531 44.0661C100.69 44.2252 100.768 44.4762 100.768 44.8191V46.2846C100.768 46.3809 100.721 46.4302 100.625 46.4302C100.528 46.4302 100.479 46.3809 100.479 46.2846V46.0112C100.302 46.2913 99.9884 46.4302 99.5336 46.4302H99.2243L99.2266 46.4369ZM99.2266 46.1479H99.5358C99.7128 46.1479 99.8697 46.1277 100.006 46.0896C100.141 46.0493 100.251 45.9865 100.334 45.8991C100.416 45.8118 100.466 45.693 100.484 45.5473V45.0678H99.2288C99.0249 45.0678 98.8837 45.1059 98.8053 45.1843C98.7269 45.2628 98.6888 45.4039 98.6888 45.6101C98.6888 45.8162 98.7269 45.9552 98.8053 46.0336C98.8837 46.112 99.0249 46.1501 99.2288 46.1501L99.2266 46.1479Z" fill="white"/>
<path d="M101.788 46.4369C101.691 46.4369 101.642 46.3876 101.642 46.2912V43.9764C101.642 43.8801 101.691 43.833 101.788 43.833C101.884 43.833 101.931 43.8801 101.931 43.9764V44.2408C102.106 43.9697 102.422 43.833 102.879 43.833H103.034C103.377 43.833 103.628 43.9114 103.787 44.0705C103.946 44.2296 104.024 44.4806 104.024 44.8235V46.289C104.024 46.3853 103.977 46.4346 103.881 46.4346C103.784 46.4346 103.735 46.3853 103.735 46.289V44.8235C103.735 44.5613 103.684 44.3775 103.581 44.2745C103.477 44.1714 103.294 44.1198 103.034 44.1198H102.879C102.595 44.1198 102.37 44.1647 102.207 44.2543C102.043 44.3439 101.951 44.4851 101.931 44.6756V46.289C101.931 46.3853 101.884 46.4346 101.788 46.4346V46.4369Z" fill="white"/>
<path d="M105.817 46.4368C105.474 46.4368 105.221 46.3562 105.062 46.1971C104.903 46.038 104.822 45.7848 104.822 45.4419V44.8257C104.822 44.4828 104.903 44.2319 105.062 44.0728C105.221 43.9137 105.474 43.8352 105.817 43.8352H106.971V42.7596C106.971 42.6633 107.02 42.6162 107.117 42.6162C107.213 42.6162 107.26 42.6633 107.26 42.7596V46.2934C107.26 46.3898 107.213 46.4391 107.117 46.4391C107.02 46.4391 106.971 46.3898 106.971 46.2934V46.0559C106.892 46.1836 106.776 46.2777 106.624 46.3427C106.471 46.4077 106.272 46.4391 106.025 46.4391H105.817V46.4368ZM105.817 46.1478H106.025C106.312 46.1478 106.541 46.103 106.713 46.0111C106.886 45.9192 106.971 45.7825 106.971 45.601V44.1198H105.817C105.555 44.1198 105.371 44.1714 105.268 44.2767C105.165 44.382 105.111 44.5635 105.111 44.8234V45.4397C105.111 45.7018 105.163 45.8856 105.268 45.9887C105.373 46.0918 105.555 46.1455 105.817 46.1455V46.1478Z" fill="white"/>
<path d="M109.976 46.4323C109.75 46.4323 109.577 46.383 109.458 46.2867C109.339 46.1903 109.268 46.0424 109.243 45.843C109.239 45.7959 109.248 45.7578 109.274 45.7309C109.301 45.704 109.337 45.6906 109.387 45.6906C109.431 45.6906 109.467 45.7018 109.49 45.7264C109.512 45.7511 109.528 45.7869 109.534 45.834C109.55 45.9483 109.593 46.0267 109.66 46.0715C109.727 46.1164 109.832 46.1388 109.976 46.1388H110.879C111.049 46.1388 111.168 46.1074 111.231 46.0424C111.296 45.9774 111.327 45.8609 111.327 45.6906C111.327 45.5203 111.296 45.3993 111.231 45.3343C111.166 45.2693 111.049 45.2379 110.879 45.2379H109.985C109.745 45.2379 109.568 45.1797 109.452 45.0654C109.335 44.9511 109.277 44.7741 109.277 44.5343C109.277 44.2946 109.335 44.1108 109.449 43.9965C109.566 43.8822 109.743 43.824 109.985 43.824H110.85C111.264 43.824 111.495 44.0077 111.542 44.3752C111.549 44.4223 111.54 44.4604 111.513 44.4873C111.486 44.5142 111.45 44.5276 111.401 44.5276C111.352 44.5276 111.32 44.5164 111.298 44.4917C111.276 44.4671 111.26 44.4335 111.251 44.3864C111.237 44.2833 111.202 44.2116 111.139 44.1735C111.076 44.1355 110.982 44.1153 110.85 44.1153H109.985C109.826 44.1153 109.716 44.1444 109.655 44.2027C109.595 44.2609 109.566 44.373 109.566 44.5366C109.566 44.7001 109.597 44.801 109.658 44.8615C109.718 44.922 109.828 44.9511 109.985 44.9511H110.879C111.132 44.9511 111.318 45.0116 111.439 45.1326C111.558 45.2536 111.618 45.4396 111.618 45.6928C111.618 45.946 111.558 46.1298 111.439 46.2508C111.32 46.3718 111.132 46.4323 110.879 46.4323H109.976Z" fill="white"/>
<path d="M112.589 45.2471V45.4487C112.589 45.7087 112.64 45.8902 112.746 45.9933C112.851 46.0963 113.032 46.1501 113.295 46.1501H113.747C113.978 46.1501 114.148 46.121 114.254 46.0605C114.359 46 114.422 45.8969 114.442 45.7513C114.449 45.7042 114.464 45.6706 114.487 45.6459C114.509 45.6213 114.545 45.6101 114.592 45.6101C114.639 45.6101 114.677 45.6235 114.702 45.6504C114.726 45.6773 114.735 45.7154 114.731 45.7625C114.706 45.9933 114.614 46.1658 114.453 46.2756C114.292 46.3854 114.056 46.4414 113.747 46.4414H113.295C112.952 46.4414 112.698 46.363 112.539 46.2039C112.38 46.0448 112.3 45.7938 112.3 45.4532V44.8303C112.3 44.4829 112.38 44.2297 112.539 44.0706C112.698 43.9115 112.952 43.8331 113.295 43.8376H113.747C114.09 43.8376 114.343 43.916 114.5 44.0751C114.659 44.2342 114.738 44.4852 114.738 44.828V45.1037C114.738 45.2 114.691 45.2493 114.594 45.2493H112.589V45.2471ZM113.295 44.1222C113.032 44.1177 112.849 44.1692 112.746 44.2723C112.642 44.3754 112.589 44.5614 112.589 44.8258V44.958H114.449V44.8258C114.449 44.5636 114.397 44.3799 114.294 44.2768C114.191 44.1737 114.007 44.1222 113.745 44.1222H113.292H113.295Z" fill="white"/>
<path d="M115.73 46.4369C115.634 46.4369 115.585 46.3876 115.585 46.2912V43.9764C115.585 43.8801 115.634 43.833 115.73 43.833C115.827 43.833 115.874 43.8801 115.874 43.9764V44.3999C115.97 44.2162 116.107 44.075 116.288 43.9787C116.47 43.8801 116.683 43.833 116.931 43.833C117.028 43.833 117.077 43.8801 117.077 43.9764C117.077 44.0728 117.028 44.1221 116.931 44.1221C116.604 44.1221 116.351 44.196 116.17 44.3439C115.99 44.4918 115.889 44.7025 115.872 44.9758V46.2912C115.872 46.3876 115.824 46.4369 115.728 46.4369H115.73Z" fill="white"/>
<path d="M118.554 46.3271C118.534 46.372 118.509 46.4011 118.48 46.4145C118.451 46.428 118.417 46.4369 118.377 46.4369C118.296 46.4369 118.24 46.3989 118.206 46.3249L117.185 44.0348C117.147 43.9451 117.173 43.8824 117.265 43.8465C117.35 43.8107 117.413 43.8353 117.454 43.925L118.473 46.2061H118.296L119.383 43.9205C119.403 43.8779 119.43 43.851 119.464 43.8376C119.497 43.8241 119.535 43.8264 119.576 43.8465C119.665 43.8869 119.69 43.9519 119.65 44.0393L118.556 46.3271H118.554Z" fill="white"/>
<path d="M120.288 43.3287C120.16 43.3287 120.098 43.2638 120.098 43.1338V43.0083C120.098 42.8828 120.16 42.8201 120.288 42.8201H120.409C120.535 42.8201 120.597 42.8828 120.597 43.0083V43.1338C120.597 43.2638 120.535 43.3287 120.409 43.3287H120.288ZM120.349 46.4368C120.252 46.4368 120.203 46.3875 120.203 46.2911V43.9763C120.203 43.88 120.252 43.8329 120.349 43.8329C120.445 43.8329 120.492 43.88 120.492 43.9763V46.2911C120.492 46.3875 120.445 46.4368 120.349 46.4368Z" fill="white"/>
<path d="M122.332 46.4368C121.989 46.4368 121.736 46.3561 121.577 46.197C121.418 46.0379 121.337 45.7847 121.337 45.4419V44.8189C121.337 44.4761 121.415 44.2228 121.574 44.066C121.734 43.9091 121.987 43.8285 122.332 43.8329H122.785C123.056 43.8329 123.262 43.8778 123.403 43.9696C123.546 44.0615 123.632 44.2027 123.658 44.3976C123.665 44.4469 123.654 44.485 123.627 44.5097C123.6 44.5343 123.562 44.5478 123.515 44.5478C123.47 44.5478 123.439 44.5366 123.416 44.5142C123.394 44.4917 123.378 44.4581 123.367 44.4133C123.347 44.308 123.293 44.2318 123.204 44.187C123.114 44.1422 122.975 44.1198 122.785 44.1198H122.332C122.07 44.1153 121.886 44.1646 121.783 44.2677C121.68 44.3707 121.626 44.5522 121.626 44.8167V45.4396C121.626 45.7018 121.678 45.8855 121.783 45.9886C121.888 46.0917 122.07 46.1455 122.332 46.1455H122.785C122.975 46.1455 123.116 46.1231 123.204 46.0783C123.291 46.0334 123.347 45.9573 123.367 45.8497C123.378 45.8049 123.394 45.7713 123.416 45.7489C123.439 45.7264 123.472 45.7152 123.515 45.7152C123.562 45.7152 123.6 45.7287 123.627 45.7556C123.654 45.7825 123.665 45.8206 123.658 45.8676C123.632 46.0626 123.546 46.206 123.403 46.2979C123.26 46.3897 123.053 46.4346 122.785 46.4346H122.332V46.4368Z" fill="white"/>
<path d="M124.665 45.2471V45.4487C124.665 45.7087 124.716 45.8902 124.821 45.9933C124.927 46.0963 125.108 46.1501 125.37 46.1501H125.823C126.054 46.1501 126.224 46.121 126.33 46.0605C126.435 46 126.498 45.8969 126.518 45.7513C126.524 45.7042 126.54 45.6706 126.563 45.6459C126.585 45.6213 126.621 45.6101 126.668 45.6101C126.715 45.6101 126.751 45.6235 126.778 45.6504C126.805 45.6773 126.811 45.7154 126.807 45.7625C126.782 45.9933 126.69 46.1658 126.529 46.2756C126.368 46.3854 126.132 46.4414 125.823 46.4414H125.37C125.028 46.4414 124.774 46.363 124.615 46.2039C124.456 46.0448 124.375 45.7938 124.375 45.4532V44.8303C124.375 44.4829 124.456 44.2297 124.615 44.0706C124.774 43.9115 125.028 43.8331 125.37 43.8376H125.823C126.166 43.8376 126.419 43.916 126.576 44.0751C126.735 44.2342 126.814 44.4852 126.814 44.828V45.1037C126.814 45.2 126.766 45.2493 126.67 45.2493H124.665V45.2471ZM125.37 44.1222C125.108 44.1177 124.925 44.1692 124.821 44.2723C124.718 44.3754 124.665 44.5614 124.665 44.8258V44.958H126.524V44.8258C126.524 44.5636 126.473 44.3799 126.37 44.2768C126.267 44.1737 126.083 44.1222 125.821 44.1222H125.368H125.37Z" fill="white"/>
<path d="M128.23 46.4323C128.003 46.4323 127.831 46.383 127.712 46.2867C127.593 46.1903 127.522 46.0424 127.497 45.843C127.492 45.7959 127.501 45.7578 127.528 45.7309C127.553 45.704 127.591 45.6906 127.64 45.6906C127.685 45.6906 127.721 45.7018 127.743 45.7264C127.766 45.7511 127.782 45.7869 127.788 45.834C127.804 45.9483 127.847 46.0267 127.914 46.0715C127.981 46.1164 128.086 46.1388 128.23 46.1388H129.133C129.303 46.1388 129.422 46.1074 129.485 46.0424C129.55 45.9774 129.581 45.8609 129.581 45.6906C129.581 45.5203 129.55 45.3993 129.485 45.3343C129.42 45.2693 129.303 45.2379 129.133 45.2379H128.239C127.999 45.2379 127.822 45.1797 127.705 45.0654C127.589 44.9511 127.531 44.7741 127.531 44.5343C127.531 44.2946 127.589 44.1108 127.703 43.9965C127.82 43.8822 127.997 43.824 128.239 43.824H129.104C129.518 43.824 129.749 44.0077 129.796 44.3752C129.803 44.4223 129.794 44.4604 129.767 44.4873C129.74 44.5142 129.702 44.5276 129.655 44.5276C129.608 44.5276 129.574 44.5164 129.552 44.4917C129.529 44.4671 129.514 44.4335 129.503 44.3864C129.489 44.2833 129.453 44.2116 129.39 44.1735C129.328 44.1355 129.234 44.1153 129.101 44.1153H128.236C128.077 44.1153 127.968 44.1444 127.907 44.2027C127.847 44.2609 127.817 44.373 127.817 44.5366C127.817 44.7001 127.849 44.801 127.909 44.8615C127.97 44.922 128.08 44.9511 128.236 44.9511H129.131C129.384 44.9511 129.57 45.0116 129.691 45.1326C129.81 45.2536 129.87 45.4396 129.87 45.6928C129.87 45.946 129.81 46.1298 129.691 46.2508C129.572 46.3718 129.384 46.4323 129.131 46.4323H128.227H128.23Z" fill="white"/>
<path d="M70.0576 53.1774C69.959 53.1774 69.9119 53.1281 69.9119 53.0317V50.8626H69.6811C69.5825 50.8626 69.5355 50.8133 69.5355 50.7169C69.5355 50.6206 69.5848 50.5735 69.6811 50.5735H69.9119V50.3315C69.9119 49.9931 69.9903 49.7466 70.1472 49.5898C70.3041 49.4329 70.5528 49.3545 70.8889 49.3545C70.983 49.3545 71.0301 49.4015 71.0301 49.4979C71.0301 49.5943 70.983 49.6436 70.8889 49.6436C70.6312 49.6436 70.452 49.6929 70.3511 49.7937C70.2503 49.8945 70.1987 50.0716 70.1987 50.3293V50.5713H70.8822C70.9786 50.5713 71.0279 50.6183 71.0279 50.7147C71.0279 50.811 70.9786 50.8603 70.8822 50.8603H70.1987V53.0295C70.1987 53.1258 70.1517 53.1751 70.0553 53.1751L70.0576 53.1774Z" fill="white"/>
<path d="M72.3208 53.1773C71.978 53.1773 71.7248 53.0988 71.5657 52.9397C71.4066 52.7806 71.3259 52.5297 71.3259 52.1891V51.5661C71.3259 51.2188 71.4066 50.9656 71.5657 50.8065C71.7248 50.6474 71.978 50.5689 72.3208 50.5734H72.7735C73.1163 50.5734 73.3695 50.6519 73.5264 50.811C73.6855 50.9701 73.7639 51.221 73.7639 51.5639V52.1801C73.7639 52.523 73.6855 52.7762 73.5264 52.9353C73.3673 53.0944 73.1163 53.175 72.7735 53.175H72.3208V53.1773ZM71.615 52.1868C71.615 52.4468 71.6665 52.6283 71.7718 52.7314C71.8771 52.8344 72.0586 52.8882 72.3208 52.8882H72.7735C73.0356 52.8882 73.2194 52.8367 73.3225 52.7314C73.4255 52.6283 73.4771 52.4445 73.4771 52.1823V51.5661C73.4771 51.3039 73.4255 51.1202 73.3225 51.0171C73.2194 50.914 73.0356 50.8625 72.7735 50.8625H72.3208C72.1438 50.8625 72.0049 50.8827 71.9018 50.9252C71.7987 50.9701 71.7248 51.044 71.6822 51.1448C71.6374 51.2479 71.615 51.3868 71.615 51.5639V52.1868Z" fill="white"/>
<path d="M74.7589 53.1773C74.6625 53.1773 74.6132 53.128 74.6132 53.0317V50.7169C74.6132 50.6205 74.6625 50.5735 74.7589 50.5735C74.8552 50.5735 74.9023 50.6205 74.9023 50.7169V51.1404C74.9986 50.9567 75.1353 50.8155 75.3168 50.7191C75.4983 50.6205 75.7135 50.5735 75.9599 50.5735C76.0563 50.5735 76.1056 50.6205 76.1056 50.7169C76.1056 50.8133 76.0563 50.8626 75.9599 50.8626C75.6328 50.8626 75.3796 50.9365 75.2003 51.0844C75.021 51.2323 74.9202 51.4429 74.9023 51.7163V53.0317C74.9023 53.128 74.8552 53.1773 74.7589 53.1773Z" fill="white"/>
<path d="M78.9178 53.1773C78.5795 53.1773 78.333 53.0989 78.1761 52.942C78.0193 52.7852 77.9408 52.5387 77.9408 52.2026V50.8603H77.6137C77.5151 50.8603 77.468 50.811 77.468 50.7146C77.468 50.6183 77.5173 50.5712 77.6137 50.5712H77.9408V49.9796C77.9408 49.8833 77.9879 49.834 78.0842 49.834C78.1806 49.834 78.2299 49.8833 78.2299 49.9796V50.5712H78.9223C79.0187 50.5712 79.0657 50.6183 79.0657 50.7146C79.0657 50.811 79.0187 50.8603 78.9223 50.8603H78.2299V52.2026C78.2299 52.4602 78.2792 52.6373 78.38 52.7381C78.4809 52.8367 78.6601 52.886 78.9156 52.886C78.9694 52.886 79.0075 52.8972 79.0299 52.9219C79.0523 52.9465 79.0635 52.9824 79.0635 53.0294C79.0635 53.1258 79.0142 53.1751 78.9156 53.1751L78.9178 53.1773Z" fill="white"/>
<path d="M79.8657 53.1774C79.7694 53.1774 79.7201 53.1281 79.7201 53.0317V49.4979C79.7201 49.4015 79.7694 49.3545 79.8657 49.3545C79.9621 49.3545 80.0091 49.4015 80.0091 49.4979V50.9813C80.1839 50.7102 80.4999 50.5735 80.957 50.5735H81.1116C81.4545 50.5735 81.7054 50.6519 81.8645 50.811C82.0236 50.9701 82.1021 51.2211 82.1021 51.564V53.0295C82.1021 53.1258 82.055 53.1751 81.9587 53.1751C81.8623 53.1751 81.813 53.1258 81.813 53.0295V51.564C81.813 51.3018 81.7615 51.118 81.6584 51.015C81.5553 50.9119 81.3716 50.8603 81.1116 50.8603H80.957C80.6724 50.8603 80.4483 50.9052 80.2848 50.9948C80.1212 51.0844 80.0293 51.2256 80.0091 51.4161V53.0295C80.0091 53.1258 79.9621 53.1751 79.8657 53.1751V53.1774Z" fill="white"/>
<path d="M83.1889 51.9875V52.1892C83.1889 52.4492 83.2404 52.6307 83.3457 52.7337C83.4511 52.8368 83.6326 52.8906 83.8948 52.8906H84.3474C84.5782 52.8906 84.7485 52.8615 84.8538 52.801C84.9591 52.7405 85.0219 52.6374 85.0421 52.4917C85.0488 52.4447 85.0645 52.4111 85.0869 52.3864C85.1093 52.3618 85.1451 52.3506 85.1922 52.3506C85.2392 52.3506 85.2773 52.364 85.302 52.3909C85.3266 52.4178 85.3356 52.4559 85.3311 52.5029C85.3065 52.7337 85.2146 52.9063 85.0533 53.0161C84.8919 53.1259 84.6566 53.1819 84.3474 53.1819H83.8948C83.5519 53.1819 83.2987 53.1035 83.1396 52.9444C82.9805 52.7853 82.8998 52.5343 82.8998 52.1937V51.5708C82.8998 51.2234 82.9805 50.9702 83.1396 50.8111C83.2987 50.652 83.5519 50.5736 83.8948 50.5781H84.3474C84.6902 50.5781 84.9435 50.6565 85.1003 50.8156C85.2594 50.9747 85.3378 51.2257 85.3378 51.5685V51.8441C85.3378 51.9405 85.2908 51.9898 85.1944 51.9898H83.1889V51.9875ZM83.8948 50.8626C83.6326 50.8582 83.4488 50.9097 83.3457 51.0128C83.2427 51.1159 83.1889 51.3019 83.1889 51.5663V51.6985H85.0488V51.5663C85.0488 51.3041 84.9972 51.1203 84.8942 51.0173C84.7911 50.9142 84.6073 50.8626 84.3452 50.8626H83.8925H83.8948Z" fill="white"/>
<path d="M87.1798 53.1638C87.0924 53.1257 87.0655 53.0607 87.0991 52.9711L88.4661 49.7375C88.4952 49.6613 88.549 49.6255 88.6296 49.6255H88.6453C88.7215 49.6255 88.7731 49.6658 88.8044 49.7375L90.1713 52.9711C90.2072 53.0607 90.1825 53.1257 90.0951 53.1638C90.0055 53.1996 89.9428 53.175 89.9069 53.0876L89.5394 52.2204H87.7333L87.3658 53.0876C87.33 53.175 87.265 53.2019 87.1753 53.1638H87.1798ZM87.8543 51.9291H89.4207L88.6386 50.0826L87.8566 51.9291H87.8543Z" fill="white"/>
<path d="M90.8817 53.1773C90.8369 53.1773 90.801 53.1638 90.7741 53.1392C90.7472 53.1145 90.736 53.0787 90.736 53.0316V49.7689C90.736 49.7241 90.7495 49.6883 90.7741 49.6614C90.7988 49.6367 90.8346 49.6233 90.8817 49.6233C90.9287 49.6233 90.9601 49.6367 90.987 49.6614C91.0117 49.6883 91.0251 49.7219 91.0251 49.7689V53.0316C91.0251 53.0764 91.0117 53.1123 90.987 53.1392C90.9624 53.1661 90.9265 53.1773 90.8817 53.1773Z" fill="white"/>
<path d="M94.1399 53.1773C93.797 53.1773 93.5438 53.0966 93.3847 52.9375C93.2256 52.7784 93.1449 52.5252 93.1449 52.1823V51.5594C93.1449 51.2165 93.2234 50.9633 93.3825 50.8065C93.5416 50.6474 93.7948 50.5689 94.1399 50.5734H94.5925C94.8636 50.5734 95.0698 50.6182 95.211 50.7101C95.3544 50.802 95.4395 50.9432 95.4664 51.1381C95.4732 51.1874 95.462 51.2255 95.4351 51.2502C95.4082 51.2748 95.3701 51.2883 95.323 51.2883C95.2782 51.2883 95.2468 51.277 95.2244 51.2546C95.202 51.2322 95.1863 51.1986 95.1751 51.1538C95.155 51.0485 95.1012 50.9723 95.0115 50.9275C94.9219 50.8827 94.783 50.8603 94.5925 50.8603H94.1399C93.8777 50.8558 93.6939 50.9051 93.5909 51.0081C93.4878 51.1112 93.4362 51.2927 93.4362 51.5572V52.1801C93.4362 52.4423 93.4878 52.626 93.5909 52.7291C93.6939 52.8322 93.8777 52.886 94.1399 52.886H94.5925C94.783 52.886 94.9242 52.8636 95.0115 52.8187C95.0989 52.7739 95.155 52.6977 95.1751 52.5902C95.1863 52.5454 95.202 52.5117 95.2244 52.4893C95.2468 52.4669 95.2804 52.4557 95.323 52.4557C95.3701 52.4557 95.4082 52.4692 95.4351 52.4961C95.462 52.523 95.4732 52.561 95.4664 52.6081C95.4395 52.8031 95.3544 52.9465 95.211 53.0383C95.0676 53.1302 94.8614 53.175 94.5925 53.175H94.1399V53.1773Z" fill="white"/>
<path d="M97.1762 53.1773C96.8334 53.1773 96.5801 53.0988 96.421 52.9397C96.2619 52.7806 96.1813 52.5297 96.1813 52.1891V51.5661C96.1813 51.2188 96.2619 50.9656 96.421 50.8065C96.5801 50.6474 96.8334 50.5689 97.1762 50.5734H97.6288C97.9717 50.5734 98.2249 50.6519 98.3818 50.811C98.5409 50.9701 98.6193 51.221 98.6193 51.5639V52.1801C98.6193 52.523 98.5409 52.7762 98.3818 52.9353C98.2227 53.0944 97.9717 53.175 97.6288 53.175H97.1762V53.1773ZM96.4703 52.1868C96.4703 52.4468 96.5219 52.6283 96.6272 52.7314C96.7325 52.8344 96.914 52.8882 97.1762 52.8882H97.6288C97.891 52.8882 98.0748 52.8367 98.1779 52.7314C98.2809 52.6283 98.3325 52.4445 98.3325 52.1823V51.5661C98.3325 51.3039 98.2809 51.1202 98.1779 51.0171C98.0748 50.914 97.891 50.8625 97.6288 50.8625H97.1762C96.9992 50.8625 96.8602 50.8827 96.7572 50.9252C96.6541 50.9701 96.5801 51.044 96.5376 51.1448C96.4927 51.2479 96.4703 51.3868 96.4703 51.5639V52.1868Z" fill="white"/>
<path d="M102.386 50.5689C102.682 50.5689 102.895 50.6451 103.023 50.7952C103.15 50.9453 103.213 51.1941 103.213 51.5414V53.0383C103.213 53.1347 103.166 53.1817 103.07 53.1817C102.973 53.1817 102.924 53.1347 102.924 53.0383V51.5414C102.924 51.2994 102.884 51.1246 102.801 51.0171C102.718 50.9095 102.581 50.858 102.386 50.858H102.158C101.916 50.858 101.745 50.9117 101.64 51.0171C101.535 51.1224 101.483 51.2972 101.483 51.5414V53.0383C101.483 53.1347 101.436 53.1817 101.34 53.1817C101.243 53.1817 101.194 53.1347 101.194 53.0383V51.5414C101.194 51.2994 101.154 51.1246 101.071 51.0171C100.988 50.9095 100.851 50.858 100.656 50.858H100.428C100.188 50.858 100.015 50.9117 99.91 51.0171C99.8047 51.1224 99.7554 51.2972 99.7554 51.5414V53.0383C99.7554 53.1347 99.7083 53.1817 99.612 53.1817C99.5156 53.1817 99.4663 53.1347 99.4663 53.0383V50.7168C99.4663 50.6204 99.5156 50.5734 99.612 50.5734C99.7083 50.5734 99.7554 50.6204 99.7554 50.7168V50.9319C99.8361 50.8019 99.9324 50.7078 100.044 50.6518C100.157 50.5958 100.295 50.5667 100.468 50.5667H100.658C100.851 50.5667 101.006 50.6003 101.122 50.6675C101.239 50.7347 101.331 50.8445 101.4 50.9969C101.481 50.8445 101.579 50.7347 101.698 50.6675C101.815 50.6003 101.969 50.5667 102.158 50.5667H102.386V50.5689Z" fill="white"/>
<path d="M107.002 50.5689C107.298 50.5689 107.511 50.6451 107.639 50.7952C107.766 50.9453 107.829 51.1941 107.829 51.5414V53.0383C107.829 53.1347 107.782 53.1817 107.686 53.1817C107.589 53.1817 107.54 53.1347 107.54 53.0383V51.5414C107.54 51.2994 107.5 51.1246 107.417 51.0171C107.334 50.9095 107.197 50.858 107.002 50.858H106.774C106.532 50.858 106.361 50.9117 106.256 51.0171C106.151 51.1224 106.099 51.2972 106.099 51.5414V53.0383C106.099 53.1347 106.052 53.1817 105.956 53.1817C105.859 53.1817 105.81 53.1347 105.81 53.0383V51.5414C105.81 51.2994 105.77 51.1246 105.687 51.0171C105.604 50.9095 105.467 50.858 105.272 50.858H105.044C104.804 50.858 104.631 50.9117 104.526 51.0171C104.421 51.1224 104.372 51.2972 104.372 51.5414V53.0383C104.372 53.1347 104.324 53.1817 104.228 53.1817C104.132 53.1817 104.082 53.1347 104.082 53.0383V50.7168C104.082 50.6204 104.132 50.5734 104.228 50.5734C104.324 50.5734 104.372 50.6204 104.372 50.7168V50.9319C104.452 50.8019 104.549 50.7078 104.661 50.6518C104.773 50.5958 104.912 50.5667 105.084 50.5667H105.275C105.467 50.5667 105.622 50.6003 105.738 50.6675C105.855 50.7347 105.947 50.8445 106.016 50.9969C106.097 50.8445 106.196 50.7347 106.314 50.6675C106.431 50.6003 106.585 50.5667 106.774 50.5667H107.002V50.5689Z" fill="white"/>
<path d="M110.888 50.5735C110.986 50.5735 111.034 50.6228 111.034 50.7191V53.0339C111.034 53.1303 110.984 53.1773 110.888 53.1773C110.792 53.1773 110.744 53.1303 110.744 53.0339V52.7695C110.57 53.0407 110.254 53.1773 109.797 53.1773H109.642C109.299 53.1773 109.046 53.0989 108.889 52.9398C108.732 52.7807 108.652 52.5297 108.652 52.1869V50.7214C108.652 50.6228 108.699 50.5757 108.795 50.5757C108.891 50.5757 108.941 50.625 108.941 50.7214V52.1869C108.941 52.4491 108.992 52.6328 109.097 52.7359C109.201 52.839 109.384 52.8905 109.644 52.8905H109.799C110.083 52.8905 110.308 52.8457 110.471 52.7561C110.635 52.6664 110.727 52.5253 110.747 52.3348V50.7214C110.747 50.6228 110.794 50.5757 110.89 50.5757L110.888 50.5735Z" fill="white"/>
<path d="M112.102 53.1773C112.004 53.1773 111.957 53.128 111.957 53.0317V50.7169C111.957 50.6205 112.006 50.5735 112.102 50.5735C112.199 50.5735 112.246 50.6205 112.246 50.7169V50.9813C112.421 50.7102 112.737 50.5735 113.194 50.5735H113.348C113.691 50.5735 113.944 50.6519 114.101 50.811C114.26 50.9701 114.339 51.2211 114.339 51.5639V53.0294C114.339 53.1258 114.292 53.1751 114.195 53.1751C114.099 53.1751 114.05 53.1258 114.05 53.0294V51.5639C114.05 51.3018 113.998 51.118 113.893 51.0149C113.79 50.9119 113.606 50.8603 113.346 50.8603H113.191C112.907 50.8603 112.683 50.9051 112.519 50.9948C112.356 51.0844 112.264 51.2256 112.244 51.416V53.0294C112.244 53.1258 112.197 53.1751 112.1 53.1751L112.102 53.1773Z" fill="white"/>
<path d="M115.296 50.0692C115.168 50.0692 115.105 50.0042 115.105 49.8743V49.7488C115.105 49.6233 115.168 49.5605 115.296 49.5605H115.417C115.542 49.5605 115.605 49.6233 115.605 49.7488V49.8743C115.605 50.0042 115.542 50.0692 115.417 50.0692H115.296ZM115.356 53.1773C115.258 53.1773 115.21 53.128 115.21 53.0316V50.7168C115.21 50.6205 115.26 50.5734 115.356 50.5734C115.452 50.5734 115.5 50.6205 115.5 50.7168V53.0316C115.5 53.128 115.452 53.1773 115.356 53.1773Z" fill="white"/>
<path d="M117.485 53.1773C117.147 53.1773 116.9 53.0989 116.743 52.942C116.586 52.7852 116.508 52.5387 116.508 52.2026V50.8603H116.181C116.082 50.8603 116.035 50.811 116.035 50.7146C116.035 50.6183 116.084 50.5712 116.181 50.5712H116.508V49.9796C116.508 49.8833 116.555 49.834 116.651 49.834C116.748 49.834 116.797 49.8833 116.797 49.9796V50.5712H117.489C117.586 50.5712 117.633 50.6183 117.633 50.7146C117.633 50.811 117.586 50.8603 117.489 50.8603H116.797V52.2026C116.797 52.4602 116.846 52.6373 116.947 52.7381C117.048 52.8367 117.227 52.886 117.483 52.886C117.536 52.886 117.575 52.8972 117.597 52.9219C117.619 52.9465 117.631 52.9824 117.631 53.0294C117.631 53.1258 117.581 53.1751 117.483 53.1751L117.485 53.1773Z" fill="white"/>
<path d="M118.941 54.2797C118.702 54.2797 118.522 54.2215 118.408 54.1072C118.294 53.9907 118.236 53.8114 118.236 53.5671C118.236 53.4708 118.283 53.4237 118.379 53.4237C118.475 53.4237 118.525 53.4708 118.525 53.5671C118.525 53.733 118.554 53.845 118.612 53.9033C118.67 53.9615 118.78 53.9907 118.939 53.9907H119.894C120.055 53.9907 120.165 53.9615 120.225 53.9033C120.286 53.845 120.313 53.733 120.313 53.5671V52.8097C120.208 52.9464 120.078 53.045 119.918 53.0988C119.759 53.1548 119.576 53.1817 119.365 53.1817H119.21C118.872 53.1817 118.625 53.1033 118.469 52.9464C118.312 52.7896 118.233 52.5453 118.233 52.2114V50.7145C118.233 50.6182 118.28 50.5689 118.377 50.5689C118.473 50.5689 118.522 50.6182 118.522 50.7145V52.2114C118.522 52.4669 118.572 52.6439 118.673 52.7425C118.773 52.8411 118.953 52.8904 119.208 52.8904H119.363C119.683 52.8904 119.923 52.8344 120.078 52.7201C120.232 52.6081 120.311 52.4378 120.311 52.2092V50.7123C120.311 50.6159 120.358 50.5667 120.454 50.5667C120.55 50.5667 120.6 50.6159 120.6 50.7123V53.5649C120.6 53.8091 120.541 53.9884 120.427 54.1049C120.313 54.2215 120.134 54.2775 119.892 54.2775H118.937L118.941 54.2797Z" fill="white"/>
</g>
<defs>
<clipPath id="clip0_27_7857">
<rect width="130" height="64.7042" fill="white"/>
</clipPath>
</defs>
</svg>
