<svg width="150" height="76" viewBox="0 0 150 76" fill="none" xmlns="http://www.w3.org/2000/svg">
<g clip-path="url(#clip0_602_13020)">
<path d="M28.0957 44.1552C27.5121 43.9288 27.3386 43.5281 27.5712 42.9493L32.7678 30.0931C32.9858 29.6108 33.3292 29.3696 33.7946 29.3696H33.8389C34.3117 29.3919 34.633 29.6331 34.7992 30.0931L40.0845 42.9493C40.3172 43.5281 40.151 43.9288 39.5822 44.1552C39.006 44.3815 38.6071 44.2145 38.3818 43.6506L37.2036 40.7751H30.4004L29.2776 43.6506C29.0523 44.222 28.6571 44.3889 28.0994 44.1552H28.0957ZM31.1206 38.9348H36.4502L33.7318 32.2859L31.1206 38.9348Z" fill="#646567"/>
<path d="M43.6671 44.2444C43.3532 44.2444 43.1242 44.1702 42.9727 44.0181C42.825 43.8697 42.7474 43.6359 42.7474 43.3206V30.3122C42.7474 29.9894 42.8213 29.7557 42.9727 29.611C43.1205 29.4663 43.3532 29.3921 43.6671 29.3921C43.981 29.3921 44.2211 29.4663 44.3651 29.611C44.5092 29.7557 44.5831 29.9894 44.5831 30.3122V43.3206C44.5831 43.6359 44.5092 43.866 44.3651 44.0181C44.2211 44.1665 43.9847 44.2444 43.6671 44.2444Z" fill="#646567"/>
<path d="M56.6346 44.2441C55.4527 44.2441 54.5774 43.9585 54.0049 43.3871C53.4324 42.8157 53.148 41.9401 53.148 40.7602V38.6861C53.148 37.4877 53.4324 36.6046 54.0049 36.037C54.5774 35.4693 55.4527 35.1836 56.6346 35.1836H58.0935C59.2791 35.1836 60.1581 35.4693 60.7269 36.0407C61.2956 36.6121 61.58 37.4951 61.58 38.6861V40.7416C61.58 41.9252 61.2956 42.8083 60.7269 43.3834C60.1581 43.9585 59.2791 44.2441 58.0935 44.2441H56.6346ZM54.6438 40.7602C54.6438 41.5282 54.7842 42.0514 55.0612 42.3296C55.3382 42.6079 55.8627 42.7452 56.6346 42.7452H58.0935C58.8691 42.7452 59.3972 42.6042 59.6706 42.3259C59.9476 42.0476 60.0842 41.5208 60.0842 40.7453V38.6898C60.0842 37.9107 59.9476 37.3801 59.6706 37.1055C59.3935 36.8273 58.8691 36.69 58.0935 36.69H56.6346C56.1175 36.69 55.7149 36.7493 55.4305 36.8644C55.1424 36.9794 54.9393 37.1834 54.8211 37.4729C54.7029 37.7623 54.6438 38.1667 54.6438 38.6935V40.7676V40.7602Z" fill="#0047BB"/>
<path d="M65.1183 44.2441C64.6197 44.2441 64.3723 43.9956 64.3723 43.4947V35.9368C64.3723 35.4359 64.6197 35.1873 65.1183 35.1873C65.6169 35.1873 65.8644 35.4359 65.8644 35.9368V36.2299C66.4923 35.5324 67.4193 35.1836 68.6381 35.1836H69.1367C70.3223 35.1836 71.2014 35.4693 71.7701 36.0407C72.3389 36.6121 72.6233 37.4951 72.6233 38.6861V43.4947C72.6233 43.9956 72.3759 44.2441 71.8772 44.2441C71.3786 44.2441 71.1312 43.9956 71.1312 43.4947V38.6861C71.1312 37.907 70.9908 37.3764 70.7101 37.1018C70.4294 36.8235 69.905 36.6863 69.1404 36.6863H68.6418C67.929 36.6863 67.3122 36.7679 66.784 36.9311C66.2559 37.0944 65.9493 37.3541 65.8681 37.7029V43.491C65.8681 43.9918 65.6206 44.2404 65.122 44.2404L65.1183 44.2441Z" fill="#0047BB"/>
<path d="M81.517 44.2443C81.0184 44.2443 80.7709 43.9957 80.7709 43.4948V32.8796C80.7709 32.3787 81.0184 32.1301 81.517 32.1301H85.805C87.3526 32.1301 88.4938 32.4974 89.2251 33.2321C89.9564 33.9667 90.3221 35.1132 90.3221 36.6678V39.7066C90.3221 41.2612 89.9601 42.4077 89.2325 43.1423C88.5049 43.8769 87.3637 44.2443 85.805 44.2443H81.517ZM82.2631 42.7416H85.8013C86.5585 42.7416 87.1605 42.6488 87.6037 42.4596C88.0469 42.2704 88.3609 41.955 88.5455 41.5135C88.7339 41.0682 88.8262 40.4672 88.8262 39.7028V36.6641C88.8262 35.9072 88.7339 35.3061 88.5455 34.8646C88.3609 34.4194 88.0432 34.104 87.6037 33.9148C87.1605 33.7256 86.5622 33.6291 85.8013 33.6291H82.2631V42.7416Z" fill="#646567"/>
<path d="M94.1817 40.3298V40.7602C94.1817 41.5282 94.3221 42.0514 94.5991 42.3297C94.8761 42.6079 95.4005 42.7452 96.1725 42.7452H97.6313C98.2371 42.7452 98.684 42.6896 98.9757 42.5745C99.2675 42.4632 99.4596 42.2629 99.5556 41.9772C99.6221 41.7509 99.7107 41.5765 99.8289 41.4577C99.9434 41.339 100.121 41.2796 100.357 41.2796C100.593 41.2796 100.797 41.3464 100.926 41.4763C101.055 41.6062 101.096 41.7991 101.051 42.0477C100.922 42.786 100.571 43.3389 100.003 43.7025C99.4337 44.0661 98.6433 44.2479 97.635 44.2479H96.1761C94.9943 44.2479 94.1189 43.9622 93.5464 43.3908C92.974 42.8194 92.6896 41.9438 92.6896 40.7639V38.6899C92.6896 37.4803 92.974 36.5935 93.5464 36.0222C94.1189 35.4545 94.9943 35.1762 96.1761 35.1873H97.635C98.8206 35.1873 99.6996 35.473 100.268 36.0407C100.837 36.6084 101.122 37.4914 101.122 38.6899V39.584C101.122 40.0849 100.874 40.3335 100.376 40.3335H94.1854L94.1817 40.3298ZM96.1725 36.6863C95.4005 36.6752 94.8761 36.8087 94.5991 37.087C94.3184 37.3653 94.1817 37.8996 94.1817 38.6861V38.8308H99.6258V38.6861C99.6258 37.907 99.4891 37.3764 99.2121 37.1018C98.9351 36.8236 98.4106 36.6863 97.635 36.6863H96.1761H96.1725Z" fill="#646567"/>
<path d="M113.786 35.1836C114.905 35.1836 115.71 35.4471 116.202 35.9776C116.689 36.5082 116.937 37.3876 116.937 38.612V43.491C116.937 43.9919 116.689 44.2405 116.191 44.2405C115.692 44.2405 115.445 43.9919 115.445 43.491V38.612C115.445 37.933 115.315 37.4432 115.057 37.139C114.798 36.8347 114.377 36.6826 113.79 36.6826H113.062C112.386 36.6826 111.903 36.8347 111.611 37.139C111.319 37.4432 111.175 37.933 111.175 38.612V43.491C111.175 43.9919 110.928 44.2405 110.429 44.2405C109.93 44.2405 109.683 43.9919 109.683 43.491V38.612C109.683 37.933 109.554 37.4432 109.295 37.139C109.037 36.8347 108.615 36.6826 108.028 36.6826H107.301C106.625 36.6826 106.141 36.8347 105.853 37.139C105.561 37.4432 105.417 37.933 105.417 38.612V43.491C105.417 43.9919 105.17 44.2405 104.671 44.2405C104.172 44.2405 103.925 43.9919 103.925 43.491V35.9331C103.925 35.4322 104.172 35.1836 104.671 35.1836C105.17 35.1836 105.417 35.4322 105.417 35.9331V36.345C105.731 35.9331 106.078 35.6363 106.455 35.4545C106.832 35.2727 107.278 35.1836 107.803 35.1836H108.036C108.771 35.1836 109.35 35.2875 109.772 35.4916C110.193 35.6957 110.514 36.0296 110.732 36.486C111.046 36.0147 111.378 35.6808 111.733 35.4805C112.084 35.2801 112.53 35.1799 113.07 35.1799H113.797L113.786 35.1836Z" fill="#646567"/>
<path d="M122.396 44.2443C121.398 44.2443 120.66 43.9995 120.172 43.5134C119.685 43.0237 119.445 42.2816 119.445 41.2798C119.445 40.278 119.685 39.536 120.168 39.0462C120.652 38.5565 121.395 38.3153 122.396 38.3153H126.159C126.122 37.6882 125.96 37.2616 125.672 37.0315C125.38 36.8015 124.881 36.6865 124.176 36.6865H123.145C122.551 36.6865 122.111 36.7273 121.819 36.8089C121.528 36.8905 121.324 37.0352 121.206 37.243C121.099 37.4916 120.988 37.666 120.878 37.7624C120.767 37.8589 120.597 37.9072 120.372 37.9072C120.124 37.9072 119.928 37.8367 119.784 37.6957C119.64 37.5547 119.6 37.3692 119.659 37.1354C119.836 36.4638 120.209 35.9704 120.774 35.655C121.339 35.3433 122.13 35.1875 123.145 35.1875H124.176C125.361 35.1875 126.24 35.4732 126.809 36.0446C127.378 36.616 127.662 37.499 127.662 38.69V43.4986C127.662 43.9995 127.415 44.2481 126.916 44.2481C126.418 44.2481 126.17 43.9995 126.17 43.4986V43.0979C125.535 43.8659 124.612 44.2518 123.396 44.2518H122.399L122.396 44.2443ZM122.396 42.7417H123.393C123.832 42.7417 124.242 42.7009 124.63 42.6192C125.014 42.5376 125.347 42.3929 125.624 42.1777C125.901 41.9625 126.082 41.6583 126.17 41.2576V39.8105H122.399C121.812 39.8105 121.42 39.907 121.228 40.1036C121.036 40.3003 120.94 40.6899 120.94 41.2724C120.94 41.8549 121.036 42.2556 121.228 42.4486C121.42 42.6415 121.812 42.738 122.399 42.738L122.396 42.7417Z" fill="#646567"/>
<path d="M131.448 44.2441C130.949 44.2441 130.702 43.9956 130.702 43.4947V35.9368C130.702 35.4359 130.949 35.1873 131.448 35.1873C131.947 35.1873 132.194 35.4359 132.194 35.9368V36.2299C132.822 35.5324 133.749 35.1836 134.968 35.1836H135.467C136.652 35.1836 137.531 35.4693 138.1 36.0407C138.669 36.6121 138.953 37.4951 138.953 38.6861V43.4947C138.953 43.9956 138.706 44.2441 138.207 44.2441C137.708 44.2441 137.461 43.9956 137.461 43.4947V38.6861C137.461 37.907 137.321 37.3764 137.04 37.1018C136.759 36.8235 136.235 36.6863 135.47 36.6863H134.972C134.259 36.6863 133.642 36.7679 133.114 36.9311C132.586 37.0944 132.279 37.3541 132.198 37.7029V43.491C132.198 43.9918 131.95 44.2404 131.452 44.2404L131.448 44.2441Z" fill="#646567"/>
<path d="M145.055 44.2442C143.873 44.2442 142.997 43.9585 142.425 43.3834C141.852 42.8083 141.568 41.929 141.568 40.7417V38.6862C141.568 37.4952 141.852 36.6121 142.425 36.0408C142.997 35.4694 143.873 35.1837 145.055 35.1837H148.504V32.4121C148.504 31.9112 148.752 31.6626 149.25 31.6626C149.749 31.6626 149.996 31.9112 149.996 32.4121V43.491C149.996 43.9919 149.749 44.2405 149.25 44.2405C148.752 44.2405 148.504 43.9919 148.504 43.491V43.3649C148.227 43.6506 147.862 43.8695 147.411 44.0179C146.96 44.1663 146.399 44.2405 145.73 44.2405H145.055V44.2442ZM145.055 42.7416H145.73C146.513 42.7416 147.171 42.6414 147.706 42.4373C148.242 42.2332 148.508 41.9253 148.508 41.5097V36.6863H145.058C144.286 36.6863 143.762 36.8273 143.485 37.1093C143.204 37.3913 143.068 37.9182 143.068 38.6862V40.7417C143.068 41.5172 143.208 42.044 143.489 42.3223C143.769 42.6006 144.294 42.7416 145.058 42.7416H145.055Z" fill="#646567"/>
<path d="M63.5486 63.4153C63.8109 63.1519 63.8145 62.7252 63.5523 62.4618L53.1295 51.9876C52.8673 51.7242 52.4315 51.7242 52.1803 51.9876C51.9181 52.251 51.9144 52.6777 52.1766 52.9412L62.5994 63.4153C62.7324 63.5489 62.9023 63.612 63.0759 63.612C63.2495 63.612 63.423 63.5452 63.5486 63.4153Z" fill="#C5C6C8"/>
<path d="M55.9292 69.2962C56.2505 69.1107 56.3613 68.6952 56.1766 68.3724L48.8009 55.5459C48.6051 55.2231 48.1915 55.1118 47.8812 55.2973C47.5599 55.4828 47.4491 55.8983 47.6338 56.2211L55.0095 69.0476C55.1351 69.2628 55.3604 69.3853 55.5931 69.3853C55.7076 69.3853 55.8257 69.3556 55.9292 69.2962Z" fill="#C5C6C8"/>
<path d="M47.0502 72.9878C47.4085 72.8913 47.6227 72.5203 47.5267 72.1641L43.7114 57.8572C43.6117 57.4973 43.2239 57.2784 42.8878 57.3786C42.5295 57.475 42.3153 57.8461 42.4113 58.2023L46.2266 72.5092C46.3115 72.8134 46.5775 73.0101 46.8766 73.0101C46.9357 73.0101 46.9911 73.0026 47.0502 72.9878Z" fill="#C5C6C8"/>
<path d="M38.1897 73.5742V58.7627C38.1897 58.3916 37.8906 58.0874 37.5175 58.0874C37.1445 58.0874 36.8453 58.3916 36.8453 58.7627V73.5742C36.8453 73.9452 37.1445 74.2495 37.5175 74.2495C37.8906 74.2495 38.1897 73.9452 38.1897 73.5742Z" fill="#C5C6C8"/>
<path d="M28.8159 72.513L32.6312 58.206C32.7272 57.8461 32.5093 57.4751 32.1547 57.3824C31.7965 57.2933 31.4308 57.4974 31.3311 57.861L27.5158 72.1679C27.4198 72.5278 27.6377 72.8988 27.9923 72.9916C28.0514 73.0064 28.1068 73.0139 28.1659 73.0139C28.465 73.0139 28.7309 72.8172 28.8159 72.513Z" fill="#C5C6C8"/>
<path d="M20.0293 69.0477L27.3976 56.2212C27.5823 55.8984 27.4715 55.4865 27.1502 55.2973C26.8288 55.1081 26.4152 55.2194 26.2305 55.5459L18.8622 68.3724C18.6775 68.6952 18.7883 69.107 19.1096 69.2963C19.213 69.3556 19.3312 69.3853 19.4457 69.3853C19.6784 69.3853 19.9037 69.2629 20.0293 69.0477Z" fill="#C5C6C8"/>
<path d="M12.4394 63.4153L22.8621 52.9412C23.1244 52.6777 23.1207 52.251 22.8584 51.9876C22.6073 51.7242 22.1715 51.7242 21.9092 51.9876L11.4865 62.4618C11.2242 62.7252 11.2279 63.1519 11.4902 63.4153C11.6157 63.5489 11.7893 63.612 11.9629 63.612C12.1365 63.612 12.3101 63.5452 12.4394 63.4153Z" fill="#C5C6C8"/>
<path d="M6.5521 56.0022L19.3202 48.5964C19.6415 48.4109 19.7523 47.9954 19.5676 47.6726C19.3793 47.3498 18.9582 47.2385 18.648 47.424L5.8799 54.8297C5.55857 55.0153 5.44777 55.4308 5.63244 55.7536C5.75802 55.9688 5.98331 56.0912 6.216 56.0912C6.33049 56.0912 6.44868 56.0616 6.5521 56.0022Z" fill="#C5C6C8"/>
<path d="M37.5175 16.4355C37.1445 16.4355 36.8453 16.1313 36.8453 15.7602V0.948712C36.8453 0.577682 37.1445 0.273438 37.5175 0.273438C37.8906 0.273438 38.1897 0.577682 38.1897 0.948712V15.7602C38.1897 16.1313 37.8906 16.4355 37.5175 16.4355Z" fill="#C5C6C8"/>
<path d="M43.7114 16.6656L47.5267 2.3587C47.6227 1.99881 47.4048 1.62778 47.0502 1.53502C46.6883 1.43855 46.3263 1.65375 46.2266 2.01365L42.4113 16.3206C42.3153 16.6805 42.5332 17.0515 42.8878 17.1442C42.9469 17.1591 43.0023 17.1665 43.0614 17.1665C43.3605 17.1665 43.6264 16.9699 43.7114 16.6656Z" fill="#C5C6C8"/>
<path d="M48.8009 18.977L56.1766 6.15048C56.3613 5.82768 56.2505 5.41584 55.9292 5.22661C55.6078 5.04481 55.1979 5.1487 55.0095 5.4752L47.6338 18.3017C47.4491 18.6245 47.5599 19.0363 47.8812 19.2256C47.9847 19.2849 48.1028 19.3146 48.2173 19.3146C48.45 19.3146 48.6753 19.1922 48.8009 18.977Z" fill="#C5C6C8"/>
<path d="M53.1332 22.5352L63.556 12.061C63.8182 11.7976 63.8145 11.3709 63.5523 11.1075C63.3011 10.8441 62.8653 10.8441 62.6031 11.1075L52.1803 21.5817C51.9181 21.8451 51.9218 22.2718 52.184 22.5352C52.3096 22.6688 52.4832 22.7319 52.6568 22.7319C52.8304 22.7319 53.0039 22.6651 53.1332 22.5352Z" fill="#C5C6C8"/>
<path d="M56.3908 27.0952L69.1589 19.6895C69.4802 19.5039 69.591 19.0884 69.4064 18.7656C69.2106 18.4428 68.8044 18.3315 68.4867 18.517L55.7186 25.9228C55.3973 26.1083 55.2865 26.5238 55.4712 26.8466C55.5968 27.0618 55.8221 27.1843 56.0547 27.1843C56.1692 27.1843 56.2874 27.1546 56.3908 27.0952Z" fill="#C5C6C8"/>
<path d="M2.77743 47.3089L17.0155 43.4761C17.3737 43.3797 17.588 43.0086 17.4919 42.6525C17.3922 42.2888 17.0044 42.0699 16.6683 42.1738L2.43025 46.0066C2.07199 46.103 1.85777 46.4741 1.9538 46.8302C2.03875 47.1345 2.30467 47.3311 2.60384 47.3311C2.66293 47.3311 2.71833 47.3237 2.77743 47.3089Z" fill="#C5C6C8"/>
<path d="M16.7902 37.2617C16.7902 36.8906 16.491 36.5862 16.118 36.5862H1.37026C0.997224 36.5862 0.698059 36.8906 0.698059 37.2617C0.698059 37.6329 0.997224 37.9373 1.37026 37.9373H16.118C16.491 37.9373 16.7902 37.6329 16.7902 37.2617Z" fill="#C5C6C8"/>
<path d="M17.4919 31.8703C17.588 31.5104 17.37 31.1394 17.0155 31.0466L2.77743 27.2139C2.43025 27.1249 2.05722 27.3289 1.9538 27.6925C1.85777 28.0524 2.07568 28.4235 2.43025 28.5162L16.6683 32.349C16.7274 32.3638 16.7828 32.3712 16.8419 32.3712C17.1411 32.3712 17.407 32.1746 17.4919 31.8703Z" fill="#C5C6C8"/>
<path d="M19.5676 26.8467C19.7523 26.5239 19.6415 26.1121 19.3202 25.9228L6.5521 18.5171C6.23077 18.3316 5.8208 18.4392 5.63244 18.7657C5.44777 19.0885 5.55857 19.5003 5.8799 19.6895L18.648 27.0953C18.7514 27.1547 18.8696 27.1843 18.9841 27.1843C19.2168 27.1843 19.4421 27.0619 19.5676 26.8467Z" fill="#C5C6C8"/>
<path d="M22.8584 22.5352C23.1207 22.2718 23.1244 21.8451 22.8621 21.5817L12.4394 11.1075C12.1771 10.8441 11.7413 10.8441 11.4902 11.1075C11.2279 11.3709 11.2242 11.7976 11.4865 12.061L21.9092 22.5352C22.0422 22.6688 22.2121 22.7319 22.3857 22.7319C22.5593 22.7319 22.7329 22.6651 22.8584 22.5352Z" fill="#C5C6C8"/>
<path d="M27.1502 19.2256C27.4715 19.0401 27.5823 18.6282 27.3976 18.3017L20.0293 5.4752C19.8335 5.1487 19.4273 5.04481 19.1096 5.22661C18.7883 5.41213 18.6775 5.82397 18.8622 6.15048L26.2305 18.977C26.3561 19.1922 26.5814 19.3146 26.8141 19.3146C26.9286 19.3146 27.0467 19.2849 27.1502 19.2256Z" fill="#C5C6C8"/>
<path d="M32.1547 17.1442C32.513 17.0478 32.7272 16.6767 32.6312 16.3205L28.8159 2.01362C28.7162 1.65001 28.3321 1.42739 27.9923 1.53499C27.634 1.63146 27.4198 2.00249 27.5158 2.35868L31.3311 16.6656C31.416 16.9698 31.682 17.1665 31.9811 17.1665C32.0402 17.1665 32.0956 17.1591 32.1547 17.1442Z" fill="#C5C6C8"/>
<path d="M43.0613 17.493C42.9764 17.493 42.8877 17.4819 42.8028 17.4596C42.2709 17.3186 41.957 16.7695 42.101 16.2352L44.0733 8.82573C44.2137 8.29516 44.7566 7.96865 45.2921 8.12078C45.824 8.26177 46.1379 8.81089 45.9939 9.34518L44.0216 16.7546C43.8997 17.1999 43.5008 17.4967 43.0613 17.4967V17.493ZM49.0816 19.1404L52.0585 13.9608C52.3318 13.4822 52.1693 12.8737 51.6965 12.5991C51.2201 12.3208 50.6106 12.4878 50.3373 12.9664L47.3604 18.146C47.0871 18.6246 47.2496 19.2331 47.7224 19.5077C47.8812 19.6004 48.0548 19.6413 48.221 19.6413C48.5608 19.6413 48.8969 19.4632 49.0816 19.1404ZM53.281 22.6874L56.5312 19.4261C56.8783 19.0773 56.8783 18.5133 56.5349 18.1646C56.1877 17.8158 55.6263 17.8158 55.2791 18.1646L52.0289 21.4259C51.6817 21.7747 51.6817 22.3386 52.0252 22.6874C52.1988 22.8618 52.4278 22.9471 52.6568 22.9471C52.8858 22.9471 53.1074 22.8618 53.281 22.6874ZM56.4721 27.2362L59.4674 25.4998C59.8663 25.2661 60.003 24.7578 59.7703 24.357C59.545 23.96 59.0353 23.8153 58.6364 24.0528L55.641 25.7892C55.2422 26.023 55.1055 26.5313 55.3382 26.932C55.4896 27.1991 55.7703 27.3475 56.0584 27.3475C56.1988 27.3475 56.3428 27.3142 56.4721 27.2362ZM64.3907 64.2576C65.1146 63.5304 65.1146 62.3505 64.3907 61.6196L53.9679 51.1454C53.244 50.4182 52.0695 50.4182 51.3419 51.1454C50.618 51.8726 50.618 53.0525 51.3419 53.7834L61.7647 64.2576C62.1267 64.6212 62.6031 64.803 63.0759 64.803C63.5486 64.803 64.0251 64.6212 64.387 64.2576H64.3907ZM56.4979 70.2757C57.3585 69.7785 57.6539 68.6692 57.1553 67.8047L49.7796 54.9782C49.281 54.1062 48.1619 53.8131 47.3198 54.3177C46.4593 54.8149 46.1638 55.9243 46.6624 56.7888L54.0381 69.6153C54.3705 70.1941 54.9762 70.5206 55.5967 70.5206C55.907 70.5206 56.2172 70.4427 56.4979 70.2794V70.2757ZM47.3272 74.0343C48.2616 73.782 48.812 72.821 48.5608 71.886L44.7455 57.5791C44.5055 56.6441 43.571 56.0987 42.6107 56.3361C41.6763 56.5884 41.126 57.5494 41.3771 58.4844L45.1924 72.7913C45.3956 73.5779 46.1047 74.0936 46.8766 74.0936C47.0243 74.0936 47.1758 74.0714 47.3272 74.0343ZM39.2128 73.5742V58.7627C39.2128 57.824 38.452 57.0633 37.5175 57.0633C36.5831 57.0633 35.8223 57.824 35.8223 58.7627V73.5742C35.8223 74.5129 36.5831 75.2735 37.5175 75.2735C38.452 75.2735 39.2128 74.5129 39.2128 73.5742ZM29.7503 72.7653L33.5656 58.4584C33.7983 57.5791 33.2775 56.6775 32.4059 56.44C31.5416 56.2063 30.6367 56.7257 30.3967 57.6013L26.5814 71.9083C26.3487 72.7876 26.8695 73.6892 27.7411 73.9267C27.8815 73.9675 28.0255 73.986 28.1659 73.986C28.8898 73.986 29.5509 73.5 29.7503 72.7653ZM20.8234 69.5077L28.1917 56.6812C28.6275 55.9206 28.3653 54.9448 27.6082 54.5069C26.8473 54.0691 25.8796 54.3214 25.4401 55.0895L18.0718 67.916C17.636 68.6766 17.8982 69.6524 18.6554 70.0902C18.9065 70.2349 19.1761 70.3054 19.4494 70.3054C19.9961 70.3054 20.5316 70.0197 20.8234 69.5077ZM13.0451 64.0276L23.4679 53.5534C24.0662 52.9523 24.0662 51.9765 23.4679 51.3755C22.8695 50.7744 21.9055 50.7744 21.3072 51.3755L10.8844 61.8496C10.2861 62.4507 10.2861 63.4265 10.8844 64.0276C11.1836 64.3281 11.5714 64.4802 11.9666 64.4802C12.3618 64.4802 12.7496 64.3281 13.0488 64.0276H13.0451ZM6.95836 56.7034L19.7264 49.2977C20.4282 48.8858 20.6756 47.9805 20.2657 47.2682C19.8557 46.5558 18.9545 46.3146 18.2454 46.7264L5.47731 54.1322C4.77556 54.5441 4.52811 55.4494 4.93807 56.1617C5.21139 56.6367 5.70999 56.9038 6.21968 56.9038C6.47083 56.9038 6.72199 56.8407 6.95836 56.7072V56.7034ZM2.97319 48.0399L17.2112 44.2072C17.9721 44.0031 18.4227 43.2202 18.2195 42.4559C18.0164 41.6916 17.2186 41.2278 16.4763 41.443L2.2382 45.2757C1.47736 45.4798 1.02676 46.2627 1.2299 47.027C1.3961 47.6689 1.97597 48.0881 2.60385 48.0881C2.72573 48.0881 2.8513 48.0733 2.96949 48.0362L2.97319 48.0399ZM17.4919 37.2615C17.4919 36.5009 16.8788 35.885 16.1217 35.885H1.37025C0.613104 35.885 0 36.5009 0 37.2615C0 38.0221 0.613104 38.638 1.37025 38.638H16.118C16.8751 38.638 17.4882 38.0221 17.4882 37.2615H17.4919ZM18.1161 32.0374C18.3045 31.3324 17.8908 30.6052 17.1854 30.416L2.94733 26.5832C2.20865 26.3977 1.51799 26.817 1.33701 27.5182C1.14865 28.2232 1.56231 28.9504 2.26775 29.1396L16.5058 32.9724C16.6203 33.002 16.7385 33.0169 16.8456 33.0169C17.4291 33.0169 17.9573 32.6273 18.1161 32.0374ZM20.0773 27.1435C20.4282 26.535 20.2177 25.7595 19.6156 25.4071L6.84387 18.005C6.23446 17.6525 5.46254 17.8603 5.12274 18.4688C4.77187 19.0773 4.98239 19.8527 5.58442 20.2052L18.3562 27.6073C18.5556 27.7223 18.7699 27.7742 18.9878 27.7742C19.4236 27.7742 19.8483 27.5479 20.081 27.1398L20.0773 27.1435ZM23.2426 22.9137C23.7153 22.4388 23.7153 21.6708 23.2426 21.1959L13.4735 11.3821C13.0008 10.9072 12.2362 10.9072 11.7635 11.3821C11.2907 11.857 11.2907 12.6251 11.7635 13.1L21.5325 22.9137C21.7689 23.1512 22.0791 23.2699 22.3894 23.2699C22.6996 23.2699 23.0099 23.1512 23.2463 22.9137H23.2426ZM27.3939 19.6413C27.9443 19.3222 28.1326 18.6098 27.8187 18.057L21.503 7.06705C21.1779 6.51051 20.4688 6.32128 19.9222 6.64408C19.3719 6.96316 19.1835 7.67554 19.4975 8.22838L25.8132 19.2183C26.0274 19.5893 26.4152 19.7971 26.8141 19.7971C27.0135 19.7971 27.2093 19.7451 27.3902 19.6413H27.3939ZM32.2655 17.5598C32.8528 17.4002 33.2037 16.7917 33.0485 16.2018L30.1898 5.46791C30.031 4.87797 29.429 4.53292 28.8417 4.68504C28.2545 4.84458 27.9036 5.45307 28.0587 6.04301L30.9174 16.7769C31.0504 17.2704 31.4936 17.5969 31.9811 17.5969C32.0772 17.5969 32.1695 17.582 32.2655 17.5598ZM38.5702 15.7566V6.33612C38.5702 5.75361 38.0974 5.2824 37.5212 5.2824C36.9451 5.2824 36.4723 5.74989 36.4723 6.33612V15.7566C36.4723 16.3391 36.9451 16.8103 37.5212 16.8103C38.0974 16.8103 38.5702 16.3428 38.5702 15.7566Z" fill="url(#paint0_linear_602_13020)"/>
<path d="M80.782 54.0989C80.6712 54.0989 80.6121 54.0433 80.6121 53.9283V50.1475C80.6121 50.0362 80.6675 49.9768 80.782 49.9768C80.8965 49.9768 80.9482 50.0325 80.9482 50.1475V51.9841L82.8355 50.0399C82.9131 49.962 82.9907 49.9583 83.0682 50.0399C83.1495 50.1178 83.1532 50.1957 83.0756 50.281L81.65 51.7466L83.3268 53.8355C83.3969 53.9246 83.3896 54.0025 83.3046 54.073C83.216 54.1435 83.1384 54.1361 83.0719 54.0507L81.4173 51.9915L80.9445 52.4738V53.9357C80.9445 54.047 80.8891 54.1064 80.7783 54.1064L80.782 54.0989Z" fill="#646567"/>
<path d="M84.1615 54.0988C84.0507 54.0988 83.9916 54.0431 83.9916 53.9281V51.2456C83.9916 51.1343 84.047 51.0786 84.1615 51.0786C84.276 51.0786 84.3277 51.1343 84.3277 51.2456V51.5535C84.5308 51.2382 84.8928 51.0823 85.4209 51.0823H85.5982C85.9934 51.0823 86.2852 51.1751 86.4698 51.3569C86.6545 51.5424 86.7432 51.8318 86.7432 52.2325V53.9318C86.7432 54.0431 86.6878 54.1025 86.577 54.1025C86.4662 54.1025 86.4071 54.0469 86.4071 53.9318V52.2325C86.4071 51.9283 86.348 51.7168 86.2261 51.5981C86.1079 51.4793 85.8974 51.42 85.5945 51.42H85.4172C85.0885 51.42 84.83 51.4719 84.6416 51.5758C84.4532 51.6797 84.3461 51.8429 84.324 52.0656V53.9355C84.324 54.0469 84.2686 54.1062 84.1578 54.1062L84.1615 54.0988Z" fill="#646567"/>
<path d="M88.8114 54.0989C88.4162 54.0989 88.1245 54.0062 87.9398 53.8243C87.7551 53.6388 87.6628 53.3494 87.6628 52.9524V52.2289C87.6628 51.8245 87.7551 51.5314 87.9398 51.3496C88.1245 51.1641 88.4162 51.075 88.8114 51.0787H89.3322C89.7274 51.0787 90.0192 51.1715 90.2038 51.3533C90.3885 51.5388 90.4771 51.8282 90.4771 52.2289V52.945C90.4771 53.342 90.3848 53.6351 90.2038 53.8206C90.0192 54.0062 89.7311 54.0989 89.3322 54.0989H88.8114ZM87.9989 52.9524C87.9989 53.253 88.058 53.4644 88.1799 53.5832C88.3017 53.7019 88.5123 53.765 88.8151 53.765H89.3359C89.6387 53.765 89.8493 53.7056 89.9675 53.5832C90.0856 53.4644 90.1447 53.2493 90.1447 52.945V52.2289C90.1447 51.9247 90.0856 51.7132 89.9675 51.5945C89.8493 51.4757 89.6387 51.4164 89.3359 51.4164H88.8151C88.612 51.4164 88.4495 51.4386 88.3313 51.4906C88.2131 51.5425 88.1281 51.6279 88.0764 51.7466C88.0247 51.8653 87.9989 52.0286 87.9989 52.2326V52.9561V52.9524Z" fill="#646567"/>
<path d="M91.9841 54.0988C91.8844 54.0988 91.8216 54.0542 91.792 53.9615L90.8945 51.3049C90.8576 51.1973 90.8945 51.1231 90.9979 51.0897C91.1014 51.0563 91.1715 51.0897 91.2048 51.1936L92.0764 53.7574H91.9434L92.7782 51.2381C92.8077 51.1491 92.8705 51.1045 92.9702 51.1045C93.0699 51.1045 93.1253 51.1491 93.1512 51.2418L93.9305 53.75H93.7901L94.7061 51.1899C94.7467 51.0823 94.8206 51.0452 94.924 51.086C95.0311 51.1268 95.0644 51.1973 95.0237 51.3049L94.0413 53.9578C94.0081 54.0505 93.9416 54.095 93.8455 54.095C93.7384 54.095 93.6683 54.0505 93.6424 53.9578L92.9185 51.6351H92.9813L92.1872 53.9578C92.1687 54.0097 92.1429 54.0468 92.106 54.0654C92.069 54.0839 92.0284 54.095 91.9841 54.095V54.0988Z" fill="#646567"/>
<path d="M96.527 54.0988C96.2241 54.0988 96.0062 54.0283 95.8659 53.8873C95.7255 53.7463 95.6553 53.5274 95.6553 53.2269V49.8357C95.6553 49.7244 95.7107 49.6687 95.8252 49.6687C95.9397 49.6687 95.9914 49.7244 95.9914 49.8357V53.2269C95.9914 53.4347 96.0284 53.5756 96.1059 53.6499C96.1835 53.7241 96.3238 53.7649 96.527 53.7649C96.6415 53.7649 96.7006 53.8205 96.7006 53.9318C96.7006 54.0431 96.6452 54.1025 96.5307 54.1025L96.527 54.0988Z" fill="#646567"/>
<path d="M97.502 52.7186V52.9524C97.502 53.2529 97.5611 53.4644 97.683 53.5831C97.8012 53.7019 98.0154 53.7649 98.3183 53.7649H98.839C99.105 53.7649 99.3007 53.7315 99.4226 53.661C99.5445 53.5905 99.6183 53.4718 99.6405 53.3011C99.6479 53.2492 99.6664 53.2084 99.6922 53.1787C99.7181 53.149 99.7587 53.1379 99.8141 53.1379C99.8695 53.1379 99.9101 53.1527 99.9397 53.1861C99.9692 53.2195 99.9803 53.2603 99.9729 53.316C99.9434 53.5831 99.8399 53.7835 99.6516 53.9096C99.4632 54.0358 99.1936 54.1026 98.839 54.1026H98.3183C97.9231 54.1026 97.6313 54.0098 97.4466 53.828C97.262 53.6462 97.1696 53.3531 97.1696 52.9561V52.2326C97.1696 51.8281 97.262 51.535 97.4466 51.3532C97.6313 51.1714 97.9231 51.0787 98.3183 51.0824H98.839C99.2342 51.0824 99.526 51.1751 99.707 51.3569C99.8916 51.5425 99.984 51.8319 99.984 52.2326V52.5517C99.984 52.663 99.9286 52.7223 99.8178 52.7223H97.502V52.7186ZM98.3146 51.4163C98.0117 51.4126 97.8012 51.472 97.6793 51.5907C97.5574 51.7094 97.4983 51.9246 97.4983 52.2326V52.3847H99.6442V52.2326C99.6442 51.9283 99.5851 51.7168 99.4669 51.5981C99.3487 51.4794 99.1382 51.42 98.8353 51.42H98.3146V51.4163Z" fill="#646567"/>
<path d="M102.023 54.0989C101.628 54.0989 101.336 54.0061 101.151 53.8206C100.966 53.6351 100.874 53.342 100.874 52.9449V52.2289C100.874 51.8319 100.966 51.5387 101.151 51.3532C101.336 51.1677 101.628 51.0787 102.023 51.0787H103.356V49.832C103.356 49.7207 103.411 49.665 103.526 49.665C103.64 49.665 103.692 49.7207 103.692 49.832V53.9282C103.692 54.0395 103.637 54.0989 103.526 54.0989C103.415 54.0989 103.356 54.0432 103.356 53.9282V53.6536C103.264 53.802 103.131 53.9096 102.953 53.9875C102.776 54.0617 102.547 54.0989 102.263 54.0989H102.023ZM102.023 53.7649H102.263C102.595 53.7649 102.857 53.713 103.057 53.6054C103.256 53.5015 103.356 53.342 103.356 53.1305V51.4163H102.023C101.72 51.4163 101.509 51.4757 101.387 51.5981C101.266 51.7205 101.206 51.9283 101.206 52.2326V52.9487C101.206 53.2529 101.266 53.4644 101.387 53.5868C101.509 53.7093 101.72 53.7686 102.023 53.7686V53.7649Z" fill="#646567"/>
<path d="M105.424 55.3788C105.173 55.3788 104.985 55.3269 104.852 55.223C104.719 55.1191 104.641 54.9558 104.619 54.7369C104.612 54.6813 104.623 54.6367 104.652 54.6071C104.682 54.5737 104.723 54.5588 104.778 54.5588C104.833 54.5588 104.87 54.5737 104.9 54.5996C104.926 54.6293 104.944 54.6701 104.955 54.7258C104.97 54.8482 105.014 54.9336 105.085 54.9781C105.158 55.0226 105.269 55.0449 105.424 55.0449H106.606C106.795 55.0449 106.92 55.0115 106.987 54.941C107.053 54.8705 107.086 54.7443 107.086 54.5588V53.6461C106.99 53.7945 106.85 53.9095 106.673 53.9874C106.495 54.0654 106.27 54.1025 105.997 54.1025H105.757C105.362 54.1025 105.07 54.0097 104.885 53.8279C104.7 53.6424 104.608 53.353 104.608 52.956V52.2325C104.608 51.828 104.7 51.5386 104.881 51.3568C105.062 51.175 105.354 51.0823 105.753 51.0823H106.274C106.481 51.0823 106.651 51.1082 106.78 51.1639C106.909 51.2196 107.013 51.3049 107.086 51.4236V51.2492C107.086 51.1379 107.142 51.0823 107.256 51.0823C107.371 51.0823 107.423 51.1379 107.423 51.2492V54.5588C107.423 54.8408 107.356 55.0486 107.227 55.1784C107.094 55.312 106.891 55.3788 106.61 55.3788H105.428H105.424ZM105.757 53.7648H105.997C106.329 53.7648 106.592 53.7129 106.791 53.609C106.99 53.5051 107.09 53.3456 107.09 53.1341V52.0655C107.09 51.8243 107.024 51.6574 106.891 51.5609C106.758 51.4644 106.555 51.4162 106.281 51.4162H105.76C105.458 51.4162 105.247 51.4756 105.125 51.5943C105.003 51.713 104.944 51.9245 104.944 52.2325V52.956C104.944 53.2565 105.003 53.468 105.125 53.5867C105.247 53.7055 105.458 53.7685 105.76 53.7685L105.757 53.7648Z" fill="#646567"/>
<path d="M108.675 52.7186V52.9524C108.675 53.2529 108.734 53.4644 108.856 53.5831C108.977 53.7019 109.188 53.7649 109.491 53.7649H110.012C110.278 53.7649 110.473 53.7315 110.595 53.661C110.717 53.5905 110.791 53.4718 110.813 53.3011C110.82 53.2492 110.839 53.2084 110.865 53.1787C110.891 53.1527 110.931 53.1379 110.987 53.1379C111.042 53.1379 111.083 53.1527 111.112 53.1861C111.142 53.2158 111.153 53.2603 111.145 53.316C111.12 53.5831 111.012 53.7835 110.824 53.9096C110.636 54.0358 110.366 54.1026 110.012 54.1026H109.491C109.096 54.1026 108.804 54.0098 108.619 53.828C108.434 53.6462 108.342 53.3531 108.342 52.9561V52.2326C108.342 51.8281 108.434 51.535 108.619 51.3532C108.804 51.1714 109.096 51.0787 109.491 51.0824H110.012C110.407 51.0824 110.699 51.1751 110.883 51.3569C111.068 51.5425 111.157 51.8319 111.157 52.2326V52.5517C111.157 52.663 111.101 52.7223 110.99 52.7223H108.675V52.7186ZM109.487 51.4163C109.184 51.4126 108.974 51.472 108.852 51.5907C108.73 51.7094 108.671 51.9246 108.671 52.2326V52.3847H110.817V52.2326C110.817 51.9283 110.758 51.7168 110.639 51.5981C110.521 51.4794 110.311 51.42 110.008 51.42H109.487V51.4163Z" fill="#646567"/>
<path d="M114.495 54.0988C114.163 54.0988 113.923 54.0209 113.768 53.8688C113.613 53.713 113.539 53.4718 113.539 53.1379C113.539 52.8039 113.616 52.5628 113.771 52.4069C113.927 52.2511 114.167 52.1732 114.495 52.1732H115.943C115.939 51.8912 115.877 51.6946 115.755 51.5833C115.633 51.472 115.426 51.4163 115.134 51.4163H114.765C114.495 51.4163 114.3 51.446 114.174 51.5016C114.048 51.561 113.971 51.6575 113.941 51.7948C113.927 51.8467 113.908 51.8875 113.882 51.9098C113.856 51.9357 113.819 51.9469 113.768 51.9469C113.716 51.9469 113.668 51.932 113.638 51.8986C113.609 51.869 113.598 51.8244 113.605 51.7725C113.635 51.5313 113.742 51.3532 113.934 51.2419C114.126 51.1306 114.403 51.075 114.765 51.075H115.134C115.53 51.075 115.821 51.1677 116.002 51.3495C116.187 51.535 116.279 51.8244 116.279 52.2251V53.9245C116.279 54.0358 116.224 54.0951 116.113 54.0951C116.002 54.0951 115.943 54.0395 115.943 53.9245V53.6091C115.74 53.9319 115.374 54.0951 114.854 54.0951H114.499L114.495 54.0988ZM114.495 53.7649H114.85C115.057 53.7649 115.238 53.7427 115.393 53.6944C115.548 53.6499 115.674 53.5757 115.77 53.4718C115.866 53.3679 115.921 53.2343 115.943 53.0637V52.5071H114.495C114.259 52.5071 114.096 52.5516 114.008 52.6444C113.919 52.7372 113.871 52.9004 113.871 53.1379C113.871 53.3753 113.915 53.5386 114.008 53.6276C114.096 53.7167 114.259 53.7649 114.495 53.7649Z" fill="#646567"/>
<path d="M117.45 54.0988C117.339 54.0988 117.28 54.0431 117.28 53.9281V51.2456C117.28 51.1343 117.336 51.0786 117.45 51.0786C117.565 51.0786 117.616 51.1343 117.616 51.2456V51.5535C117.819 51.2382 118.181 51.0823 118.709 51.0823H118.887C119.282 51.0823 119.574 51.1751 119.758 51.3569C119.943 51.5424 120.032 51.8318 120.032 52.2325V53.9318C120.032 54.0431 119.976 54.1025 119.866 54.1025C119.755 54.1025 119.696 54.0469 119.696 53.9318V52.2325C119.696 51.9283 119.637 51.7168 119.515 51.5981C119.396 51.4793 119.186 51.42 118.883 51.42H118.706C118.377 51.42 118.119 51.4719 117.93 51.5758C117.742 51.6797 117.635 51.8429 117.613 52.0656V53.9355C117.613 54.0469 117.557 54.1062 117.446 54.1062L117.45 54.0988Z" fill="#646567"/>
<path d="M122.096 54.0989C121.701 54.0989 121.409 54.0061 121.225 53.8206C121.04 53.6351 120.948 53.342 120.948 52.9449V52.2289C120.948 51.8319 121.04 51.5387 121.225 51.3532C121.409 51.1677 121.701 51.0787 122.096 51.0787H123.43V49.832C123.43 49.7207 123.485 49.665 123.6 49.665C123.714 49.665 123.766 49.7207 123.766 49.832V53.9282C123.766 54.0395 123.71 54.0989 123.6 54.0989C123.489 54.0989 123.43 54.0432 123.43 53.9282V53.6536C123.337 53.802 123.204 53.9096 123.027 53.9875C122.85 54.0617 122.621 54.0989 122.336 54.0989H122.096ZM122.096 53.7649H122.336C122.669 53.7649 122.931 53.713 123.13 53.6054C123.33 53.5015 123.43 53.342 123.43 53.1305V51.4163H122.096C121.793 51.4163 121.583 51.4757 121.461 51.5981C121.339 51.7205 121.28 51.9283 121.28 52.2326V52.9487C121.28 53.2529 121.339 53.4644 121.461 53.5868C121.583 53.7093 121.793 53.7686 122.096 53.7686V53.7649Z" fill="#646567"/>
<path d="M126.898 54.095C126.636 54.095 126.436 54.0394 126.299 53.9281C126.163 53.8168 126.078 53.6461 126.052 53.4161C126.045 53.3604 126.056 53.3159 126.085 53.2862C126.115 53.2565 126.159 53.2417 126.215 53.2417C126.266 53.2417 126.307 53.2565 126.333 53.2825C126.359 53.3085 126.377 53.353 126.384 53.4086C126.403 53.5422 126.451 53.6313 126.528 53.6869C126.606 53.7426 126.728 53.7648 126.894 53.7648H127.936C128.131 53.7648 128.268 53.7277 128.342 53.6535C128.416 53.5793 128.453 53.442 128.453 53.2454C128.453 53.0487 128.416 52.9077 128.342 52.8335C128.268 52.7593 128.131 52.7222 127.936 52.7222H126.905C126.628 52.7222 126.425 52.6554 126.288 52.5219C126.155 52.3883 126.085 52.1842 126.085 51.906C126.085 51.6277 126.152 51.4162 126.285 51.2826C126.418 51.1491 126.624 51.0823 126.901 51.0823H127.899C128.379 51.0823 128.645 51.2938 128.696 51.7204C128.704 51.7761 128.696 51.8206 128.663 51.8503C128.634 51.88 128.589 51.8948 128.534 51.8948C128.479 51.8948 128.442 51.88 128.416 51.854C128.39 51.828 128.371 51.7872 128.36 51.7316C128.346 51.6128 128.301 51.5312 128.231 51.483C128.161 51.4348 128.05 51.4125 127.899 51.4125H126.901C126.717 51.4125 126.591 51.4459 126.521 51.5164C126.451 51.5832 126.418 51.713 126.418 51.9022C126.418 52.0915 126.455 52.2102 126.521 52.277C126.588 52.3438 126.717 52.3809 126.898 52.3809H127.928C128.22 52.3809 128.434 52.4514 128.575 52.5887C128.711 52.7296 128.781 52.9448 128.781 53.238C128.781 53.5311 128.711 53.7463 128.575 53.8836C128.438 54.0245 128.22 54.0913 127.928 54.0913H126.887L126.898 54.095Z" fill="#646567"/>
<path d="M129.912 52.7186V52.9524C129.912 53.2529 129.971 53.4644 130.093 53.5831C130.214 53.7019 130.425 53.7649 130.728 53.7649H131.249C131.514 53.7649 131.71 53.7315 131.832 53.661C131.954 53.5905 132.028 53.4718 132.05 53.3011C132.057 53.2492 132.076 53.2084 132.102 53.1787C132.128 53.1527 132.168 53.1379 132.224 53.1379C132.279 53.1379 132.32 53.1527 132.349 53.1861C132.379 53.2195 132.39 53.2603 132.382 53.316C132.353 53.5831 132.249 53.7835 132.061 53.9096C131.873 54.0358 131.603 54.1026 131.249 54.1026H130.728C130.333 54.1026 130.041 54.0098 129.856 53.828C129.671 53.6425 129.579 53.3531 129.579 52.9561V52.2326C129.579 51.8282 129.671 51.535 129.856 51.3532C130.041 51.1677 130.333 51.0787 130.728 51.0824H131.249C131.644 51.0824 131.936 51.1751 132.12 51.3569C132.305 51.5425 132.394 51.8319 132.394 52.2326V52.5517C132.394 52.663 132.338 52.7223 132.227 52.7223H129.912V52.7186ZM130.724 51.4163C130.421 51.4126 130.211 51.472 130.089 51.5907C129.967 51.7094 129.908 51.9246 129.908 52.2326V52.3847H132.054V52.2326C132.054 51.9283 131.995 51.7168 131.876 51.5981C131.758 51.4794 131.548 51.42 131.245 51.42H130.724V51.4163Z" fill="#646567"/>
<path d="M133.538 54.0988C133.428 54.0988 133.369 54.0431 133.369 53.9281V51.2456C133.369 51.1343 133.424 51.0786 133.538 51.0786C133.653 51.0786 133.705 51.1343 133.705 51.2456V51.7391C133.815 51.5276 133.974 51.3643 134.185 51.2493C134.395 51.138 134.643 51.0786 134.927 51.0786C135.038 51.0786 135.097 51.1343 135.097 51.2456C135.097 51.3569 135.042 51.4163 134.927 51.4163C134.55 51.4163 134.259 51.5016 134.048 51.6723C133.841 51.8429 133.727 52.0878 133.705 52.4069V53.9318C133.705 54.0431 133.649 54.1025 133.538 54.1025V54.0988Z" fill="#646567"/>
<path d="M136.792 53.9726C136.77 54.0246 136.741 54.058 136.707 54.0765C136.674 54.0951 136.634 54.1025 136.589 54.1025C136.497 54.1025 136.43 54.058 136.394 53.9726L135.215 51.3198C135.171 51.2159 135.201 51.1417 135.308 51.1008C135.407 51.06 135.478 51.0897 135.526 51.1899L136.704 53.8353H136.501L137.753 51.1862C137.775 51.1379 137.808 51.1046 137.845 51.0897C137.882 51.0749 137.926 51.0786 137.974 51.1008C138.078 51.1491 138.107 51.2233 138.059 51.3235L136.796 53.9763L136.792 53.9726Z" fill="#646567"/>
<path d="M138.794 50.4962C138.647 50.4962 138.573 50.422 138.573 50.2699V50.1252C138.573 49.9805 138.647 49.9062 138.794 49.9062H138.935C139.079 49.9062 139.152 49.9805 139.152 50.1252V50.2699C139.152 50.422 139.079 50.4962 138.935 50.4962H138.794ZM138.864 54.0989C138.754 54.0989 138.695 54.0432 138.695 53.9282V51.2457C138.695 51.1344 138.75 51.0787 138.864 51.0787C138.979 51.0787 139.031 51.1344 139.031 51.2457V53.9282C139.031 54.0395 138.975 54.0989 138.864 54.0989Z" fill="#646567"/>
<path d="M141.154 54.099C140.759 54.099 140.467 54.0062 140.283 53.8207C140.098 53.6352 140.006 53.3421 140.006 52.9451V52.2215C140.006 51.8245 140.098 51.5314 140.279 51.3459C140.46 51.1604 140.752 51.0714 141.151 51.0751H141.671C141.982 51.0751 142.222 51.127 142.384 51.2346C142.547 51.3385 142.646 51.5055 142.68 51.7318C142.687 51.7912 142.672 51.832 142.643 51.8616C142.613 51.8913 142.569 51.9062 142.513 51.9062C142.462 51.9062 142.425 51.8913 142.399 51.8654C142.373 51.8394 142.355 51.7986 142.34 51.7503C142.318 51.6279 142.255 51.5389 142.152 51.4869C142.048 51.435 141.889 51.409 141.668 51.409H141.147C140.844 51.4053 140.634 51.4609 140.512 51.5797C140.39 51.6984 140.331 51.9099 140.331 52.2178V52.9413C140.331 53.2456 140.39 53.4571 140.512 53.5795C140.634 53.702 140.844 53.7613 141.147 53.7613H141.668C141.889 53.7613 142.048 53.7353 142.152 53.6834C142.255 53.6315 142.314 53.5424 142.34 53.42C142.351 53.368 142.373 53.3309 142.399 53.305C142.425 53.279 142.462 53.2641 142.513 53.2641C142.569 53.2641 142.613 53.279 142.643 53.3124C142.672 53.3421 142.687 53.3866 142.68 53.4422C142.646 53.6686 142.55 53.8355 142.384 53.9394C142.218 54.0433 141.982 54.099 141.671 54.099H141.151H141.154Z" fill="#646567"/>
<path d="M143.843 52.7186V52.9524C143.843 53.2529 143.902 53.4644 144.024 53.5831C144.146 53.7019 144.356 53.7649 144.659 53.7649H145.18C145.446 53.7649 145.642 53.7315 145.764 53.661C145.886 53.5905 145.959 53.4718 145.982 53.3011C145.989 53.2492 146.007 53.2084 146.033 53.1787C146.059 53.1527 146.1 53.1379 146.155 53.1379C146.211 53.1379 146.251 53.1527 146.281 53.1861C146.31 53.2195 146.321 53.2603 146.314 53.316C146.288 53.5831 146.181 53.7835 145.993 53.9096C145.808 54.0358 145.535 54.1026 145.18 54.1026H144.659C144.264 54.1026 143.972 54.0098 143.788 53.828C143.603 53.6425 143.511 53.3531 143.511 52.9561V52.2326C143.511 51.8282 143.603 51.535 143.788 51.3532C143.972 51.1677 144.264 51.0787 144.659 51.0824H145.18C145.575 51.0824 145.867 51.1751 146.052 51.3569C146.236 51.5425 146.325 51.8319 146.325 52.2326V52.5517C146.325 52.663 146.27 52.7223 146.159 52.7223H143.843V52.7186ZM144.656 51.4163C144.353 51.4126 144.142 51.472 144.02 51.5907C143.898 51.7094 143.839 51.9246 143.839 52.2326V52.3847H145.985V52.2326C145.985 51.9283 145.926 51.7168 145.808 51.5981C145.69 51.4794 145.479 51.42 145.176 51.42H144.656V51.4163Z" fill="#646567"/>
<path d="M147.961 54.095C147.699 54.095 147.5 54.0394 147.363 53.9281C147.226 53.8168 147.141 53.6461 147.115 53.4161C147.108 53.3604 147.119 53.3159 147.149 53.2862C147.178 53.2565 147.223 53.2417 147.278 53.2417C147.33 53.2417 147.37 53.2565 147.396 53.2825C147.422 53.3085 147.44 53.353 147.448 53.4086C147.466 53.5422 147.514 53.6313 147.592 53.6869C147.669 53.7426 147.791 53.7648 147.958 53.7648H148.999C149.195 53.7648 149.331 53.7277 149.405 53.6535C149.479 53.5793 149.516 53.442 149.516 53.2454C149.516 53.0487 149.479 52.9077 149.405 52.8335C149.331 52.7593 149.195 52.7222 148.999 52.7222H147.969C147.692 52.7222 147.488 52.6554 147.352 52.5219C147.219 52.3883 147.149 52.1842 147.149 51.906C147.149 51.6277 147.215 51.4162 147.348 51.2826C147.481 51.1491 147.688 51.0823 147.965 51.0823H148.962C149.442 51.0823 149.708 51.2938 149.76 51.7204C149.767 51.7761 149.76 51.8206 149.727 51.8503C149.697 51.88 149.653 51.8948 149.597 51.8948C149.542 51.8948 149.505 51.88 149.479 51.854C149.453 51.828 149.435 51.7872 149.424 51.7316C149.409 51.6128 149.365 51.5312 149.295 51.483C149.224 51.4348 149.114 51.4125 148.962 51.4125H147.965C147.78 51.4125 147.655 51.4459 147.584 51.5164C147.514 51.5832 147.481 51.713 147.481 51.9022C147.481 52.0915 147.514 52.2102 147.584 52.277C147.655 52.3438 147.78 52.3809 147.961 52.3809H148.992C149.283 52.3809 149.498 52.4514 149.638 52.5887C149.775 52.7296 149.845 52.9448 149.845 53.238C149.845 53.5311 149.775 53.7463 149.638 53.8836C149.501 54.0245 149.283 54.0913 148.992 54.0913H147.95L147.961 54.095Z" fill="#646567"/>
<path d="M80.8374 61.9129C80.7266 61.9129 80.6675 61.8572 80.6675 61.7422V59.2266H80.4016C80.2908 59.2266 80.2317 59.1709 80.2317 59.0559C80.2317 58.9409 80.2871 58.889 80.4016 58.889H80.6675V58.607C80.6675 58.2137 80.7598 57.928 80.9408 57.7462C81.1218 57.5644 81.4062 57.4753 81.7977 57.4753C81.9048 57.4753 81.9602 57.531 81.9602 57.6423C81.9602 57.7536 81.9048 57.813 81.7977 57.813C81.5022 57.813 81.2954 57.8723 81.1772 57.9874C81.059 58.1024 81.0036 58.3102 81.0036 58.607V58.889H81.794C81.9048 58.889 81.9639 58.9446 81.9639 59.0559C81.9639 59.1672 81.9085 59.2266 81.794 59.2266H81.0036V61.7422C81.0036 61.8535 80.9482 61.9129 80.8374 61.9129Z" fill="#646567"/>
<path d="M83.4486 61.9126C83.0534 61.9126 82.7617 61.8199 82.577 61.6381C82.3923 61.4525 82.3 61.1631 82.3 60.7661V60.0426C82.3 59.6382 82.3923 59.3451 82.577 59.1633C82.7617 58.9778 83.0534 58.8887 83.4486 58.8924H83.9694C84.3646 58.8924 84.6564 58.9852 84.841 59.167C85.0257 59.3525 85.1144 59.6419 85.1144 60.0426V60.7587C85.1144 61.1557 85.022 61.4488 84.841 61.6344C84.6564 61.8199 84.3683 61.9126 83.9694 61.9126H83.4486ZM82.6361 60.7661C82.6361 61.0667 82.6952 61.2782 82.8171 61.3969C82.9389 61.5156 83.1495 61.5787 83.4523 61.5787H83.9731C84.276 61.5787 84.4865 61.5193 84.6047 61.3969C84.7229 61.2782 84.782 61.063 84.782 60.7587V60.0426C84.782 59.7384 84.7229 59.5269 84.6047 59.4082C84.4865 59.2894 84.276 59.2301 83.9731 59.2301H83.4523C83.2492 59.2301 83.0867 59.2523 82.9685 59.3043C82.8503 59.3562 82.7654 59.4416 82.7136 59.5603C82.6619 59.679 82.6361 59.8423 82.6361 60.0463V60.7699V60.7661Z" fill="#646567"/>
<path d="M86.2593 61.9128C86.1485 61.9128 86.0894 61.8571 86.0894 61.7421V59.0595C86.0894 58.9482 86.1448 58.8926 86.2593 58.8926C86.3738 58.8926 86.4255 58.9482 86.4255 59.0595V59.553C86.5363 59.3415 86.6951 59.1783 86.9057 59.0632C87.1162 58.9519 87.3636 58.8926 87.648 58.8926C87.7588 58.8926 87.8179 58.9482 87.8179 59.0595C87.8179 59.1708 87.7625 59.2302 87.648 59.2302C87.2713 59.2302 86.9795 59.3155 86.769 59.4862C86.5622 59.6569 86.4477 59.9018 86.4255 60.2209V61.7458C86.4255 61.8571 86.3701 61.9165 86.2593 61.9165V61.9128Z" fill="#646567"/>
<path d="M91.057 61.9127C90.6655 61.9127 90.3811 61.8236 90.2002 61.6418C90.0192 61.46 89.9305 61.1743 89.9305 60.7847V59.2301H89.5538C89.443 59.2301 89.3839 59.1745 89.3839 59.0594C89.3839 58.9444 89.4393 58.8925 89.5538 58.8925H89.9305V58.2061C89.9305 58.0948 89.9859 58.0354 90.0967 58.0354C90.2075 58.0354 90.2666 58.0911 90.2666 58.2061V58.8925H91.0644C91.1752 58.8925 91.2306 58.9481 91.2306 59.0594C91.2306 59.1708 91.1752 59.2301 91.0644 59.2301H90.2666V60.7847C90.2666 61.0816 90.3257 61.2893 90.4402 61.4044C90.5547 61.5194 90.7616 61.575 91.0607 61.575C91.1235 61.575 91.1678 61.5899 91.1937 61.6158C91.2195 61.6455 91.2343 61.6863 91.2343 61.742C91.2343 61.8533 91.1752 61.9127 91.0644 61.9127H91.057Z" fill="#646567"/>
<path d="M92.154 61.9128C92.0432 61.9128 91.9841 61.8572 91.9841 61.7421V57.646C91.9841 57.5347 92.0395 57.479 92.154 57.479C92.2685 57.479 92.3202 57.5347 92.3202 57.646V59.3638C92.5196 59.0485 92.8853 58.8926 93.4134 58.8926H93.5907C93.9859 58.8926 94.2777 58.9854 94.4586 59.1672C94.6433 59.3527 94.732 59.6421 94.732 60.0428V61.7421C94.732 61.8534 94.6766 61.9128 94.5658 61.9128C94.455 61.9128 94.3959 61.8572 94.3959 61.7421V60.0428C94.3959 59.7386 94.3368 59.5271 94.2149 59.4084C94.093 59.2896 93.8862 59.2303 93.5833 59.2303H93.406C93.0773 59.2303 92.8188 59.2822 92.6304 59.3861C92.4421 59.49 92.3349 59.6532 92.3128 59.8759V61.7458C92.3128 61.8572 92.2574 61.9165 92.1466 61.9165L92.154 61.9128Z" fill="#646567"/>
<path d="M95.9877 60.5326V60.7663C95.9877 61.0669 96.0468 61.2784 96.1687 61.3971C96.2906 61.5158 96.5011 61.5789 96.804 61.5789H97.3248C97.5907 61.5789 97.7864 61.5455 97.9083 61.475C98.0302 61.4045 98.1041 61.2858 98.1262 61.1151C98.1336 61.0632 98.1521 61.0224 98.1779 60.9927C98.2038 60.9667 98.2444 60.9519 98.2998 60.9519C98.3552 60.9519 98.3958 60.9667 98.4254 61.0001C98.4549 61.0335 98.466 61.0743 98.4586 61.13C98.4328 61.3971 98.3257 61.5974 98.1373 61.7236C97.9526 61.8497 97.6793 61.9165 97.3248 61.9165H96.804C96.4088 61.9165 96.117 61.8238 95.9323 61.642C95.7477 61.4565 95.6553 61.1671 95.6553 60.7701V60.0465C95.6553 59.6421 95.7477 59.349 95.9323 59.1672C96.117 58.9817 96.4088 58.8926 96.804 58.8964H97.3248C97.72 58.8964 98.0117 58.9891 98.1964 59.1709C98.3811 59.3564 98.4697 59.6458 98.4697 60.0465V60.3656C98.4697 60.4769 98.4143 60.5363 98.3035 60.5363H95.9877V60.5326ZM96.8003 59.2303C96.4974 59.2266 96.2869 59.2859 96.165 59.4047C96.0431 59.5234 95.9841 59.7386 95.9841 60.0465V60.1987H98.1299V60.0465C98.1299 59.7423 98.0708 59.5308 97.9526 59.4121C97.8344 59.2934 97.6239 59.234 97.3211 59.234H96.8003V59.2303Z" fill="#646567"/>
<path d="M100.593 61.898C100.494 61.8535 100.46 61.7793 100.501 61.6754L102.078 57.928C102.111 57.8389 102.174 57.7981 102.267 57.7981H102.285C102.374 57.7981 102.433 57.8426 102.47 57.928L104.047 61.6754C104.087 61.7793 104.058 61.8535 103.958 61.898C103.855 61.9388 103.781 61.9091 103.74 61.8089L103.315 60.8034H101.232L100.808 61.8089C100.767 61.9091 100.693 61.9425 100.59 61.898H100.593ZM101.373 60.4658H103.179L102.274 58.325L101.369 60.4658H101.373Z" fill="#646567"/>
<path d="M104.863 61.9127C104.811 61.9127 104.767 61.8979 104.737 61.8682C104.708 61.8385 104.693 61.7977 104.693 61.742V57.9575C104.693 57.9056 104.708 57.8648 104.737 57.8314C104.767 57.8017 104.808 57.7869 104.863 57.7869C104.918 57.7869 104.955 57.8017 104.985 57.8314C105.014 57.8611 105.029 57.9019 105.029 57.9575V61.742C105.029 61.794 105.014 61.8385 104.985 61.8682C104.955 61.8979 104.915 61.9127 104.863 61.9127Z" fill="#646567"/>
<path d="M108.623 61.9127C108.228 61.9127 107.936 61.8199 107.751 61.6344C107.567 61.4489 107.474 61.1558 107.474 60.7588V60.0353C107.474 59.6383 107.567 59.3452 107.748 59.1596C107.928 58.9741 108.22 58.8851 108.619 58.8888H109.14C109.45 58.8888 109.69 58.9407 109.853 59.0483C110.015 59.1522 110.115 59.3192 110.148 59.5455C110.156 59.6049 110.141 59.6457 110.111 59.6754C110.082 59.7051 110.037 59.7199 109.982 59.7199C109.93 59.7199 109.893 59.7051 109.868 59.6791C109.842 59.6531 109.823 59.6123 109.808 59.5641C109.786 59.4416 109.723 59.3526 109.62 59.3006C109.517 59.2487 109.358 59.2227 109.136 59.2227H108.615C108.313 59.219 108.102 59.2747 107.98 59.3934C107.858 59.5121 107.799 59.7236 107.799 60.0316V60.7551C107.799 61.0593 107.858 61.2708 107.98 61.3932C108.102 61.5157 108.313 61.575 108.615 61.575H109.136C109.358 61.575 109.517 61.5491 109.62 61.4971C109.723 61.4452 109.783 61.3561 109.808 61.2337C109.819 61.1818 109.842 61.1446 109.868 61.1187C109.893 61.0927 109.93 61.0779 109.982 61.0779C110.037 61.0779 110.082 61.0927 110.111 61.1261C110.141 61.1595 110.156 61.2003 110.148 61.256C110.115 61.4823 110.019 61.6492 109.853 61.7531C109.687 61.857 109.45 61.9127 109.14 61.9127H108.619H108.623Z" fill="#646567"/>
<path d="M112.128 61.9126C111.733 61.9126 111.441 61.8199 111.256 61.6381C111.072 61.4525 110.979 61.1631 110.979 60.7661V60.0426C110.979 59.6382 111.072 59.3451 111.256 59.1633C111.441 58.9778 111.733 58.8887 112.128 58.8924H112.649C113.044 58.8924 113.336 58.9852 113.52 59.167C113.705 59.3525 113.794 59.6419 113.794 60.0426V60.7587C113.794 61.1557 113.701 61.4488 113.52 61.6344C113.336 61.8199 113.048 61.9126 112.649 61.9126H112.128ZM111.315 60.7661C111.315 61.0667 111.374 61.2782 111.496 61.3969C111.618 61.5156 111.829 61.5787 112.132 61.5787H112.652C112.955 61.5787 113.166 61.5193 113.284 61.3969C113.402 61.2782 113.461 61.063 113.461 60.7587V60.0426C113.461 59.7384 113.402 59.5269 113.284 59.4082C113.166 59.2894 112.955 59.2301 112.652 59.2301H112.132C111.928 59.2301 111.766 59.2523 111.648 59.3043C111.53 59.3562 111.445 59.4416 111.393 59.5603C111.341 59.679 111.315 59.8423 111.315 60.0463V60.7699V60.7661Z" fill="#646567"/>
<path d="M118.137 58.8889C118.477 58.8889 118.724 58.978 118.868 59.1523C119.016 59.3267 119.09 59.6161 119.09 60.0169V61.7533C119.09 61.8646 119.035 61.9202 118.924 61.9202C118.813 61.9202 118.754 61.8646 118.754 61.7533V60.0169C118.754 59.7349 118.706 59.5345 118.61 59.4084C118.514 59.2859 118.355 59.2228 118.133 59.2228H117.871C117.594 59.2228 117.395 59.2859 117.276 59.4084C117.158 59.5308 117.095 59.7349 117.095 60.0169V61.7533C117.095 61.8646 117.04 61.9202 116.929 61.9202C116.818 61.9202 116.759 61.8646 116.759 61.7533V60.0169C116.759 59.7349 116.711 59.5345 116.615 59.4084C116.519 59.2859 116.361 59.2228 116.139 59.2228H115.877C115.6 59.2228 115.4 59.2859 115.282 59.4084C115.164 59.5308 115.101 59.7349 115.101 60.0169V61.7533C115.101 61.8646 115.046 61.9202 114.935 61.9202C114.824 61.9202 114.765 61.8646 114.765 61.7533V59.0633C114.765 58.952 114.82 58.8963 114.935 58.8963C115.049 58.8963 115.101 58.952 115.101 59.0633V59.3119C115.193 59.1598 115.304 59.0522 115.433 58.9891C115.563 58.9223 115.725 58.8926 115.921 58.8926H116.139C116.361 58.8926 116.541 58.9297 116.674 59.0076C116.807 59.0856 116.915 59.2117 116.996 59.3898C117.088 59.2117 117.203 59.0856 117.339 59.0076C117.476 58.9297 117.653 58.8926 117.871 58.8926H118.133L118.137 58.8889Z" fill="#646567"/>
<path d="M123.467 58.8889C123.806 58.8889 124.054 58.978 124.198 59.1523C124.346 59.3267 124.42 59.6161 124.42 60.0169V61.7533C124.42 61.8646 124.364 61.9202 124.253 61.9202C124.143 61.9202 124.083 61.8646 124.083 61.7533V60.0169C124.083 59.7349 124.035 59.5345 123.939 59.4084C123.843 59.2859 123.685 59.2228 123.463 59.2228H123.201C122.924 59.2228 122.724 59.2859 122.606 59.4084C122.488 59.5308 122.425 59.7349 122.425 60.0169V61.7533C122.425 61.8646 122.37 61.9202 122.259 61.9202C122.148 61.9202 122.089 61.8646 122.089 61.7533V60.0169C122.089 59.7349 122.041 59.5345 121.945 59.4084C121.849 59.2859 121.69 59.2228 121.468 59.2228H121.206C120.929 59.2228 120.73 59.2859 120.612 59.4084C120.493 59.5308 120.431 59.7349 120.431 60.0169V61.7533C120.431 61.8646 120.375 61.9202 120.264 61.9202C120.154 61.9202 120.095 61.8646 120.095 61.7533V59.0633C120.095 58.952 120.15 58.8963 120.264 58.8963C120.379 58.8963 120.431 58.952 120.431 59.0633V59.3119C120.523 59.1598 120.634 59.0522 120.763 58.9891C120.892 58.9223 121.055 58.8926 121.251 58.8926H121.468C121.69 58.8926 121.871 58.9297 122.004 59.0076C122.137 59.0856 122.244 59.2117 122.325 59.3898C122.418 59.2117 122.532 59.0856 122.669 59.0076C122.805 58.9297 122.983 58.8926 123.201 58.8926H123.463L123.467 58.8889Z" fill="#646567"/>
<path d="M127.95 58.8963C128.061 58.8963 128.12 58.952 128.12 59.067V61.7496C128.12 61.8609 128.065 61.9165 127.95 61.9165C127.836 61.9165 127.784 61.8609 127.784 61.7496V61.4416C127.581 61.757 127.219 61.9128 126.691 61.9128H126.514C126.118 61.9128 125.827 61.8201 125.642 61.6382C125.457 61.4564 125.369 61.1633 125.369 60.7626V59.0633C125.369 58.952 125.424 58.8926 125.535 58.8926C125.646 58.8926 125.705 58.9483 125.705 59.0633V60.7626C125.705 61.0669 125.764 61.2784 125.886 61.3971C126.004 61.5158 126.214 61.5752 126.517 61.5752H126.695C127.023 61.5752 127.282 61.5232 127.47 61.4193C127.659 61.3155 127.766 61.1522 127.788 60.9296V59.0596C127.788 58.9483 127.843 58.8889 127.954 58.8889L127.95 58.8963Z" fill="#646567"/>
<path d="M129.35 61.9128C129.239 61.9128 129.18 61.8571 129.18 61.7421V59.0595C129.18 58.9482 129.236 58.8926 129.35 58.8926C129.465 58.8926 129.516 58.9482 129.516 59.0595V59.3675C129.72 59.0521 130.081 58.8963 130.61 58.8963H130.787C131.182 58.8963 131.474 58.989 131.659 59.1709C131.843 59.3564 131.932 59.6458 131.932 60.0465V61.7458C131.932 61.8571 131.876 61.9165 131.766 61.9165C131.655 61.9165 131.596 61.8608 131.596 61.7458V60.0465C131.596 59.7422 131.537 59.5307 131.415 59.412C131.297 59.2933 131.086 59.2339 130.783 59.2339H130.606C130.277 59.2339 130.019 59.2859 129.83 59.3898C129.642 59.4936 129.535 59.6569 129.513 59.8795V61.7495C129.513 61.8608 129.457 61.9202 129.346 61.9202L129.35 61.9128Z" fill="#646567"/>
<path d="M133.033 58.3102C132.885 58.3102 132.811 58.2359 132.811 58.0838V57.9391C132.811 57.7944 132.885 57.7202 133.033 57.7202H133.173C133.317 57.7202 133.391 57.7944 133.391 57.9391V58.0838C133.391 58.2359 133.317 58.3102 133.173 58.3102H133.033ZM133.103 61.9129C132.992 61.9129 132.933 61.8572 132.933 61.7422V59.0596C132.933 58.9483 132.988 58.8927 133.103 58.8927C133.217 58.8927 133.269 58.9483 133.269 59.0596V61.7422C133.269 61.8535 133.213 61.9129 133.103 61.9129Z" fill="#646567"/>
<path d="M135.559 61.9127C135.167 61.9127 134.883 61.8236 134.702 61.6418C134.521 61.46 134.432 61.1743 134.432 60.7847V59.2301H134.056C133.945 59.2301 133.886 59.1745 133.886 59.0594C133.886 58.9444 133.941 58.8925 134.056 58.8925H134.432V58.2061C134.432 58.0948 134.488 58.0354 134.599 58.0354C134.709 58.0354 134.768 58.0911 134.768 58.2061V58.8925H135.566C135.677 58.8925 135.732 58.9481 135.732 59.0594C135.732 59.1708 135.677 59.2301 135.566 59.2301H134.768V60.7847C134.768 61.0816 134.827 61.2893 134.942 61.4044C135.056 61.5194 135.263 61.575 135.562 61.575C135.625 61.575 135.67 61.5899 135.695 61.6158C135.721 61.6455 135.736 61.6863 135.736 61.742C135.736 61.8533 135.677 61.9127 135.566 61.9127H135.559Z" fill="#646567"/>
<path d="M137.243 63.1927C136.966 63.1927 136.759 63.1259 136.626 62.9924C136.493 62.8588 136.427 62.651 136.427 62.3653C136.427 62.254 136.482 62.1984 136.593 62.1984C136.704 62.1984 136.763 62.254 136.763 62.3653C136.763 62.5583 136.796 62.6881 136.866 62.7549C136.936 62.8217 137.058 62.8588 137.243 62.8588H138.344C138.532 62.8588 138.658 62.8254 138.724 62.7549C138.791 62.6844 138.827 62.5583 138.827 62.3653V61.486C138.706 61.6455 138.554 61.7568 138.373 61.8199C138.192 61.883 137.978 61.9164 137.734 61.9164H137.557C137.165 61.9164 136.881 61.8273 136.7 61.6455C136.519 61.4637 136.43 61.1817 136.43 60.7921V59.0557C136.43 58.9444 136.486 58.8851 136.597 58.8851C136.707 58.8851 136.767 58.9407 136.767 59.0557V60.7921C136.767 61.089 136.826 61.293 136.94 61.4081C137.055 61.5231 137.261 61.5787 137.561 61.5787H137.738C138.107 61.5787 138.384 61.5119 138.562 61.3821C138.743 61.2522 138.831 61.0519 138.831 60.7884V59.052C138.831 58.9407 138.887 58.8813 138.997 58.8813C139.108 58.8813 139.167 58.937 139.167 59.052V62.3579C139.167 62.6399 139.101 62.8514 138.968 62.9849C138.835 63.1185 138.628 63.1853 138.351 63.1853H137.25L137.243 63.1927Z" fill="#646567"/>
</g>
<defs>
<linearGradient id="paint0_linear_602_13020" x1="1.03046" y1="45.925" x2="61.7407" y2="35.2711" gradientUnits="userSpaceOnUse">
<stop stop-color="#0047BB"/>
<stop offset="0.46" stop-color="#0047BB"/>
<stop offset="0.53" stop-color="#6689C1"/>
<stop offset="0.58" stop-color="#AAB4C6"/>
<stop offset="0.61" stop-color="#C5C6C8"/>
<stop offset="0.84" stop-color="#E8DD4D"/>
<stop offset="1" stop-color="#FFED00"/>
</linearGradient>
<clipPath id="clip0_602_13020">
<rect width="150" height="75" fill="white" transform="translate(0 0.273438)"/>
</clipPath>
</defs>
</svg>
