<svg width="150" height="75" viewBox="0 0 150 75" fill="none" xmlns="http://www.w3.org/2000/svg">
<g clip-path="url(#clip0_1_7000)">
<path d="M28.0949 43.8804C27.5132 43.6545 27.3374 43.2519 27.5701 42.6726L32.7671 29.8155C32.9869 29.3324 33.3281 29.0908 33.7936 29.0908H33.8375C34.3107 29.1116 34.6313 29.3532 34.7993 29.8155L40.0843 42.6726C40.317 43.2493 40.1489 43.6519 39.5827 43.8804C39.0087 44.1064 38.6079 43.9402 38.3804 43.3765L37.2014 40.5038H30.3987L29.274 43.3765C29.049 43.948 28.656 44.1142 28.0949 43.8804ZM31.1201 38.6596H36.4489L33.7315 32.0129L31.1226 38.6596H31.1201Z" fill="white"/>
<path d="M43.6679 43.9686C43.355 43.9686 43.1223 43.8933 42.9749 43.7427C42.825 43.592 42.75 43.3609 42.75 43.0466V30.0362C42.75 29.7141 42.825 29.4803 42.9749 29.3349C43.1249 29.1894 43.355 29.1167 43.6679 29.1167C43.9807 29.1167 44.2212 29.1894 44.366 29.3349C44.5108 29.4803 44.5832 29.7141 44.5832 30.0362V43.0466C44.5832 43.3609 44.5108 43.592 44.366 43.7427C44.2212 43.8933 43.9885 43.9686 43.6679 43.9686Z" fill="white"/>
<path d="M56.6346 43.9688C55.4555 43.9688 54.579 43.683 54.005 43.1116C53.4336 42.5402 53.1466 41.6649 53.1466 40.4856V38.4129C53.1466 37.2155 53.4336 36.3324 54.005 35.7636C54.5764 35.1947 55.4529 34.9116 56.6346 34.9116H58.0928C59.2796 34.9116 60.1561 35.1973 60.7249 35.7688C61.2938 36.3402 61.5782 37.2233 61.5782 38.4129V40.4675C61.5782 41.6519 61.2938 42.5324 60.7249 43.1064C60.1561 43.6805 59.277 43.9688 58.0928 43.9688H56.6346ZM54.6411 40.4856C54.6411 41.2545 54.7807 41.7766 55.0599 42.0545C55.3392 42.3324 55.8641 42.4701 56.6346 42.4701H58.0928C58.8685 42.4701 59.396 42.3298 59.6726 42.0493C59.9493 41.7688 60.0863 41.2415 60.0863 40.4675V38.4129C60.0863 37.6337 59.9493 37.1038 59.6726 36.8259C59.396 36.548 58.8711 36.4103 58.0928 36.4103H56.6346C56.1174 36.4103 55.7167 36.4675 55.4297 36.5843C55.1427 36.7012 54.9384 36.9038 54.8195 37.1921C54.7005 37.4805 54.6411 37.8882 54.6411 38.4103V40.483V40.4856Z" fill="#0047BB"/>
<path d="M65.1178 43.9687C64.6214 43.9687 64.3706 43.7193 64.3706 43.218V35.6596C64.3706 35.1583 64.6188 34.9089 65.1178 34.9089C65.6169 34.9089 65.8651 35.1583 65.8651 35.6596V35.9557C66.4934 35.2596 67.419 34.9115 68.6394 34.9115H69.1384C70.3252 34.9115 71.2017 35.1973 71.7705 35.7687C72.3394 36.3401 72.6238 37.2232 72.6238 38.4128V43.2206C72.6238 43.7219 72.3756 43.9713 71.8765 43.9713C71.3775 43.9713 71.1293 43.7219 71.1293 43.2206V38.4128C71.1293 37.6336 70.9871 37.1037 70.7079 36.8258C70.426 36.5479 69.9037 36.4102 69.1384 36.4102H68.6394C67.9284 36.4102 67.3078 36.4934 66.7804 36.657C66.2529 36.8206 65.9478 37.0778 65.8651 37.431V43.2206C65.8651 43.7219 65.6169 43.9713 65.1178 43.9713V43.9687Z" fill="#0047BB"/>
<path d="M81.5182 43.9687C81.0192 43.9687 80.771 43.7193 80.771 43.218V32.6025C80.771 32.1012 81.0192 31.8518 81.5182 31.8518H85.8051C87.3539 31.8518 88.4915 32.2206 89.2233 32.9557C89.955 33.6908 90.3221 34.8362 90.3221 36.3921V39.431C90.3221 40.9869 89.9602 42.1297 89.2336 42.8674C88.5071 43.6025 87.3642 43.9713 85.8051 43.9713H81.5182V43.9687ZM82.2655 42.4674H85.8051C86.5627 42.4674 87.1651 42.3739 87.6047 42.1869C88.0468 41.9999 88.3597 41.683 88.5484 41.2388C88.7346 40.7947 88.8303 40.1921 88.8303 39.4284V36.3895C88.8303 35.6336 88.7372 35.0336 88.5484 34.5895C88.3623 34.1453 88.0468 33.8284 87.6047 33.6388C87.1626 33.4492 86.5627 33.3531 85.8051 33.3531H82.2655V42.4674Z" fill="white"/>
<path d="M94.1825 40.057V40.4855C94.1825 41.2544 94.3221 41.7764 94.6013 42.0544C94.8806 42.3323 95.4054 42.4699 96.1759 42.4699H97.6342C98.2392 42.4699 98.6865 42.4128 98.9761 42.3011C99.2657 42.1868 99.4596 41.9894 99.5553 41.7037C99.6199 41.4777 99.7104 41.3037 99.8268 41.1868C99.9431 41.0673 100.119 41.0076 100.357 41.0076C100.595 41.0076 100.796 41.0725 100.926 41.205C101.055 41.3349 101.096 41.5271 101.05 41.7764C100.92 42.5141 100.569 43.0673 100 43.4284C99.4312 43.792 98.6426 43.9738 97.6342 43.9738H96.1759C94.9969 43.9738 94.1204 43.6881 93.5464 43.1167C92.975 42.5453 92.688 41.6699 92.688 40.4907V38.418C92.688 37.2076 92.975 36.3193 93.5464 35.7505C94.1178 35.1816 94.9943 34.9037 96.1759 34.9141H97.6342C98.821 34.9141 99.6975 35.1998 100.266 35.766C100.835 36.3349 101.12 37.218 101.12 38.4154V39.3089C101.12 39.8102 100.871 40.0596 100.372 40.0596H94.1825V40.057ZM96.1759 36.4128C95.4054 36.3998 94.8806 36.5349 94.6013 36.8154C94.3221 37.0959 94.1825 37.6284 94.1825 38.4154V38.5583H99.6251V38.4154C99.6251 37.6362 99.4881 37.1063 99.2114 36.8284C98.9348 36.5505 98.4099 36.4128 97.6316 36.4128H96.1733H96.1759Z" fill="white"/>
<path d="M113.784 34.9089C114.903 34.9089 115.71 35.1739 116.199 35.7037C116.687 36.2336 116.933 37.1115 116.933 38.3401V43.218C116.933 43.7193 116.685 43.9687 116.186 43.9687C115.687 43.9687 115.439 43.7193 115.439 43.218V38.3401C115.439 37.6622 115.309 37.1687 115.051 36.8648C114.792 36.5609 114.371 36.4102 113.784 36.4102H113.055C112.38 36.4102 111.896 36.5609 111.604 36.8648C111.315 37.1687 111.17 37.6596 111.17 38.3401V43.218C111.17 43.7193 110.922 43.9687 110.423 43.9687C109.923 43.9687 109.675 43.7193 109.675 43.218V38.3401C109.675 37.6622 109.546 37.1687 109.287 36.8648C109.029 36.5609 108.607 36.4102 108.02 36.4102H107.291C106.617 36.4102 106.133 36.5609 105.841 36.8648C105.551 37.1687 105.404 37.6596 105.404 38.3401V43.218C105.404 43.7193 105.156 43.9687 104.657 43.9687C104.158 43.9687 103.909 43.7193 103.909 43.218V35.6596C103.909 35.1583 104.158 34.9089 104.657 34.9089C105.156 34.9089 105.404 35.1583 105.404 35.6596V36.07C105.719 35.6596 106.063 35.3635 106.441 35.1817C106.818 34.9998 107.266 34.9089 107.788 34.9089H108.018C108.752 34.9089 109.331 35.0128 109.753 35.218C110.174 35.4232 110.495 35.7557 110.712 36.2154C111.028 35.7453 111.361 35.4102 111.713 35.2102C112.064 35.0102 112.512 34.9115 113.052 34.9115H113.781L113.784 34.9089Z" fill="white"/>
<path d="M122.394 43.9687C121.398 43.9687 120.656 43.7245 120.17 43.2362C119.684 42.7479 119.441 42.0024 119.441 41.0024C119.441 40.0024 119.681 39.257 120.165 38.7687C120.649 38.2804 121.391 38.0362 122.394 38.0362H126.156C126.12 37.4102 125.957 36.9843 125.667 36.7531C125.378 36.5245 124.879 36.4102 124.173 36.4102H123.141C122.549 36.4102 122.107 36.4492 121.815 36.5297C121.525 36.6102 121.321 36.7557 121.202 36.9635C121.096 37.2128 120.985 37.3869 120.873 37.483C120.762 37.5791 120.592 37.6258 120.367 37.6258C120.118 37.6258 119.922 37.5557 119.78 37.4154C119.638 37.2752 119.596 37.0882 119.656 36.857C119.834 36.1843 120.206 35.6908 120.773 35.3791C121.339 35.0674 122.13 34.9089 123.144 34.9089H124.175C125.362 34.9089 126.239 35.1947 126.807 35.7661C127.376 36.3375 127.661 37.2206 127.661 38.4102V43.218C127.661 43.7193 127.412 43.9687 126.913 43.9687C126.414 43.9687 126.166 43.7193 126.166 43.218V42.8154C125.53 43.5843 124.607 43.9687 123.392 43.9687H122.396H122.394ZM122.394 42.4674H123.389C123.829 42.4674 124.24 42.4284 124.625 42.3479C125.01 42.2674 125.341 42.1193 125.618 41.9063C125.892 41.6908 126.076 41.3843 126.166 40.9869V39.5401H122.396C121.809 39.5401 121.419 39.6388 121.225 39.8336C121.034 40.031 120.936 40.4206 120.936 41.005C120.936 41.5895 121.031 41.9869 121.225 42.1791C121.419 42.3739 121.807 42.47 122.396 42.47L122.394 42.4674Z" fill="white"/>
<path d="M131.446 43.9687C130.949 43.9687 130.699 43.7193 130.699 43.218V35.6596C130.699 35.1583 130.947 34.9089 131.446 34.9089C131.945 34.9089 132.193 35.1583 132.193 35.6596V35.9557C132.821 35.2596 133.747 34.9115 134.967 34.9115H135.466C136.653 34.9115 137.53 35.1973 138.099 35.7687C138.667 36.3401 138.952 37.2232 138.952 38.4128V43.2206C138.952 43.7219 138.704 43.9713 138.205 43.9713C137.706 43.9713 137.457 43.7219 137.457 43.2206V38.4128C137.457 37.6336 137.315 37.1037 137.036 36.8258C136.754 36.5479 136.232 36.4102 135.466 36.4102H134.967C134.256 36.4102 133.636 36.4934 133.108 36.657C132.581 36.8206 132.276 37.0778 132.193 37.431V43.2206C132.193 43.7219 131.945 43.9713 131.446 43.9713V43.9687Z" fill="white"/>
<path d="M145.054 43.9687C143.875 43.9687 142.998 43.6804 142.424 43.1064C141.853 42.5324 141.566 41.6518 141.566 40.4674V38.4129C141.566 37.2207 141.853 36.3401 142.424 35.7687C142.996 35.1973 143.872 34.9116 145.054 34.9116H148.503V32.1427C148.503 31.6414 148.751 31.3921 149.25 31.3921C149.749 31.3921 149.997 31.6414 149.997 32.1427V43.2207C149.997 43.722 149.749 43.9713 149.25 43.9713C148.751 43.9713 148.503 43.722 148.503 43.2207V43.096C148.224 43.3817 147.859 43.5999 147.409 43.7479C146.959 43.896 146.398 43.9713 145.729 43.9713H145.054V43.9687ZM145.054 42.4674H145.729C146.512 42.4674 147.169 42.3661 147.704 42.1635C148.239 41.9609 148.505 41.6518 148.505 41.2336V36.4103H145.056C144.286 36.4103 143.761 36.5505 143.482 36.8336C143.202 37.1168 143.063 37.6414 143.063 38.4103V40.4648C143.063 41.2388 143.205 41.7661 143.484 42.0466C143.766 42.3272 144.288 42.4674 145.054 42.4674Z" fill="white"/>
<path d="M63.551 63.1427C63.8122 62.8804 63.8199 62.4518 63.5562 62.1895L53.1337 51.7168C52.8726 51.4544 52.4356 51.4544 52.1848 51.7168C51.9237 51.9791 51.9159 52.4077 52.1796 52.67L62.6021 63.1427C62.734 63.2752 62.9072 63.3401 63.0804 63.3401C63.2537 63.3401 63.4269 63.2752 63.5536 63.1427H63.551Z" fill="#C5C6C8"/>
<path d="M55.9287 69.0208C56.2494 68.8338 56.3579 68.4208 56.1744 68.0988L48.8003 55.2702C48.6064 54.9455 48.1927 54.8364 47.8824 55.0234C47.5618 55.2104 47.4532 55.6234 47.6368 55.9455L55.0109 68.7741C55.1376 68.9897 55.3625 69.1117 55.5926 69.1117C55.709 69.1117 55.8227 69.0832 55.9287 69.0208Z" fill="#C5C6C8"/>
<path d="M47.0473 72.7143C47.4041 72.6182 47.6187 72.2468 47.5256 71.8884L43.7093 57.5819C43.6084 57.2208 43.2206 57.0026 42.8845 57.1039C42.5277 57.2 42.313 57.5715 42.4061 57.9299L46.2225 72.2364C46.3052 72.5403 46.5741 72.7377 46.874 72.7377C46.9309 72.7377 46.9904 72.7299 47.0473 72.7143Z" fill="#C5C6C8"/>
<path d="M38.1891 73.2987V58.4883C38.1891 58.1169 37.8892 57.813 37.5169 57.813C37.1445 57.813 36.8446 58.1169 36.8446 58.4883V73.2987C36.8446 73.6701 37.1445 73.974 37.5169 73.974C37.8892 73.974 38.1891 73.6701 38.1891 73.2987Z" fill="#C5C6C8"/>
<path d="M28.8138 72.2363L32.6301 57.9298C32.7258 57.5713 32.5086 57.1999 32.1518 57.1038C31.7949 57.0129 31.4278 57.2207 31.327 57.5817L27.5106 71.8882C27.415 72.2467 27.6322 72.6181 27.989 72.7142C28.0459 72.7298 28.1053 72.7376 28.1622 72.7376C28.4621 72.7376 28.7284 72.5402 28.8138 72.2363Z" fill="#C5C6C8"/>
<path d="M20.0279 68.774L27.3968 55.9454C27.5804 55.6208 27.4692 55.2104 27.1512 55.0233C26.8331 54.8363 26.4169 54.948 26.2333 55.2701L18.8644 68.0987C18.6808 68.4233 18.792 68.8337 19.11 69.0208C19.216 69.0805 19.3298 69.1117 19.4461 69.1117C19.6762 69.1117 19.9038 68.9896 20.0279 68.774Z" fill="#C5C6C8"/>
<path d="M12.4392 63.1427L22.8617 52.67C23.1229 52.4077 23.1177 51.9791 22.8566 51.7168C22.6058 51.4544 22.1688 51.4544 21.9076 51.7168L11.4852 62.1895C11.224 62.4518 11.2292 62.8804 11.4903 63.1427C11.617 63.2752 11.7903 63.3401 11.9635 63.3401C12.1367 63.3401 12.31 63.2752 12.4418 63.1427H12.4392Z" fill="#C5C6C8"/>
<path d="M6.54929 55.7298L19.3195 48.3246C19.6401 48.1376 19.7487 47.7246 19.5651 47.4025C19.3764 47.0778 18.9575 46.9687 18.6472 47.1558L5.87704 54.5609C5.55642 54.748 5.44783 55.1609 5.63141 55.483C5.7581 55.6986 5.98305 55.8207 6.21316 55.8207C6.32951 55.8207 6.44328 55.7921 6.54929 55.7298Z" fill="#C5C6C8"/>
<path d="M37.5169 16.161C37.1445 16.161 36.8446 15.8571 36.8446 15.4857V0.675325C36.8446 0.303896 37.1445 0 37.5169 0C37.8892 0 38.1891 0.303896 38.1891 0.675325V15.4857C38.1891 15.8571 37.8892 16.161 37.5169 16.161Z" fill="#C5C6C8"/>
<path d="M43.7093 16.3922L47.5256 2.08568C47.6213 1.72723 47.4041 1.35581 47.0473 1.2597C46.6853 1.1636 46.3233 1.37918 46.2225 1.73762L42.4061 16.0441C42.3105 16.4026 42.5277 16.774 42.8845 16.8701C42.9414 16.8857 43.0008 16.8935 43.0577 16.8935C43.3576 16.8935 43.624 16.6961 43.7093 16.3922Z" fill="#C5C6C8"/>
<path d="M48.8003 18.7039L56.1744 5.87533C56.358 5.55325 56.2468 5.14026 55.9288 4.95325C55.6082 4.77143 55.1997 4.87533 55.0109 5.2L47.6368 18.0286C47.4532 18.3507 47.5644 18.7636 47.8825 18.9507C47.9885 19.0104 48.1022 19.0416 48.2186 19.0416C48.4487 19.0416 48.6762 18.9195 48.8003 18.7039Z" fill="#C5C6C8"/>
<path d="M53.1311 22.2597L63.5536 11.787C63.8148 11.5246 63.8096 11.0961 63.5484 10.8337C63.2976 10.5714 62.8607 10.5714 62.5995 10.8337L52.1771 21.3064C51.9159 21.5688 51.9211 21.9974 52.1822 22.2597C52.3089 22.3922 52.4822 22.4571 52.6554 22.4571C52.8286 22.4571 53.0019 22.3922 53.1337 22.2597H53.1311Z" fill="#C5C6C8"/>
<path d="M56.3916 26.8208L69.1618 19.4156C69.4824 19.2286 69.591 18.8156 69.4074 18.4936C69.2135 18.1689 68.805 18.0598 68.4895 18.2468L55.7193 25.652C55.3987 25.839 55.2901 26.252 55.4737 26.5741C55.6004 26.7897 55.8253 26.9118 56.0554 26.9118C56.1718 26.9118 56.2856 26.8832 56.3916 26.8208Z" fill="#C5C6C8"/>
<path d="M2.77695 47.0364L17.0158 43.2026C17.3726 43.1065 17.5872 42.7351 17.4941 42.3767C17.3933 42.013 17.0054 41.7948 16.6693 41.8987L2.43048 45.7325C2.07367 45.8286 1.85907 46.2 1.95215 46.5585C2.03489 46.8624 2.30379 47.0598 2.60372 47.0598C2.6606 47.0598 2.72007 47.052 2.77695 47.0364Z" fill="#C5C6C8"/>
<path d="M16.7908 36.9871C16.7908 36.6157 16.4909 36.3118 16.1185 36.3118H1.37037C0.998048 36.3118 0.69812 36.6157 0.69812 36.9871C0.69812 37.3585 0.998048 37.6624 1.37037 37.6624H16.1185C16.4909 37.6624 16.7908 37.3585 16.7908 36.9871Z" fill="#C5C6C8"/>
<path d="M17.4941 31.5949C17.5898 31.2364 17.3726 30.865 17.0158 30.7689L2.77697 26.9351C2.4305 26.8442 2.05818 27.052 1.95217 27.413C1.8565 27.7715 2.07369 28.1429 2.4305 28.239L16.6693 32.0728C16.7262 32.0884 16.7857 32.0962 16.8425 32.0962C17.1425 32.0962 17.4088 31.8988 17.4941 31.5949Z" fill="#C5C6C8"/>
<path d="M19.5677 26.574C19.7513 26.2519 19.6401 25.8389 19.3221 25.6519L6.5519 18.2467C6.23129 18.0597 5.82277 18.1714 5.63402 18.4935C5.45044 18.8156 5.56162 19.2286 5.87965 19.4156L18.6498 26.8208C18.7558 26.8805 18.8696 26.9117 18.986 26.9117C19.2161 26.9117 19.4436 26.7896 19.5677 26.574Z" fill="#C5C6C8"/>
<path d="M22.8566 22.2597C23.1177 21.9974 23.1255 21.5688 22.8617 21.3064L12.4392 10.8337C12.1781 10.5714 11.7411 10.5714 11.4903 10.8337C11.2292 11.0961 11.2214 11.5246 11.4852 11.787L21.9077 22.2597C22.0395 22.3922 22.2127 22.4571 22.386 22.4571C22.5592 22.4571 22.7325 22.3922 22.8591 22.2597H22.8566Z" fill="#C5C6C8"/>
<path d="M27.1512 18.9532C27.4718 18.7662 27.5804 18.3558 27.3969 18.0311L20.028 5.20253C19.834 4.87525 19.4255 4.77396 19.1101 4.95577C18.7895 5.14279 18.6809 5.55318 18.8644 5.87785L26.2333 18.7064C26.36 18.922 26.585 19.0441 26.8151 19.0441C26.9315 19.0441 27.0452 19.0155 27.1512 18.9532Z" fill="#C5C6C8"/>
<path d="M32.1517 16.8701C32.5086 16.774 32.7232 16.4026 32.6301 16.0442L28.8138 1.73768C28.7129 1.37404 28.3303 1.15326 27.989 1.25975C27.6321 1.35586 27.4175 1.72729 27.5106 2.08573L31.3269 16.3922C31.4097 16.6961 31.6786 16.8935 31.9785 16.8935C32.0354 16.8935 32.0949 16.8857 32.1517 16.8701Z" fill="#C5C6C8"/>
<path d="M43.0603 17.2181C42.9776 17.2181 42.8871 17.2077 42.8043 17.1844C42.2743 17.0415 41.9588 16.4935 42.101 15.961L44.0738 8.55319C44.216 8.02332 44.7564 7.69605 45.2916 7.8467C45.8217 7.98956 46.1371 8.53761 45.9949 9.07008L44.0221 16.4779C43.9006 16.9246 43.5024 17.2181 43.0629 17.2181H43.0603ZM49.0795 18.8649L52.0555 13.6883C52.3296 13.2103 52.1667 12.6025 51.6935 12.3246C51.2152 12.0441 50.6076 12.2129 50.3335 12.6909L47.3575 17.8675C47.0835 18.3454 47.2463 18.9532 47.7195 19.2311C47.8772 19.3246 48.0505 19.3662 48.2185 19.3662C48.5598 19.3662 48.896 19.187 49.0795 18.8649ZM53.2785 22.4129L56.5286 19.1506C56.8751 18.8025 56.8751 18.2389 56.5338 17.8909C56.1873 17.5428 55.6262 17.5428 55.2798 17.8909L52.0297 21.1532C51.6832 21.5012 51.6832 22.0649 52.0245 22.4129C52.1977 22.587 52.4279 22.6727 52.6554 22.6727C52.8829 22.6727 53.1079 22.587 53.2811 22.4129H53.2785ZM56.4691 26.961L59.4658 25.2233C59.864 24.9922 60.001 24.4805 59.7709 24.0805C59.546 23.6831 59.0366 23.5402 58.6384 23.774L55.6417 25.5116C55.2436 25.7428 55.1065 26.2545 55.3366 26.6545C55.4892 26.9246 55.7658 27.0701 56.0554 27.0701C56.1976 27.0701 56.3398 27.0363 56.4691 26.9584V26.961ZM64.3888 63.9818C65.1127 63.2545 65.1127 62.0727 64.3888 61.3454L53.9663 50.8727C53.2423 50.1454 52.0659 50.1454 51.3419 50.8727C50.618 51.6 50.618 52.7818 51.3419 53.509L61.7644 63.9818C62.1264 64.3454 62.6047 64.5272 63.0753 64.5272C63.5459 64.5272 64.0242 64.3454 64.3862 63.9818H64.3888ZM56.495 70C57.356 69.5013 57.6507 68.3948 57.1517 67.5298L49.7776 54.7013C49.2786 53.8285 48.1616 53.535 47.3162 54.0389C46.4552 54.5376 46.1604 55.6441 46.6594 56.509L54.0335 69.3376C54.3645 69.9168 54.9721 70.2415 55.5926 70.2415C55.9029 70.2415 56.2131 70.1662 56.495 70ZM47.3265 73.7558C48.2599 73.5064 48.8106 72.5428 48.5598 71.6077L44.7435 57.3013C44.503 56.3688 43.5671 55.8207 42.6078 56.0597C41.6744 56.309 41.1237 57.2727 41.3745 58.2077L45.1908 72.5142C45.3951 73.2987 46.1035 73.8155 46.8766 73.8155C47.024 73.8155 47.1765 73.7948 47.3291 73.7558H47.3265ZM39.2129 73.2961V58.4857C39.2129 57.548 38.4528 56.7844 37.5168 56.7844C36.5808 56.7844 35.8207 57.5454 35.8207 58.4857V73.2961C35.8207 74.2337 36.5808 74.9974 37.5168 74.9974C38.4528 74.9974 39.2129 74.2363 39.2129 73.2961ZM29.7497 72.4857L33.566 58.1792C33.7962 57.2987 33.2764 56.3974 32.4051 56.1636C31.5389 55.9298 30.6366 56.4493 30.3961 57.3272L26.5798 71.6337C26.3497 72.5142 26.8694 73.4155 27.7407 73.6493C27.8829 73.6883 28.0251 73.7064 28.1647 73.7064C28.8887 73.7064 29.5506 73.2207 29.7497 72.4857ZM20.8217 69.2259L28.1906 56.3974C28.625 55.6363 28.3638 54.6597 27.6088 54.2233C26.8487 53.787 25.8817 54.0389 25.4421 54.8051L18.0732 67.6337C17.6388 68.3948 17.9 69.3714 18.655 69.8077C18.9058 69.9532 19.1747 70.0207 19.4488 70.0207C19.9943 70.0207 20.5295 69.735 20.8243 69.2233L20.8217 69.2259ZM13.0443 63.748L23.4667 53.2753C24.064 52.6753 24.064 51.6987 23.4667 51.0987C22.8695 50.4987 21.9025 50.4987 21.3052 51.0987L10.8827 61.5714C10.2854 62.1714 10.2854 63.148 10.8827 63.748C11.1826 64.0493 11.5705 64.2 11.9635 64.2C12.3565 64.2 12.7443 64.0493 13.0443 63.748ZM6.95522 56.4233L19.7254 49.0181C20.4287 48.6077 20.6743 47.7012 20.2658 46.987C19.8573 46.2753 18.9549 46.0363 18.2439 46.4441L5.47368 53.8493C4.7704 54.2597 4.52477 55.1662 4.93329 55.8805C5.20736 56.3558 5.70379 56.6207 6.21315 56.6207C6.46396 56.6207 6.71734 56.5584 6.95263 56.4233H6.95522ZM2.97083 47.761L17.2096 43.9272C17.9698 43.7246 18.4223 42.9376 18.218 42.1766C18.0138 41.4129 17.2148 40.948 16.4753 41.1636L2.23653 44.9974C1.47637 45.2 1.02389 45.987 1.22815 46.748C1.39621 47.3896 1.9728 47.8103 2.60368 47.8103C2.7252 47.8103 2.84931 47.7948 2.97083 47.761ZM17.4889 36.9818C17.4889 36.2233 16.8735 35.6051 16.1185 35.6051H1.37036C0.615369 35.6051 0 36.2233 0 36.9818C0 37.7402 0.615369 38.3584 1.37036 38.3584H16.1185C16.8735 38.3584 17.4889 37.7402 17.4889 36.9818ZM18.1146 31.7584C18.3033 31.0519 17.8896 30.3272 17.1864 30.1376L2.94756 26.3038C2.20809 26.1194 1.52032 26.5376 1.33675 27.2389C1.148 27.9454 1.56169 28.6701 2.26497 28.8597L16.5038 32.6935C16.6201 32.722 16.7339 32.7376 16.8451 32.7376C17.4268 32.7376 17.9569 32.348 18.1146 31.7558V31.7584ZM20.077 26.8649C20.4287 26.2571 20.2193 25.4805 19.6142 25.1298L6.84145 17.7272C6.23384 17.374 5.46075 17.5818 5.11945 18.1922C4.76781 18.7999 4.97725 19.5766 5.58227 19.9272L18.355 27.3298C18.5541 27.4467 18.7687 27.4986 18.9859 27.4986C19.4203 27.4986 19.8469 27.2727 20.077 26.8649ZM23.2418 22.6363C23.715 22.161 23.715 21.3922 23.2418 20.9168L13.4735 11.1012C13.0003 10.6259 12.235 10.6259 11.7618 11.1012C11.2887 11.5766 11.2887 12.3454 11.7618 12.8207L21.5301 22.6363C21.7654 22.8727 22.0757 22.9922 22.386 22.9922C22.6962 22.9922 23.0065 22.8727 23.2418 22.6363ZM27.3942 19.3636C27.945 19.0441 28.1337 18.3324 27.8183 17.7792L21.5043 6.79215C21.1785 6.23631 20.4701 6.0467 19.9245 6.36878C19.3738 6.68826 19.185 7.39995 19.5005 7.95319L25.8145 18.9402C26.0291 19.3116 26.4169 19.5194 26.8177 19.5194C27.0168 19.5194 27.2107 19.4701 27.3942 19.3636ZM32.2655 17.2805C32.8524 17.122 33.204 16.5142 33.0463 15.922L30.1867 5.18956C30.029 4.59994 29.4265 4.25709 28.837 4.40774C28.2501 4.56618 27.8984 5.17397 28.0562 5.76618L30.9158 16.4986C31.0477 16.9922 31.4924 17.3194 31.9811 17.3194C32.0767 17.3194 32.1698 17.3064 32.2655 17.2831V17.2805ZM38.5691 15.4779V6.06228C38.5691 5.48046 38.096 5.01033 37.5194 5.01033C36.9428 5.01033 36.4696 5.48046 36.4696 6.06228V15.4857C36.4696 16.0675 36.9428 16.5376 37.5194 16.5376C38.096 16.5376 38.5691 16.0675 38.5691 15.4857V15.4779Z" fill="url(#paint0_linear_1_7000)"/>
<path d="M80.7839 53.8259C80.6701 53.8259 80.6158 53.7687 80.6158 53.6571V49.8778C80.6158 49.7661 80.6727 49.709 80.7839 49.709C80.8951 49.709 80.9494 49.7661 80.9494 49.8778V51.7142L82.8394 49.7687C82.917 49.6908 82.992 49.6882 83.0721 49.7661C83.1549 49.8441 83.1575 49.922 83.0773 50.0051L81.6527 51.4726L83.3281 53.5609C83.3979 53.6493 83.3902 53.7272 83.3048 53.7973C83.2169 53.8674 83.1394 53.8596 83.0721 53.7739L81.4174 51.7142L80.9468 52.1973V53.6571C80.9468 53.7687 80.8925 53.8259 80.7813 53.8259H80.7839Z" fill="white"/>
<path d="M84.1606 53.826C84.0494 53.826 83.9926 53.7689 83.9926 53.6572V50.9741C83.9926 50.8624 84.0494 50.8079 84.1606 50.8079C84.2718 50.8079 84.3261 50.8624 84.3261 50.9741V51.2806C84.5278 50.9663 84.8923 50.8079 85.4198 50.8079H85.5982C85.9938 50.8079 86.2834 50.8988 86.467 51.0832C86.6505 51.2676 86.741 51.5585 86.741 51.9559V53.6546C86.741 53.7663 86.6867 53.8234 86.5755 53.8234C86.4644 53.8234 86.4075 53.7663 86.4075 53.6546V51.9559C86.4075 51.652 86.348 51.439 86.2291 51.3195C86.1101 51.2001 85.8981 51.1403 85.5982 51.1403H85.4198C85.0914 51.1403 84.8329 51.1923 84.6441 51.2962C84.4554 51.4001 84.3494 51.5637 84.3261 51.7845V53.6546C84.3261 53.7663 84.2718 53.8234 84.1606 53.8234V53.826Z" fill="white"/>
<path d="M88.8095 53.826C88.4139 53.826 88.1217 53.7351 87.9382 53.5507C87.7546 53.3663 87.6615 53.0754 87.6615 52.6806V51.9585C87.6615 51.5559 87.7546 51.2624 87.9382 51.078C88.1217 50.8935 88.4139 50.8026 88.8095 50.8078H89.3318C89.7274 50.8078 90.0195 50.8987 90.2005 51.0832C90.3841 51.2676 90.4746 51.5585 90.4746 51.9559V52.6702C90.4746 53.0676 90.3841 53.3611 90.2005 53.5455C90.017 53.7299 89.7274 53.8234 89.3318 53.8234H88.8095V53.826ZM87.995 52.678C87.995 52.9793 88.0545 53.1896 88.176 53.3091C88.2975 53.4286 88.507 53.4909 88.8095 53.4909H89.3318C89.6343 53.4909 89.8463 53.4312 89.9653 53.3091C90.0842 53.1896 90.1437 52.9767 90.1437 52.6728V51.9585C90.1437 51.6546 90.0842 51.4416 89.9653 51.3221C89.8463 51.2026 89.6343 51.1429 89.3318 51.1429H88.8095C88.6052 51.1429 88.4449 51.1663 88.326 51.2156C88.2071 51.2676 88.1217 51.3533 88.0726 51.4702C88.0209 51.5896 87.995 51.7507 87.995 51.9559V52.678Z" fill="white"/>
<path d="M91.9846 53.8259C91.8838 53.8259 91.8191 53.7791 91.7907 53.6882L90.8935 51.0337C90.8573 50.9246 90.8935 50.8545 90.9995 50.8207C91.1029 50.7895 91.1727 50.8233 91.2064 50.9272L92.0777 53.4934H91.9432L92.7758 50.9765C92.8042 50.8882 92.8689 50.8415 92.9671 50.8415C93.0654 50.8415 93.1197 50.8882 93.1481 50.9791L93.9264 53.4856H93.7868L94.7021 50.9272C94.7434 50.8181 94.8158 50.7843 94.9192 50.8207C95.0253 50.8623 95.0589 50.9324 95.0201 51.0389L94.0376 53.6908C94.004 53.7817 93.9367 53.8285 93.8411 53.8285C93.7325 53.8285 93.6652 53.7817 93.6368 53.6908L92.9154 51.3687H92.9801L92.1863 53.6908C92.1682 53.7454 92.1423 53.7791 92.1061 53.7999C92.0699 53.8181 92.0286 53.8285 91.9846 53.8285V53.8259Z" fill="white"/>
<path d="M96.5275 53.8259C96.2276 53.8259 96.0052 53.7558 95.8656 53.6156C95.7234 53.4753 95.6536 53.2545 95.6536 52.9532V49.561C95.6536 49.4493 95.7104 49.3948 95.8216 49.3948C95.9328 49.3948 95.9871 49.4493 95.9871 49.561V52.9532C95.9871 53.1584 96.0259 53.3013 96.1009 53.3766C96.1758 53.4519 96.3181 53.4909 96.5249 53.4909C96.6387 53.4909 96.6981 53.5454 96.6981 53.6571C96.6981 53.7688 96.6438 53.8259 96.5301 53.8259H96.5275Z" fill="white"/>
<path d="M97.5022 52.4467V52.6805C97.5022 52.9818 97.5617 53.1922 97.6832 53.3117C97.8022 53.4311 98.0142 53.4935 98.3167 53.4935H98.839C99.1053 53.4935 99.3018 53.4597 99.4233 53.3896C99.5449 53.3194 99.6172 53.2 99.6405 53.0311C99.6483 52.9766 99.6664 52.9376 99.6922 52.9091C99.7181 52.8805 99.7595 52.8675 99.8138 52.8675C99.8681 52.8675 99.912 52.8831 99.9404 52.9143C99.9689 52.9454 99.9792 52.9896 99.9741 53.0441C99.9456 53.3117 99.8396 53.5117 99.6535 53.6389C99.4673 53.7662 99.1958 53.8311 98.839 53.8311H98.3167C97.9211 53.8311 97.6289 53.7402 97.4454 53.5558C97.2618 53.3714 97.1687 53.0805 97.1687 52.6857V51.9636C97.1687 51.561 97.2618 51.2675 97.4454 51.0831C97.6289 50.8987 97.9211 50.8078 98.3167 50.813H98.839C99.2346 50.813 99.5242 50.9039 99.7077 51.0883C99.8913 51.2727 99.9818 51.5636 99.9818 51.961V52.2805C99.9818 52.3922 99.9275 52.4493 99.8163 52.4493H97.5022V52.4467ZM98.3167 51.1428C98.0142 51.1376 97.8022 51.1974 97.6832 51.3169C97.5643 51.4363 97.5022 51.6519 97.5022 51.9584V52.1117H99.6483V51.9584C99.6483 51.6545 99.5888 51.4415 99.4699 51.322C99.3509 51.2026 99.1389 51.1428 98.8364 51.1428H98.3141H98.3167Z" fill="white"/>
<path d="M102.019 53.826C101.624 53.826 101.332 53.7325 101.148 53.5481C100.964 53.3637 100.871 53.0702 100.871 52.6728V51.9585C100.871 51.5611 100.964 51.2702 101.148 51.0858C101.332 50.9014 101.624 50.8104 102.019 50.8104H103.351V49.5637C103.351 49.452 103.408 49.3975 103.519 49.3975C103.63 49.3975 103.684 49.452 103.684 49.5637V53.6598C103.684 53.7715 103.63 53.8286 103.519 53.8286C103.408 53.8286 103.351 53.7715 103.351 53.6598V53.3845C103.26 53.5325 103.126 53.6416 102.95 53.7169C102.774 53.7923 102.544 53.8286 102.26 53.8286H102.019V53.826ZM102.019 53.491H102.26C102.591 53.491 102.854 53.439 103.054 53.3325C103.253 53.226 103.351 53.0676 103.351 52.8572V51.1403H102.019C101.717 51.1403 101.505 51.2001 101.386 51.3221C101.267 51.4442 101.205 51.6546 101.205 51.9559V52.6702C101.205 52.9741 101.264 53.1871 101.386 53.3066C101.507 53.426 101.717 53.4884 102.019 53.4884V53.491Z" fill="white"/>
<path d="M105.422 55.104C105.171 55.104 104.98 55.052 104.85 54.9481C104.719 54.8442 104.641 54.6832 104.618 54.4598C104.613 54.4053 104.623 54.3611 104.654 54.3299C104.685 54.2988 104.724 54.2832 104.778 54.2832C104.832 54.2832 104.871 54.2962 104.9 54.3247C104.928 54.3533 104.946 54.3949 104.954 54.4494C104.969 54.5715 105.013 54.6572 105.083 54.7014C105.156 54.7455 105.269 54.7689 105.424 54.7689H106.606C106.792 54.7689 106.919 54.7351 106.986 54.6676C107.053 54.6001 107.087 54.4728 107.087 54.2832V53.3689C106.989 53.517 106.852 53.6312 106.673 53.7092C106.495 53.7871 106.27 53.826 105.996 53.826H105.753C105.357 53.826 105.065 53.7351 104.882 53.5507C104.698 53.3663 104.605 53.0754 104.605 52.6806V51.9585C104.605 51.5559 104.695 51.265 104.879 51.0806C105.063 50.8962 105.352 50.8079 105.753 50.8079H106.275C106.482 50.8079 106.653 50.8364 106.782 50.891C106.911 50.9455 107.012 51.0338 107.087 51.1507V50.9741C107.087 50.8624 107.144 50.8079 107.255 50.8079C107.366 50.8079 107.421 50.8624 107.421 50.9741V54.2832C107.421 54.5637 107.356 54.7715 107.224 54.904C107.092 55.0364 106.888 55.104 106.606 55.104H105.424H105.422ZM105.753 53.491H105.996C106.327 53.491 106.591 53.439 106.79 53.3351C106.989 53.2312 107.087 53.0728 107.087 52.8598V51.7923C107.087 51.5507 107.02 51.3845 106.888 51.2884C106.753 51.1923 106.552 51.1455 106.278 51.1455H105.755C105.453 51.1455 105.241 51.2053 105.122 51.3221C105.003 51.439 104.941 51.652 104.941 51.9585V52.6806C104.941 52.9819 105 53.1923 105.122 53.3118C105.243 53.4312 105.453 53.4936 105.755 53.4936L105.753 53.491Z" fill="white"/>
<path d="M108.675 52.4467V52.6805C108.675 52.9818 108.734 53.1922 108.853 53.3117C108.972 53.4311 109.184 53.4935 109.487 53.4935H110.009C110.275 53.4935 110.472 53.4597 110.593 53.3896C110.715 53.3194 110.787 53.2 110.81 53.0311C110.818 52.9766 110.836 52.9376 110.862 52.9091C110.888 52.8805 110.929 52.8675 110.984 52.8675C111.038 52.8675 111.082 52.8831 111.11 52.9143C111.139 52.9454 111.149 52.9896 111.144 53.0441C111.115 53.3117 111.009 53.5117 110.823 53.6389C110.637 53.7662 110.366 53.8311 110.009 53.8311H109.487C109.091 53.8311 108.799 53.7402 108.615 53.5558C108.432 53.3714 108.339 53.0805 108.339 52.6857V51.9636C108.339 51.561 108.432 51.2675 108.615 51.0831C108.799 50.8987 109.091 50.8078 109.487 50.813H110.009C110.404 50.813 110.697 50.9039 110.878 51.0883C111.061 51.2727 111.152 51.5636 111.152 51.961V52.2805C111.152 52.3922 111.097 52.4493 110.986 52.4493H108.672L108.675 52.4467ZM109.489 51.1428C109.187 51.1376 108.975 51.1974 108.856 51.3169C108.737 51.4363 108.677 51.6519 108.677 51.9584V52.1117H110.823V51.9584C110.823 51.6545 110.764 51.4415 110.645 51.322C110.526 51.2026 110.314 51.1428 110.011 51.1428H109.489Z" fill="white"/>
<path d="M114.492 53.8259C114.161 53.8259 113.918 53.7479 113.766 53.5947C113.613 53.4415 113.535 53.1973 113.535 52.8648C113.535 52.5324 113.613 52.2882 113.768 52.1324C113.923 51.9765 114.164 51.8986 114.492 51.8986H115.94C115.935 51.6181 115.873 51.4207 115.751 51.309C115.63 51.1973 115.423 51.1402 115.131 51.1402H114.761C114.492 51.1402 114.296 51.1687 114.169 51.2259C114.045 51.283 113.967 51.3817 113.936 51.5194C113.921 51.5713 113.903 51.6103 113.877 51.6363C113.853 51.6596 113.815 51.6726 113.76 51.6726C113.706 51.6726 113.662 51.657 113.631 51.6259C113.6 51.5947 113.59 51.5531 113.597 51.4986C113.626 51.2544 113.734 51.0778 113.926 50.9687C114.117 50.857 114.394 50.8025 114.758 50.8025H115.128C115.524 50.8025 115.813 50.8934 115.997 51.0778C116.18 51.2622 116.271 51.5531 116.271 51.9505V53.6492C116.271 53.7609 116.217 53.8181 116.105 53.8181C115.994 53.8181 115.937 53.7609 115.937 53.6492V53.3324C115.733 53.657 115.371 53.8181 114.846 53.8181H114.489L114.492 53.8259ZM114.492 53.4908H114.849C115.053 53.4908 115.234 53.4674 115.392 53.4233C115.547 53.3765 115.674 53.3038 115.769 53.2025C115.865 53.1012 115.922 52.9635 115.943 52.7947V52.2389H114.495C114.259 52.2389 114.096 52.283 114.006 52.3739C113.915 52.4648 113.872 52.6285 113.872 52.8674C113.872 53.1064 113.915 53.2674 114.006 53.3583C114.096 53.4492 114.259 53.4934 114.495 53.4934L114.492 53.4908Z" fill="white"/>
<path d="M117.447 53.826C117.336 53.826 117.279 53.7689 117.279 53.6572V50.9741C117.279 50.8624 117.336 50.8079 117.447 50.8079C117.559 50.8079 117.613 50.8624 117.613 50.9741V51.2806C117.815 50.9663 118.179 50.8079 118.707 50.8079H118.885C119.281 50.8079 119.57 50.8988 119.754 51.0832C119.937 51.2676 120.028 51.5585 120.028 51.9559V53.6546C120.028 53.7663 119.974 53.8234 119.862 53.8234C119.751 53.8234 119.694 53.7663 119.694 53.6546V51.9559C119.694 51.652 119.635 51.439 119.516 51.3195C119.397 51.2001 119.185 51.1403 118.885 51.1403H118.707C118.378 51.1403 118.12 51.1923 117.931 51.2962C117.742 51.4001 117.636 51.5637 117.613 51.7845V53.6546C117.613 53.7663 117.559 53.8234 117.447 53.8234V53.826Z" fill="white"/>
<path d="M122.096 53.826C121.701 53.826 121.409 53.7325 121.225 53.5481C121.041 53.3637 120.948 53.0702 120.948 52.6728V51.9585C120.948 51.5611 121.041 51.2702 121.225 51.0858C121.409 50.9014 121.701 50.8104 122.096 50.8104H123.428V49.5637C123.428 49.452 123.485 49.3975 123.596 49.3975C123.707 49.3975 123.761 49.452 123.761 49.5637V53.6598C123.761 53.7715 123.707 53.8286 123.596 53.8286C123.485 53.8286 123.428 53.7715 123.428 53.6598V53.3845C123.337 53.5325 123.203 53.6416 123.027 53.7169C122.851 53.7923 122.621 53.8286 122.337 53.8286H122.096V53.826ZM122.096 53.491H122.337C122.668 53.491 122.932 53.439 123.131 53.3325C123.33 53.226 123.428 53.0676 123.428 52.8572V51.1403H122.096C121.794 51.1403 121.582 51.2001 121.463 51.3221C121.344 51.4442 121.282 51.6546 121.282 51.9559V52.6702C121.282 52.9741 121.341 53.1871 121.463 53.3066C121.584 53.426 121.794 53.4884 122.096 53.4884V53.491Z" fill="white"/>
<path d="M126.895 53.8207C126.634 53.8207 126.435 53.7636 126.298 53.6519C126.161 53.5402 126.078 53.3688 126.05 53.1376C126.045 53.0831 126.055 53.0389 126.086 53.0078C126.117 52.9766 126.158 52.961 126.215 52.961C126.267 52.961 126.308 52.974 126.334 53.0026C126.36 53.0311 126.378 53.0727 126.386 53.1272C126.404 53.2597 126.453 53.3506 126.531 53.4026C126.608 53.4545 126.73 53.4805 126.895 53.4805H127.937C128.134 53.4805 128.271 53.4441 128.343 53.3688C128.418 53.2935 128.454 53.1584 128.454 52.961C128.454 52.7636 128.418 52.6233 128.343 52.548C128.268 52.4727 128.134 52.4363 127.937 52.4363H126.906C126.629 52.4363 126.425 52.3688 126.29 52.2363C126.156 52.1039 126.089 51.8987 126.089 51.6207C126.089 51.3428 126.156 51.1298 126.288 50.9974C126.422 50.8649 126.626 50.7974 126.906 50.7974H127.904C128.382 50.7974 128.648 51.0103 128.703 51.4363C128.71 51.4909 128.7 51.535 128.669 51.5662C128.638 51.5974 128.597 51.6129 128.54 51.6129C128.483 51.6129 128.447 51.6 128.421 51.5714C128.395 51.5428 128.377 51.5039 128.366 51.4493C128.351 51.3298 128.31 51.2467 128.237 51.2026C128.165 51.1584 128.056 51.135 127.904 51.135H126.906C126.722 51.135 126.595 51.1688 126.525 51.2363C126.456 51.3039 126.422 51.4337 126.422 51.6233C126.422 51.8129 126.458 51.9298 126.528 52C126.598 52.0701 126.725 52.1039 126.906 52.1039H127.937C128.229 52.1039 128.444 52.174 128.584 52.3142C128.721 52.4545 128.79 52.6701 128.79 52.9636C128.79 53.2571 128.721 53.4701 128.584 53.6103C128.447 53.7506 128.229 53.8207 127.937 53.8207H126.895Z" fill="white"/>
<path d="M129.91 52.4467V52.6805C129.91 52.9818 129.969 53.1922 130.091 53.3117C130.212 53.4311 130.422 53.4935 130.724 53.4935H131.247C131.513 53.4935 131.71 53.4597 131.831 53.3896C131.953 53.3194 132.025 53.2 132.048 53.0311C132.056 52.9766 132.074 52.9376 132.1 52.9091C132.126 52.8805 132.167 52.8675 132.221 52.8675C132.276 52.8675 132.32 52.8831 132.348 52.9143C132.377 52.9454 132.387 52.9896 132.382 53.0441C132.353 53.3117 132.247 53.5117 132.061 53.6389C131.875 53.7662 131.604 53.8311 131.247 53.8311H130.724C130.329 53.8311 130.037 53.7402 129.853 53.5558C129.669 53.3714 129.576 53.0805 129.576 52.6857V51.9636C129.576 51.561 129.669 51.2675 129.853 51.0831C130.037 50.8987 130.329 50.8078 130.724 50.813H131.247C131.642 50.813 131.934 50.9039 132.115 51.0883C132.299 51.2727 132.39 51.5636 132.39 51.961V52.2805C132.39 52.3922 132.335 52.4493 132.224 52.4493H129.91V52.4467ZM130.724 51.1428C130.422 51.1376 130.21 51.1974 130.091 51.3169C129.972 51.4363 129.91 51.6519 129.91 51.9584V52.1117H132.056V51.9584C132.056 51.6545 131.997 51.4415 131.878 51.322C131.759 51.2026 131.547 51.1428 131.244 51.1428H130.722H130.724Z" fill="white"/>
<path d="M133.535 53.826C133.424 53.826 133.367 53.7689 133.367 53.6572V50.9741C133.367 50.8624 133.424 50.8079 133.535 50.8079C133.646 50.8079 133.7 50.8624 133.7 50.9741V51.465C133.812 51.252 133.969 51.0884 134.179 50.9767C134.388 50.8624 134.634 50.8079 134.921 50.8079C135.032 50.8079 135.089 50.8624 135.089 50.9741C135.089 51.0858 135.032 51.1429 134.921 51.1429C134.543 51.1429 134.251 51.2286 134.042 51.4001C133.835 51.5715 133.719 51.8157 133.698 52.1325V53.6572C133.698 53.7689 133.644 53.826 133.532 53.826H133.535Z" fill="white"/>
<path d="M136.793 53.6988C136.769 53.7507 136.741 53.7845 136.707 53.8001C136.674 53.8156 136.635 53.826 136.588 53.826C136.495 53.826 136.431 53.7819 136.392 53.6962L135.213 51.0416C135.169 50.9377 135.2 50.865 135.306 50.8234C135.404 50.7819 135.477 50.8104 135.523 50.9143L136.7 53.5585H136.495L137.749 50.9091C137.773 50.8598 137.804 50.8286 137.842 50.813C137.881 50.7975 137.925 50.8001 137.972 50.8234C138.075 50.8702 138.104 50.9455 138.057 51.0468L136.795 53.6988H136.793Z" fill="white"/>
<path d="M138.794 50.2234C138.647 50.2234 138.574 50.1481 138.574 49.9974V49.852C138.574 49.7065 138.647 49.6338 138.794 49.6338H138.934C139.078 49.6338 139.151 49.7065 139.151 49.852V49.9974C139.151 50.1481 139.078 50.2234 138.934 50.2234H138.794ZM138.864 53.826C138.753 53.826 138.696 53.7689 138.696 53.6572V50.974C138.696 50.8624 138.753 50.8078 138.864 50.8078C138.975 50.8078 139.029 50.8624 139.029 50.974V53.6572C139.029 53.7689 138.975 53.826 138.864 53.826Z" fill="white"/>
<path d="M141.152 53.826C140.756 53.826 140.464 53.7325 140.281 53.5481C140.097 53.3637 140.004 53.0702 140.004 52.6728V51.9507C140.004 51.5533 140.095 51.2598 140.278 51.078C140.462 50.8961 140.754 50.8026 141.152 50.8078H141.674C141.987 50.8078 142.225 50.8598 142.388 50.9663C142.553 51.0728 142.652 51.2364 142.683 51.4624C142.69 51.5195 142.678 51.5637 142.647 51.5922C142.615 51.6208 142.572 51.6364 142.517 51.6364C142.466 51.6364 142.429 51.6234 142.403 51.5974C142.378 51.5715 142.359 51.5325 142.347 51.4805C142.323 51.3585 142.261 51.2702 142.158 51.2182C142.054 51.1663 141.894 51.1403 141.674 51.1403H141.152C140.85 51.1351 140.637 51.1922 140.519 51.3117C140.4 51.4312 140.338 51.6416 140.338 51.9481V52.6702C140.338 52.9741 140.397 53.187 140.519 53.3065C140.64 53.426 140.85 53.4883 141.152 53.4883H141.674C141.894 53.4883 142.057 53.4624 142.158 53.4104C142.259 53.3585 142.323 53.2702 142.347 53.1455C142.359 53.0935 142.378 53.0546 142.403 53.0286C142.429 53.0026 142.468 52.9896 142.517 52.9896C142.572 52.9896 142.615 53.0052 142.647 53.0364C142.678 53.0676 142.69 53.1117 142.683 53.1663C142.652 53.3922 142.553 53.5585 142.388 53.665C142.222 53.7715 141.985 53.8234 141.674 53.8234H141.152V53.826Z" fill="white"/>
<path d="M143.844 52.4467V52.6805C143.844 52.9818 143.903 53.1922 144.025 53.3117C144.146 53.4311 144.356 53.4935 144.658 53.4935H145.18C145.447 53.4935 145.643 53.4597 145.765 53.3896C145.886 53.3194 145.959 53.2 145.982 53.0311C145.99 52.9766 146.008 52.9376 146.034 52.9091C146.06 52.8805 146.101 52.8675 146.155 52.8675C146.209 52.8675 146.251 52.8831 146.282 52.9143C146.313 52.9454 146.321 52.9896 146.315 53.0441C146.287 53.3117 146.181 53.5117 145.995 53.6389C145.809 53.7662 145.537 53.8311 145.18 53.8311H144.658C144.263 53.8311 143.97 53.7402 143.787 53.5558C143.603 53.3714 143.51 53.0805 143.51 52.6857V51.9636C143.51 51.561 143.603 51.2675 143.787 51.0831C143.97 50.8987 144.263 50.8078 144.658 50.813H145.18C145.576 50.813 145.868 50.9039 146.049 51.0883C146.233 51.2727 146.323 51.5636 146.323 51.961V52.2805C146.323 52.3922 146.269 52.4493 146.158 52.4493H143.844V52.4467ZM144.658 51.1428C144.356 51.1376 144.144 51.1974 144.025 51.3169C143.906 51.4363 143.844 51.6519 143.844 51.9584V52.1117H145.99V51.9584C145.99 51.6545 145.93 51.4415 145.811 51.322C145.692 51.2026 145.48 51.1428 145.178 51.1428H144.656H144.658Z" fill="white"/>
<path d="M147.957 53.8207C147.696 53.8207 147.497 53.7636 147.36 53.6519C147.223 53.5402 147.14 53.3688 147.112 53.1376C147.107 53.0831 147.117 53.0389 147.148 53.0078C147.177 52.9766 147.22 52.961 147.277 52.961C147.329 52.961 147.37 52.974 147.396 53.0026C147.422 53.0311 147.44 53.0727 147.448 53.1272C147.466 53.2597 147.515 53.3506 147.593 53.4026C147.67 53.4545 147.792 53.4805 147.957 53.4805H148.999C149.196 53.4805 149.333 53.4441 149.405 53.3688C149.48 53.2935 149.516 53.1584 149.516 52.961C149.516 52.7636 149.48 52.6233 149.405 52.548C149.33 52.4727 149.196 52.4363 148.999 52.4363H147.968C147.691 52.4363 147.487 52.3688 147.352 52.2363C147.218 52.1039 147.151 51.8987 147.151 51.6207C147.151 51.3428 147.218 51.1298 147.35 50.9974C147.484 50.8649 147.688 50.7974 147.968 50.7974H148.966C149.444 50.7974 149.71 51.0103 149.765 51.4363C149.772 51.4909 149.762 51.535 149.731 51.5662C149.7 51.5974 149.656 51.6129 149.602 51.6129C149.547 51.6129 149.509 51.6 149.483 51.5714C149.457 51.5428 149.439 51.5039 149.426 51.4493C149.41 51.3298 149.369 51.2467 149.297 51.2026C149.224 51.1584 149.116 51.135 148.963 51.135H147.965C147.782 51.135 147.655 51.1688 147.585 51.2363C147.515 51.3039 147.482 51.4337 147.482 51.6233C147.482 51.8129 147.518 51.9298 147.588 52C147.657 52.0701 147.784 52.1039 147.965 52.1039H148.997C149.289 52.1039 149.504 52.174 149.643 52.3142C149.78 52.4545 149.85 52.6701 149.85 52.9636C149.85 53.2571 149.78 53.4701 149.643 53.6103C149.506 53.7506 149.289 53.8207 148.997 53.8207H147.955H147.957Z" fill="white"/>
<path d="M80.8356 61.6389C80.7218 61.6389 80.6675 61.5818 80.6675 61.4701V58.9558H80.4012C80.2874 58.9558 80.2332 58.8987 80.2332 58.787C80.2332 58.6753 80.29 58.6208 80.4012 58.6208H80.6675V58.3402C80.6675 57.948 80.758 57.6623 80.939 57.4805C81.12 57.2987 81.407 57.2078 81.7948 57.2078C81.9034 57.2078 81.9577 57.2623 81.9577 57.374C81.9577 57.4857 81.9034 57.5428 81.7948 57.5428C81.4975 57.5428 81.2907 57.6 81.1743 57.7169C81.058 57.8337 80.9985 58.0389 80.9985 58.3376V58.6182H81.7871C81.8983 58.6182 81.9552 58.6727 81.9552 58.7844C81.9552 58.8961 81.8983 58.9532 81.7871 58.9532H80.9985V61.4675C80.9985 61.5792 80.9442 61.6363 80.833 61.6363L80.8356 61.6389Z" fill="white"/>
<path d="M83.4471 61.639C83.0515 61.639 82.7593 61.5481 82.5757 61.3637C82.3922 61.1793 82.2991 60.8883 82.2991 60.4935V59.7715C82.2991 59.3689 82.3922 59.0754 82.5757 58.8909C82.7593 58.7065 83.0515 58.6156 83.4471 58.6208H83.9694C84.365 58.6208 84.6571 58.7117 84.8381 58.8961C85.0217 59.0806 85.1122 59.3715 85.1122 59.7689V60.4832C85.1122 60.8806 85.0217 61.1741 84.8381 61.3585C84.6545 61.5429 84.365 61.6364 83.9694 61.6364H83.4471V61.639ZM82.6326 60.4909C82.6326 60.7922 82.6921 61.0026 82.8136 61.1221C82.9351 61.2416 83.1446 61.3039 83.4471 61.3039H83.9694C84.2719 61.3039 84.4839 61.2442 84.6028 61.1221C84.7218 61.0026 84.7812 60.7896 84.7812 60.4857V59.7715C84.7812 59.4676 84.7218 59.2546 84.6028 59.1351C84.4839 59.0156 84.2719 58.9559 83.9694 58.9559H83.4471C83.2428 58.9559 83.0825 58.9793 82.9636 59.0286C82.8446 59.0806 82.7593 59.1663 82.7102 59.2832C82.6585 59.4026 82.6326 59.5637 82.6326 59.7689V60.4909Z" fill="white"/>
<path d="M86.2601 61.639C86.1489 61.639 86.092 61.5819 86.092 61.4702V58.7871C86.092 58.6754 86.1489 58.6208 86.2601 58.6208C86.3713 58.6208 86.4256 58.6754 86.4256 58.7871V59.278C86.5368 59.065 86.6945 58.9014 86.9039 58.7897C87.1133 58.6754 87.3616 58.6208 87.646 58.6208C87.7572 58.6208 87.814 58.6754 87.814 58.7871C87.814 58.8988 87.7572 58.9559 87.646 58.9559C87.2685 58.9559 86.9763 59.0416 86.7695 59.2131C86.5626 59.3845 86.4463 59.6286 86.4256 59.9455V61.4702C86.4256 61.5819 86.3713 61.639 86.2601 61.639Z" fill="white"/>
<path d="M91.059 61.639C90.6686 61.639 90.3841 61.5481 90.2032 61.3663C90.0222 61.1844 89.9317 60.8987 89.9317 60.5091V58.9533H89.5542C89.4404 58.9533 89.3861 58.8961 89.3861 58.7845C89.3861 58.6728 89.443 58.6182 89.5542 58.6182H89.9317V57.9325C89.9317 57.8208 89.986 57.7637 90.0971 57.7637C90.2083 57.7637 90.2652 57.8208 90.2652 57.9325V58.6182H91.0642C91.1753 58.6182 91.2296 58.6728 91.2296 58.7845C91.2296 58.8961 91.1753 58.9533 91.0642 58.9533H90.2652V60.5091C90.2652 60.8078 90.3221 61.013 90.4384 61.1299C90.5548 61.2442 90.7616 61.3013 91.0564 61.3013C91.1185 61.3013 91.1624 61.3143 91.1883 61.3429C91.2141 61.3715 91.227 61.413 91.227 61.4676C91.227 61.5793 91.1702 61.6364 91.0564 61.6364L91.059 61.639Z" fill="white"/>
<path d="M92.1527 61.6389C92.0415 61.6389 91.9846 61.5818 91.9846 61.4701V57.374C91.9846 57.2623 92.0415 57.2078 92.1527 57.2078C92.2639 57.2078 92.3182 57.2623 92.3182 57.374V59.0935C92.5198 58.7792 92.8844 58.6208 93.4119 58.6208H93.5903C93.9859 58.6208 94.2754 58.7117 94.459 58.8961C94.6426 59.0805 94.7331 59.3714 94.7331 59.7688V61.4675C94.7331 61.5792 94.6788 61.6363 94.5676 61.6363C94.4564 61.6363 94.3996 61.5792 94.3996 61.4675V59.7688C94.3996 59.4649 94.3401 59.2519 94.2211 59.1324C94.1022 59.013 93.8902 58.9532 93.5903 58.9532H93.4119C93.0835 58.9532 92.8249 59.0052 92.6362 59.1091C92.4474 59.213 92.3414 59.3766 92.3182 59.5974V61.4675C92.3182 61.5792 92.2639 61.6363 92.1527 61.6363V61.6389Z" fill="white"/>
<path d="M95.9871 60.2597V60.4935C95.9871 60.7948 96.0466 61.0052 96.1681 61.1246C96.2896 61.2441 96.4991 61.3065 96.8016 61.3065H97.3238C97.5902 61.3065 97.7867 61.2727 97.9082 61.2026C98.0297 61.1324 98.1021 61.013 98.1254 60.8441C98.1331 60.7896 98.1512 60.7506 98.1771 60.722C98.2029 60.6935 98.2443 60.6805 98.2986 60.6805C98.3529 60.6805 98.3969 60.6961 98.4253 60.7272C98.4538 60.7584 98.4641 60.8026 98.4589 60.8571C98.4305 61.1246 98.3245 61.3246 98.1383 61.4519C97.9521 61.5792 97.6807 61.6441 97.3238 61.6441H96.8016C96.406 61.6441 96.1138 61.5532 95.9302 61.3688C95.7466 61.1844 95.6536 60.8935 95.6536 60.4987V59.7766C95.6536 59.374 95.7466 59.0805 95.9302 58.8961C96.1138 58.7117 96.406 58.6207 96.8016 58.6259H97.3238C97.7194 58.6259 98.0116 58.7169 98.1926 58.9013C98.3762 59.0857 98.4667 59.3766 98.4667 59.774V60.0935C98.4667 60.2052 98.4124 60.2623 98.3012 60.2623H95.9871V60.2597ZM96.8016 58.9558C96.4991 58.9506 96.287 59.0104 96.1681 59.1298C96.0492 59.2493 95.9871 59.4649 95.9871 59.7714V59.9246H98.1331V59.7714C98.1331 59.4675 98.0737 59.2545 97.9547 59.135C97.8358 59.0156 97.6238 58.9558 97.3213 58.9558H96.799H96.8016Z" fill="white"/>
<path d="M100.592 61.6233C100.491 61.5791 100.46 61.5038 100.499 61.3999L102.076 57.6518C102.11 57.5635 102.172 57.522 102.265 57.522H102.283C102.371 57.522 102.43 57.5687 102.467 57.6518L104.044 61.3999C104.085 61.5038 104.057 61.5791 103.956 61.6233C103.852 61.6648 103.78 61.6363 103.739 61.535L103.315 60.5298H101.231L100.807 61.535C100.765 61.6363 100.69 61.6674 100.587 61.6233H100.592ZM101.37 60.1921H103.178L102.275 58.0518L101.373 60.1921H101.37Z" fill="white"/>
<path d="M104.863 61.639C104.812 61.639 104.77 61.6234 104.739 61.5949C104.708 61.5663 104.695 61.5247 104.695 61.4702V57.6884C104.695 57.6364 104.711 57.5949 104.739 57.5637C104.768 57.5351 104.809 57.5195 104.863 57.5195C104.918 57.5195 104.954 57.5351 104.985 57.5637C105.013 57.5949 105.029 57.6338 105.029 57.6884V61.4702C105.029 61.5221 105.013 61.5637 104.985 61.5949C104.956 61.626 104.915 61.639 104.863 61.639Z" fill="white"/>
<path d="M108.623 61.639C108.227 61.639 107.935 61.5455 107.752 61.3611C107.568 61.1767 107.475 60.8831 107.475 60.4857V59.7637C107.475 59.3663 107.565 59.0728 107.749 58.8909C107.933 58.7091 108.225 58.6156 108.623 58.6208H109.145C109.458 58.6208 109.696 58.6728 109.859 58.7793C110.024 58.8857 110.122 59.0494 110.154 59.2754C110.161 59.3325 110.148 59.3767 110.117 59.4052C110.086 59.4338 110.042 59.4494 109.988 59.4494C109.936 59.4494 109.9 59.4364 109.874 59.4104C109.848 59.3844 109.83 59.3455 109.817 59.2935C109.794 59.1715 109.732 59.0831 109.629 59.0312C109.525 58.9793 109.365 58.9533 109.145 58.9533H108.623C108.32 58.9481 108.108 59.0052 107.989 59.1247C107.87 59.2442 107.811 59.4546 107.811 59.7611V60.4831C107.811 60.787 107.87 61 107.989 61.1195C108.108 61.239 108.32 61.3013 108.623 61.3013H109.145C109.365 61.3013 109.528 61.2754 109.629 61.2234C109.729 61.1715 109.794 61.0831 109.817 60.9585C109.83 60.9065 109.848 60.8676 109.874 60.8416C109.9 60.8156 109.939 60.8026 109.988 60.8026C110.042 60.8026 110.086 60.8182 110.117 60.8494C110.148 60.8806 110.161 60.9247 110.154 60.9793C110.122 61.2052 110.024 61.3715 109.859 61.478C109.693 61.5844 109.455 61.6364 109.145 61.6364H108.623V61.639Z" fill="white"/>
<path d="M112.126 61.639C111.731 61.639 111.439 61.5481 111.255 61.3637C111.071 61.1793 110.978 60.8883 110.978 60.4935V59.7715C110.978 59.3689 111.071 59.0754 111.255 58.8909C111.439 58.7065 111.731 58.6156 112.126 58.6208H112.649C113.044 58.6208 113.336 58.7117 113.517 58.8961C113.701 59.0806 113.791 59.3715 113.791 59.7689V60.4832C113.791 60.8806 113.701 61.1741 113.517 61.3585C113.334 61.5429 113.044 61.6364 112.649 61.6364H112.126V61.639ZM111.312 60.4909C111.312 60.7922 111.371 61.0026 111.493 61.1221C111.614 61.2416 111.824 61.3039 112.126 61.3039H112.649C112.951 61.3039 113.163 61.2442 113.282 61.1221C113.401 61.0026 113.46 60.7896 113.46 60.4857V59.7715C113.46 59.4676 113.401 59.2546 113.282 59.1351C113.163 59.0156 112.951 58.9559 112.649 58.9559H112.126C111.922 58.9559 111.762 58.9793 111.643 59.0286C111.524 59.0806 111.439 59.1663 111.389 59.2832C111.338 59.4026 111.312 59.5637 111.312 59.7689V60.4909Z" fill="white"/>
<path d="M118.138 58.6156C118.479 58.6156 118.725 58.7039 118.872 58.878C119.019 59.052 119.092 59.3403 119.092 59.7429V61.478C119.092 61.5897 119.038 61.6442 118.926 61.6442C118.815 61.6442 118.758 61.5897 118.758 61.478V59.7429C118.758 59.4624 118.712 59.2598 118.616 59.1351C118.52 59.0104 118.363 58.9507 118.138 58.9507H117.874C117.595 58.9507 117.398 59.013 117.277 59.1351C117.155 59.2572 117.096 59.4598 117.096 59.7429V61.478C117.096 61.5897 117.042 61.6442 116.93 61.6442C116.819 61.6442 116.762 61.5897 116.762 61.478V59.7429C116.762 59.4624 116.716 59.2598 116.62 59.1351C116.524 59.0104 116.367 58.9507 116.142 58.9507H115.878C115.601 58.9507 115.402 59.013 115.281 59.1351C115.159 59.2572 115.102 59.4598 115.102 59.7429V61.478C115.102 61.5897 115.048 61.6442 114.937 61.6442C114.826 61.6442 114.769 61.5897 114.769 61.478V58.7871C114.769 58.6754 114.826 58.6208 114.937 58.6208C115.048 58.6208 115.102 58.6754 115.102 58.7871V59.0364C115.195 58.8858 115.307 58.7767 115.436 58.7117C115.565 58.6468 115.725 58.613 115.925 58.613H116.144C116.367 58.613 116.545 58.652 116.68 58.7299C116.814 58.8078 116.92 58.9351 117 59.1117C117.093 58.9351 117.207 58.8078 117.344 58.7299C117.478 58.652 117.657 58.613 117.874 58.613H118.138V58.6156Z" fill="white"/>
<path d="M123.464 58.6156C123.805 58.6156 124.051 58.7039 124.198 58.878C124.346 59.052 124.418 59.3403 124.418 59.7429V61.478C124.418 61.5897 124.364 61.6442 124.253 61.6442C124.142 61.6442 124.085 61.5897 124.085 61.478V59.7429C124.085 59.4624 124.038 59.2598 123.942 59.1351C123.847 59.0104 123.689 58.9507 123.464 58.9507H123.2C122.921 58.9507 122.725 59.013 122.603 59.1351C122.482 59.2572 122.422 59.4598 122.422 59.7429V61.478C122.422 61.5897 122.368 61.6442 122.257 61.6442C122.145 61.6442 122.089 61.5897 122.089 61.478V59.7429C122.089 59.4624 122.042 59.2598 121.946 59.1351C121.851 59.0104 121.693 58.9507 121.468 58.9507H121.204C120.928 58.9507 120.729 59.013 120.607 59.1351C120.486 59.2572 120.429 59.4598 120.429 59.7429V61.478C120.429 61.5897 120.374 61.6442 120.263 61.6442C120.152 61.6442 120.095 61.5897 120.095 61.478V58.7871C120.095 58.6754 120.152 58.6208 120.263 58.6208C120.374 58.6208 120.429 58.6754 120.429 58.7871V59.0364C120.522 58.8858 120.633 58.7767 120.762 58.7117C120.891 58.6468 121.052 58.613 121.251 58.613H121.471C121.693 58.613 121.871 58.652 122.006 58.7299C122.14 58.8078 122.246 58.9351 122.326 59.1117C122.42 58.9351 122.533 58.8078 122.67 58.7299C122.805 58.652 122.983 58.613 123.2 58.613H123.464V58.6156Z" fill="white"/>
<path d="M127.947 58.6208C128.061 58.6208 128.116 58.678 128.116 58.7897V61.4728C128.116 61.5845 128.059 61.639 127.947 61.639C127.836 61.639 127.782 61.5845 127.782 61.4728V61.1663C127.58 61.4806 127.216 61.639 126.688 61.639H126.51C126.114 61.639 125.822 61.5481 125.641 61.3637C125.46 61.1793 125.367 60.8884 125.367 60.491V58.7923C125.367 58.678 125.421 58.6234 125.533 58.6234C125.644 58.6234 125.701 58.6806 125.701 58.7923V60.491C125.701 60.7949 125.76 61.0079 125.882 61.1273C126.001 61.2468 126.213 61.3066 126.512 61.3066H126.691C127.019 61.3066 127.278 61.2546 127.467 61.1507C127.655 61.0468 127.761 60.8832 127.785 60.6624V58.7923C127.785 58.678 127.839 58.6234 127.95 58.6234L127.947 58.6208Z" fill="white"/>
<path d="M129.349 61.639C129.235 61.639 129.181 61.5819 129.181 61.4702V58.7871C129.181 58.6754 129.238 58.6208 129.349 58.6208C129.46 58.6208 129.514 58.6754 129.514 58.7871V59.0936C129.716 58.7793 130.081 58.6208 130.608 58.6208H130.786C131.182 58.6208 131.474 58.7118 131.655 58.8962C131.839 59.0806 131.929 59.3715 131.929 59.7689V61.4676C131.929 61.5793 131.875 61.6364 131.764 61.6364C131.653 61.6364 131.596 61.5793 131.596 61.4676V59.7689C131.596 59.465 131.536 59.252 131.415 59.1325C131.296 59.0131 131.084 58.9533 130.784 58.9533H130.605C130.277 58.9533 130.019 59.0053 129.83 59.1092C129.641 59.2131 129.535 59.3767 129.512 59.5975V61.4676C129.512 61.5793 129.457 61.6364 129.346 61.6364L129.349 61.639Z" fill="white"/>
<path d="M133.033 58.0364C132.886 58.0364 132.814 57.9611 132.814 57.8104V57.665C132.814 57.5195 132.886 57.4468 133.033 57.4468H133.173C133.318 57.4468 133.39 57.5195 133.39 57.665V57.8104C133.39 57.9611 133.318 58.0364 133.173 58.0364H133.033ZM133.103 61.639C132.989 61.639 132.935 61.5818 132.935 61.4702V58.787C132.935 58.6753 132.992 58.6208 133.103 58.6208C133.214 58.6208 133.269 58.6753 133.269 58.787V61.4702C133.269 61.5818 133.214 61.639 133.103 61.639Z" fill="white"/>
<path d="M135.559 61.639C135.169 61.639 134.885 61.5481 134.704 61.3663C134.523 61.1844 134.432 60.8987 134.432 60.5091V58.9533H134.055C133.941 58.9533 133.887 58.8961 133.887 58.7845C133.887 58.6728 133.943 58.6182 134.055 58.6182H134.432V57.9325C134.432 57.8208 134.486 57.7637 134.598 57.7637C134.709 57.7637 134.766 57.8208 134.766 57.9325V58.6182H135.565C135.676 58.6182 135.73 58.6728 135.73 58.7845C135.73 58.8961 135.676 58.9533 135.565 58.9533H134.766V60.5091C134.766 60.8078 134.823 61.013 134.939 61.1299C135.055 61.2442 135.262 61.3013 135.557 61.3013C135.619 61.3013 135.663 61.3143 135.689 61.3429C135.715 61.3715 135.728 61.413 135.728 61.4676C135.728 61.5793 135.671 61.6364 135.557 61.6364L135.559 61.639Z" fill="white"/>
<path d="M137.24 62.9169C136.963 62.9169 136.757 62.8494 136.625 62.7169C136.493 62.5819 136.426 62.3741 136.426 62.091C136.426 61.9793 136.48 61.9247 136.591 61.9247C136.702 61.9247 136.759 61.9793 136.759 62.091C136.759 62.2832 136.793 62.413 136.86 62.4806C136.927 62.5481 137.054 62.5819 137.238 62.5819H138.339C138.525 62.5819 138.652 62.5481 138.722 62.4806C138.791 62.413 138.823 62.2832 138.823 62.091V61.213C138.701 61.3715 138.551 61.4858 138.367 61.5481C138.184 61.613 137.972 61.6442 137.729 61.6442H137.55C137.16 61.6442 136.876 61.5533 136.695 61.3715C136.514 61.1897 136.423 60.9065 136.423 60.5195V58.7845C136.423 58.6728 136.477 58.6156 136.589 58.6156C136.7 58.6156 136.757 58.6728 136.757 58.7845V60.5195C136.757 60.8156 136.814 61.0208 136.93 61.1351C137.046 61.2494 137.253 61.3065 137.548 61.3065H137.726C138.096 61.3065 138.373 61.2416 138.551 61.1091C138.729 60.9793 138.82 60.7819 138.82 60.5169V58.7819C138.82 58.6702 138.874 58.613 138.985 58.613C139.097 58.613 139.153 58.6702 139.153 58.7819V62.0884C139.153 62.3715 139.086 62.5793 138.954 62.7143C138.823 62.8494 138.616 62.9143 138.336 62.9143H137.235L137.24 62.9169Z" fill="white"/>
</g>
<defs>
<linearGradient id="paint0_linear_1_7000" x1="1.02906" y1="45.6519" x2="61.7396" y2="34.996" gradientUnits="userSpaceOnUse">
<stop stop-color="#0047BB"/>
<stop offset="0.46" stop-color="#0047BB"/>
<stop offset="0.53" stop-color="#6689C1"/>
<stop offset="0.58" stop-color="#AAB4C6"/>
<stop offset="0.61" stop-color="#C5C6C8"/>
<stop offset="0.84" stop-color="#E8DD4D"/>
<stop offset="1" stop-color="#FFED00"/>
</linearGradient>
<clipPath id="clip0_1_7000">
<rect width="150" height="75" fill="white"/>
</clipPath>
</defs>
</svg>
