<svg width="177" height="171" viewBox="0 0 177 171" fill="none" xmlns="http://www.w3.org/2000/svg">
<g clip-path="url(#clip0_11_2593)">
<path d="M62.8298 44.55C62.3198 44.55 61.8198 44.29 61.5398 43.82L43.8498 14.18C43.4298 13.47 43.6598 12.55 44.3698 12.12C45.0798 11.7 45.9998 11.93 46.4298 12.64L64.1198 42.28C64.5398 42.99 64.3098 43.91 63.5998 44.34C63.3598 44.48 63.0898 44.55 62.8298 44.55Z" fill="#C5C6C8"/>
<path d="M74.7798 39.4C74.1298 39.4 73.5298 38.97 73.3398 38.31L63.9198 5.1C63.6898 4.3 64.1598 3.47 64.9498 3.25C65.7398 3.03 66.5798 3.49 66.7998 4.28L76.2098 37.49C76.4398 38.29 75.9698 39.12 75.1798 39.34C75.0398 39.38 74.9098 39.4 74.7698 39.4H74.7798Z" fill="#C5C6C8"/>
<path d="M87.65 37.52C86.83 37.52 86.16 36.86 86.15 36.04L85.65 1.52999C85.64 0.699989 86.3 0.0199893 87.13 0.00998926C87.98 -0.0200107 88.64 0.659989 88.65 1.48999L89.15 36C89.16 36.83 88.5 37.51 87.67 37.52H87.65Z" fill="#C5C6C8"/>
<path d="M100.58 39.03C100.46 39.03 100.33 39.02 100.21 38.98C99.4099 38.78 98.9199 37.96 99.1199 37.16L107.58 3.69999C107.78 2.89999 108.6 2.40999 109.4 2.60999C110.2 2.80999 110.69 3.62999 110.49 4.42999L102.04 37.9C101.87 38.58 101.26 39.03 100.59 39.03H100.58Z" fill="#C5C6C8"/>
<path d="M112.67 43.84C112.42 43.84 112.17 43.78 111.94 43.65C111.22 43.25 110.96 42.33 111.36 41.61L128.19 11.47C128.59 10.75 129.51 10.49 130.23 10.89C130.95 11.29 131.21 12.21 130.81 12.93L113.98 43.07C113.71 43.56 113.19 43.84 112.67 43.84Z" fill="#C5C6C8"/>
<path d="M123.11 51.61C122.73 51.61 122.36 51.47 122.07 51.19C121.48 50.61 121.46 49.66 122.04 49.07L146.09 24.32C146.67 23.73 147.62 23.71 148.21 24.29C148.8 24.87 148.82 25.82 148.24 26.41L124.19 51.16C123.9 51.46 123.5 51.62 123.11 51.62V51.61Z" fill="#C5C6C8"/>
<path d="M131.18 61.82C130.67 61.82 130.17 61.56 129.89 61.09C129.47 60.38 129.7 59.46 130.41 59.03L160.05 41.34C160.76 40.92 161.68 41.15 162.11 41.86C162.53 42.57 162.3 43.49 161.59 43.92L131.95 61.61C131.71 61.75 131.44 61.82 131.18 61.82Z" fill="#C5C6C8"/>
<path d="M63.5598 43.8C63.0498 43.8 62.5498 43.54 62.2698 43.07L44.5798 13.43C44.1598 12.72 44.3898 11.8 45.0998 11.37C45.8098 10.95 46.7298 11.18 47.1598 11.89L64.8498 41.53C65.2698 42.24 65.0398 43.16 64.3298 43.59C64.0898 43.73 63.8198 43.8 63.5598 43.8Z" fill="#C5C6C8"/>
<path d="M48.5 15.99L63.44 41.87M69.05 12.97L75.46 36.89M88.36 15.17V35.19M105.37 21.56L101.26 36.88M119.53 31.05L113.29 41.86M130.72 42.68L123.61 49.79M28.71 24.93L53.12 49.79M131.18 60.32L137.44 56.58M106.78 85.34H172.73M69.95 85.34H4M69.95 85.34C69.95 75.17 78.2 66.92 88.37 66.92C98.54 66.92 106.79 75.17 106.79 85.34C106.79 95.51 98.54 103.76 88.37 103.76C78.2 103.76 69.95 95.51 69.95 85.34ZM136.52 72.44L169.86 63.51M40.21 72.44L6.87 63.5M40.91 72.49C49.5 72.49 58.08 69.21 64.64 62.66C77.74 49.56 98.99 49.56 112.09 62.66C118.64 69.21 127.23 72.49 135.82 72.49M44.84 61.56L14.7 44.73" stroke="url(#paint0_linear_11_2593)" stroke-width="8" stroke-linecap="round" stroke-linejoin="round"/>
<path d="M131.6 158.77C131.09 158.77 130.59 158.51 130.31 158.04L112.62 128.4C112.2 127.69 112.43 126.77 113.14 126.34C113.85 125.92 114.77 126.15 115.2 126.86L132.89 156.5C133.31 157.21 133.08 158.13 132.37 158.56C132.13 158.7 131.86 158.77 131.6 158.77Z" fill="#C5C6C8"/>
<path d="M111.37 167.49C110.72 167.49 110.12 167.06 109.93 166.4L100.52 133.19C100.29 132.39 100.76 131.56 101.55 131.34C102.34 131.12 103.18 131.58 103.4 132.37L112.81 165.58C113.04 166.38 112.57 167.21 111.78 167.43C111.64 167.47 111.51 167.49 111.37 167.49Z" fill="#C5C6C8"/>
<path d="M89.5802 170.67C88.7602 170.67 88.0902 170.01 88.0802 169.19L87.5802 134.68C87.5702 133.85 88.2302 133.17 89.0602 133.16H89.0802C89.9002 133.16 90.5702 133.82 90.5802 134.64L91.0802 169.15C91.0902 169.98 90.4302 170.66 89.6002 170.67H89.5802Z" fill="#C5C6C8"/>
<path d="M67.7 168.11C67.58 168.11 67.45 168.1 67.33 168.06C66.53 167.86 66.04 167.04 66.24 166.24L74.69 132.77C74.89 131.97 75.71 131.48 76.51 131.68C77.31 131.88 77.8 132.7 77.6 133.5L69.15 166.97C68.98 167.65 68.37 168.1 67.7 168.1V168.11Z" fill="#C5C6C8"/>
<path d="M47.24 159.98C46.99 159.98 46.74 159.92 46.51 159.79C45.79 159.39 45.53 158.47 45.93 157.75L62.76 127.61C63.16 126.89 64.08 126.63 64.8 127.03C65.52 127.43 65.78 128.35 65.38 129.07L48.55 159.21C48.28 159.7 47.76 159.98 47.24 159.98Z" fill="#C5C6C8"/>
<path d="M29.5701 146.82C29.1901 146.82 28.8201 146.68 28.5301 146.4C27.9401 145.82 27.9201 144.87 28.5001 144.28L52.5501 119.53C53.1301 118.94 54.0801 118.92 54.6701 119.5C55.2601 120.08 55.2801 121.03 54.7001 121.62L30.6501 146.37C30.3601 146.67 29.9601 146.83 29.5701 146.83V146.82Z" fill="#C5C6C8"/>
<path d="M15.9201 129.54C15.4101 129.54 14.9101 129.28 14.6301 128.81C14.2101 128.1 14.4401 127.18 15.1501 126.75L44.7901 109.06C45.5001 108.64 46.4201 108.87 46.8501 109.58C47.2701 110.29 47.0401 111.21 46.3301 111.64L16.6901 129.33C16.4501 129.47 16.1801 129.54 15.9201 129.54Z" fill="#C5C6C8"/>
<path d="M130.87 159.52C130.36 159.52 129.86 159.26 129.58 158.79L111.89 129.15C111.47 128.44 111.7 127.52 112.41 127.09C113.12 126.67 114.04 126.9 114.47 127.61L132.16 157.25C132.58 157.96 132.35 158.88 131.64 159.31C131.4 159.45 131.13 159.52 130.87 159.52Z" fill="#C5C6C8"/>
<path d="M128.23 154.68L113.29 128.8M107.68 157.7L101.27 133.78M88.37 155.5V135.48M71.36 149.11L75.47 133.79M57.2 139.62L63.44 128.81M46.01 127.99L53.12 120.88M148.03 145.74L123.62 120.88M45.56 110.35L39.3 114.09M69.96 85.33H4M106.78 85.33H172.73M40.21 98.23L6.87 107.16M136.52 98.23L169.86 107.16M135.82 98.17C127.23 98.17 118.65 101.45 112.09 108C98.99 121.1 77.74 121.1 64.64 108C58.09 101.45 49.5 98.17 40.91 98.17M131.89 109.1L162.03 125.93M88.36 66.9C78.19 66.9 69.94 75.15 69.94 85.32C69.94 95.49 78.19 103.74 88.36 103.74C98.53 103.74 106.78 95.49 106.78 85.32C106.78 75.15 98.53 66.9 88.36 66.9Z" stroke="url(#paint1_linear_11_2593)" stroke-width="8" stroke-linecap="round" stroke-linejoin="round"/>
</g>
<defs>
<linearGradient id="paint0_linear_11_2593" x1="88.37" y1="107.75" x2="88.37" y2="8.97" gradientUnits="userSpaceOnUse">
<stop stop-color="#0047BB"/>
<stop offset="0.67" stop-color="#0047BB"/>
<stop offset="0.86" stop-color="#C5C6C8"/>
<stop offset="1" stop-color="#FFED00"/>
</linearGradient>
<linearGradient id="paint1_linear_11_2593" x1="88.37" y1="62.92" x2="88.37" y2="161.71" gradientUnits="userSpaceOnUse">
<stop stop-color="#0047BB"/>
<stop offset="0.67" stop-color="#0047BB"/>
<stop offset="0.86" stop-color="#C5C6C8"/>
<stop offset="1" stop-color="#FFED00"/>
</linearGradient>
<clipPath id="clip0_11_2593">
<rect width="176.74" height="170.67" fill="white"/>
</clipPath>
</defs>
</svg>
