<svg width="177" height="172" viewBox="0 0 177 172" fill="none" xmlns="http://www.w3.org/2000/svg">
<g clip-path="url(#clip0_11_3584)">
<path d="M26.21 146.65C25.83 146.65 25.44 146.5 25.15 146.21C24.56 145.62 24.56 144.67 25.15 144.09L27.49 141.75C28.08 141.16 29.03 141.16 29.61 141.75C30.2 142.34 30.2 143.29 29.61 143.87L27.27 146.21C26.98 146.5 26.59 146.65 26.21 146.65Z" fill="#C5C6C8"/>
<path d="M12.7999 129.18C12.2799 129.18 11.7799 128.91 11.4999 128.43C11.0899 127.71 11.3299 126.8 12.0499 126.38L19.3799 122.15C20.0999 121.74 21.0199 121.98 21.4299 122.7C21.8399 123.42 21.5999 124.33 20.8799 124.75L13.5499 128.98C13.3099 129.12 13.0599 129.18 12.7999 129.18Z" fill="#C5C6C8"/>
<path d="M32.0899 55.95C31.8399 55.95 31.5799 55.89 31.3399 55.75L12.0499 44.61C11.3299 44.2 11.0899 43.28 11.4999 42.56C11.9099 41.84 12.8299 41.6 13.5499 42.01L32.8399 53.15C33.5599 53.56 33.7999 54.48 33.3899 55.2C33.1099 55.68 32.6099 55.95 32.0899 55.95Z" fill="#C5C6C8"/>
<path d="M42.7 43.82C42.32 43.82 41.93 43.67 41.64 43.38L25.15 26.89C24.56 26.3 24.56 25.35 25.15 24.77C25.74 24.19 26.69 24.18 27.27 24.77L43.76 41.26C44.35 41.85 44.35 42.8 43.76 43.38C43.47 43.67 43.08 43.82 42.7 43.82Z" fill="#C5C6C8"/>
<path d="M55.3898 34.2C54.8698 34.2 54.3698 33.93 54.0898 33.45L42.3798 13.18C41.9698 12.46 42.2098 11.55 42.9298 11.13C43.6498 10.71 44.5598 10.96 44.9798 11.68L56.6898 31.95C57.0998 32.67 56.8598 33.58 56.1398 34C55.8998 34.14 55.6498 34.2 55.3898 34.2Z" fill="#C5C6C8"/>
<path d="M4.37013 108.83C3.71013 108.83 3.10013 108.39 2.92013 107.72C2.71013 106.92 3.18013 106.1 3.98013 105.88L16.7101 102.47C17.5101 102.26 18.3301 102.73 18.5501 103.53C18.7601 104.33 18.2901 105.15 17.4901 105.37L4.76013 108.78C4.63013 108.81 4.50013 108.83 4.37013 108.83Z" fill="#C5C6C8"/>
<path d="M18.61 86.99H1.5C0.67 86.99 0 86.32 0 85.49C0 84.66 0.67 83.99 1.5 83.99H18.61C19.44 83.99 20.11 84.66 20.11 85.49C20.11 86.32 19.44 86.99 18.61 86.99Z" fill="#C5C6C8"/>
<path d="M24.2799 69.44C24.1499 69.44 24.0199 69.42 23.8899 69.39L3.98989 64.06C3.18989 63.85 2.71989 63.02 2.92989 62.22C3.13989 61.42 3.96989 60.95 4.76989 61.16L24.6699 66.49C25.4699 66.7 25.9399 67.53 25.7299 68.33C25.5499 69 24.9399 69.44 24.2799 69.44Z" fill="#C5C6C8"/>
<path d="M141.98 30.88C141.6 30.88 141.21 30.73 140.92 30.44C140.33 29.85 140.33 28.9 140.92 28.32L144.46 24.78C145.05 24.19 146 24.19 146.58 24.78C147.16 25.37 147.17 26.32 146.58 26.9L143.04 30.44C142.75 30.73 142.36 30.88 141.98 30.88Z" fill="#C5C6C8"/>
<path d="M149.29 50.38C148.77 50.38 148.27 50.11 147.99 49.63C147.58 48.91 147.82 48 148.54 47.58L158.18 42.01C158.9 41.59 159.82 41.84 160.23 42.56C160.64 43.28 160.4 44.19 159.68 44.61L150.04 50.18C149.8 50.32 149.55 50.38 149.29 50.38Z" fill="#C5C6C8"/>
<path d="M170.26 86.67H149.95C149.12 86.67 148.45 86 148.45 85.17C148.45 84.34 149.12 83.67 149.95 83.67H170.26C171.09 83.67 171.76 84.34 171.76 85.17C171.76 86 171.09 86.67 170.26 86.67Z" fill="#C5C6C8"/>
<path d="M158.93 129.18C158.68 129.18 158.42 129.12 158.18 128.98L135.98 116.16C135.26 115.75 135.02 114.83 135.43 114.11C135.84 113.39 136.76 113.15 137.48 113.56L159.68 126.38C160.4 126.79 160.64 127.71 160.23 128.43C159.95 128.91 159.45 129.18 158.93 129.18Z" fill="#C5C6C8"/>
<path d="M145.53 146.65C145.15 146.65 144.76 146.5 144.47 146.21L125.67 127.41C125.08 126.82 125.08 125.87 125.67 125.29C126.26 124.71 127.21 124.7 127.79 125.29L146.59 144.09C147.18 144.68 147.18 145.63 146.59 146.21C146.3 146.5 145.91 146.65 145.53 146.65Z" fill="#C5C6C8"/>
<path d="M128.05 160.06C127.53 160.06 127.03 159.79 126.75 159.31L113.55 136.44C113.14 135.72 113.38 134.81 114.1 134.39C114.82 133.98 115.74 134.22 116.15 134.94L129.35 157.81C129.76 158.53 129.52 159.44 128.8 159.86C128.56 160 128.31 160.06 128.05 160.06Z" fill="#C5C6C8"/>
<path d="M107.7 168.49C107.04 168.49 106.43 168.05 106.25 167.38L99.76 143.15C99.55 142.35 100.02 141.53 100.82 141.31C101.62 141.1 102.44 141.57 102.66 142.37L109.15 166.6C109.36 167.4 108.89 168.22 108.09 168.44C107.96 168.47 107.83 168.49 107.7 168.49Z" fill="#C5C6C8"/>
<path d="M167.36 108.83C167.23 108.83 167.1 108.81 166.97 108.78L143.94 102.61C143.14 102.4 142.67 101.57 142.88 100.77C143.09 99.97 143.92 99.5 144.72 99.71L167.75 105.88C168.55 106.09 169.02 106.92 168.81 107.72C168.63 108.39 168.02 108.83 167.36 108.83Z" fill="#C5C6C8"/>
<path d="M151.8 68.28C151.14 68.28 150.53 67.84 150.35 67.17C150.14 66.37 150.61 65.55 151.41 65.33L166.97 61.16C167.77 60.95 168.59 61.42 168.81 62.22C169.02 63.02 168.55 63.84 167.75 64.06L152.19 68.23C152.06 68.26 151.93 68.28 151.8 68.28Z" fill="#C5C6C8"/>
<path d="M85.87 173.86C83.66 173.86 81.87 172.07 81.87 169.86V136.79C80.04 136.65 78.23 136.41 76.46 136.08L67.9 168.02C67.33 170.15 65.13 171.42 63 170.85C60.87 170.28 59.6 168.09 60.17 165.95L68.73 134.01C67.01 133.4 65.32 132.7 63.69 131.91L47.15 160.55C46.05 162.46 43.6 163.12 41.69 162.01C39.78 160.91 39.12 158.46 40.23 156.55L56.77 127.9C55.27 126.87 53.83 125.76 52.45 124.58L31.39 145.64C29.83 147.2 27.3 147.2 25.73 145.64C24.17 144.08 24.17 141.55 25.73 139.98L46.79 118.92C45.61 117.54 44.5 116.1 43.46 114.6L22.14 126.91C20.23 128.02 17.78 127.36 16.68 125.45C15.58 123.54 16.23 121.09 18.14 119.99L39.45 107.69C38.67 106.06 37.97 104.37 37.35 102.65L18.14 107.8C16.01 108.38 13.81 107.11 13.24 104.97C12.67 102.83 13.93 100.64 16.07 100.07L35.28 94.92C34.95 93.15 34.71 91.34 34.57 89.5H18.62C16.41 89.5 14.62 87.71 14.62 85.5C14.62 83.29 16.41 81.5 18.62 81.5H34.57C34.74 79.33 35.03 77.18 35.46 75.09L23.24 71.82C21.11 71.25 19.84 69.06 20.41 66.92C20.98 64.79 23.18 63.52 25.31 64.09L37.65 67.4C38.17 66 38.75 64.63 39.39 63.29L30.09 57.92C28.18 56.82 27.52 54.37 28.63 52.46C29.73 50.55 32.18 49.89 34.09 51L43.38 56.36C44.41 54.85 45.53 53.4 46.71 52.01L39.86 45.16C38.3 43.6 38.3 41.07 39.86 39.5C41.42 37.93 43.95 37.94 45.52 39.5L52.37 46.35C53.75 45.17 55.21 44.06 56.72 43.03L51.92 34.71C50.82 32.8 51.47 30.35 53.38 29.25C55.29 28.14 57.74 28.8 58.84 30.71L63.66 39.05C65.29 38.27 66.98 37.58 68.71 36.97L60.75 7.25001C60.28 5.51001 60.65 3.69001 61.74 2.26001C62.84 0.83001 64.5 0.0100098 66.31 0.0100098H105.41C107.21 0.0100098 108.88 0.83001 109.98 2.26001C111.08 3.69001 111.44 5.51001 110.97 7.25001L107.87 18.82C107.85 18.89 107.84 18.95 107.82 19.02L103.01 36.97C104.74 37.58 106.43 38.27 108.06 39.05L124.58 10.43C125.68 8.52001 128.13 7.86001 130.04 8.97001C131.95 10.07 132.61 12.52 131.5 14.43L114.99 43.02C116.51 44.05 117.96 45.16 119.34 46.34L139.14 26.54C140.7 24.98 143.24 24.98 144.8 26.54C146.36 28.1 146.36 30.63 144.8 32.2L125.01 51.99C126.2 53.38 127.31 54.83 128.34 56.34L147.27 45.41C149.18 44.3 151.63 44.96 152.73 46.87C153.83 48.78 153.18 51.23 151.27 52.33L132.33 63.27C132.97 64.61 133.55 65.98 134.07 67.38L150.75 62.91C152.88 62.33 155.08 63.6 155.65 65.74C156.22 67.87 154.96 70.07 152.82 70.64L136.26 75.08C136.67 77.08 136.96 79.11 137.13 81.17H149.93C152.14 81.17 153.93 82.96 153.93 85.17C153.93 87.38 152.14 89.17 149.93 89.17H137.17C137.03 91.11 136.79 93.03 136.44 94.9L145.34 97.29C147.47 97.86 148.74 100.05 148.17 102.19C147.6 104.33 145.4 105.6 143.27 105.02L134.36 102.63C133.75 104.35 133.05 106.04 132.26 107.67L138.7 111.39C140.61 112.49 141.27 114.94 140.16 116.85C139.06 118.76 136.61 119.42 134.7 118.31L128.25 114.58C127.22 116.08 126.11 117.52 124.92 118.9L129.52 123.5C131.08 125.06 131.08 127.59 129.52 129.16C127.96 130.72 125.42 130.72 123.86 129.16L119.26 124.56C117.88 125.74 116.44 126.85 114.94 127.88L118.28 133.66C119.38 135.57 118.73 138.02 116.82 139.12C114.91 140.23 112.46 139.57 111.36 137.66L108.03 131.89C106.4 132.67 104.71 133.37 102.99 133.99L105.06 141.7C105.63 143.83 104.37 146.03 102.23 146.6C100.1 147.17 97.9 145.91 97.33 143.77L95.26 136.06C93.49 136.39 91.68 136.63 89.85 136.77V169.84C89.85 172.05 88.06 173.84 85.85 173.84L85.87 173.86ZM42.58 81.72C51.04 82.65 58.87 86.39 64.98 92.49C76.5 104.01 95.25 104.01 106.78 92.49C112.88 86.39 120.72 82.64 129.18 81.72C127.68 64.12 115.8 49.21 98.66 43.95C95.67 43.03 93.95 39.95 94.76 36.95L98.8 21.89H72.99L77.03 36.95C77.84 39.96 76.12 43.03 73.13 43.95C55.99 49.21 44.1 64.12 42.6 81.73L42.58 81.72ZM70.82 13.88H100.91L102.49 8.00001H69.24L70.82 13.88ZM68.5 81.21C62.73 81.21 58.03 76.51 58.03 70.74C58.03 64.97 62.73 60.27 68.5 60.27C74.27 60.27 78.97 64.97 78.97 70.74C78.97 76.51 74.27 81.21 68.5 81.21ZM68.5 68.26C67.14 68.26 66.03 69.37 66.03 70.73C66.03 72.09 67.14 73.2 68.5 73.2C69.86 73.2 70.97 72.09 70.97 70.73C70.97 69.37 69.86 68.26 68.5 68.26Z" fill="url(#paint0_linear_11_3584)"/>
</g>
<defs>
<linearGradient id="paint0_linear_11_3584" x1="13.1" y1="86.93" x2="155.8" y2="86.93" gradientUnits="userSpaceOnUse">
<stop stop-color="#0047BB"/>
<stop offset="0.33" stop-color="#0047BB"/>
<stop offset="0.48" stop-color="#163CB8"/>
<stop offset="0.67" stop-color="#3130B6"/>
<stop offset="0.74" stop-color="#6161BB"/>
<stop offset="0.83" stop-color="#A8A9C4"/>
<stop offset="0.88" stop-color="#C5C6C8"/>
<stop offset="0.95" stop-color="#E8DD4D"/>
<stop offset="1" stop-color="#FFED00"/>
</linearGradient>
<clipPath id="clip0_11_3584">
<rect width="176.74" height="171.74" fill="white"/>
</clipPath>
</defs>
</svg>
