<?xml version="1.0" encoding="UTF-8"?>
<svg id="Layer_1" data-name="Layer 1" xmlns="http://www.w3.org/2000/svg" viewBox="0 0 16 16">
  <defs>
    <style>
      .cls-1 {
        fill: $color-primary3;
        fill-rule: evenodd;
      }
    </style>
  </defs>
  <path class="cls-1" d="M8,2c-3.31,0-6,2.69-6,6s2.69,6,6,6,6-2.69,6-6-2.69-6-6-6ZM8,13c-2.76,0-5-2.24-5-5s2.24-5,5-5,5,2.24,5,5-2.24,5-5,5Z"/>
  <path class="cls-1" d="M8,7.38c-.28,0-.51.22-.51.49v1.95c0,.27.23.49.51.49s.51-.22.51-.49v-1.95c0-.27-.23-.49-.51-.49Z"/>
  <path class="cls-1" d="M8,5.69h0c-.28,0-.51.22-.51.49s.23.49.51.49h0c.28,0,.51-.22.51-.49s-.23-.49-.51-.49Z"/>
</svg>