<?xml version="1.0" encoding="UTF-8"?>
<svg id="Layer_1" data-name="Layer 1" xmlns="http://www.w3.org/2000/svg" viewBox="0 0 16 16">
  <defs>
    <style>
      .cls-1 {
        fill: #0047bb;
      }
    </style>
  </defs>
  <path class="cls-1" d="M12,6c0-2.21-1.79-4-4-4s-4,1.79-4,4c0,1.29.62,2.42,1.57,3.16l-.57,4.28c-.02.19.06.38.22.48.08.05.18.08.27.08.09,0,.18-.02.26-.07l2.24-1.35,2.24,1.35c.17.1.37.09.53-.01.16-.11.25-.29.22-.48l-.57-4.28c.95-.73,1.57-1.87,1.57-3.16ZM5,6c0-1.65,1.35-3,3-3s3,1.35,3,3-1.35,3-3,3-3-1.35-3-3ZM9.87,12.54l-1.61-.97c-.16-.09-.36-.09-.51,0l-1.61.97.38-2.83c.46.19.96.29,1.49.29s1.03-.11,1.49-.29l.38,2.83Z"/>
</svg>