<?xml version="1.0" encoding="UTF-8"?>
<svg id="Layer_1" data-name="Layer 1" xmlns="http://www.w3.org/2000/svg" viewBox="0 0 16 16">
  <defs>
    <style>
      .cls-1 {
        fill: $color-primary3;
      }
    </style>
  </defs>
  <path class="cls-1" d="M2.25,3.92v8.17c0,1.55,2.98,2.25,5.75,2.25s5.75-.7,5.75-2.25V3.92C13.75.96,2.25.96,2.25,3.92ZM12.75,8c0,.37-1.62,1.25-4.75,1.25s-4.75-.88-4.75-1.25v-2.74c1.11.62,2.97.91,4.75.91s3.64-.29,4.75-.91v2.74ZM8,2.67c3.13,0,4.75.88,4.75,1.25s-1.62,1.25-4.75,1.25-4.75-.88-4.75-1.25,1.62-1.25,4.75-1.25ZM8,13.33c-3.13,0-4.75-.88-4.75-1.25v-2.74c1.11.62,2.97.91,4.75.91s3.64-.29,4.75-.91v2.74c0,.37-1.62,1.25-4.75,1.25Z"/>
</svg>