<?xml version="1.0" encoding="UTF-8"?>
<svg id="Layer_1" data-name="Layer 1" xmlns="http://www.w3.org/2000/svg" viewBox="0 0 16 16">
  <defs>
    <style>
      .cls-1 {
        fill: #0047bb;
      }
    </style>
  </defs>
  <path class="cls-1" d="M8,2.5c-3.03,0-5.5,2.47-5.5,5.5s2.47,5.5,5.5,5.5,5.5-2.47,5.5-5.5-2.47-5.5-5.5-5.5ZM8,12.5c-2.48,0-4.5-2.02-4.5-4.5s2.02-4.5,4.5-4.5,4.5,2.02,4.5,4.5-2.02,4.5-4.5,4.5Z"/>
  <path class="cls-1" d="M10.22,8.55l-1.72-.86v-2.69c0-.28-.22-.5-.5-.5s-.5.22-.5.5v3c0,.19.11.36.28.45l2,1c.07.04.15.05.22.05.18,0,.36-.1.45-.28.12-.25.02-.55-.22-.67Z"/>
</svg>