<?xml version="1.0" encoding="UTF-8"?>
<svg id="Layer_1" data-name="Layer 1" xmlns="http://www.w3.org/2000/svg" viewBox="0 0 16 16">
  <defs>
    <style>
      .cls-1 {
        fill: $color-primary3;
      }
    </style>
  </defs>
  <path class="cls-1" d="M12.56,3.44c-.28-.28-.66-.44-1.06-.44h-2c-.28,0-.5.22-.5.5s.22.5.5.5h2c.13,0,.26.05.35.15.09.09.15.22.15.35v7c0,.13-.05.26-.15.35-.09.09-.22.15-.35.15h-2c-.28,0-.5.22-.5.5s.22.5.5.5h2c.4,0,.78-.16,1.06-.44.28-.28.44-.66.44-1.06v-7c0-.4-.16-.78-.44-1.06Z"/>
  <path class="cls-1" d="M4.71,8.5h4.79c.28,0,.5-.22.5-.5s-.22-.5-.5-.5h-4.79l1.65-1.65c.2-.2.2-.51,0-.71s-.51-.2-.71,0l-2.5,2.5c-.2.2-.2.51,0,.71l2.5,2.5c.2.2.51.2.71,0,.2-.2.2-.51,0-.71l-1.65-1.65Z"/>
</svg>