<?xml version="1.0" encoding="UTF-8"?>
<svg id="Layer_1" data-name="Layer 1" xmlns="http://www.w3.org/2000/svg" viewBox="0 0 16 16">
  <defs>
    <style>
      .cls-1 {
        fill: $color-primary3;
      }
    </style>
  </defs>
  <path class="cls-1" d="M8,1.67c-3.49,0-6.33,2.84-6.33,6.33s2.84,6.33,6.33,6.33,6.33-2.84,6.33-6.33S11.49,1.67,8,1.67ZM8,13.33c-2.94,0-5.33-2.39-5.33-5.33s2.39-5.33,5.33-5.33,5.33,2.39,5.33,5.33-2.39,5.33-5.33,5.33Z"/>
  <path class="cls-1" d="M10.33,7.5h-1.83v-1.83c0-.28-.22-.5-.5-.5s-.5.22-.5.5v1.83h-1.83c-.28,0-.5.22-.5.5s.22.5.5.5h1.83v1.83c0,.28.22.5.5.5s.5-.22.5-.5v-1.83h1.83c.28,0,.5-.22.5-.5s-.22-.5-.5-.5Z"/>
</svg>