<?xml version="1.0" encoding="UTF-8"?>
<svg id="Layer_1" data-name="Layer 1" xmlns="http://www.w3.org/2000/svg" viewBox="0 0 16 16">
  <defs>
    <style>
      .cls-1 {
        fill: #0047bb;
      }
    </style>
  </defs>
  <path class="cls-1" d="M13.56,5.86L8.31,1.77c-.18-.14-.43-.14-.61,0L2.44,5.86c-.12.09-.19.24-.19.39v6.42c0,.45.17.86.49,1.18s.73.49,1.18.49h8.17c.45,0,.86-.17,1.18-.49s.49-.73.49-1.18v-6.42c0-.15-.07-.3-.19-.39ZM9.25,13.33h-2.5v-4.83h2.5v4.83ZM12.75,12.67c0,.18-.07.35-.2.47s-.3.2-.47.2h-1.83v-5.33c0-.28-.22-.5-.5-.5h-3.5c-.28,0-.5.22-.5.5v5.33h-1.83c-.18,0-.35-.07-.47-.2s-.2-.3-.2-.47v-6.17l4.75-3.69,4.75,3.69v6.17Z"/>
</svg>