<?xml version="1.0" encoding="UTF-8"?>
<svg id="Layer_1" data-name="Layer 1" xmlns="http://www.w3.org/2000/svg" viewBox="0 0 16 16">
  <defs>
    <style>
      .cls-1 {
        fill: $color-primary3;
      }
    </style>
  </defs>
  <path class="cls-1" d="M13.57,9.81c-.25-.11-.55.01-.66.27-.34.8-.87,1.51-1.55,2.06-.67.55-1.48.93-2.33,1.1-.85.17-1.74.13-2.57-.12-.83-.25-1.6-.7-2.21-1.31-.62-.61-1.08-1.37-1.34-2.2s-.31-1.72-.15-2.57c.16-.85.53-1.66,1.07-2.34.54-.68,1.25-1.22,2.04-1.57.25-.11.37-.41.26-.66-.11-.25-.4-.37-.66-.26-.94.41-1.78,1.06-2.43,1.86-.64.81-1.08,1.77-1.27,2.78s-.13,2.07.18,3.05c.31.98.86,1.89,1.59,2.61.73.72,1.64,1.26,2.63,1.56.59.18,1.21.27,1.83.27.41,0,.82-.04,1.23-.12,1.01-.2,1.97-.65,2.77-1.3.8-.65,1.43-1.5,1.83-2.45.11-.25-.01-.55-.27-.66Z"/>
  <path class="cls-1" d="M13.85,5.58c-.32-.77-.78-1.46-1.37-2.05-.59-.59-1.28-1.05-2.05-1.37-.77-.32-1.59-.48-2.42-.48-.28,0-.5.22-.5.5v5.83c0,.28.22.5.5.5h5.83c.28,0,.5-.22.5-.5,0-.84-.16-1.65-.48-2.42ZM8.5,7.5V2.69c.53.05,1.05.18,1.54.38.65.27,1.23.66,1.73,1.16.5.5.89,1.08,1.16,1.73.21.5.33,1.01.38,1.54h-4.81Z"/>
</svg>