<svg width="16" height="16" viewBox="0 0 16 16" fill="none" xmlns="http://www.w3.org/2000/svg">
<path fill-rule="evenodd" clip-rule="evenodd" d="M7.21336 3.54782C7.38836 3.63039 7.5 3.80651 7.5 4.00001V12.01C7.5 12.2035 7.38836 12.3796 7.21336 12.4622C7.03837 12.5448 6.83145 12.519 6.6821 12.3959L4.04058 10.22H2C1.72386 10.22 1.5 9.99615 1.5 9.72001V6.29001C1.5 6.01386 1.72386 5.79001 2 5.79001H4.04058L6.6821 3.61408C6.83145 3.49106 7.03837 3.46525 7.21336 3.54782ZM6.5 5.05967L4.5379 6.67593C4.44837 6.74968 4.33599 6.79001 4.22 6.79001H2.5V9.22001H4.22C4.33599 9.22001 4.44837 9.26033 4.5379 9.33408L6.5 10.9503V5.05967Z" fill="#41B6E6"/>
<path fill-rule="evenodd" clip-rule="evenodd" d="M11.8209 3.66272C12.0072 3.45887 12.3234 3.44462 12.5273 3.6309C13.7858 4.78092 14.5 6.35275 14.5 8C14.5 9.64726 13.7858 11.2191 12.5273 12.3691C12.3234 12.5554 12.0072 12.5411 11.8209 12.3373C11.6346 12.1334 11.6489 11.8172 11.8527 11.6309C12.9142 10.6609 13.5 9.35275 13.5 8C13.5 6.64726 12.9142 5.33909 11.8527 4.36911C11.6489 4.18283 11.6346 3.86657 11.8209 3.66272ZM9.6309 5.66272C9.81718 5.45887 10.1334 5.44462 10.3373 5.6309C11.0141 6.24938 11.41 7.10058 11.41 8C11.41 8.89943 11.0141 9.75063 10.3373 10.3691C10.1334 10.5554 9.81718 10.5411 9.6309 10.3373C9.44462 10.1334 9.45887 9.81718 9.66272 9.6309C10.1459 9.18938 10.41 8.60058 10.41 8C10.41 7.39943 10.1459 6.81063 9.66272 6.36911C9.45887 6.18283 9.44462 5.86657 9.6309 5.66272Z" fill="#41B6E6"/>
</svg>
