<?xml version="1.0" encoding="UTF-8"?>
<svg id="Layer_1" data-name="Layer 1" xmlns="http://www.w3.org/2000/svg" viewBox="0 0 16 16">
  <defs>
    <style>
      .cls-1 {
        fill: #0047bb;
      }
    </style>
  </defs>
  <path class="cls-1" d="M10.84,8.16c-.42-.42-1-.66-1.59-.66h-.75v-2.5h2c.28,0,.5-.22.5-.5s-.22-.5-.5-.5h-2v-1.5c0-.28-.22-.5-.5-.5s-.5.22-.5.5v1.5h-.75c-.6,0-1.17.23-1.59.66-.42.42-.66.99-.66,1.59s.23,1.17.66,1.59c.42.43.99.66,1.59.66h.75v2.5h-2.5c-.28,0-.5.22-.5.5s.22.5.5.5h2.5v1.5c0,.28.22.5.5.5s.5-.22.5-.5v-1.5h.75c.59,0,1.17-.24,1.59-.66s.66-.99.66-1.59-.23-1.17-.66-1.59ZM6.75,7.5c-.33,0-.65-.13-.88-.37s-.37-.55-.37-.88.13-.65.37-.88.55-.37.88-.37h.75v2.5h-.75ZM10.13,10.63c-.23.23-.55.37-.88.37h-.75v-2.5h.75c.33,0,.65.13.88.37.24.24.37.55.37.88s-.13.65-.37.88Z"/>
</svg>