<?xml version="1.0" encoding="UTF-8"?>
<svg id="Layer_1" data-name="Layer 1" xmlns="http://www.w3.org/2000/svg" viewBox="0 0 16 16">
  <defs>
    <style>
      .cls-1 {
        fill: #0047bb;
      }
    </style>
  </defs>
  <path class="cls-1" d="M12.5,9c-.28,0-.5.22-.5.5v2c0,.13-.05.26-.15.35s-.22.15-.35.15h-7c-.13,0-.26-.05-.35-.15-.09-.09-.15-.22-.15-.35v-2c0-.28-.22-.5-.5-.5s-.5.22-.5.5v2c0,.4.16.78.44,1.06.28.28.67.44,1.06.44h7c.39,0,.78-.16,1.06-.44s.44-.66.44-1.06v-2c0-.28-.22-.5-.5-.5Z"/>
  <path class="cls-1" d="M7.65,9.85s.1.08.16.11c.06.03.13.04.19.04s.13-.01.19-.04c.06-.03.12-.06.16-.11l2.5-2.5c.2-.2.2-.51,0-.71s-.51-.2-.71,0l-1.65,1.65V3.5c0-.28-.22-.5-.5-.5s-.5.22-.5.5v4.79l-1.65-1.65c-.2-.2-.51-.2-.71,0s-.2.51,0,.71l2.5,2.5Z"/>
</svg>