<?xml version="1.0" encoding="UTF-8"?>
<svg id="Layer_1" data-name="Layer 1" xmlns="http://www.w3.org/2000/svg" viewBox="0 0 16 16">
  <defs>
    <style>
      .cls-1 {
        fill: $color-primary3;
        fill-rule: evenodd;
      }
    </style>
  </defs>
  <path class="cls-1" d="M14.2,11.92l-1.7-2.82c.16-.75.15-1.54-.02-2.29-.22-.99-.71-1.89-1.42-2.61-.71-.72-1.6-1.23-2.58-1.48-.82-.21-1.68-.22-2.5-.03l-.31.07c-1.29.36-2.39,1.19-3.11,2.32s-.99,2.48-.76,3.83l.06.28c.18.82.56,1.6,1.09,2.25.64.78,1.48,1.37,2.44,1.7.58.2,1.18.3,1.78.3.4,0,.8-.04,1.19-.13.75-.17,1.47-.5,2.08-.96l3.27.33c.19.01.37-.07.47-.23.1-.16.1-.36,0-.53ZM10.35,11.33c-.13,0-.27.03-.37.11-.53.44-1.16.74-1.83.89-.81.18-1.64.13-2.42-.14-.78-.27-1.47-.75-1.99-1.39-.44-.53-.74-1.16-.89-1.83,0,0,0,0,0,0l-.06-.26c-.18-1.08.04-2.18.63-3.1s1.48-1.59,2.51-1.88l.29-.06c.32-.07.64-.11.97-.11.36,0,.72.04,1.07.13.8.2,1.53.62,2.11,1.2.58.59.98,1.33,1.16,2.13.15.67.14,1.37-.02,2.04-.03.13-.01.27.06.38l1.29,2.14-2.48-.25Z"/>
  <path class="cls-1" d="M7.32,7.33c-.33,0-.6.27-.6.6v2.38c0,.33.27.6.6.6s.6-.27.6-.6v-2.38c0-.33-.27-.6-.6-.6Z"/>
  <path class="cls-1" d="M7.32,5.26h0c-.33,0-.6.27-.6.6s.27.6.6.6h0c.33,0,.6-.27.6-.6s-.27-.6-.6-.6Z"/>
</svg>