<?xml version="1.0" encoding="UTF-8"?>
<svg id="Layer_1" data-name="Layer 1" xmlns="http://www.w3.org/2000/svg" viewBox="0 0 16 16">
  <defs>
    <style>
      .cls-1 {
        fill: $color-primary3;
      }
    </style>
  </defs>
  <path class="cls-1" d="M13.13,5.47c-.03-.06-.06-.12-.11-.16l-3.5-3.5s-.1-.08-.16-.11c-.06-.03-.13-.04-.19-.04h-4.67c-.44,0-.86.17-1.18.49-.32.31-.49.73-.49,1.18v9.33c0,.45.17.86.49,1.18.31.31.73.49,1.18.49h7c.44,0,.86-.17,1.18-.49.31-.31.49-.73.49-1.18v-7c0-.07-.01-.13-.04-.19ZM9.67,3.37l1.79,1.79h-1.79v-1.79ZM11.97,13.14c-.13.13-.29.2-.47.2h-7c-.18,0-.35-.07-.47-.2s-.19-.29-.19-.47V3.33c0-.18.07-.35.2-.47s.29-.2.47-.2h4.17v3c0,.28.22.5.5.5h3v6.5c0,.18-.07.35-.19.47Z"/>
  <path class="cls-1" d="M10.33,8.08h-4.67c-.28,0-.5.22-.5.5s.22.5.5.5h4.67c.28,0,.5-.22.5-.5s-.22-.5-.5-.5Z"/>
  <path class="cls-1" d="M10.33,10.42h-4.67c-.28,0-.5.22-.5.5s.22.5.5.5h4.67c.28,0,.5-.22.5-.5s-.22-.5-.5-.5Z"/>
  <path class="cls-1" d="M5.67,6.75h1.17c.28,0,.5-.22.5-.5s-.22-.5-.5-.5h-1.17c-.28,0-.5.22-.5.5s.22.5.5.5Z"/>
</svg>