<?xml version="1.0" encoding="UTF-8"?>
<svg id="Layer_1" data-name="Layer 1" xmlns="http://www.w3.org/2000/svg" viewBox="0 0 16 16">
  <defs>
    <style>
      .cls-1 {
        fill: #0047bb;
      }
    </style>
  </defs>
  <path class="cls-1" d="M15.26,3.46H6.09c-.22-.85-.98-1.47-1.9-1.47s-1.68.63-1.9,1.47H.74c-.28,0-.5.22-.5.5s.22.5.5.5h1.55c.22.85.98,1.48,1.9,1.48s1.68-.63,1.9-1.48h9.17c.28,0,.5-.22.5-.5s-.22-.5-.5-.5ZM4.19,4.87c-.5,0-.91-.41-.91-.91s.41-.91.91-.91.91.41.91.91-.41.91-.91.91Z"/>
  <path class="cls-1" d="M.24,8.04c0,.28.22.5.5.5h9.17c.22.85.98,1.48,1.9,1.48s1.68-.63,1.9-1.48h1.55c.28,0,.5-.22.5-.5,0-.28-.22-.5-.5-.5h-1.55c-.22-.85-.98-1.47-1.9-1.47s-1.68.63-1.9,1.47H.74c-.28,0-.5.22-.5.5ZM10.9,8.04c0-.5.41-.91.91-.91s.91.41.91.91c0,.5-.41.91-.91.91s-.91-.41-.91-.91Z"/>
  <path class="cls-1" d="M15.26,11.54H6.09c-.22-.85-.98-1.47-1.9-1.47s-1.68.63-1.9,1.47H.74c-.28,0-.5.22-.5.5s.22.5.5.5h1.55c.22.85.98,1.48,1.9,1.48s1.68-.63,1.9-1.48h9.17c.28,0,.5-.22.5-.5s-.22-.5-.5-.5ZM4.19,12.95c-.5,0-.91-.41-.91-.91s.41-.91.91-.91.91.41.91.91-.41.91-.91.91Z"/>
</svg>