<?xml version="1.0" encoding="UTF-8"?>
<svg id="Layer_1" data-name="Layer 1" xmlns="http://www.w3.org/2000/svg" viewBox="0 0 16 16">
  <defs>
    <style>
      .cls-1 {
        fill: $color-primary3;
      }
    </style>
  </defs>
  <path class="cls-1" d="M12.67,13.75H3.33c-.44,0-.86-.17-1.18-.49-.31-.31-.49-.74-.49-1.18V3.92c0-.44.18-.87.49-1.18.31-.31.73-.49,1.18-.49h2.92c.17,0,.32.08.42.22l1.02,1.53h4.98c.44,0,.87.18,1.18.49.31.31.49.74.49,1.18v6.42c0,.44-.18.87-.49,1.18-.31.31-.74.49-1.18.49ZM3.33,3.25c-.18,0-.34.07-.47.2s-.2.3-.2.47v8.17c0,.18.07.35.2.47s.29.2.47.2h9.33c.17,0,.35-.07.47-.2s.2-.3.2-.47v-6.42c0-.18-.07-.35-.2-.47s-.3-.2-.47-.2h-5.25c-.17,0-.32-.08-.42-.22l-1.02-1.53h-2.65Z"/>
</svg>