<?xml version="1.0" encoding="UTF-8"?>
<svg id="Layer_1" data-name="Layer 1" xmlns="http://www.w3.org/2000/svg" viewBox="0 0 16 16">
  <defs>
    <style>
      .cls-1 {
        fill: $color-primary3;
      }
    </style>
  </defs>
  <path class="cls-1" d="M14.22,11.94l-1.71-2.83c.16-.76.15-1.55-.02-2.3-.22-.99-.72-1.9-1.42-2.62-.71-.73-1.6-1.24-2.59-1.48-.82-.21-1.69-.22-2.51-.03l-.31.07c-1.29.37-2.4,1.19-3.12,2.33-.72,1.13-.99,2.49-.77,3.84l.06.28c.18.82.56,1.6,1.1,2.25.64.79,1.49,1.38,2.44,1.71.58.2,1.18.3,1.79.3.4,0,.8-.04,1.19-.13.76-.17,1.47-.5,2.09-.97l3.29.33c.2.02.37-.07.47-.23.1-.16.1-.36,0-.53ZM10.36,11.34c-.14-.01-.27.03-.37.11-.53.44-1.17.75-1.84.9-.81.18-1.65.13-2.43-.14-.78-.27-1.47-.75-2-1.4-.44-.53-.75-1.17-.89-1.84,0,0,0,0,0,0l-.06-.26c-.18-1.08.04-2.19.63-3.11.59-.93,1.49-1.6,2.52-1.89l.29-.06c.32-.07.64-.11.97-.11.36,0,.72.04,1.08.13.8.2,1.54.62,2.11,1.21.58.59.98,1.33,1.16,2.14.15.67.14,1.38-.02,2.04-.03.13-.01.27.06.38l1.29,2.15-2.49-.25Z"/>
  <path class="cls-1" d="M4.52,7.72h3c.28,0,.5-.22.5-.5s-.22-.5-.5-.5h-3c-.28,0-.5.22-.5.5s.22.5.5.5Z"/>
  <path class="cls-1" d="M9.52,8.72h-5c-.28,0-.5.22-.5.5s.22.5.5.5h5c.28,0,.5-.22.5-.5s-.22-.5-.5-.5Z"/>
</svg>