<?xml version="1.0" encoding="UTF-8"?>
<svg id="Layer_1" data-name="Layer 1" xmlns="http://www.w3.org/2000/svg" viewBox="0 0 16 16">
  <defs>
    <style>
      .cls-1 {
        fill: $color-primary3;
        fill-rule: evenodd;
      }
    </style>
  </defs>
  <path class="cls-1" d="M8,2.2c-3.2,0-5.8,2.6-5.8,5.8s2.6,5.8,5.8,5.8,5.8-2.6,5.8-5.8-2.6-5.8-5.8-5.8ZM2.36,8c0-3.11,2.52-5.64,5.64-5.64,1.17,0,2.25.36,3.15.96-.9-.61-1.98-.96-3.15-.96-3.11,0-5.64,2.52-5.64,5.64,0,1.36.48,2.61,1.29,3.59-.8-.97-1.29-2.22-1.29-3.59ZM3.09,8c0-2.71,2.2-4.91,4.91-4.91s4.91,2.2,4.91,4.91-2.2,4.91-4.91,4.91-4.91-2.2-4.91-4.91ZM8,13.08c-.7,0-1.37-.14-1.98-.4.61.26,1.27.4,1.98.4,2.8,0,5.07-2.27,5.07-5.08,0-1.4-.57-2.67-1.49-3.59.92.92,1.49,2.19,1.49,3.59,0,2.8-2.27,5.07-5.08,5.07Z"/>
  <path class="cls-1" d="M11.26,8.11c0-.75-.16-1.41-.65-2.07l-.1-.13-.71.53.1.13c.35.47.48.94.48,1.54,0,1.23-1.05,2.26-2.38,2.26s-2.38-1.03-2.38-2.26h0c0-.27,0-.82.49-1.56l.09-.13-.74-.49-.09.13c-.63.95-.64,1.71-.64,2.05,0,1.76,1.48,3.15,3.26,3.15s3.26-1.39,3.26-3.15ZM10.48,6.14s0,0,0,0c.03.04.06.09.09.13.05.07.08.14.12.21-.07-.11-.13-.23-.21-.34h0ZM11.1,8.11c0-.18,0-.35-.03-.51.02.17.03.34.03.51,0,1.45-1.07,2.65-2.48,2.93,1.41-.28,2.48-1.47,2.48-2.93ZM5.42,6.29s.05-.09.08-.13c-.1.15-.16.29-.23.43.05-.1.08-.19.15-.3ZM5.46,8.11h0c0-.28,0-.87.52-1.65l-.47-.31s0,0,0,0l.47.31c-.52.77-.52,1.37-.52,1.64h0c0,1.33,1.13,2.43,2.54,2.43.35,0,.69-.07.99-.19-.3.12-.64.19-.99.19-1.41,0-2.54-1.1-2.54-2.42Z"/>
  <path class="cls-1" d="M8.44,5.02h-.89v3.71h.89v-3.71ZM8.28,8.56h0v-3.38h-.56s.56,0,.56,0v3.38Z"/>
</svg>