<svg width="15" height="14" viewBox="0 0 15 14" fill="none" xmlns="http://www.w3.org/2000/svg">
<path d="M9.97746 4.19604C11.1116 4.19604 12.1994 4.63784 13.0021 5.42451C13.8048 6.21118 14.2568 7.27844 14.259 8.39202V13.294H11.4074V8.39202C11.3801 8.03902 11.2181 7.70916 10.9537 7.46848C10.6893 7.2278 10.3421 7.09407 9.98154 7.09407C9.62101 7.09407 9.2738 7.2278 9.00941 7.46848C8.74502 7.70916 8.58296 8.03902 8.55573 8.39202V13.294H5.7041V8.39202C5.7041 7.27917 6.1543 6.2119 6.95572 5.425C7.75713 4.6381 8.84409 4.19604 9.97746 4.19604Z" fill="white"/>
<path d="M2.85164 4.89404H0V13.294H2.85164V4.89404Z" fill="white"/>
<path d="M1.43052 2.79198C2.21573 2.79198 2.85226 2.16697 2.85226 1.39599C2.85226 0.625005 2.21573 0 1.43052 0C0.64532 0 0.00878906 0.625005 0.00878906 1.39599C0.00878906 2.16697 0.64532 2.79198 1.43052 2.79198Z" fill="white"/>
</svg>
