<?xml version="1.0" encoding="UTF-8"?>
<svg id="Layer_1" data-name="Layer 1" xmlns="http://www.w3.org/2000/svg" viewBox="0 0 16 16">
  <defs>
    <style>
      .cls-1 {
        fill: #0047bb;
      }
    </style>
  </defs>
  <path class="cls-1" d="M15.85,15.15l-3.28-3.28c1.1-1.26,1.77-2.9,1.77-4.7,0-3.95-3.21-7.17-7.17-7.17S0,3.21,0,7.17s3.21,7.17,7.17,7.17c1.8,0,3.44-.67,4.69-1.76l3.28,3.28c.1.1.23.15.35.15s.26-.05.35-.15c.2-.2.2-.51,0-.71ZM1,7.17C1,3.77,3.77,1,7.17,1s6.17,2.77,6.17,6.17c0,1.69-.69,3.23-1.79,4.34,0,0-.01,0-.02.01s0,.01-.01.02c-1.12,1.11-2.65,1.79-4.34,1.79-3.4,0-6.17-2.77-6.17-6.17Z"/>
</svg>