<?xml version="1.0" encoding="UTF-8"?>
<svg id="Layer_1" data-name="Layer 1" xmlns="http://www.w3.org/2000/svg" viewBox="0 0 16 16">
  <defs>
    <style>
      .cls-1 {
        fill: $color-primary3;
      }
    </style>
  </defs>
  <path class="cls-1" d="M14.67,1.73c-.15-.09-.34-.09-.5,0l-3.85,2.2L5.89,1.72s0,0-.01,0c-.06-.03-.13-.05-.21-.05,0,0,0,0,0,0-.01,0-.03,0-.04,0-.06,0-.12.02-.17.05,0,0-.02,0-.03,0L1.34,4.07c-.16.09-.25.25-.25.43v9.33c0,.18.09.34.25.43.15.09.34.09.5,0l3.85-2.2,4.43,2.21s0,0,.01,0c.06.03.13.05.21.05.08,0,.16-.03.23-.06,0,0,.01,0,.02,0l4.08-2.33c.16-.09.25-.25.25-.43V2.17c0-.18-.09-.34-.25-.43ZM6.17,2.98l3.67,1.83v8.21l-3.67-1.83V2.98ZM2.08,4.79l3.08-1.76v8.18l-3.08,1.76V4.79ZM13.92,11.21l-3.08,1.76V4.79l3.08-1.76v8.18Z"/>
</svg>