<?xml version="1.0" encoding="UTF-8"?>
<svg id="Layer_1" data-name="Layer 1" xmlns="http://www.w3.org/2000/svg" viewBox="0 0 20 20">
  <defs>
    <style>
      .cls-1 {
        fill: #010714;
      }
    </style>
  </defs>
  <path class="cls-1" d="M10.01,16.99c-.51,0-1.02-.06-1.53-.17-1.3-.29-2.48-.94-3.43-1.88-.94-.94-1.59-2.13-1.88-3.43-.29-1.3-.2-2.65.25-3.9.45-1.25,1.25-2.35,2.3-3.16,1.05-.81,2.31-1.31,3.64-1.43.39-.04.77.16.96.5s.17.77-.07,1.09c-.52.71-.77,1.58-.71,2.45.07.88.44,1.7,1.06,2.32.62.62,1.45,1,2.32,1.06.87.07,1.75-.19,2.45-.71.32-.23.74-.26,1.09-.07.34.19.54.57.5.96-.12,1.33-.62,2.58-1.43,3.64-.82,1.05-1.91,1.85-3.16,2.3-.77.28-1.57.42-2.38.42ZM7.68,5.56c-.25.13-.5.29-.73.47-.75.58-1.32,1.36-1.65,2.26-.32.89-.38,1.86-.18,2.79.21.93.67,1.77,1.35,2.45.67.67,1.52,1.14,2.45,1.34.93.21,1.89.15,2.79-.18s1.68-.89,2.26-1.64c.18-.23.33-.47.47-.73-.54.12-1.09.16-1.64.12-1.35-.1-2.63-.68-3.59-1.64-.96-.96-1.54-2.23-1.64-3.59-.04-.55,0-1.11.12-1.64Z"/>
</svg>