<?xml version="1.0" encoding="UTF-8"?>
<svg id="Layer_1" data-name="Layer 1" xmlns="http://www.w3.org/2000/svg" viewBox="0 0 16 16">
  <defs>
    <style>
      .cls-1 {
        fill: $color-primary3;
      }
    </style>
  </defs>
  <path class="cls-1" d="M13.53,10.51s-1.53-1.13-1.53-4.84c0-1.07-.42-2.07-1.17-2.83-1.51-1.51-4.14-1.51-5.66,0-.76.76-1.17,1.76-1.17,2.83,0,3.71-1.52,4.83-1.53,4.83-.18.12-.26.35-.2.56s.26.35.48.35h10.5c.22,0,.41-.14.47-.35s-.01-.44-.19-.56ZM3.85,10.42c.54-.83,1.15-2.31,1.15-4.75,0-.8.31-1.55.88-2.12,1.13-1.13,3.11-1.13,4.24,0,.57.57.88,1.32.88,2.12,0,2.44.61,3.92,1.15,4.75H3.85Z"/>
  <path class="cls-1" d="M9.26,12.82c-.24-.14-.54-.06-.68.18-.06.1-.14.19-.24.24-.2.12-.46.12-.67,0-.1-.06-.18-.14-.24-.24-.14-.24-.45-.32-.68-.18-.24.14-.32.44-.18.68.15.25.36.46.61.61.25.15.54.22.83.22s.58-.08.83-.22c.25-.15.46-.36.61-.61.14-.24.06-.54-.18-.68Z"/>
</svg>