<svg width="10" height="10" viewBox="0 0 10 10" fill="none" xmlns="http://www.w3.org/2000/svg">
<path fill-rule="evenodd" clip-rule="evenodd" d="M5.3891 1.00001C5.3891 0.723869 5.16524 0.500012 4.8891 0.500012C4.61296 0.500012 4.3891 0.72387 4.3891 1.00001V4.3891H1.00001C0.72387 4.3891 0.500012 4.61296 0.500012 4.8891C0.500012 5.16524 0.723869 5.3891 1.00001 5.3891H4.3891V8.77819C4.3891 9.05433 4.61296 9.27819 4.8891 9.27819C5.16524 9.27819 5.3891 9.05433 5.3891 8.77819V5.3891H8.77819C9.05433 5.3891 9.27819 5.16524 9.27819 4.8891C9.27819 4.61296 9.05433 4.3891 8.77819 4.3891H5.3891V1.00001Z" fill="#FFED00"/>
</svg>
