<svg width="14" height="15" viewBox="0 0 14 15" fill="none" xmlns="http://www.w3.org/2000/svg">
<path fill-rule="evenodd" clip-rule="evenodd" d="M1.16602 5.83203C1.44216 5.83203 1.66602 6.05589 1.66602 6.33203V9.33203H4.66602C4.94216 9.33203 5.16602 9.55589 5.16602 9.83203C5.16602 10.1082 4.94216 10.332 4.66602 10.332H1.16602C0.889873 10.332 0.666016 10.1082 0.666016 9.83203V6.33203C0.666016 6.05589 0.889873 5.83203 1.16602 5.83203Z" fill="#FFED00"/>
<path fill-rule="evenodd" clip-rule="evenodd" d="M5.98823 5.47643C6.92128 5.20654 7.9075 5.17741 8.85486 5.39177C9.80223 5.60612 10.6798 6.05697 11.4058 6.70222C12.1319 7.34749 12.6826 8.16617 13.0065 9.08185C13.0986 9.34218 12.9623 9.62788 12.7019 9.71999C12.4416 9.81209 12.1559 9.67572 12.0638 9.4154C11.7962 8.65899 11.3413 7.98271 10.7415 7.44968L11.0737 7.07595L10.7415 7.44968C10.1417 6.91662 9.41677 6.54418 8.63418 6.36711L8.63417 6.36711C7.85157 6.19003 7.03687 6.2141 6.26609 6.43705C5.4953 6.66 4.79355 7.07458 4.22632 7.64209L4.21507 7.653L1.50841 10.1963C1.30717 10.3854 0.990737 10.3756 0.801641 10.1743C0.612545 9.9731 0.622389 9.65667 0.823629 9.46758L3.5247 6.92949C4.21036 6.24541 5.05774 5.74558 5.98823 5.47643Z" fill="#FFED00"/>
</svg>
