<?xml version="1.0" encoding="utf-8"?>
<!-- Generator: Adobe Illustrator 27.2.0, SVG Export Plug-In . SVG Version: 6.00 Build 0)  -->
<svg version="1.1" id="Camada_1" xmlns="http://www.w3.org/2000/svg" xmlns:xlink="http://www.w3.org/1999/xlink" x="0px" y="0px"
	 viewBox="0 0 12 12" style="enable-background:new 0 0 12 12;" xml:space="preserve">
<style type="text/css">
	.st0{fill-rule:evenodd;clip-rule:evenodd;fill:#0047BB;}
</style>
<path class="st0" d="M11.5,1c0-0.1-0.1-0.2-0.1-0.3c-0.1-0.1-0.4-0.2-0.5-0.1L0.8,4C0.6,4.1,0.5,4.3,0.5,4.5c0,0.2,0.1,0.4,0.3,0.5
	l4.3,1.9L7,11.2c0.1,0.2,0.3,0.3,0.5,0.3s0.4-0.1,0.5-0.3l3.5-10C11.5,1.1,11.5,1,11.5,1z M9.1,2.2L2.4,4.6l3,1.3L9.1,2.2z M6.1,6.6
	l3.7-3.7L7.4,9.6L6.1,6.6z"/>
</svg>
