<?xml version="1.0" encoding="UTF-8"?>
<svg id="Layer_1" data-name="Layer 1" xmlns="http://www.w3.org/2000/svg" viewBox="0 0 16 16">
  <defs>
    <style>
      .cls-1 {
        fill: $color-primary3;
      }
    </style>
  </defs>
  <path class="cls-1" d="M8,5.75c-1.24,0-2.25,1.01-2.25,2.25s1.01,2.25,2.25,2.25,2.25-1.01,2.25-2.25-1.01-2.25-2.25-2.25ZM8,9.25c-.69,0-1.25-.56-1.25-1.25s.56-1.25,1.25-1.25,1.25.56,1.25,1.25-.56,1.25-1.25,1.25Z"/>
  <path class="cls-1" d="M12.78,9.95c.04-.08.09-.15.17-.2.08-.05.16-.08.3-.08.45,0,.86-.17,1.18-.49s.49-.73.49-1.18-.17-.86-.49-1.18-.73-.49-1.28-.49c-.09,0-.18-.03-.25-.08-.06-.04-.1-.08-.14-.14,0-.04-.02-.08-.03-.11-.04-.09-.05-.18-.03-.27.02-.09.06-.17.15-.27.16-.15.28-.34.36-.54.08-.2.13-.42.13-.64s-.04-.43-.13-.64c-.08-.21-.21-.39-.36-.54-.15-.16-.34-.28-.54-.36-.41-.17-.87-.17-1.28,0-.2.08-.39.21-.57.39-.07.06-.15.11-.24.12-.09.02-.18,0-.28-.03-.08-.04-.15-.09-.2-.17-.05-.07-.08-.16-.08-.3,0-.44-.17-.86-.49-1.18-.63-.63-1.73-.63-2.36,0-.32.31-.49.73-.49,1.28,0,.09-.03.18-.08.25-.04.06-.08.1-.14.14-.04,0-.08.02-.12.03-.08.04-.18.05-.27.03-.09-.02-.17-.06-.27-.16-.16-.16-.34-.28-.54-.36-.41-.17-.87-.17-1.28,0-.2.08-.38.21-.54.36-.15.15-.28.34-.36.54-.08.2-.13.42-.13.64s.04.43.13.64c.08.2.21.38.39.57.06.07.11.15.12.24.02.09,0,.19-.04.3-.03.09-.09.16-.17.22-.08.05-.17.08-.3.09-.45,0-.86.17-1.18.49s-.49.73-.49,1.18.18.87.49,1.18c.31.31.73.49,1.28.49.09,0,.18.03.25.08.08.05.13.12.17.21.04.09.05.18.03.27-.02.09-.06.18-.15.27-.16.15-.28.34-.36.54-.08.2-.13.42-.13.64s.04.43.13.64c.08.2.21.39.36.54.16.16.34.28.54.36.41.17.87.17,1.28,0,.2-.08.38-.21.57-.39.07-.06.15-.11.24-.12.09-.02.18,0,.3.04.09.03.16.09.21.16.05.08.08.17.09.3,0,.44.17.86.49,1.18s.73.49,1.18.49.86-.17,1.18-.49c.31-.31.49-.73.49-1.27,0-.09.03-.18.08-.25.05-.08.12-.13.21-.17.08-.04.18-.05.27-.03.09.02.17.06.27.16.16.16.34.28.54.36.4.17.87.17,1.28,0,.2-.08.39-.21.54-.36.15-.15.28-.34.36-.54.08-.2.13-.42.13-.64s-.04-.43-.13-.64c-.08-.2-.21-.38-.39-.57-.06-.07-.11-.15-.12-.24-.02-.09,0-.19.03-.27,0,0,0,0,0,0ZM12.39,8.91c-.24.16-.42.38-.54.64-.12.27-.15.56-.1.85s.19.55.43.8c.06.06.11.14.15.22.03.08.05.17.05.26s-.02.17-.05.25c-.04.08-.08.16-.15.22s-.13.11-.22.15c-.16.07-.35.07-.51,0-.08-.03-.15-.08-.26-.18-.21-.21-.47-.34-.76-.39-.29-.05-.58-.02-.85.1-.26.11-.49.3-.64.54-.16.24-.24.52-.24.8v.1c0,.18-.07.35-.19.47-.26.25-.69.25-.94,0-.13-.13-.2-.29-.2-.54,0-.29-.1-.58-.27-.81-.17-.24-.41-.42-.65-.51-.19-.08-.39-.13-.59-.13-.09,0-.17,0-.26.02-.29.05-.55.19-.8.43-.06.06-.14.11-.22.15-.16.07-.35.07-.51,0-.08-.03-.15-.08-.22-.15-.06-.06-.11-.13-.14-.21-.03-.08-.05-.17-.05-.26s.02-.17.05-.26c.03-.08.08-.15.18-.26.2-.21.34-.47.39-.76.05-.29.02-.58-.1-.85-.11-.26-.3-.48-.54-.64-.24-.16-.52-.24-.8-.24h-.1c-.18,0-.35-.07-.47-.2s-.2-.3-.2-.47.07-.35.2-.47.3-.2.54-.2c.29,0,.58-.1.82-.27.24-.17.42-.41.51-.66.12-.27.15-.56.1-.85-.05-.29-.19-.55-.43-.8-.06-.06-.11-.14-.15-.22-.03-.08-.05-.17-.05-.26s.02-.17.05-.25c.04-.08.08-.16.15-.22s.14-.11.22-.15c.16-.07.35-.07.51,0,.08.03.15.08.26.18.21.21.47.34.76.39.25.05.51.02.75-.06.05,0,.09-.02.14-.04.26-.11.49-.3.64-.54.16-.24.24-.52.24-.9,0-.18.07-.35.2-.47.25-.25.69-.25.94,0,.13.13.2.29.2.52,0,.29.08.57.24.8.16.24.38.43.64.54.27.12.56.16.85.1.29-.05.55-.19.8-.43.06-.06.13-.11.22-.14.16-.07.35-.07.51,0,.08.03.15.08.22.15.06.06.11.13.14.21.03.08.05.17.05.26s-.02.17-.05.26c-.03.08-.08.15-.18.26-.21.21-.34.47-.39.76-.05.25-.02.51.06.75,0,.05.02.1.04.14.11.26.3.48.54.64.24.16.52.24.8.24h.1c.18,0,.35.07.47.19.13.13.2.29.2.47s-.07.35-.2.47c-.13.13-.29.19-.53.19-.29,0-.56.09-.8.24Z"/>
</svg>