<?xml version="1.0" encoding="UTF-8"?>
<svg id="Layer_1" data-name="Layer 1" xmlns="http://www.w3.org/2000/svg" viewBox="0 0 16 16">
  <defs>
    <style>
      .cls-1 {
        fill: $color-primary3;
      }
    </style>
  </defs>
  <path class="cls-1" d="M11.61,14.04c-.08,0-.16-.02-.23-.06l-3.37-1.77-3.37,1.77c-.17.09-.37.07-.53-.04-.15-.11-.23-.3-.2-.49l.64-3.75-2.73-2.66c-.14-.13-.19-.33-.13-.51s.21-.31.4-.34l3.77-.55,1.69-3.42c.17-.34.73-.34.9,0l1.69,3.42,3.77.55c.19.03.34.16.4.34s0,.38-.13.51l-2.73,2.66.64,3.75c.03.19-.04.38-.2.49-.09.06-.19.1-.29.1ZM8,11.14c.08,0,.16.02.23.06l2.71,1.42-.52-3.01c-.03-.16.03-.33.14-.44l2.19-2.13-3.03-.44c-.16-.02-.3-.13-.38-.27l-1.35-2.74-1.35,2.74c-.07.15-.21.25-.38.27l-3.03.44,2.19,2.13c.12.11.17.28.14.44l-.52,3.01,2.71-1.42c.07-.04.15-.06.23-.06Z"/>
</svg>