<svg width="14" height="14" viewBox="0 0 14 14" fill="none" xmlns="http://www.w3.org/2000/svg">
<g clip-path="url(#clip0_2013_153)">
<path fill-rule="evenodd" clip-rule="evenodd" d="M6.99997 0.952515C7.19028 0.952515 7.36409 1.06055 7.44833 1.2312L9.13461 4.64741L12.9056 5.1986C13.0939 5.22612 13.2502 5.35813 13.3089 5.53913C13.3676 5.72014 13.3185 5.91876 13.1822 6.05153L10.4539 8.70886L11.0978 12.463C11.13 12.6506 11.0528 12.8402 10.8988 12.952C10.7449 13.0639 10.5407 13.0786 10.3722 12.9901L6.99997 11.2166L3.6277 12.9901C3.45924 13.0786 3.2551 13.0639 3.10111 12.952C2.94712 12.8402 2.87 12.6506 2.90217 12.463L3.54605 8.70886L0.817774 6.05153C0.681465 5.91876 0.632329 5.72014 0.691018 5.53913C0.749706 5.35813 0.906046 5.22612 1.09433 5.1986L4.86534 4.64741L6.55162 1.2312C6.63586 1.06055 6.80967 0.952515 6.99997 0.952515ZM6.99997 2.58214L5.64583 5.32549C5.57306 5.47292 5.43247 5.57515 5.26979 5.59892L2.24085 6.04165L4.43217 8.176C4.55011 8.29087 4.60394 8.45644 4.57611 8.6187L4.05906 11.6334L6.76725 10.2091C6.91294 10.1325 7.08701 10.1325 7.2327 10.2091L9.94088 11.6334L9.42384 8.6187C9.39601 8.45644 9.44984 8.29087 9.56777 8.176L11.7591 6.04165L8.73016 5.59892C8.56748 5.57515 8.42689 5.47292 8.35412 5.32549L6.99997 2.58214Z" fill="white"/>
</g>
<defs>
<clipPath id="clip0_2013_153">
<rect width="14" height="14" fill="white"/>
</clipPath>
</defs>
</svg>
