<?xml version="1.0" encoding="UTF-8"?>
<svg id="Layer_1" data-name="Layer 1" xmlns="http://www.w3.org/2000/svg" viewBox="0 0 20 20">
  <defs>
    <style>
      .cls-1 {
        fill: #010714;
      }
    </style>
  </defs>
  <path class="cls-1" d="M10,5.41c-2.53,0-4.59,2.06-4.59,4.59s2.06,4.59,4.59,4.59,4.59-2.06,4.59-4.59-2.06-4.59-4.59-4.59ZM10,12.77c-1.53,0-2.77-1.24-2.77-2.77s1.24-2.77,2.77-2.77,2.77,1.24,2.77,2.77-1.24,2.77-2.77,2.77Z"/>
  <path class="cls-1" d="M10,4.29c.5,0,.91-.41.91-.91v-1.47c0-.5-.41-.91-.91-.91s-.91.41-.91.91v1.47c0,.5.41.91.91.91Z"/>
  <path class="cls-1" d="M10,15.71c-.5,0-.91.41-.91.91v1.47c0,.5.41.91.91.91s.91-.41.91-.91v-1.47c0-.5-.41-.91-.91-.91Z"/>
  <path class="cls-1" d="M4.68,5.97c.18.18.41.27.64.27s.47-.09.64-.27c.36-.36.36-.93,0-1.29l-1.04-1.04c-.36-.36-.93-.36-1.29,0s-.36.93,0,1.29l1.04,1.04Z"/>
  <path class="cls-1" d="M15.32,14.03c-.36-.36-.93-.36-1.29,0s-.36.93,0,1.29l1.04,1.04c.18.18.41.27.64.27s.47-.09.64-.27c.36-.36.36-.93,0-1.29l-1.04-1.04Z"/>
  <path class="cls-1" d="M4.29,10c0-.5-.41-.91-.91-.91h-1.47c-.5,0-.91.41-.91.91s.41.91.91.91h1.47c.5,0,.91-.41.91-.91Z"/>
  <path class="cls-1" d="M18.09,9.09h-1.47c-.5,0-.91.41-.91.91s.41.91.91.91h1.47c.5,0,.91-.41.91-.91s-.41-.91-.91-.91Z"/>
  <path class="cls-1" d="M4.68,14.03l-1.04,1.04c-.36.35-.36.93,0,1.29.18.18.41.27.64.27s.47-.09.64-.27l1.04-1.04c.36-.35.36-.93,0-1.29s-.93-.36-1.29,0Z"/>
  <path class="cls-1" d="M14.68,6.23c.23,0,.47-.09.64-.27l1.04-1.04c.36-.35.36-.93,0-1.29s-.93-.36-1.29,0l-1.04,1.04c-.36.35-.36.93,0,1.29.18.18.41.27.64.27Z"/>
</svg>