<svg width="16" height="14" viewBox="0 0 16 14" fill="none" xmlns="http://www.w3.org/2000/svg">
<path d="M15.6881 0.738242C15.0043 1.2104 14.2486 1.57327 13.4492 1.81334C12.894 1.1864 12.1081 0.801359 11.2641 0.742698C10.42 0.684038 9.58678 0.956542 8.94712 1.50043C8.59998 1.8019 8.32206 2.17241 8.13188 2.58737C7.9417 3.00234 7.84359 3.45226 7.84402 3.90731V4.6053C6.59169 4.63714 5.35078 4.36448 4.23171 3.81157C3.11264 3.25867 2.15015 2.44272 1.4299 1.43628C1.4299 1.43628 -1.42174 7.78239 4.9924 10.5423C3.52401 11.5217 1.7736 12.0112 0 11.9383C6.42231 15.4443 14.2582 11.9383 14.2582 3.91534C14.2598 3.72135 14.2406 3.52776 14.201 3.33771C14.9332 2.62388 15.4482 1.72364 15.6881 0.738242Z" fill="white"/>
</svg>
