<?xml version="1.0" encoding="UTF-8"?>
<svg id="Layer_1" data-name="Layer 1" xmlns="http://www.w3.org/2000/svg" viewBox="0 0 16 16">
  <defs>
    <style>
      .cls-1 {
        fill: #0047bb;
      }
    </style>
  </defs>
  <path class="cls-1" d="M8.58,9.25H3.92c-.76,0-1.47.29-2,.83-.54.54-.83,1.25-.83,2v1.17c0,.28.22.5.5.5s.5-.22.5-.5v-1.17c0-.49.19-.95.54-1.3.35-.35.81-.54,1.3-.54h4.67c.48,0,.96.2,1.3.54.35.35.54.81.54,1.3v1.17c0,.28.22.5.5.5s.5-.22.5-.5v-1.17c0-.76-.29-1.47-.83-2-.53-.53-1.26-.83-2-.83Z"/>
  <path class="cls-1" d="M6.25,7.92c1.56,0,2.83-1.27,2.83-2.83s-1.27-2.83-2.83-2.83-2.83,1.27-2.83,2.83,1.27,2.83,2.83,2.83ZM6.25,3.25c1.01,0,1.83.82,1.83,1.83s-.82,1.83-1.83,1.83-1.83-.82-1.83-1.83.82-1.83,1.83-1.83Z"/>
  <path class="cls-1" d="M14.32,10.35c-.38-.49-.93-.85-1.53-1.01-.27-.07-.54.09-.61.36-.07.27.09.54.36.61.39.1.74.33.99.65.25.32.38.72.38,1.12v1.17c0,.28.22.5.5.5s.5-.22.5-.5v-1.17c0-.62-.21-1.24-.59-1.73Z"/>
  <path class="cls-1" d="M11.99,3.35c-.38-.49-.93-.85-1.54-1.01-.26-.07-.54.09-.61.36-.07.27.09.54.36.61.39.1.75.33.99.65.25.32.38.72.38,1.12s-.14.8-.38,1.12c-.25.32-.6.55-.99.65-.27.07-.43.34-.36.61.06.23.26.38.48.38.04,0,.08,0,.12-.02.61-.15,1.15-.51,1.54-1.01.38-.49.59-1.11.59-1.74s-.21-1.24-.59-1.74Z"/>
</svg>