<svg width="16" height="11" viewBox="0 0 16 11" fill="none" xmlns="http://www.w3.org/2000/svg">
<path d="M15.3537 1.69617C15.269 1.36474 15.0967 1.06113 14.8543 0.816014C14.6118 0.570901 14.3078 0.392982 13.9728 0.300185C11.9381 0.080105 9.89162 -0.0190211 7.84467 0.00334071C5.7943 -0.0208511 3.74449 0.0863685 1.70834 0.324277C1.37358 0.419965 1.07006 0.599823 0.827862 0.846081C0.585662 1.09234 0.413175 1.39645 0.327456 1.72829C0.104489 2.94886 -0.00492729 4.18681 0.000600642 5.42684C-0.00916949 6.67768 0.100272 7.92665 0.327456 9.15747C0.419639 9.48003 0.595266 9.77368 0.837238 10.0099C1.07921 10.246 1.37929 10.4167 1.70834 10.5053C5.78219 10.9326 9.8908 10.9326 13.9647 10.5053C14.3002 10.4111 14.6045 10.2317 14.8469 9.98523C15.0893 9.73874 15.2613 9.43385 15.3455 9.10131C15.7814 6.65147 15.7814 4.146 15.3455 1.69617H15.3537ZM6.23498 7.72139V3.14028L10.3204 5.42684L6.23498 7.72139Z" fill="white"/>
</svg>
