<svg width="14" height="14" viewBox="0 0 14 14" fill="none" xmlns="http://www.w3.org/2000/svg">
<g clip-path="url(#clip0_1740_44600)">
<g clip-path="url(#clip1_1740_44600)">
<path d="M0.000488281 4.37507H1.31299V3.24027C1.31299 2.39479 2.3958 1.3126 3.24072 1.3126H4.37549V0H5.25049V1.3126H6.56299V0H7.43799V1.3126H8.75049V0H9.62549V1.3126H10.7603C11.6076 1.3126 12.688 2.39233 12.688 3.24027V4.37507H14.0005V5.25014H12.688V6.56274H14.0005V7.43781H12.688V8.75041H14.0005V9.62548H12.688V10.7603C12.688 11.6082 11.6076 12.6879 10.7603 12.6879H9.62549V14.0005H8.75049V12.6879H7.43799V14.0005H6.56299V12.6879H5.25049V14.0005H4.37549V12.6879H3.24072C2.3958 12.6879 1.31299 11.6058 1.31299 10.7603V9.62548H0.000488281V8.75041H1.31299V7.43781H0.000488281V6.56274H1.31299V5.25014H0.000488281V4.37507ZM3.38537 2.19562C2.7242 2.26356 2.24432 2.77397 2.18826 3.43205L2.18689 10.5422C2.23912 11.2523 2.74854 11.7614 3.45838 11.8137H10.5426C11.2527 11.7614 11.7619 11.2521 11.8141 10.5422V3.45781C11.7627 2.7589 11.2656 2.25068 10.5686 2.18767L3.38564 2.19534L3.38537 2.19562Z" fill="#41B6E6"/>
<path d="M7.43799 9.62493H6.56299V8.0937H5.25049V9.62493H4.37549V5.7011C4.37549 5.60192 4.50264 5.27014 4.55623 5.17096C5.11787 4.12822 6.64693 4.10192 7.23346 5.14028C7.30072 5.25918 7.43799 5.57534 7.43799 5.70137V9.62521V9.62493ZM6.56299 7.21891V5.81069C6.56299 5.77288 6.47686 5.58466 6.44896 5.54192C6.19986 5.15945 5.61334 5.15945 5.36424 5.54192C5.33635 5.58466 5.25021 5.77288 5.25021 5.81069V7.21891H6.56272H6.56299Z" fill="#41B6E6"/>
<path d="M9.62549 4.37507H8.75049V9.62521H9.62549V4.37507Z" fill="#41B6E6"/>
</g>
</g>
<defs>
<clipPath id="clip0_1740_44600">
<rect width="14" height="14" fill="white" transform="translate(0.00244141)"/>
</clipPath>
<clipPath id="clip1_1740_44600">
<rect width="14" height="14" fill="white" transform="translate(0.000488281)"/>
</clipPath>
</defs>
</svg>
