<svg width="12" height="14" viewBox="0 0 12 14" fill="none" xmlns="http://www.w3.org/2000/svg">
<path fill-rule="evenodd" clip-rule="evenodd" d="M11.5294 0.80957H1.27938V3.16957H0.699375C0.509375 3.16957 0.359375 3.31957 0.359375 3.50957C0.359375 3.69957 0.509375 3.84957 0.699375 3.84957H1.27938V5.58957H0.699375C0.509375 5.58957 0.359375 5.73957 0.359375 5.92957C0.359375 6.11957 0.509375 6.26957 0.699375 6.26957H1.27938V8.00957H0.699375C0.509375 8.00957 0.359375 8.15957 0.359375 8.34957C0.359375 8.53957 0.509375 8.68957 0.699375 8.68957H1.27938V10.4296H0.699375C0.509375 10.4296 0.359375 10.5796 0.359375 10.7696C0.359375 10.9596 0.509375 11.1096 0.699375 11.1096H1.27938V13.1996H11.6294V0.80957H11.5294ZM10.7594 12.3096H2.15937V11.0996H2.73937C2.92937 11.0996 3.07938 10.9496 3.07938 10.7596C3.07938 10.5696 2.92937 10.4196 2.73937 10.4196H2.15937V8.67957H2.73937C2.92937 8.67957 3.07938 8.52957 3.07938 8.33957C3.07938 8.14957 2.92937 7.99957 2.73937 7.99957H2.15937V6.25957H2.73937C2.92937 6.25957 3.07938 6.10957 3.07938 5.91957C3.07938 5.72957 2.92937 5.57957 2.73937 5.57957H2.15937V3.83957H2.73937C2.92937 3.83957 3.07938 3.68957 3.07938 3.49957C3.07938 3.30957 2.92937 3.15957 2.73937 3.15957H2.15937V1.66957H10.7594V12.2996V12.3096Z" fill="#41B6E6"/>
<path fill-rule="evenodd" clip-rule="evenodd" d="M1.17977 0.709961H11.7298V13.3H1.17977V11.21H0.699766C0.454538 11.21 0.259766 11.0152 0.259766 10.77C0.259766 10.5247 0.454537 10.33 0.699766 10.33H1.17977V8.78996H0.699766C0.454538 8.78996 0.259766 8.59519 0.259766 8.34996C0.259766 8.10473 0.454537 7.90996 0.699766 7.90996H1.17977V6.36996H0.699766C0.454537 6.36996 0.259766 6.17519 0.259766 5.92996C0.259766 5.68473 0.454537 5.48996 0.699766 5.48996H1.17977V3.94996H0.699766C0.454537 3.94996 0.259766 3.75519 0.259766 3.50996C0.259766 3.26473 0.454537 3.06996 0.699766 3.06996H1.17977V0.709961ZM1.37977 0.909961V3.26996H0.699766C0.564994 3.26996 0.459766 3.37519 0.459766 3.50996C0.459766 3.64473 0.564994 3.74996 0.699766 3.74996H1.37977V5.68996H0.699766C0.564994 5.68996 0.459766 5.79519 0.459766 5.92996C0.459766 6.06473 0.564994 6.16996 0.699766 6.16996H1.37977V8.10996H0.699766C0.564994 8.10996 0.459766 8.21519 0.459766 8.34996C0.459766 8.48473 0.564994 8.58996 0.699766 8.58996H1.37977V10.53H0.699766C0.564994 10.53 0.459766 10.6352 0.459766 10.77C0.459766 10.9047 0.564994 11.01 0.699766 11.01H1.37977V13.1H11.5298V0.909961H1.37977ZM2.05977 1.56996H10.8598V12.41H2.05977V11H2.73977C2.87454 11 2.97977 10.8947 2.97977 10.76C2.97977 10.6252 2.87454 10.52 2.73977 10.52H2.05977V8.57996H2.73977C2.87454 8.57996 2.97977 8.47473 2.97977 8.33996C2.97977 8.20519 2.87454 8.09996 2.73977 8.09996H2.05977V6.15996H2.73977C2.87454 6.15996 2.97977 6.05473 2.97977 5.91996C2.97977 5.78519 2.87454 5.67996 2.73977 5.67996H2.05977V3.73996H2.73977C2.87454 3.73996 2.97977 3.63473 2.97977 3.49996C2.97977 3.36519 2.87454 3.25996 2.73977 3.25996H2.05977V1.56996ZM2.25977 1.76996V3.05996H2.73977C2.98499 3.05996 3.17977 3.25473 3.17977 3.49996C3.17977 3.74519 2.98499 3.93996 2.73977 3.93996H2.25977V5.47996H2.73977C2.98499 5.47996 3.17977 5.67473 3.17977 5.91996C3.17977 6.16519 2.98499 6.35996 2.73977 6.35996H2.25977V7.89996H2.73977C2.98499 7.89996 3.17977 8.09473 3.17977 8.33996C3.17977 8.58519 2.98499 8.77996 2.73977 8.77996H2.25977V10.32H2.73977C2.98499 10.32 3.17977 10.5147 3.17977 10.76C3.17977 11.0052 2.98499 11.2 2.73977 11.2H2.25977V12.21H10.6598V1.76996H2.25977Z" fill="#41B6E6"/>
<path fill-rule="evenodd" clip-rule="evenodd" d="M8.83023 9.8102H8.93023V4.2002H3.99023V9.8102H8.83023ZM4.87023 5.0702H8.05023V8.9302H4.87023V5.0702Z" fill="#41B6E6"/>
<path fill-rule="evenodd" clip-rule="evenodd" d="M3.89062 4.09961H9.03063V9.90961H3.89062V4.09961ZM4.09063 4.29961V9.70961H8.83063L8.83063 4.29961H4.09063ZM4.77063 4.96961H8.15063V9.02961H4.77063V4.96961ZM4.97063 5.16961V8.82961H7.95063V5.16961H4.97063Z" fill="#41B6E6"/>
</svg>
