<svg width="14" height="14" viewBox="0 0 14 14" fill="none" xmlns="http://www.w3.org/2000/svg">
<path fill-rule="evenodd" clip-rule="evenodd" d="M2.4745 2.62819C2.26582 2.79265 2.25244 2.89391 2.25244 2.91666C2.25244 2.93942 2.26582 3.04068 2.4745 3.20514C2.67754 3.36515 3.00233 3.53112 3.44824 3.67976C4.33485 3.97529 5.59148 4.16666 7.00244 4.16666C8.4134 4.16666 9.67004 3.97529 10.5566 3.67976C11.0026 3.53112 11.3273 3.36515 11.5304 3.20514C11.7391 3.04068 11.7524 2.93942 11.7524 2.91666C11.7524 2.89391 11.7391 2.79265 11.5304 2.62819C11.3273 2.46818 11.0026 2.30221 10.5566 2.15357C9.67004 1.85803 8.4134 1.66666 7.00244 1.66666C5.59148 1.66666 4.33485 1.85803 3.44824 2.15357C3.00233 2.30221 2.67754 2.46818 2.4745 2.62819ZM3.13202 1.20489C4.14554 0.867044 5.51391 0.666664 7.00244 0.666664C8.49097 0.666664 9.85934 0.867044 10.8729 1.20489C11.377 1.37294 11.8211 1.58406 12.1494 1.84278C12.472 2.09706 12.7524 2.45617 12.7524 2.91666C12.7524 3.37715 12.472 3.73627 12.1494 3.99055C11.8211 4.24927 11.377 4.46039 10.8729 4.62844C9.85934 4.96628 8.49097 5.16666 7.00244 5.16666C5.51391 5.16666 4.14554 4.96628 3.13202 4.62844C2.62787 4.46039 2.18381 4.24927 1.85553 3.99055C1.53287 3.73627 1.25244 3.37715 1.25244 2.91666C1.25244 2.45617 1.53287 2.09706 1.85553 1.84278C2.18381 1.58406 2.62787 1.37294 3.13202 1.20489Z" fill="#41B6E6"/>
<path fill-rule="evenodd" clip-rule="evenodd" d="M1.75244 6.5C2.02858 6.5 2.25244 6.72386 2.25244 7C2.25244 7.02489 2.26668 7.12648 2.47313 7.29007C2.67459 7.44971 2.99742 7.61543 3.44202 7.76386C4.32606 8.05899 5.58249 8.25 7.00244 8.25C8.42239 8.25 9.67882 8.05899 10.5629 7.76386C11.0075 7.61543 11.3303 7.44971 11.5318 7.29007C11.7382 7.12648 11.7524 7.02489 11.7524 7C11.7524 6.72386 11.9763 6.5 12.2524 6.5C12.5286 6.5 12.7524 6.72386 12.7524 7C12.7524 7.45927 12.475 7.81852 12.1528 8.07383C11.8256 8.3331 11.3828 8.54436 10.8795 8.71239C9.86773 9.05018 8.49916 9.25 7.00244 9.25C5.50573 9.25 4.13715 9.05018 3.12536 8.71239C2.62204 8.54436 2.17925 8.3331 1.85207 8.07383C1.52987 7.81852 1.25244 7.45927 1.25244 7C1.25244 6.72386 1.4763 6.5 1.75244 6.5Z" fill="#41B6E6"/>
<path fill-rule="evenodd" clip-rule="evenodd" d="M1.75244 2.41666C2.02858 2.41666 2.25244 2.64052 2.25244 2.91666V11.0833C2.25244 11.1082 2.26668 11.2098 2.47313 11.3734C2.67459 11.533 2.99742 11.6988 3.44202 11.8472C4.32606 12.1423 5.58249 12.3333 7.00244 12.3333C8.42239 12.3333 9.67882 12.1423 10.5629 11.8472C11.0075 11.6988 11.3303 11.533 11.5318 11.3734C11.7382 11.2098 11.7524 11.1082 11.7524 11.0833V2.91666C11.7524 2.64052 11.9763 2.41666 12.2524 2.41666C12.5286 2.41666 12.7524 2.64052 12.7524 2.91666V11.0833C12.7524 11.5426 12.475 11.9019 12.1528 12.1572C11.8256 12.4164 11.3828 12.6277 10.8795 12.7957C9.86773 13.1335 8.49916 13.3333 7.00244 13.3333C5.50573 13.3333 4.13715 13.1335 3.12536 12.7957C2.62204 12.6277 2.17925 12.4164 1.85207 12.1572C1.52987 11.9019 1.25244 11.5426 1.25244 11.0833V2.91666C1.25244 2.64052 1.4763 2.41666 1.75244 2.41666Z" fill="#41B6E6"/>
</svg>
