<svg width="14" height="14" viewBox="0 0 14 14" fill="none" xmlns="http://www.w3.org/2000/svg">
<path d="M10.5003 3.00229C10.6327 3.00229 10.7597 3.05476 10.8536 3.14871C10.9476 3.24266 11 3.3696 11 3.50202V10.4983C11 10.6307 10.9476 10.7576 10.8536 10.8516C10.7597 10.9455 10.6327 10.998 10.5003 10.998H8.50139C8.22554 10.998 8.00166 11.2219 8.00166 11.4977C8.00166 11.7736 8.22554 11.9975 8.50139 11.9975H10.5003C10.8981 11.9975 11.2789 11.8395 11.5602 11.5582C11.8416 11.2768 11.9995 10.896 11.9995 10.4983V3.50202C11.9995 3.10424 11.8416 2.72344 11.5602 2.44209C11.2789 2.16075 10.8981 2.00283 10.5003 2.00283H8.50139C8.22554 2.00283 8.00166 2.22671 8.00166 2.50256C8.00166 2.77841 8.22554 3.00229 8.50139 3.00229H10.5003Z" fill="#41B6E6"/>
<path d="M4.64835 4.14889C4.84375 3.95349 5.15958 3.95349 5.35497 4.14889C5.55037 4.34428 5.55037 4.66011 5.35497 4.85551L3.70936 6.50112H8.49978C8.77563 6.50112 8.99951 6.725 8.99951 7.00085C8.99951 7.27671 8.77563 7.50058 8.49978 7.50058H3.70936L5.35497 9.1462C5.55037 9.34159 5.55037 9.65742 5.35497 9.85282C5.15958 10.0482 4.84375 10.0482 4.64835 9.85282L2.1497 7.35416C1.9543 7.15877 1.9543 6.84294 2.1497 6.64754L4.64835 4.14889Z" fill="#41B6E6"/>
</svg>
