<svg width="14" height="14" viewBox="0 0 14 14" fill="none" xmlns="http://www.w3.org/2000/svg">
<g clip-path="url(#clip0_1760_12403)">
<path fill-rule="evenodd" clip-rule="evenodd" d="M0.915558 9.07986C1.44691 8.54851 2.16758 8.25 2.91903 8.25H7.58569C8.33714 8.25 9.05781 8.54851 9.58916 9.07986C10.1205 9.61122 10.419 10.3319 10.419 11.0833V12.25C10.419 12.5261 10.1952 12.75 9.91903 12.75C9.64288 12.75 9.41903 12.5261 9.41903 12.25V11.0833C9.41903 10.5971 9.22587 10.1308 8.88206 9.78697C8.53824 9.44315 8.07192 9.25 7.58569 9.25H2.91903C2.4328 9.25 1.96648 9.44315 1.62266 9.78697C1.27885 10.1308 1.08569 10.5971 1.08569 11.0833V12.25C1.08569 12.5261 0.861836 12.75 0.585693 12.75C0.309551 12.75 0.0856934 12.5261 0.0856934 12.25V11.0833C0.0856934 10.3319 0.384205 9.61122 0.915558 9.07986Z" fill="#41B6E6"/>
<path fill-rule="evenodd" clip-rule="evenodd" d="M5.25252 2.25C4.24 2.25 3.41919 3.07081 3.41919 4.08333C3.41919 5.09586 4.24 5.91667 5.25252 5.91667C6.26504 5.91667 7.08586 5.09586 7.08586 4.08333C7.08586 3.07081 6.26504 2.25 5.25252 2.25ZM2.41919 4.08333C2.41919 2.51853 3.68772 1.25 5.25252 1.25C6.81733 1.25 8.08586 2.51853 8.08586 4.08333C8.08586 5.64814 6.81733 6.91667 5.25252 6.91667C3.68772 6.91667 2.41919 5.64814 2.41919 4.08333Z" fill="#41B6E6"/>
<path fill-rule="evenodd" clip-rule="evenodd" d="M11.1852 8.70084C11.2542 8.43346 11.5269 8.27268 11.7943 8.34171C12.4022 8.49866 12.9407 8.85303 13.3253 9.34919C13.7099 9.84534 13.9188 10.4552 13.9193 11.083L13.9193 12.25C13.9193 12.5261 13.6955 12.75 13.4193 12.75C13.1432 12.75 12.9193 12.5261 12.9193 12.25L12.9193 11.0837C12.9193 11.0837 12.9193 11.0838 12.9193 11.0837C12.919 10.6776 12.7838 10.2829 12.5349 9.96185C12.2861 9.64081 11.9376 9.41151 11.5443 9.30996C11.2769 9.24092 11.1162 8.96821 11.1852 8.70084Z" fill="#41B6E6"/>
<path fill-rule="evenodd" clip-rule="evenodd" d="M8.85144 1.70181C8.91993 1.4343 9.19232 1.27297 9.45983 1.34146C10.0693 1.49751 10.6095 1.85196 10.9952 2.34893C11.381 2.8459 11.5904 3.45713 11.5904 4.08625C11.5904 4.71537 11.381 5.3266 10.9952 5.82357C10.6095 6.32055 10.0693 6.675 9.45983 6.83104C9.19232 6.89954 8.91993 6.7382 8.85144 6.47069C8.78294 6.20317 8.94428 5.93079 9.21179 5.86229C9.60615 5.76132 9.95569 5.53197 10.2053 5.2104C10.4549 4.88883 10.5904 4.49333 10.5904 4.08625C10.5904 3.67917 10.4549 3.28367 10.2053 2.9621C9.95569 2.64053 9.60615 2.41118 9.21179 2.31021C8.94428 2.24172 8.78294 1.96933 8.85144 1.70181Z" fill="#41B6E6"/>
</g>
<defs>
<clipPath id="clip0_1760_12403">
<rect width="14" height="14" fill="white" transform="translate(0.00244141)"/>
</clipPath>
</defs>
</svg>
