<svg width="14" height="14" viewBox="0 0 14 14" fill="none" xmlns="http://www.w3.org/2000/svg">
<g clip-path="url(#clip0_1740_44571)">
<g clip-path="url(#clip1_1740_44571)">
<path fill-rule="evenodd" clip-rule="evenodd" d="M7.00057 1.66666C4.05505 1.66666 1.66724 4.05448 1.66724 7C1.66724 9.94552 4.05505 12.3333 7.00057 12.3333C9.94609 12.3333 12.3339 9.94552 12.3339 7C12.3339 4.05448 9.94609 1.66666 7.00057 1.66666ZM0.667236 7C0.667236 3.50219 3.50277 0.666664 7.00057 0.666664C10.4984 0.666664 13.3339 3.50219 13.3339 7C13.3339 10.4978 10.4984 13.3333 7.00057 13.3333C3.50277 13.3333 0.667236 10.4978 0.667236 7ZM7.00057 4.16666C7.27671 4.16666 7.50057 4.39052 7.50057 4.66666V6.5H9.3339C9.61004 6.5 9.8339 6.72386 9.8339 7C9.8339 7.27614 9.61004 7.5 9.3339 7.5H7.50057V9.33333C7.50057 9.60947 7.27671 9.83333 7.00057 9.83333C6.72443 9.83333 6.50057 9.60947 6.50057 9.33333V7.5H4.66724C4.39109 7.5 4.16724 7.27614 4.16724 7C4.16724 6.72386 4.39109 6.5 4.66724 6.5H6.50057V4.66666C6.50057 4.39052 6.72443 4.16666 7.00057 4.16666Z" fill="#41B6E6"/>
</g>
</g>
<defs>
<clipPath id="clip0_1740_44571">
<rect width="14" height="14" fill="white" transform="translate(0.00244141)"/>
</clipPath>
<clipPath id="clip1_1740_44571">
<rect width="14" height="14" fill="white" transform="translate(0.000488281)"/>
</clipPath>
</defs>
</svg>
