<svg width="14" height="14" viewBox="0 0 14 14" fill="none" xmlns="http://www.w3.org/2000/svg">
<path fill-rule="evenodd" clip-rule="evenodd" d="M6.69303 0.771912C6.87358 0.63148 7.12642 0.63148 7.30697 0.771912L12.557 4.85524C12.6788 4.94997 12.75 5.09563 12.75 5.24992V11.6666C12.75 12.1086 12.5744 12.5325 12.2618 12.8451C11.9493 13.1577 11.5254 13.3333 11.0833 13.3333H8.7629C8.75861 13.3334 8.75431 13.3334 8.75 13.3334C8.74569 13.3334 8.74139 13.3334 8.7371 13.3333H5.2629C5.25861 13.3334 5.25431 13.3334 5.25 13.3334C5.24569 13.3334 5.24139 13.3334 5.2371 13.3333H2.91667C2.47464 13.3333 2.05072 13.1577 1.73816 12.8451C1.42559 12.5325 1.25 12.1086 1.25 11.6666V5.24992C1.25 5.09563 1.32124 4.94997 1.44303 4.85524L6.69303 0.771912ZM5.75 12.3333H8.25V7.50008H5.75V12.3333ZM9.25 12.3333V7.00008C9.25 6.72394 9.02614 6.50008 8.75 6.50008H5.25C4.97386 6.50008 4.75 6.72394 4.75 7.00008V12.3333H2.91667C2.73986 12.3333 2.57029 12.263 2.44526 12.138C2.32024 12.013 2.25 11.8434 2.25 11.6666V5.49446L7 1.80002L11.75 5.49446V11.6666C11.75 11.8434 11.6798 12.013 11.5547 12.138C11.4297 12.263 11.2601 12.3333 11.0833 12.3333H9.25Z" fill="#41B6E6"/>
</svg>
