<svg width="14" height="14" viewBox="0 0 14 14" fill="none" xmlns="http://www.w3.org/2000/svg">
<g clip-path="url(#clip0_1740_44587)">
<path fill-rule="evenodd" clip-rule="evenodd" d="M5.12745 1.45085C5.23789 1.70394 5.12225 1.99865 4.86916 2.1091C4.0707 2.45753 3.36975 2.99626 2.82758 3.67818C2.28542 4.3601 1.91857 5.16445 1.75908 6.0209C1.59959 6.87736 1.65234 7.75984 1.9127 8.5912C2.17306 9.42256 2.63311 10.1775 3.25264 10.79C3.87216 11.4025 4.63229 11.8539 5.46657 12.1047C6.30085 12.3556 7.18388 12.3982 8.03846 12.229C8.89304 12.0597 9.69315 11.6837 10.3688 11.1338C11.0445 10.5839 11.5752 9.87682 11.9145 9.07443C12.022 8.82009 12.3154 8.70109 12.5697 8.80864C12.8241 8.91619 12.9431 9.20956 12.8355 9.4639C12.4326 10.4167 11.8024 11.2564 11.0001 11.9094C10.1977 12.5624 9.24756 13.0089 8.23274 13.2099C7.21793 13.4109 6.16934 13.3603 5.17863 13.0624C4.18792 12.7645 3.28526 12.2284 2.54958 11.5011C1.8139 10.7738 1.26758 9.87731 0.958403 8.89006C0.649223 7.90282 0.58659 6.85487 0.775979 5.83783C0.965369 4.82079 1.40101 3.86563 2.04483 3.05585C2.68864 2.24607 3.52103 1.60633 4.4692 1.19256C4.72229 1.08212 5.017 1.19776 5.12745 1.45085Z" fill="#41B6E6"/>
<path fill-rule="evenodd" clip-rule="evenodd" d="M6.64889 0.813111C6.74266 0.719343 6.86983 0.666664 7.00244 0.666664C7.83415 0.666664 8.65771 0.830481 9.4261 1.14876C10.1945 1.46704 10.8927 1.93355 11.4808 2.52165C12.0689 3.10976 12.5354 3.80794 12.8537 4.57634C13.172 5.34473 13.3358 6.16829 13.3358 7C13.3358 7.27614 13.1119 7.5 12.8358 7.5H7.00244C6.7263 7.5 6.50244 7.27614 6.50244 7V1.16666C6.50244 1.03406 6.55512 0.906879 6.64889 0.813111ZM7.50244 1.69015V6.5H12.3123C12.2625 5.97106 12.1338 5.45158 11.9298 4.95902C11.6618 4.31195 11.2689 3.72401 10.7737 3.22876C10.2784 2.73352 9.69049 2.34067 9.04342 2.07264C8.55086 1.86861 8.03138 1.73996 7.50244 1.69015Z" fill="#41B6E6"/>
</g>
<defs>
<clipPath id="clip0_1740_44587">
<rect width="14" height="14" fill="white" transform="translate(0.00244141)"/>
</clipPath>
</defs>
</svg>
