<svg width="14" height="14" viewBox="0 0 14 14" fill="none" xmlns="http://www.w3.org/2000/svg">
<g clip-path="url(#clip0_1740_44576)">
<g clip-path="url(#clip1_1740_44576)">
<path fill-rule="evenodd" clip-rule="evenodd" d="M6.213 2.54786C6.38792 2.63046 6.49951 2.80655 6.49951 3V11C6.49951 11.1934 6.38792 11.3695 6.213 11.4521C6.03807 11.5347 5.83119 11.509 5.68181 11.3861L3.04246 9.21428H0.999512C0.723369 9.21428 0.499512 8.99043 0.499512 8.71428V5.28571C0.499512 5.00957 0.723369 4.78571 0.999512 4.78571H3.04246L5.68181 2.61391C5.83119 2.49099 6.03807 2.46527 6.213 2.54786ZM10.8169 2.66273C11.0031 2.45887 11.3194 2.44461 11.5233 2.63087C12.7825 3.78139 13.4995 5.35183 13.4995 7C13.4995 8.64816 12.7825 10.2186 11.5233 11.3691C11.3194 11.5554 11.0031 11.5411 10.8169 11.3373C10.6306 11.1334 10.6449 10.8171 10.8487 10.6309C11.9119 9.65944 12.4995 8.35228 12.4995 7C12.4995 5.64772 11.9119 4.34056 10.8487 3.36912C10.6449 3.18285 10.6306 2.86659 10.8169 2.66273ZM5.49951 4.05894L3.53943 5.6718C3.44994 5.74545 3.33764 5.78571 3.22173 5.78571H1.49951V8.21428H3.22173C3.33764 8.21428 3.44994 8.25455 3.53943 8.32819L5.49951 9.94106V4.05894ZM8.63039 4.6599C8.81665 4.45604 9.13292 4.44178 9.33678 4.62805C10.0154 5.24808 10.4063 6.09912 10.4063 6.99717C10.4063 7.89522 10.0154 8.74626 9.33678 9.36629C9.13292 9.55256 8.81665 9.5383 8.63039 9.33443C8.44412 9.13057 8.45839 8.81431 8.66225 8.62805C9.14484 8.1871 9.40627 7.59934 9.40627 6.99717C9.40627 6.395 9.14484 5.80724 8.66225 5.36629C8.45839 5.18003 8.44412 4.86376 8.63039 4.6599Z" fill="#41B6E6"/>
</g>
</g>
<defs>
<clipPath id="clip0_1740_44576">
<rect width="14" height="14" fill="white" transform="translate(0.00244141)"/>
</clipPath>
<clipPath id="clip1_1740_44576">
<rect width="14" height="14" fill="white" transform="translate(-0.000488281)"/>
</clipPath>
</defs>
</svg>
