<svg width="14" height="14" viewBox="0 0 14 14" fill="none" xmlns="http://www.w3.org/2000/svg">
<g clip-path="url(#clip0_2173_27926)">
<path d="M1.00244 4.37743C1.07382 4.18323 1.17736 4.13836 1.34806 4.06554C3.11064 3.31547 4.99649 2.76058 6.76683 2.01664C6.94668 1.9654 7.10493 2.04607 7.2714 2.10222C9.06615 2.70786 10.8104 3.50231 12.6024 4.12046C12.8822 4.28646 12.8818 4.63955 12.5906 4.79378C12.4479 4.8693 12.1015 4.94384 12.0065 5.01569C11.9849 5.03212 11.9698 5.04389 11.9694 5.07478L11.9682 8.3048L11.9917 8.37812L12.917 9.34445C13.0419 9.53056 13.0257 9.68136 12.8956 9.85716C12.6545 10.183 12.2384 10.4844 11.9816 10.811C11.9034 11.157 12.1562 11.9502 11.6425 11.9983C11.0894 12.05 11.3195 11.1351 11.2542 10.811C10.9919 10.4832 10.5885 10.1852 10.3404 9.85692C10.246 9.73211 10.2056 9.63158 10.2509 9.4695C10.5273 9.05389 10.9379 8.72826 11.2662 8.35237V5.30699L10.4024 5.64046L10.3979 8.10644C10.3521 8.39209 9.62942 8.81899 9.38382 8.93129C7.96427 9.58058 5.39494 9.58009 4.02469 8.793C3.78896 8.65765 3.31374 8.32589 3.27805 8.0314L3.27312 5.57818L1.22056 4.79795C1.10293 4.75259 1.05292 4.65843 1.00244 4.54858V4.37743ZM11.4068 4.47502L11.349 4.42549L6.9185 2.76181L2.38466 4.46301L6.82952 6.18137L11.4068 4.47502ZM9.69633 5.89399L6.82576 6.94566L3.97843 5.86947V7.86295C4.07822 7.97476 4.20266 8.05887 4.32945 8.13243C5.54614 8.84032 8.28476 8.86435 9.4599 8.05642C9.54419 7.99855 9.63012 7.94485 9.6961 7.86271V5.89375L9.69633 5.89399ZM11.6179 9.03476L11.0884 9.58744L11.6179 10.1401L12.1473 9.58744L11.6179 9.03476Z" fill="#41B6E6"/>
</g>
<defs>
<clipPath id="clip0_2173_27926">
<rect width="12" height="10" fill="white" transform="translate(1.00244 2)"/>
</clipPath>
</defs>
</svg>
