<svg width="14" height="14" viewBox="0 0 14 14" fill="none" xmlns="http://www.w3.org/2000/svg">
<g clip-path="url(#clip0_1740_44518)">
<path fill-rule="evenodd" clip-rule="evenodd" d="M1.00244 2.75002C1.27858 2.75002 1.50244 2.97388 1.50244 3.25002V8.25002C1.50244 8.52617 1.27858 8.75002 1.00244 8.75002C0.726299 8.75002 0.502441 8.52617 0.502441 8.25002V3.25002C0.502441 2.97388 0.726299 2.75002 1.00244 2.75002Z" fill="#41B6E6"/>
<path fill-rule="evenodd" clip-rule="evenodd" d="M7.00245 10.751C6.16961 10.751 5.34993 10.9588 4.61765 11.3555C3.88538 11.7523 3.26365 12.3254 2.80879 13.0231C2.65798 13.2544 2.34819 13.3197 2.11687 13.1689C1.88555 13.018 1.82029 12.7083 1.97111 12.4769C2.51683 11.6399 3.26274 10.9523 4.14129 10.4763C5.01983 10.0003 6.00325 9.75103 7.00245 9.75103C8.00165 9.75103 8.98507 10.0003 9.86361 10.4763C10.7422 10.9523 11.4881 11.6399 12.0338 12.4769C12.1846 12.7083 12.1193 13.018 11.888 13.1689C11.6567 13.3197 11.3469 13.2544 11.1961 13.0231C10.7412 12.3254 10.1195 11.7523 9.38725 11.3555C8.65497 10.9588 7.83529 10.751 7.00245 10.751Z" fill="#41B6E6"/>
<path fill-rule="evenodd" clip-rule="evenodd" d="M6.84433 0.775643C6.94696 0.741432 7.05792 0.741432 7.16056 0.775643L13.1606 2.77564C13.3647 2.8437 13.5024 3.03477 13.5024 3.24998C13.5024 3.4652 13.3647 3.65627 13.1606 3.72433L7.16056 5.72433C7.05792 5.75854 6.94696 5.75854 6.84433 5.72433L0.844328 3.72433C0.640156 3.65627 0.502441 3.4652 0.502441 3.24998C0.502441 3.03477 0.640156 2.8437 0.844328 2.77564L6.84433 0.775643ZM2.58358 3.24998L7.00244 4.72294L11.4213 3.24998L7.00244 1.77703L2.58358 3.24998Z" fill="#41B6E6"/>
<path fill-rule="evenodd" clip-rule="evenodd" d="M4.75887 4.01872C4.96252 4.20521 4.97644 4.52149 4.78994 4.72514C4.39681 5.15445 4.13707 5.68887 4.04239 6.26323C3.94771 6.83759 4.02218 7.4271 4.25671 7.95988C4.49124 8.49266 4.87571 8.94569 5.36325 9.26376C5.85079 9.58183 6.42033 9.75118 7.00244 9.75118C7.58456 9.75118 8.1541 9.58183 8.64164 9.26376C9.12918 8.94569 9.51365 8.49266 9.74818 7.95988C9.98271 7.4271 10.0572 6.83759 9.96249 6.26323C9.86781 5.68887 9.60807 5.15445 9.21494 4.72514C9.02845 4.52149 9.04237 4.20521 9.24602 4.01872C9.44968 3.83223 9.76595 3.84614 9.95244 4.0498C10.4766 4.62221 10.8229 5.33476 10.9492 6.10058C11.0754 6.8664 10.9761 7.6524 10.6634 8.36277C10.3507 9.07315 9.83809 9.6772 9.18804 10.1013C8.53799 10.5254 7.7786 10.7512 7.00244 10.7512C6.22629 10.7512 5.4669 10.5254 4.81685 10.1013C4.1668 9.6772 3.65417 9.07315 3.34146 8.36277C3.02875 7.6524 2.92947 6.8664 3.05571 6.10058C3.18195 5.33476 3.52827 4.62221 4.05244 4.0498C4.23894 3.84614 4.55521 3.83223 4.75887 4.01872Z" fill="#41B6E6"/>
</g>
<defs>
<clipPath id="clip0_1740_44518">
<rect width="14" height="14" fill="white" transform="translate(0.00244141)"/>
</clipPath>
</defs>
</svg>
