<svg width="14" height="14" viewBox="0 0 14 14" fill="none" xmlns="http://www.w3.org/2000/svg">
<path fill-rule="evenodd" clip-rule="evenodd" d="M2.32141 1.15482C2.63397 0.842259 3.05789 0.666664 3.49992 0.666664H8.16658C8.29919 0.666664 8.42637 0.719343 8.52014 0.813111L12.0201 4.31311C12.1139 4.40688 12.1666 4.53406 12.1666 4.66666V11.6667C12.1666 12.1087 11.991 12.5326 11.6784 12.8452C11.3659 13.1577 10.9419 13.3333 10.4999 13.3333H3.49992C3.05789 13.3333 2.63397 13.1577 2.32141 12.8452C2.00885 12.5326 1.83325 12.1087 1.83325 11.6667V2.33333C1.83325 1.8913 2.00885 1.46738 2.32141 1.15482ZM3.49992 1.66666C3.32311 1.66666 3.15354 1.7369 3.02851 1.86193C2.90349 1.98695 2.83325 2.15652 2.83325 2.33333V11.6667C2.83325 11.8435 2.90349 12.013 3.02851 12.1381C3.15354 12.2631 3.32311 12.3333 3.49992 12.3333H10.4999C10.6767 12.3333 10.8463 12.2631 10.9713 12.1381C11.0963 12.013 11.1666 11.8435 11.1666 11.6667V4.87377L7.95948 1.66666H3.49992Z" fill="#41B6E6"/>
<path fill-rule="evenodd" clip-rule="evenodd" d="M8.16675 0.666664C8.44289 0.666664 8.66675 0.890522 8.66675 1.16666V4.16666H11.6667C11.9429 4.16666 12.1667 4.39052 12.1667 4.66666C12.1667 4.94281 11.9429 5.16666 11.6667 5.16666H8.16675C7.89061 5.16666 7.66675 4.94281 7.66675 4.66666V1.16666C7.66675 0.890522 7.89061 0.666664 8.16675 0.666664Z" fill="#41B6E6"/>
<path fill-rule="evenodd" clip-rule="evenodd" d="M4.16675 7.58334C4.16675 7.30719 4.39061 7.08334 4.66675 7.08334H9.33341C9.60956 7.08334 9.83341 7.30719 9.83341 7.58334C9.83341 7.85948 9.60956 8.08334 9.33341 8.08334H4.66675C4.39061 8.08334 4.16675 7.85948 4.16675 7.58334Z" fill="#41B6E6"/>
<path fill-rule="evenodd" clip-rule="evenodd" d="M4.16675 9.91666C4.16675 9.64052 4.39061 9.41666 4.66675 9.41666H9.33341C9.60956 9.41666 9.83341 9.64052 9.83341 9.91666C9.83341 10.1928 9.60956 10.4167 9.33341 10.4167H4.66675C4.39061 10.4167 4.16675 10.1928 4.16675 9.91666Z" fill="#41B6E6"/>
<path fill-rule="evenodd" clip-rule="evenodd" d="M4.16675 5.25C4.16675 4.97386 4.39061 4.75 4.66675 4.75H5.83341C6.10956 4.75 6.33341 4.97386 6.33341 5.25C6.33341 5.52614 6.10956 5.75 5.83341 5.75H4.66675C4.39061 5.75 4.16675 5.52614 4.16675 5.25Z" fill="#41B6E6"/>
</svg>
