<svg width="14" height="14" viewBox="0 0 14 14" fill="none" xmlns="http://www.w3.org/2000/svg">
<g clip-path="url(#clip0_1740_44627)">
<path fill-rule="evenodd" clip-rule="evenodd" d="M1.00244 1.24511C1.27858 1.24511 1.50244 1.46897 1.50244 1.74511V13.1997C1.50244 13.4758 1.27858 13.6997 1.00244 13.6997C0.726299 13.6997 0.502441 13.4758 0.502441 13.1997V1.74511C0.502441 1.46897 0.726299 1.24511 1.00244 1.24511Z" fill="#41B6E6"/>
<path fill-rule="evenodd" clip-rule="evenodd" d="M9.95165 2.16822C10.8179 2.25783 11.7145 2.08606 12.7025 1.34511C12.854 1.23147 13.0567 1.2132 13.2261 1.29789C13.3955 1.38259 13.5025 1.55572 13.5025 1.74511V9.92692C13.5025 10.0843 13.4284 10.2325 13.3025 10.3269C12.1086 11.2223 10.9598 11.4597 9.84875 11.3447C8.78414 11.2346 7.77035 10.8001 6.83988 10.4012L6.80551 10.3865C5.83628 9.97111 4.95283 9.59687 4.05329 9.50382C3.18705 9.4142 2.29041 9.58597 1.30247 10.3269C1.08156 10.4926 0.768156 10.4478 0.602471 10.2269C0.436785 10.006 0.481557 9.69261 0.702471 9.52692C1.89635 8.63151 3.04516 8.39419 4.15619 8.50912C5.2208 8.61926 6.23459 9.05379 7.16506 9.45262L7.19943 9.46735C8.16867 9.88274 9.05211 10.257 9.95165 10.35C10.7591 10.4336 11.5929 10.29 12.5025 9.67008V2.65351C11.593 3.12956 10.7095 3.25195 9.84875 3.16291C8.78414 3.05278 7.77036 2.61824 6.83989 2.21941L6.80551 2.20468C5.83628 1.78929 4.95283 1.41505 4.05329 1.322C3.18705 1.23239 2.29041 1.40415 1.30247 2.14511C1.08156 2.31079 0.768156 2.26602 0.602471 2.04511C0.436785 1.82419 0.481557 1.51079 0.702471 1.34511C1.89635 0.449695 3.04516 0.212372 4.15619 0.327306C5.2208 0.437438 6.23459 0.871975 7.16505 1.2708L7.19943 1.28553C8.16867 1.70092 9.05211 2.07516 9.95165 2.16822Z" fill="#41B6E6"/>
</g>
<defs>
<clipPath id="clip0_1740_44627">
<rect width="14" height="14" fill="white" transform="translate(0.00244141)"/>
</clipPath>
</defs>
</svg>
