<svg width="14" height="14" viewBox="0 0 14 14" fill="none" xmlns="http://www.w3.org/2000/svg">
<g clip-path="url(#clip0_1740_44590)">
<path fill-rule="evenodd" clip-rule="evenodd" d="M2.33586 2.25C2.15905 2.25 1.98948 2.32024 1.86445 2.44526C1.73943 2.57029 1.66919 2.73986 1.66919 2.91667V11.0833C1.66919 11.2601 1.73943 11.4297 1.86445 11.5547C1.98948 11.6798 2.15905 11.75 2.33586 11.75H11.6692C11.846 11.75 12.0156 11.6798 12.1406 11.5547C12.2656 11.4297 12.3359 11.2601 12.3359 11.0833V4.66667C12.3359 4.48986 12.2656 4.32029 12.1406 4.19526C12.0156 4.07024 11.846 4 11.6692 4H6.41919C6.25201 4 6.0959 3.91645 6.00316 3.77735L4.98493 2.25H2.33586ZM1.15734 1.73816C1.46991 1.42559 1.89383 1.25 2.33586 1.25H5.25252C5.4197 1.25 5.57582 1.33355 5.66855 1.47265L6.68678 3H11.6692C12.1112 3 12.5351 3.17559 12.8477 3.48816C13.1603 3.80072 13.3359 4.22464 13.3359 4.66667V11.0833C13.3359 11.5254 13.1603 11.9493 12.8477 12.2618C12.5351 12.5744 12.1112 12.75 11.6692 12.75H2.33586C1.89383 12.75 1.46991 12.5744 1.15734 12.2618C0.844784 11.9493 0.669189 11.5254 0.669189 11.0833V2.91667C0.669189 2.47464 0.844784 2.05072 1.15734 1.73816Z" fill="#41B6E6"/>
</g>
<defs>
<clipPath id="clip0_1740_44590">
<rect width="14" height="14" fill="white" transform="translate(0.00244141)"/>
</clipPath>
</defs>
</svg>
