<svg width="14" height="14" viewBox="0 0 14 14" fill="none" xmlns="http://www.w3.org/2000/svg">
<g clip-path="url(#clip0_1740_44514)">
<path d="M6.47008 11.92C5.87008 11.92 5.26008 11.82 4.68008 11.62C3.72008 11.29 2.88008 10.7 2.24008 9.91C1.70008 9.26 1.32008 8.48 1.14008 7.65L1.08008 7.37C0.850081 6.02 1.13008 4.66 1.85008 3.53C2.57008 2.4 3.67008 1.57 4.96008 1.2L5.27008 1.13C6.09008 0.939996 6.96008 0.949996 7.78008 1.16C8.76008 1.4 9.66008 1.91 10.3701 2.64C11.0801 3.37 11.5701 4.27 11.7901 5.26C11.9601 6.01 11.9701 6.81 11.8101 7.56L13.5201 10.39C13.6201 10.55 13.6101 10.76 13.5201 10.92C13.4201 11.08 13.2501 11.17 13.0501 11.15L9.76008 10.82C9.14008 11.29 8.43008 11.62 7.67008 11.79C7.28008 11.88 6.88008 11.92 6.48008 11.92H6.47008ZM6.46008 2C6.13008 2 5.81008 2.04 5.49008 2.11L5.20008 2.17C4.17008 2.46 3.27008 3.14 2.68008 4.06C2.09008 4.98 1.87008 6.09 2.05008 7.17L2.11008 7.43C2.26008 8.1 2.57008 8.74 3.01008 9.27C3.53008 9.91 4.23008 10.4 5.01008 10.67C5.79008 10.94 6.63008 10.99 7.44008 10.81C8.11008 10.66 8.75008 10.35 9.28008 9.91C9.38008 9.83 9.51008 9.79 9.65008 9.8L12.1401 10.05L10.8501 7.9C10.7801 7.79 10.7601 7.65 10.7901 7.52C10.9601 6.85 10.9701 6.15 10.8101 5.48C10.6301 4.67 10.2301 3.93 9.65008 3.34C9.07008 2.75 8.34008 2.33 7.54008 2.13C7.19008 2.04 6.83008 2 6.46008 2Z" fill="#41B6E6"/>
<path fill-rule="evenodd" clip-rule="evenodd" d="M3.32007 5.68C3.32007 5.4 3.54007 5.18 3.82007 5.18H6.82007C7.10007 5.18 7.32007 5.4 7.32007 5.68C7.32007 5.96 7.10007 6.18 6.82007 6.18H3.82007C3.54007 6.18 3.32007 5.96 3.32007 5.68Z" fill="#41B6E6"/>
<path fill-rule="evenodd" clip-rule="evenodd" d="M3.32007 7.68C3.32007 7.4 3.54007 7.18 3.82007 7.18H8.82007C9.10007 7.18 9.32007 7.4 9.32007 7.68C9.32007 7.96 9.10007 8.18 8.82007 8.18H3.82007C3.54007 8.18 3.32007 7.96 3.32007 7.68Z" fill="#41B6E6"/>
</g>
<defs>
<clipPath id="clip0_1740_44514">
<rect width="12.59" height="10.92" fill="white" transform="translate(1 1)"/>
</clipPath>
</defs>
</svg>
