<svg width="14" height="14" viewBox="0 0 14 14" fill="none" xmlns="http://www.w3.org/2000/svg">
<path fill-rule="evenodd" clip-rule="evenodd" d="M6.79929 11.8748C9.60214 11.8748 11.8743 9.60262 11.8743 6.79977C11.8743 3.99693 9.60214 1.72477 6.79929 1.72477C3.99644 1.72477 1.72429 3.99693 1.72429 6.79977C1.72429 9.60262 3.99644 11.8748 6.79929 11.8748ZM6.79929 12.4387C9.91356 12.4387 12.4382 9.91404 12.4382 6.79977C12.4382 3.6855 9.91356 1.16088 6.79929 1.16088C3.68502 1.16088 1.1604 3.6855 1.1604 6.79977C1.1604 9.91404 3.68502 12.4387 6.79929 12.4387Z" fill="#41B6E6"/>
<path fill-rule="evenodd" clip-rule="evenodd" d="M6.79902 11.7135C9.51289 11.7135 11.7129 9.51348 11.7129 6.79961C11.7129 4.08574 9.51289 1.88572 6.79902 1.88572C4.08516 1.88572 1.88513 4.08574 1.88513 6.79961C1.88513 9.51348 4.08516 11.7135 6.79902 11.7135ZM12.599 6.79961C12.599 10.0029 10.0023 12.5996 6.79902 12.5996C3.59577 12.5996 0.999023 10.0029 0.999023 6.79961C0.999023 3.59636 3.59577 0.999611 6.79902 0.999611C10.0023 0.999611 12.599 3.59636 12.599 6.79961ZM11.874 6.79961C11.874 9.60246 9.60187 11.8746 6.79902 11.8746C3.99618 11.8746 1.72402 9.60246 1.72402 6.79961C1.72402 3.99677 3.99618 1.72461 6.79902 1.72461C9.60187 1.72461 11.874 3.99677 11.874 6.79961ZM12.4379 6.79961C12.4379 9.91388 9.9133 12.4385 6.79902 12.4385C3.68475 12.4385 1.16013 9.91388 1.16013 6.79961C1.16013 3.68534 3.68475 1.16072 6.79902 1.16072C9.9133 1.16072 12.4379 3.68534 12.4379 6.79961Z" fill="#41B6E6"/>
<path fill-rule="evenodd" clip-rule="evenodd" d="M9.27977 4.93929C9.74663 5.56177 9.90004 6.18872 9.90004 6.9129C9.90004 8.5742 8.50055 9.90151 6.79865 9.90151C5.09676 9.90151 3.69727 8.5742 3.69727 6.9129C3.69727 6.5866 3.70045 5.86414 4.30851 4.95206L4.77769 5.26485C4.26109 6.03974 4.26114 6.63056 4.26115 6.90789L4.26115 6.9129C4.26115 8.2413 5.38627 9.33762 6.79865 9.33762C8.21104 9.33762 9.33615 8.2413 9.33615 6.9129C9.33615 6.28374 9.20762 5.78291 8.82865 5.27762L9.27977 4.93929Z" fill="#41B6E6"/>
<path fill-rule="evenodd" clip-rule="evenodd" d="M9.3127 4.71351L9.40937 4.8424C9.90135 5.49838 10.0619 6.16138 10.0619 6.91268C10.0619 8.66926 8.5838 10.0624 6.79937 10.0624C5.01493 10.0624 3.53687 8.66926 3.53687 6.91268C3.53687 6.57178 3.54187 5.81241 4.17517 4.86247L4.26453 4.72842L5.00182 5.21994L4.91245 5.35399C4.42289 6.08833 4.42295 6.641 4.42298 6.90444L4.42298 6.91267C4.42298 8.14616 5.46992 9.17629 6.79937 9.17629C8.12881 9.17629 9.17575 8.14617 9.17575 6.91268C9.17575 6.3107 9.05435 5.84589 8.70048 5.37406L8.60381 5.24518L9.3127 4.71351ZM9.28048 4.93906C9.28069 4.93934 9.28089 4.93962 9.2811 4.9399C9.31363 4.9833 9.34463 5.02671 9.37417 5.07018C9.76811 5.65 9.90075 6.23931 9.90075 6.91268C9.90075 8.57398 8.50126 9.90129 6.79937 9.90129C5.09747 9.90129 3.69798 8.57398 3.69798 6.91268C3.69798 6.60273 3.70085 5.93533 4.22228 5.08751C4.24979 5.04278 4.27874 4.99755 4.30922 4.95184L4.7784 5.26463C4.2618 6.03952 4.26185 6.63034 4.26187 6.90767L4.26187 6.91268C4.26187 8.24108 5.38698 9.3374 6.79937 9.3374C8.21175 9.3374 9.33687 8.24108 9.33687 6.91268C9.33687 6.28352 9.20833 5.78269 8.82937 5.2774L9.28048 4.93906Z" fill="#41B6E6"/>
<path fill-rule="evenodd" clip-rule="evenodd" d="M6.51685 3.98032L7.08073 3.98032L7.08073 7.36366L6.51685 7.36366L6.51685 3.98032Z" fill="#41B6E6"/>
<path fill-rule="evenodd" clip-rule="evenodd" d="M6.3562 3.81905L7.24231 3.81905L7.24231 7.52461L6.3562 7.52461L6.3562 3.81905ZM6.51731 3.98016L7.0812 3.98016L7.0812 7.3635L6.51731 7.3635L6.51731 3.98016Z" fill="#41B6E6"/>
</svg>
