<svg width="14" height="14" viewBox="0 0 14 14" fill="none" xmlns="http://www.w3.org/2000/svg">
<path fill-rule="evenodd" clip-rule="evenodd" d="M1.25244 1.75C1.25244 1.47386 1.4763 1.25 1.75244 1.25H5.83577C6.11192 1.25 6.33577 1.47386 6.33577 1.75V5.83333C6.33577 6.10948 6.11192 6.33333 5.83577 6.33333H1.75244C1.4763 6.33333 1.25244 6.10948 1.25244 5.83333V1.75ZM2.25244 2.25V5.33333H5.33577V2.25H2.25244Z" fill="#41B6E6"/>
<path fill-rule="evenodd" clip-rule="evenodd" d="M7.66919 1.75C7.66919 1.47386 7.89305 1.25 8.16919 1.25H12.2525C12.5287 1.25 12.7525 1.47386 12.7525 1.75V5.83333C12.7525 6.10948 12.5287 6.33333 12.2525 6.33333H8.16919C7.89305 6.33333 7.66919 6.10948 7.66919 5.83333V1.75ZM8.66919 2.25V5.33333H11.7525V2.25H8.66919Z" fill="#41B6E6"/>
<path fill-rule="evenodd" clip-rule="evenodd" d="M7.66919 8.16666C7.66919 7.89052 7.89305 7.66666 8.16919 7.66666H12.2525C12.5287 7.66666 12.7525 7.89052 12.7525 8.16666V12.25C12.7525 12.5261 12.5287 12.75 12.2525 12.75H8.16919C7.89305 12.75 7.66919 12.5261 7.66919 12.25V8.16666ZM8.66919 8.66666V11.75H11.7525V8.66666H8.66919Z" fill="#41B6E6"/>
<path fill-rule="evenodd" clip-rule="evenodd" d="M1.25244 8.16666C1.25244 7.89052 1.4763 7.66666 1.75244 7.66666H5.83577C6.11192 7.66666 6.33577 7.89052 6.33577 8.16666V12.25C6.33577 12.5261 6.11192 12.75 5.83577 12.75H1.75244C1.4763 12.75 1.25244 12.5261 1.25244 12.25V8.16666ZM2.25244 8.66666V11.75H5.33577V8.66666H2.25244Z" fill="#41B6E6"/>
</svg>
