<svg width="14" height="14" viewBox="0 0 14 14" fill="none" xmlns="http://www.w3.org/2000/svg">
<g clip-path="url(#clip0_1740_44618)">
<g clip-path="url(#clip1_1740_44618)">
<path d="M11.3725 12.865H1.47245C1.21245 12.865 0.972451 12.765 0.792451 12.585C0.612451 12.405 0.512451 12.155 0.512451 11.905V6.775C0.512451 6.525 0.612451 6.275 0.792451 6.095C0.972451 5.915 1.22245 5.815 1.47245 5.815H3.96245L6.15245 1.415C6.23245 1.245 6.41245 1.135 6.60245 1.135C7.22245 1.135 7.83245 1.385 8.27245 1.825C8.71245 2.265 8.96245 2.875 8.96245 3.495V4.395H12.0725C12.2725 4.395 12.4725 4.435 12.6625 4.525C12.8525 4.615 13.0125 4.735 13.1525 4.885C13.2925 5.045 13.3925 5.225 13.4425 5.415C13.5025 5.615 13.5225 5.815 13.4925 6.015L12.7925 11.605C12.7525 11.955 12.5825 12.265 12.3225 12.495C12.0625 12.725 11.7225 12.855 11.3825 12.855L11.3725 12.865ZM1.47245 6.795L1.50245 11.895L3.76245 11.865V6.795H1.47245ZM4.76245 11.865H11.3725C11.4725 11.865 11.5725 11.825 11.6525 11.755C11.7325 11.685 11.7825 11.585 11.7925 11.485L12.4925 5.885C12.4925 5.815 12.4925 5.755 12.4825 5.695C12.4625 5.635 12.4325 5.585 12.3925 5.535C12.3525 5.495 12.3025 5.455 12.2425 5.425C12.1925 5.405 12.1325 5.385 12.0625 5.385H8.45245C8.17245 5.385 7.95245 5.165 7.95245 4.885V3.485C7.95245 3.125 7.80245 2.775 7.55245 2.515C7.37245 2.335 7.13245 2.205 6.88245 2.145L4.76245 6.395V11.835V11.865Z" fill="#41B6E6"/>
</g>
</g>
<defs>
<clipPath id="clip0_1740_44618">
<rect width="14" height="14" fill="white" transform="translate(0.00244141)"/>
</clipPath>
<clipPath id="clip1_1740_44618">
<rect width="13" height="11.73" fill="white" transform="translate(0.502441 1.135)"/>
</clipPath>
</defs>
</svg>
