<svg width="14" height="14" viewBox="0 0 14 14" fill="none" xmlns="http://www.w3.org/2000/svg">
<g clip-path="url(#clip0_1740_44524)">
<path fill-rule="evenodd" clip-rule="evenodd" d="M13.0524 12.5H10.3781V8.63306C10.3781 7.62089 9.95981 6.92992 9.03993 6.92992C8.33633 6.92992 7.94503 7.3962 7.76291 7.84559C7.69461 8.00689 7.70528 8.23157 7.70528 8.45626V12.5H5.05592C5.05592 12.5 5.09007 5.6501 5.05592 5.02744H7.70528V6.2002C7.8618 5.68743 8.7084 4.95559 10.0594 4.95559C11.7355 4.95559 13.0524 6.03045 13.0524 8.34498V12.5ZM2.37667 4.09275H2.3596C1.50589 4.09275 0.952393 3.52151 0.952393 2.79743C0.952393 2.05926 1.52225 1.5 2.39304 1.5C3.26312 1.5 3.79811 2.05786 3.81519 2.79532C3.81519 3.51941 3.26311 4.09275 2.37667 4.09275ZM1.25759 5.02744H3.61599V12.5H1.25759V5.02744Z" fill="#41B6E6"/>
</g>
<defs>
<clipPath id="clip0_1740_44524">
<rect width="14" height="14" fill="white" transform="translate(0.00244141)"/>
</clipPath>
</defs>
</svg>
