<svg width="14" height="14" viewBox="0 0 14 14" fill="none" xmlns="http://www.w3.org/2000/svg">
<g clip-path="url(#clip0_1740_44532)">
<path fill-rule="evenodd" clip-rule="evenodd" d="M0.502441 2.5C0.502441 2.22386 0.726299 2 1.00244 2H13.0024C13.2786 2 13.5024 2.22386 13.5024 2.5V11C13.5024 11.2652 13.3971 11.5196 13.2095 11.7071C13.022 11.8946 12.7677 12 12.5024 12H1.50244C1.23723 12 0.982872 11.8946 0.795335 11.7071C0.607798 11.5196 0.502441 11.2652 0.502441 11V2.5ZM1.50244 3V11H12.5024V3H1.50244Z" fill="#41B6E6"/>
<path fill-rule="evenodd" clip-rule="evenodd" d="M0.633867 2.16214C0.820463 1.95858 1.13675 1.94483 1.34031 2.13143L7.00244 7.32172L12.6646 2.13143C12.8681 1.94483 13.1844 1.95858 13.371 2.16214C13.5576 2.3657 13.5439 2.68198 13.3403 2.86858L7.34031 8.36858C7.14915 8.54381 6.85574 8.54381 6.66458 8.36858L0.664582 2.86858C0.461023 2.68198 0.447271 2.3657 0.633867 2.16214Z" fill="#41B6E6"/>
</g>
<defs>
<clipPath id="clip0_1740_44532">
<rect width="14" height="14" fill="white" transform="translate(0.00244141)"/>
</clipPath>
</defs>
</svg>
