<svg width="14" height="14" viewBox="0 0 14 14" fill="none" xmlns="http://www.w3.org/2000/svg">
<g clip-path="url(#clip0_1740_44596)">
<path fill-rule="evenodd" clip-rule="evenodd" d="M4.41778 0.732383C4.56293 0.64944 4.73993 0.644527 4.88946 0.71929L9.31678 2.93295L13.1678 0.732383C13.3225 0.643953 13.5127 0.644588 13.6668 0.734049C13.821 0.82351 13.9159 0.988269 13.9159 1.1665V10.4998C13.9159 10.6793 13.8197 10.8449 13.6639 10.934L9.58059 13.2673C9.43544 13.3502 9.25844 13.3551 9.10891 13.2804L4.68159 11.0667L0.830589 13.2673C0.675838 13.3557 0.485714 13.3551 0.331556 13.2656C0.177399 13.1762 0.0825195 13.0114 0.0825195 12.8332V3.49984C0.0825195 3.32041 0.178663 3.15474 0.33445 3.06572L4.41778 0.732383ZM4.68159 1.73339L1.08252 3.79V11.9716L4.41778 10.0657C4.56293 9.98277 4.73993 9.97786 4.88946 10.0526L9.31678 12.2663L12.9159 10.2097V2.02809L9.58059 3.93396C9.43544 4.0169 9.25844 4.02181 9.10891 3.94705L4.68159 1.73339Z" fill="#41B6E6"/>
<path fill-rule="evenodd" clip-rule="evenodd" d="M4.6665 0.666504C4.94265 0.666504 5.1665 0.890362 5.1665 1.1665V10.4998C5.1665 10.776 4.94265 10.9998 4.6665 10.9998C4.39036 10.9998 4.1665 10.776 4.1665 10.4998V1.1665C4.1665 0.890362 4.39036 0.666504 4.6665 0.666504Z" fill="#41B6E6"/>
<path fill-rule="evenodd" clip-rule="evenodd" d="M9.33252 3C9.60866 3 9.83252 3.22386 9.83252 3.5V12.8333C9.83252 13.1095 9.60866 13.3333 9.33252 13.3333C9.05638 13.3333 8.83252 13.1095 8.83252 12.8333V3.5C8.83252 3.22386 9.05638 3 9.33252 3Z" fill="#41B6E6"/>
</g>
<defs>
<clipPath id="clip0_1740_44596">
<rect width="14" height="14" fill="white" transform="translate(0.00244141)"/>
</clipPath>
</defs>
</svg>
