<svg width="14" height="14" viewBox="0 0 14 14" fill="none" xmlns="http://www.w3.org/2000/svg">
<g clip-path="url(#clip0_1740_44558)">
<path fill-rule="evenodd" clip-rule="evenodd" d="M4.1721 1.83824C4.92225 1.08809 5.93966 0.666664 7.00053 0.666664C8.06139 0.666664 9.07881 1.08809 9.82895 1.83824C10.5791 2.58838 11.0005 3.6058 11.0005 4.66666C11.0005 6.63466 11.4216 7.86315 11.8145 8.58349C12.0116 8.94493 12.2044 9.18351 12.3401 9.3267C12.408 9.39843 12.462 9.44658 12.4954 9.47445C12.5122 9.48839 12.5238 9.49727 12.5294 9.5015C12.531 9.50269 12.5322 9.50352 12.5328 9.50398C12.5328 9.50398 12.5328 9.50398 12.5328 9.50399C12.7127 9.62698 12.7923 9.85259 12.7291 10.0616C12.6652 10.2724 12.4709 10.4167 12.2505 10.4167H1.75053C1.53019 10.4167 1.33583 10.2724 1.27198 10.0616C1.20871 9.85259 1.28838 9.62698 1.46822 9.50399C1.46886 9.50353 1.46999 9.5027 1.47161 9.5015C1.47729 9.49727 1.4889 9.48839 1.50563 9.47445C1.53907 9.44658 1.59303 9.39843 1.66099 9.3267C1.79664 9.18351 1.98943 8.94493 2.18658 8.58349C2.57949 7.86315 3.00053 6.63466 3.00053 4.66666C3.00053 3.6058 3.42195 2.58838 4.1721 1.83824ZM2.85325 9.41666H11.1478C11.078 9.30949 11.0071 9.19161 10.9366 9.06234C10.4545 8.17851 10.0005 6.782 10.0005 4.66666C10.0005 3.87101 9.68446 3.10795 9.12185 2.54534C8.55924 1.98273 7.79618 1.66666 7.00053 1.66666C6.20488 1.66666 5.44182 1.98273 4.87921 2.54534C4.3166 3.10795 4.00053 3.87101 4.00053 4.66666C4.00053 6.782 3.54656 8.17851 3.06448 9.06234C2.99396 9.19161 2.92308 9.30949 2.85325 9.41666ZM5.74048 11.8175C5.97934 11.6789 6.2853 11.7602 6.42386 11.9991C6.48247 12.1001 6.56658 12.184 6.66779 12.2423C6.76899 12.3006 6.88373 12.3313 7.00053 12.3313C7.11732 12.3313 7.23207 12.3006 7.33327 12.2423C7.43447 12.184 7.51859 12.1001 7.57719 11.9991C7.71575 11.7602 8.02172 11.6789 8.26058 11.8175C8.49944 11.9561 8.58075 12.262 8.44219 12.5009C8.29569 12.7534 8.0854 12.9631 7.83238 13.1088C7.57937 13.2546 7.29251 13.3313 7.00053 13.3313C6.70855 13.3313 6.42169 13.2546 6.16867 13.1088C5.91566 12.9631 5.70537 12.7534 5.55886 12.5009C5.4203 12.262 5.50161 11.9561 5.74048 11.8175Z" fill="#41B6E6"/>
</g>
<defs>
<clipPath id="clip0_1740_44558">
<rect width="14" height="14" fill="white" transform="translate(0.00244141)"/>
</clipPath>
</defs>
</svg>
