<svg width="14" height="14" viewBox="0 0 14 14" fill="none" xmlns="http://www.w3.org/2000/svg">
<g clip-path="url(#clip0_1759_36223)">
<path fill-rule="evenodd" clip-rule="evenodd" d="M9.61931 1.557C9.16575 1.47403 8.69765 1.48125 8.24226 1.58123C7.53086 1.73741 6.88611 2.11215 6.39828 2.65298C5.91044 3.19382 5.60395 3.87367 5.5217 4.59735C5.43946 5.32104 5.58558 6.05232 5.93961 6.68883C6.05482 6.89597 6.00877 7.15553 5.82934 7.31039L1.78429 10.8016C1.60366 10.9883 1.50244 11.238 1.50244 11.4982C1.50244 11.7639 1.60799 12.0187 1.79586 12.2066C1.98374 12.3945 2.23855 12.5 2.50425 12.5C2.76444 12.5 3.01419 12.3988 3.20086 12.2182L6.69205 8.1731C6.84691 7.99367 7.10648 7.94762 7.31361 8.06283C7.95012 8.41686 8.68141 8.56298 9.40509 8.48074C10.1288 8.39849 10.8086 8.092 11.3495 7.60416C11.8903 7.11633 12.265 6.47158 12.4212 5.76018C12.5212 5.30479 12.5284 4.83669 12.4454 4.38313L10.4167 6.41672C10.2983 6.53539 10.1283 6.58684 9.96401 6.55374L8.19619 6.19768C7.9988 6.15792 7.84452 6.00364 7.80476 5.80625L7.4487 4.03844C7.4156 3.87411 7.46705 3.70413 7.58573 3.58574L9.61931 1.557ZM8.02782 0.604488C8.94297 0.403573 9.89803 0.493868 10.7593 0.862731C10.9119 0.9281 11.0222 1.06497 11.0535 1.22803C11.0848 1.39109 11.0331 1.55906 10.9156 1.67633L8.48201 4.10412L8.71945 5.28299L9.89832 5.52043L12.3261 3.08685C12.4434 2.9693 12.6114 2.91763 12.7744 2.94896C12.9375 2.98028 13.0743 3.0905 13.1397 3.24313C13.5086 4.10441 13.5989 5.05947 13.398 5.97462C13.197 6.88976 12.715 7.71917 12.0192 8.34672C11.3235 8.97427 10.449 9.36854 9.51801 9.47434C8.72378 9.5646 7.92243 9.44105 7.19575 9.12001L3.9447 12.8868C3.93671 12.8961 3.92838 12.905 3.91973 12.9137C3.54432 13.2891 3.03516 13.5 2.50425 13.5C1.97333 13.5 1.46417 13.2891 1.08876 12.9137C0.713345 12.5383 0.502441 12.0291 0.502441 11.4982C0.502441 10.9673 0.713345 10.4581 1.08876 10.0827C1.0974 10.0741 1.10636 10.0657 1.11562 10.0577L4.88243 6.80669C4.56139 6.08001 4.43784 5.27866 4.5281 4.48443C4.6339 3.55348 5.02817 2.67893 5.65572 1.9832C6.28327 1.28747 7.11268 0.805404 8.02782 0.604488Z" fill="#41B6E6"/>
</g>
<defs>
<clipPath id="clip0_1759_36223">
<rect width="14" height="14" fill="white" transform="translate(0.00244141)"/>
</clipPath>
</defs>
</svg>
