<svg width="14" height="14" viewBox="0 0 14 14" fill="none" xmlns="http://www.w3.org/2000/svg">
<g clip-path="url(#clip0_1740_44583)">
<g clip-path="url(#clip1_1740_44583)">
<path fill-rule="evenodd" clip-rule="evenodd" d="M7.0026 1.08334C6.82579 1.08334 6.65622 1.15357 6.5312 1.2786C6.40618 1.40362 6.33594 1.57319 6.33594 1.75V1.85116C6.3348 2.13638 6.25028 2.41505 6.0928 2.65285C5.93531 2.89065 5.71173 3.07721 5.44957 3.18957C5.40469 3.20881 5.35734 3.22132 5.30903 3.22681C5.06846 3.31269 4.80894 3.33428 4.55639 3.28848C4.26886 3.23635 4.00354 3.09927 3.79464 2.89493L3.7907 2.89108L3.75572 2.85606C3.6938 2.79407 3.62008 2.7447 3.53915 2.71115C3.45822 2.6776 3.37146 2.66033 3.28385 2.66033C3.19624 2.66033 3.10949 2.6776 3.02856 2.71115C2.94763 2.7447 2.8741 2.79387 2.81219 2.85586C2.7502 2.91777 2.70064 2.99169 2.66709 3.07263C2.63354 3.15356 2.61627 3.24031 2.61627 3.32792C2.61627 3.41553 2.63354 3.50228 2.66709 3.58321C2.70064 3.66414 2.74981 3.73767 2.81179 3.79959L2.85089 3.83868C3.05523 4.04758 3.19228 4.31292 3.24442 4.60045C3.29561 4.8828 3.2626 5.17385 3.14967 5.43739C3.04736 5.70656 2.86781 5.93966 2.6334 6.10732C2.39471 6.27804 2.11018 6.373 1.8168 6.37987L1.8051 6.38014L1.7526 6.38C1.57579 6.38 1.40622 6.45024 1.2812 6.57526C1.15618 6.70029 1.08594 6.86986 1.08594 7.04667C1.08594 7.22348 1.15618 7.39305 1.2812 7.51807C1.40622 7.6431 1.57579 7.71334 1.7526 7.71334H1.85377C2.13899 7.71447 2.41765 7.79899 2.65545 7.95648C2.89251 8.11347 3.07865 8.33614 3.19112 8.59724C3.30824 8.86394 3.34306 9.15956 3.29108 9.44622C3.23895 9.73375 3.10188 9.99907 2.89754 10.208L2.89368 10.2119L2.85866 10.2469C2.79667 10.3088 2.7473 10.3825 2.71375 10.4635C2.6802 10.5444 2.66294 10.6311 2.66294 10.7188C2.66294 10.8064 2.6802 10.8931 2.71375 10.974C2.7473 11.055 2.79648 11.1285 2.85846 11.1904C2.92038 11.2524 2.99429 11.302 3.07523 11.3355C3.15616 11.3691 3.24291 11.3863 3.33052 11.3863C3.41813 11.3863 3.50488 11.3691 3.58581 11.3355C3.66675 11.302 3.74027 11.2528 3.80219 11.1908L3.84128 11.1517C4.05018 10.9474 4.31552 10.8103 4.60306 10.7582C4.8854 10.707 5.17645 10.74 5.43999 10.8529C5.70916 10.9552 5.94226 11.1348 6.10992 11.3692C6.28064 11.6079 6.37561 11.8924 6.38247 12.1858L6.38274 12.1975L6.3826 12.25C6.3826 12.4268 6.45284 12.5964 6.57787 12.7214C6.70289 12.8464 6.87246 12.9167 7.04927 12.9167C7.22608 12.9167 7.39565 12.8464 7.52067 12.7214C7.6457 12.5964 7.71594 12.4268 7.71594 12.25V12.1508L7.71594 12.1488C7.71708 11.8636 7.80159 11.585 7.95908 11.3472C8.11607 11.1101 8.33875 10.924 8.59984 10.8115C8.86654 10.6944 9.16217 10.6595 9.44882 10.7115C9.73635 10.7637 10.0017 10.9007 10.2106 11.1051L10.2145 11.1089L10.2495 11.1439C10.3114 11.2059 10.3851 11.2553 10.4661 11.2889C10.547 11.3224 10.6337 11.3397 10.7214 11.3397C10.809 11.3397 10.8957 11.3224 10.9766 11.2889C11.0576 11.2553 11.1311 11.2061 11.193 11.1441C11.255 11.0822 11.3046 11.0083 11.3381 10.9274C11.3717 10.8464 11.3889 10.7597 11.3889 10.6721C11.3889 10.5845 11.3717 10.4977 11.3381 10.4168C11.3046 10.3359 11.2554 10.2623 11.1934 10.2004L11.1543 10.1613C10.95 9.95243 10.8129 9.68708 10.7608 9.39955C10.7088 9.11291 10.7436 8.81731 10.8607 8.55062C10.9732 8.2895 11.1594 8.06681 11.3964 7.90981C11.6342 7.75232 11.9129 7.66781 12.1981 7.66667L12.2001 7.66667L12.2526 7.66667C12.4294 7.66667 12.599 7.59643 12.724 7.47141C12.849 7.34638 12.9193 7.17681 12.9193 7C12.9193 6.82319 12.849 6.65362 12.724 6.5286C12.599 6.40357 12.4294 6.33334 12.2526 6.33334H12.1534L12.1514 6.33333C11.8662 6.33219 11.5876 6.24768 11.3498 6.0902C11.112 5.93271 10.9254 5.70913 10.813 5.44697C10.7938 5.40209 10.7813 5.35474 10.7758 5.30643C10.6899 5.06586 10.6683 4.80634 10.7141 4.55379C10.7663 4.26626 10.9033 4.00093 11.1077 3.79204L11.1115 3.7881L11.1465 3.75312C11.2085 3.6912 11.2579 3.61748 11.2915 3.53655C11.325 3.45561 11.3423 3.36886 11.3423 3.28125C11.3423 3.19364 11.325 3.10689 11.2915 3.02596C11.2579 2.94503 11.2087 2.8715 11.1467 2.80959C11.0848 2.7476 11.0109 2.69804 10.93 2.66449C10.849 2.63094 10.7623 2.61367 10.6747 2.61367C10.5871 2.61367 10.5003 2.63094 10.4194 2.66449C10.3385 2.69804 10.2649 2.74721 10.203 2.80919L10.1639 2.84829C9.95503 3.05263 9.68968 3.18968 9.40215 3.24182C9.1155 3.29379 8.81987 3.25897 8.55316 3.14184C8.29207 3.02937 8.0694 2.84324 7.91241 2.60618C7.75493 2.36838 7.67041 2.08972 7.66927 1.8045L7.66927 1.8025V1.75C7.66927 1.57319 7.59903 1.40362 7.47401 1.2786C7.34898 1.15357 7.17941 1.08334 7.0026 1.08334ZM5.82409 0.571491C6.13665 0.258931 6.56058 0.0833359 7.0026 0.0833359C7.44463 0.0833359 7.86855 0.258931 8.18111 0.571491C8.49368 0.884052 8.66927 1.30797 8.66927 1.75V1.8013C8.66978 1.89122 8.6965 1.97905 8.74616 2.05403C8.79596 2.12924 8.86666 2.18823 8.94957 2.22377L8.9545 2.22588C9.03904 2.26319 9.13281 2.27435 9.22374 2.25786C9.31393 2.24151 9.39721 2.19873 9.46302 2.13498L9.49552 2.10248C9.65031 1.94752 9.83412 1.82459 10.0365 1.74071C10.2388 1.65684 10.4557 1.61367 10.6747 1.61367C10.8937 1.61367 11.1106 1.65684 11.3129 1.74071C11.5153 1.82459 11.6991 1.94752 11.8539 2.10248C12.0086 2.25718 12.1314 2.44086 12.2152 2.64302C12.2991 2.84535 12.3423 3.06223 12.3423 3.28125C12.3423 3.50028 12.2991 3.71716 12.2152 3.91949C12.1314 4.12173 12.0085 4.30547 11.8537 4.46022C11.8536 4.46029 11.8537 4.46016 11.8537 4.46022L11.821 4.49292C11.7572 4.55873 11.7144 4.64201 11.6981 4.7322C11.6816 4.82313 11.6927 4.91691 11.73 5.00145C11.7462 5.03807 11.7579 5.0764 11.7648 5.1156C11.7998 5.1716 11.8464 5.21971 11.9019 5.25645C11.9769 5.30611 12.0647 5.33282 12.1546 5.33334H12.2526C12.6946 5.33334 13.1186 5.50893 13.4311 5.82149C13.7437 6.13405 13.9193 6.55797 13.9193 7C13.9193 7.44203 13.7437 7.86595 13.4311 8.17851C13.1186 8.49107 12.6946 8.66667 12.2526 8.66667H12.2013C12.1114 8.66718 12.0236 8.6939 11.9486 8.74355C11.8734 8.79336 11.8144 8.86406 11.7788 8.94697L11.7767 8.9519C11.7394 9.03644 11.7283 9.13021 11.7447 9.22114C11.7611 9.31131 11.8039 9.39458 11.8676 9.46039L11.9001 9.49292C11.9001 9.49285 11.9002 9.49298 11.9001 9.49292C12.055 9.64767 12.1781 9.83161 12.2619 10.0339C12.3458 10.2362 12.3889 10.4531 12.3889 10.6721C12.3889 10.8911 12.3458 11.108 12.2619 11.3103C12.1781 11.5126 12.0552 11.6963 11.9003 11.8511C11.7456 12.0059 11.5618 12.1288 11.3596 12.2126C11.1573 12.2965 10.9404 12.3397 10.7214 12.3397C10.5023 12.3397 10.2854 12.2965 10.0831 12.2126C9.88088 12.1288 9.69713 12.0059 9.54238 11.8511C9.54232 11.851 9.54245 11.8511 9.54238 11.8511L9.50966 11.8183C9.44385 11.7546 9.36059 11.7118 9.27041 11.6955C9.17948 11.679 9.0857 11.6901 9.00115 11.7274L8.99625 11.7296C8.91334 11.7651 8.84263 11.8241 8.79282 11.8993C8.74316 11.9743 8.71645 12.0621 8.71594 12.152V12.25C8.71594 12.692 8.54034 13.116 8.22778 13.4285C7.91522 13.7411 7.4913 13.9167 7.04927 13.9167C6.60724 13.9167 6.18332 13.7411 5.87076 13.4285C5.5582 13.116 5.3826 12.692 5.3826 12.25V12.2044C5.37953 12.1133 5.34961 12.0251 5.29655 11.951C5.24256 11.8755 5.16711 11.818 5.08001 11.7859C5.07013 11.7823 5.06036 11.7784 5.05072 11.7741C4.96618 11.7368 4.87239 11.7257 4.78147 11.7421C4.69128 11.7585 4.608 11.8013 4.54219 11.865L4.50969 11.8975C4.50962 11.8976 4.50975 11.8975 4.50969 11.8975C4.35494 12.0524 4.171 12.1755 3.96875 12.2593C3.76642 12.3432 3.54955 12.3863 3.33052 12.3863C3.1115 12.3863 2.89462 12.3432 2.69229 12.2593C2.49013 12.1755 2.30645 12.0527 2.15175 11.8979C1.99679 11.7431 1.87385 11.5593 1.78998 11.357C1.70611 11.1547 1.66294 10.9378 1.66294 10.7188C1.66294 10.4997 1.70611 10.2828 1.78998 10.0805C1.87385 9.87819 1.99679 9.69437 2.15175 9.53959L2.18425 9.50708C2.248 9.44127 2.29078 9.358 2.30713 9.26781C2.32362 9.17688 2.31249 9.0831 2.27517 8.99855L2.27301 8.99365C2.23748 8.91074 2.1785 8.84002 2.1033 8.79022C2.02832 8.74056 1.94049 8.71385 1.85056 8.71334H1.7526C1.31058 8.71334 0.886653 8.53774 0.574093 8.22518C0.261532 7.91262 0.0859375 7.4887 0.0859375 7.04667C0.0859375 6.60464 0.261532 6.18072 0.574093 5.86816C0.886654 5.5556 1.31058 5.38 1.7526 5.38H1.7982C1.88928 5.37693 1.97747 5.34701 2.05165 5.29395C2.12714 5.23996 2.18464 5.16451 2.21667 5.07741C2.22031 5.06753 2.22425 5.05776 2.22851 5.04812C2.26582 4.96358 2.27695 4.86979 2.26046 4.77886C2.24411 4.68868 2.20133 4.6054 2.13758 4.53959L2.10508 4.50709C2.10501 4.50702 2.10515 4.50715 2.10508 4.50709C1.95021 4.35234 1.82715 4.1684 1.74331 3.96615C1.65944 3.76382 1.61627 3.54694 1.61627 3.32792C1.61627 3.10889 1.65944 2.89202 1.74331 2.68969C1.82715 2.48744 1.95002 2.3037 2.10488 2.14895C2.25963 1.99408 2.44338 1.87122 2.64562 1.78738C2.84795 1.70351 3.06483 1.66033 3.28385 1.66033C3.50288 1.66033 3.71976 1.70351 3.92209 1.78738C4.12433 1.87122 4.30808 1.99408 4.46282 2.14895L4.49552 2.18165C4.56133 2.2454 4.64461 2.28817 4.7348 2.30453C4.82573 2.32101 4.91951 2.30988 5.00405 2.27257C5.04067 2.25641 5.079 2.24475 5.1182 2.23776C5.1742 2.20284 5.22231 2.15618 5.25905 2.1007C5.30871 2.02572 5.33543 1.93789 5.33594 1.84796V1.75C5.33594 1.30798 5.51153 0.884052 5.82409 0.571491ZM7.0026 5.75C6.31225 5.75 5.7526 6.30965 5.7526 7C5.7526 7.69036 6.31225 8.25 7.0026 8.25C7.69296 8.25 8.2526 7.69036 8.2526 7C8.2526 6.30965 7.69296 5.75 7.0026 5.75ZM4.7526 7C4.7526 5.75736 5.75996 4.75 7.0026 4.75C8.24524 4.75 9.2526 5.75736 9.2526 7C9.2526 8.24264 8.24524 9.25 7.0026 9.25C5.75996 9.25 4.7526 8.24264 4.7526 7Z" fill="#41B6E6"/>
</g>
</g>
<defs>
<clipPath id="clip0_1740_44583">
<rect width="14" height="14" fill="white" transform="translate(0.00244141)"/>
</clipPath>
<clipPath id="clip1_1740_44583">
<rect width="14" height="14" fill="white" transform="translate(0.00244141)"/>
</clipPath>
</defs>
</svg>
