<svg width="14" height="14" viewBox="0 0 14 14" fill="none" xmlns="http://www.w3.org/2000/svg">
<g clip-path="url(#clip0_1740_44506)">
<path fill-rule="evenodd" clip-rule="evenodd" d="M7.0001 0.952499C7.19041 0.952499 7.36421 1.06054 7.44845 1.23119L9.13473 4.6474L12.9057 5.19859C13.094 5.22611 13.2504 5.35811 13.3091 5.53912C13.3677 5.72012 13.3186 5.91875 13.1823 6.05151L10.454 8.70885L11.0979 12.463C11.1301 12.6506 11.053 12.8402 10.899 12.952C10.745 13.0639 10.5408 13.0786 10.3724 12.99L7.0001 11.2166L3.62782 12.99C3.45936 13.0786 3.25522 13.0639 3.10123 12.952C2.94724 12.8402 2.87012 12.6506 2.90229 12.463L3.54617 8.70885L0.817896 6.05151C0.681587 5.91875 0.632451 5.72012 0.69114 5.53912C0.749828 5.35811 0.906168 5.22611 1.09445 5.19859L4.86547 4.6474L6.55174 1.23119C6.63598 1.06054 6.80979 0.952499 7.0001 0.952499ZM7.0001 2.58213L5.64595 5.32548C5.57318 5.4729 5.43259 5.57513 5.26991 5.59891L2.24097 6.04163L4.4323 8.17599C4.55023 8.29086 4.60406 8.45642 4.57623 8.61869L4.05919 11.6333L6.76737 10.2091C6.91306 10.1325 7.08713 10.1325 7.23282 10.2091L9.94101 11.6333L9.42396 8.61869C9.39613 8.45642 9.44996 8.29086 9.5679 8.17599L11.7592 6.04163L8.73028 5.59891C8.56761 5.57513 8.42701 5.4729 8.35424 5.32548L7.0001 2.58213Z" fill="#41B6E6"/>
</g>
<defs>
<clipPath id="clip0_1740_44506">
<rect width="14" height="14" fill="white"/>
</clipPath>
</defs>
</svg>
