<svg width="14" height="14" viewBox="0 0 14 14" fill="none" xmlns="http://www.w3.org/2000/svg">
<g clip-path="url(#clip0_1760_12391)">
<path fill-rule="evenodd" clip-rule="evenodd" d="M8.64889 2.64645C8.45363 2.84171 8.45363 3.15829 8.64889 3.35355L12.2953 7L8.64889 10.6464C8.45363 10.8417 8.45363 11.1583 8.64889 11.3536C8.84415 11.5488 9.16073 11.5488 9.356 11.3536L13.356 7.35355C13.5513 7.15829 13.5513 6.84171 13.356 6.64645L9.35599 2.64645C9.16073 2.45118 8.84415 2.45118 8.64889 2.64645Z" fill="#41B6E6"/>
<path fill-rule="evenodd" clip-rule="evenodd" d="M5.35599 2.64645C5.55126 2.84171 5.55126 3.15829 5.35599 3.35355L1.70955 7L5.35599 10.6464C5.55126 10.8417 5.55126 11.1583 5.35599 11.3536C5.16073 11.5488 4.84415 11.5488 4.64889 11.3536L0.648888 7.35355C0.453626 7.15829 0.453626 6.84171 0.648888 6.64645L4.64889 2.64645C4.84415 2.45118 5.16073 2.45118 5.35599 2.64645Z" fill="#41B6E6"/>
</g>
<defs>
<clipPath id="clip0_1760_12391">
<rect width="14" height="14" fill="white" transform="translate(0.00244141)"/>
</clipPath>
</defs>
</svg>
