<svg width="14" height="14" viewBox="0 0 14 14" fill="none" xmlns="http://www.w3.org/2000/svg">
<g clip-path="url(#clip0_1740_44536)">
<path fill-rule="evenodd" clip-rule="evenodd" d="M4.6264 5.862C4.42236 5.81125 4.21289 5.78563 4.00263 5.78571L4.00244 5.78571C3.3394 5.78571 2.70352 6.04911 2.23467 6.51795C1.76583 6.98679 1.50244 7.62267 1.50244 8.28571C1.50244 8.94875 1.76583 9.58464 2.23467 10.0535C2.70352 10.5223 3.3394 10.7857 4.00244 10.7857H5.28816C5.5643 10.7857 5.78816 11.0096 5.78816 11.2857C5.78816 11.5619 5.5643 11.7857 5.28816 11.7857H4.00244C3.07418 11.7857 2.18394 11.417 1.52757 10.7606C0.87119 10.1042 0.502441 9.21397 0.502441 8.28571C0.502441 7.35746 0.87119 6.46722 1.52757 5.81084C2.1839 5.15451 3.07406 4.78576 4.00225 4.78571M4.00244 4.78571C4.29412 4.78562 4.58471 4.82117 4.86777 4.89157C5.13574 4.95822 5.29895 5.22949 5.2323 5.49747C5.16565 5.76544 4.89438 5.92865 4.6264 5.862" fill="#41B6E6"/>
<path fill-rule="evenodd" clip-rule="evenodd" d="M9.91377 3.40856C9.3447 3.21887 8.7387 3.16712 8.1457 3.25758C7.55271 3.34805 6.9897 3.57813 6.50308 3.92887C6.01645 4.27961 5.62014 4.74097 5.34679 5.27492C5.07345 5.80888 4.93091 6.40015 4.93091 7C4.93091 7.27614 4.70705 7.5 4.43091 7.5C4.15477 7.5 3.93091 7.27614 3.93091 7C3.93091 6.2417 4.11111 5.49424 4.45665 4.81924C4.8022 4.14424 5.3032 3.56102 5.91837 3.11763C6.53354 2.67424 7.24526 2.38338 7.9949 2.26902C8.74453 2.15466 9.51061 2.22008 10.23 2.45987C10.9494 2.69967 11.6015 3.10699 12.1326 3.64825C12.6637 4.18952 13.0585 4.84924 13.2847 5.57306C13.5108 6.29687 13.5616 7.06405 13.4331 7.81138C13.3045 8.55871 13.0002 9.26479 12.5452 9.87143C12.3795 10.0923 12.0661 10.1371 11.8452 9.97143C11.6243 9.80575 11.5795 9.49234 11.7452 9.27143C12.1051 8.79155 12.3458 8.23301 12.4475 7.64184C12.5492 7.05067 12.509 6.44379 12.3301 5.87122C12.1513 5.29866 11.8389 4.77679 11.4188 4.34862C10.9987 3.92045 10.4828 3.59825 9.91377 3.40856Z" fill="#41B6E6"/>
<path fill-rule="evenodd" clip-rule="evenodd" d="M7.93469 6.64645C8.12995 6.45118 8.44653 6.45118 8.64179 6.64645L10.4579 8.46252C10.6531 8.65778 10.6531 8.97436 10.4579 9.16962C10.2626 9.36489 9.94602 9.36489 9.75076 9.16962L8.28824 7.70711L6.82572 9.16962C6.63046 9.36489 6.31388 9.36489 6.11861 9.16962C5.92335 8.97436 5.92335 8.65778 6.11861 8.46252L7.93469 6.64645Z" fill="#41B6E6"/>
<path fill-rule="evenodd" clip-rule="evenodd" d="M8.28809 6.5C8.56423 6.5 8.78809 6.72386 8.78809 7V11.2857C8.78809 11.5619 8.56423 11.7857 8.28809 11.7857C8.01194 11.7857 7.78809 11.5619 7.78809 11.2857V7C7.78809 6.72386 8.01194 6.5 8.28809 6.5Z" fill="#41B6E6"/>
</g>
<defs>
<clipPath id="clip0_1740_44536">
<rect width="14" height="14" fill="white" transform="translate(0.00244141)"/>
</clipPath>
</defs>
</svg>
