<svg width="14" height="14" viewBox="0 0 14 14" fill="none" xmlns="http://www.w3.org/2000/svg">
<g clip-path="url(#clip0_1740_44526)">
<path fill-rule="evenodd" clip-rule="evenodd" d="M7.00244 1.5C3.96488 1.5 1.50244 3.96243 1.50244 7C1.50244 10.0376 3.96488 12.5 7.00244 12.5C10.04 12.5 12.5024 10.0376 12.5024 7C12.5024 3.96243 10.04 1.5 7.00244 1.5ZM0.502441 7C0.502441 3.41015 3.41259 0.5 7.00244 0.5C10.5923 0.5 13.5024 3.41015 13.5024 7C13.5024 10.5899 10.5923 13.5 7.00244 13.5C3.41259 13.5 0.502441 10.5899 0.502441 7Z" fill="#41B6E6"/>
<path fill-rule="evenodd" clip-rule="evenodd" d="M0.846191 5C0.846191 4.72386 1.07005 4.5 1.34619 4.5H12.6587C12.9348 4.5 13.1587 4.72386 13.1587 5C13.1587 5.27614 12.9348 5.5 12.6587 5.5H1.34619C1.07005 5.5 0.846191 5.27614 0.846191 5Z" fill="#41B6E6"/>
<path fill-rule="evenodd" clip-rule="evenodd" d="M0.846191 9C0.846191 8.72386 1.07005 8.5 1.34619 8.5H12.6587C12.9348 8.5 13.1587 8.72386 13.1587 9C13.1587 9.27614 12.9348 9.5 12.6587 9.5H1.34619C1.07005 9.5 0.846191 9.27614 0.846191 9Z" fill="#41B6E6"/>
<path fill-rule="evenodd" clip-rule="evenodd" d="M5.6943 3.0691C5.27437 4.04963 5.00244 5.43907 5.00244 7C5.00244 8.56093 5.27437 9.95037 5.6943 10.9309C5.90464 11.4221 6.14227 11.7876 6.38067 12.023C6.61693 12.2563 6.82647 12.3375 7.00244 12.3375C7.17841 12.3375 7.38795 12.2563 7.62421 12.023C7.86261 11.7876 8.10024 11.4221 8.31059 10.9309C8.73051 9.95037 9.00244 8.56093 9.00244 7C9.00244 5.43907 8.73051 4.04963 8.31059 3.0691C8.10024 2.57794 7.86261 2.21243 7.62421 1.97699C7.38795 1.74365 7.17841 1.6625 7.00244 1.6625C6.82647 1.6625 6.61693 1.74365 6.38067 1.97699C6.14227 2.21243 5.90464 2.57794 5.6943 3.0691ZM5.67798 1.26549C6.03992 0.908037 6.48805 0.662498 7.00244 0.662498C7.51683 0.662498 7.96497 0.908037 8.3269 1.26549C8.68669 1.62083 8.98777 2.1102 9.22983 2.67542C9.71473 3.80765 10.0024 5.33697 10.0024 7C10.0024 8.66303 9.71473 10.1923 9.22983 11.3246C8.98777 11.8898 8.68669 12.3792 8.3269 12.7345C7.96497 13.092 7.51683 13.3375 7.00244 13.3375C6.48805 13.3375 6.03992 13.092 5.67798 12.7345C5.31819 12.3792 5.01712 11.8898 4.77505 11.3246C4.29016 10.1923 4.00244 8.66303 4.00244 7C4.00244 5.33697 4.29016 3.80765 4.77505 2.67542C5.01712 2.1102 5.31819 1.62083 5.67798 1.26549Z" fill="#41B6E6"/>
</g>
<defs>
<clipPath id="clip0_1740_44526">
<rect width="14" height="14" fill="white" transform="translate(0.00244141)"/>
</clipPath>
</defs>
</svg>
